<svg xmlns="http://www.w3.org/2000/svg" viewBox="0 0 1240.5 347"><path d="M618.0626,346.18l-81.641.0309,4.8678-33.08L403.2277,228.5919l62.6439-48.3893,46.1761,33.618a21.8889,21.8889,0,0,0,9.0011,17.5859c5.8241,3.983,13.4006,3.6784,17.532,3.3719,1.7563-.1292,2.8918-.2584,3-.0579,1.3765,2.56,1.2994,14.6691,14.5457,18.7a21.8959,21.8959,0,0,0,8.23,1.12,18.225,18.225,0,0,0,6.2655-1.9278,21.1659,21.1659,0,0,0,12.0568,15.8084c4.4438,1.6406,10.4876,1.8064,18.6849-1.0526l-3.75,2.36,21.8233,28.3222,19.0858-28.3222-3.7593-2.3539c8.2011,2.859,14.2411,2.699,18.6848,1.0526a21.1621,21.1621,0,0,0,12.0569-15.8084,18.2244,18.2244,0,0,0,6.2655,1.9278,21.8931,21.8931,0,0,0,8.23-1.12c13.25-4.0253,13.1692-16.1381,14.5477-18.7.106-.1928,1.24-.0713,3,.0578,4.13.3046,11.7079.6092,17.532-3.3718a21.8848,21.8848,0,0,0,9.0011-17.5859l45.6556-32.2743,63.1741,46.7718L694.8357,313.1266l4.8679,33.08Z" fill="#bc9b82"/><path d="M704.5379,275.3773a7.377,7.377,0,1,0,7.3762,7.376A7.3769,7.3769,0,0,0,704.5379,275.3773Z" fill="#d7c6ba"/><path d="M704.5379,254.0923a7.377,7.377,0,1,0,7.3762,7.376A7.3768,7.3768,0,0,0,704.5379,254.0923Z" fill="#d7c6ba"/><path d="M704.5379,296.7644a7.3714,7.3714,0,0,0-4.5295,13.1923l11.767-7.2279A7.3767,7.3767,0,0,0,704.5379,296.7644Z" fill="#d7c6ba"/><path d="M697.1951,346.21l2.5128.0008-.6253-4.2535A7.3394,7.3394,0,0,0,697.1951,346.21Z" fill="#d7c6ba"/><path d="M680.5341,275.3773a7.377,7.377,0,1,0,7.3762,7.376A7.3769,7.3769,0,0,0,680.5341,275.3773Z" fill="#d7c6ba"/><path d="M680.5341,296.7644a7.377,7.377,0,1,0,7.3762,7.3761A7.3771,7.3771,0,0,0,680.5341,296.7644Z" fill="#d7c6ba"/><path d="M680.5341,318.1486a7.377,7.377,0,1,0,7.3762,7.376A7.3769,7.3769,0,0,0,680.5341,318.1486Z" fill="#d7c6ba"/><path d="M680.5341,339.5347a7.3765,7.3765,0,0,0-7.3423,6.6663l14.6829.0054A7.3761,7.3761,0,0,0,680.5341,339.5347Z" fill="#d7c6ba"/><path d="M658.1722,275.3773a7.377,7.377,0,1,0,7.3764,7.376A7.3769,7.3769,0,0,0,658.1722,275.3773Z" fill="#d7c6ba"/><path d="M658.1722,296.7644a7.377,7.377,0,1,0,7.3764,7.3761A7.3771,7.3771,0,0,0,658.1722,296.7644Z" fill="#d7c6ba"/><path d="M658.1722,318.1486a7.377,7.377,0,1,0,7.3764,7.376A7.3769,7.3769,0,0,0,658.1722,318.1486Z" fill="#d7c6ba"/><path d="M658.1722,339.5347a7.3767,7.3767,0,0,0-7.3418,6.658l14.682.0054A7.3766,7.3766,0,0,0,658.1722,339.5347Z" fill="#d7c6ba"/><path d="M635.8106,296.7644a7.377,7.377,0,1,0,7.3762,7.3761A7.3774,7.3774,0,0,0,635.8106,296.7644Z" fill="#d7c6ba"/><path d="M635.8106,276.0973a7.3787,7.3787,0,0,0-1.71.207l-5.5765,8.2777a7.3734,7.3734,0,1,0,7.2864-8.4847Z" fill="#d7c6ba"/><path d="M635.8106,318.1486a7.377,7.377,0,1,0,7.3762,7.376A7.3772,7.3772,0,0,0,635.8106,318.1486Z" fill="#d7c6ba"/><path d="M635.8145,339.5347a7.3769,7.3769,0,0,0-7.3433,6.65l14.6809.0054A7.3767,7.3767,0,0,0,635.8145,339.5347Z" fill="#d7c6ba"/><path d="M613.4487,296.7644a7.377,7.377,0,1,0,7.3762,7.3761A7.3771,7.3771,0,0,0,613.4487,296.7644Z" fill="#d7c6ba"/><path d="M613.4487,318.1486a7.377,7.377,0,1,0,7.3762,7.376A7.3769,7.3769,0,0,0,613.4487,318.1486Z" fill="#d7c6ba"/><path d="M613.4487,339.5347a7.3772,7.3772,0,0,0-7.3416,6.6505l11.9609-.0044,2.72.001A7.3771,7.3771,0,0,0,613.4487,339.5347Z" fill="#d7c6ba"/><path d="M591.0879,275.3773a7.377,7.377,0,1,0,7.3762,7.376A7.3771,7.3771,0,0,0,591.0879,275.3773Z" fill="#d7c6ba"/><path d="M591.0879,296.7644a7.377,7.377,0,1,0,7.3762,7.3761A7.3772,7.3772,0,0,0,591.0879,296.7644Z" fill="#d7c6ba"/><path d="M591.0879,318.1486a7.377,7.377,0,1,0,7.3762,7.376A7.3771,7.3771,0,0,0,591.0879,318.1486Z" fill="#d7c6ba"/><path d="M591.0879,339.5347a7.3767,7.3767,0,0,0-7.3419,6.6585l14.6815-.0053A7.3768,7.3768,0,0,0,591.0879,339.5347Z" fill="#d7c6ba"/><path d="M568.7261,275.3773a7.377,7.377,0,1,0,7.3763,7.376A7.3771,7.3771,0,0,0,568.7261,275.3773Z" fill="#d7c6ba"/><path d="M568.7261,296.7644a7.377,7.377,0,1,0,7.3763,7.3761A7.3773,7.3773,0,0,0,568.7261,296.7644Z" fill="#d7c6ba"/><path d="M568.7261,318.1486a7.377,7.377,0,1,0,7.3763,7.376A7.3771,7.3771,0,0,0,568.7261,318.1486Z" fill="#d7c6ba"/><path d="M568.7261,339.5347a7.3765,7.3765,0,0,0-7.3423,6.6668l14.6824-.0053A7.3767,7.3767,0,0,0,568.7261,339.5347Z" fill="#d7c6ba"/><path d="M546.3642,275.3773a7.377,7.377,0,1,0,7.3763,7.376A7.3768,7.3768,0,0,0,546.3642,275.3773Z" fill="#d7c6ba"/><path d="M546.3642,296.7644a7.377,7.377,0,1,0,7.3763,7.3761A7.377,7.377,0,0,0,546.3642,296.7644Z" fill="#d7c6ba"/><path d="M568.7241,268.8463a7.3766,7.3766,0,0,0,7.087-5.3414,22.45,22.45,0,0,1-4.7963-9.0459,7.376,7.376,0,1,0-2.2907,14.3873Z" fill="#d7c6ba"/><path d="M546.3642,254.0923a7.377,7.377,0,1,0,7.3763,7.376A7.3767,7.3767,0,0,0,546.3642,254.0923Z" fill="#d7c6ba"/><path d="M680.5341,254.0923a7.377,7.377,0,1,0,7.3762,7.376A7.3768,7.3768,0,0,0,680.5341,254.0923Z" fill="#d7c6ba"/><path d="M546.3642,318.1486a7.3655,7.3655,0,0,0-6.3381,3.6143l-.8154,5.54a7.374,7.374,0,1,0,7.1535-9.1546Z" fill="#d7c6ba"/><path d="M546.3642,339.5347a7.3762,7.3762,0,0,0-7.3427,6.6749l14.6833-.0054A7.3764,7.3764,0,0,0,546.3642,339.5347Z" fill="#d7c6ba"/><path d="M522.3605,275.3763a7.377,7.377,0,1,0,7.3762,7.3761A7.3772,7.3772,0,0,0,522.3605,275.3763Z" fill="#d7c6ba"/><path d="M522.3605,296.7634a7.3413,7.3413,0,0,0-4.8349,1.813l11.9866,7.34a7.35,7.35,0,0,0-7.1517-9.1529Z" fill="#d7c6ba"/><path d="M499.9947,275.3763a7.3771,7.3771,0,0,0-7.3783,7.3761c0,.1989.0142.394.03.5891l10.1693,6.2271a7.3765,7.3765,0,0,0-2.8206-14.1923Z" fill="#d7c6ba"/><path d="M499.9947,254.091a7.3772,7.3772,0,1,0,7.3762,7.3763A7.3775,7.3775,0,0,0,499.9947,254.091Z" fill="#d7c6ba"/><path d="M477.6378,254.091a7.3772,7.3772,0,1,0,7.3764,7.3763A7.3775,7.3775,0,0,0,477.6378,254.091Z" fill="#d7c6ba"/><path d="M455.276,254.091a7.3585,7.3585,0,0,0-5.7939,2.8189l12.4861,7.6458a7.3649,7.3649,0,0,0-6.6922-10.4647Z" fill="#d7c6ba"/><path d="M522.3605,254.091a7.3772,7.3772,0,1,0,7.3762,7.3763A7.3776,7.3776,0,0,0,522.3605,254.091Z" fill="#d7c6ba"/><path d="M546.3623,247.455h.0029c.1629,0,.3222-.0139.4825-.0244-4.0637-4.9874-4.34-10.9891-5.2624-12.7047-.0222-.0408-.097-.0649-.2-.0813a7.3692,7.3692,0,0,0,4.9767,12.81Z" fill="#d7c6ba"/><path d="M526.3047,233.8519a20.1154,20.1154,0,0,1-2.8-1.0532,7.3732,7.3732,0,1,0-1.1464,14.6563h.003a7.3722,7.3722,0,0,0,3.9433-13.6031Z" fill="#d7c6ba"/><path d="M499.9947,232.701a7.377,7.377,0,1,0-.0021,14.754h.003a7.377,7.377,0,0,0-.0009-14.754Z" fill="#d7c6ba"/><path d="M432.9142,232.701a7.3617,7.3617,0,0,0-6.9627,9.8l7.9661,4.8779a7.373,7.373,0,0,0-1.0034-14.6778Z" fill="#d7c6ba"/><path d="M410.5525,232.701c-.1885,0-.3735.0142-.5586.0281l7.3677,4.5115A7.3783,7.3783,0,0,0,410.5525,232.701Z" fill="#d7c6ba"/><path d="M477.6378,232.701a7.377,7.377,0,1,0-.002,14.754h.0031a7.377,7.377,0,0,0-.0011-14.754Z" fill="#d7c6ba"/><path d="M455.276,232.701a7.377,7.377,0,1,0-.0019,14.754h.0029a7.377,7.377,0,0,0-.001-14.754Z" fill="#d7c6ba"/><path d="M499.9947,211.4108a7.377,7.377,0,1,0,7.3762,7.376A7.3772,7.3772,0,0,0,499.9947,211.4108Z" fill="#d7c6ba"/><path d="M432.9142,211.4108a7.377,7.377,0,1,0,7.3763,7.376A7.377,7.377,0,0,0,432.9142,211.4108Z" fill="#d7c6ba"/><path d="M477.6378,211.4108a7.377,7.377,0,1,0,7.3764,7.376A7.3772,7.3772,0,0,0,477.6378,211.4108Z" fill="#d7c6ba"/><path d="M455.276,211.4108a7.377,7.377,0,1,0,7.3763,7.376A7.3771,7.3771,0,0,0,455.276,211.4108Z" fill="#d7c6ba"/><path d="M407.338,225.42a7.3692,7.3692,0,0,0,10.4484-8.0694Z" fill="#d7c6ba"/><path d="M498.1,203.6681l-4.3073-3.1358A7.3789,7.3789,0,0,0,498.1,203.6681Z" fill="#d7c6ba"/><path d="M478.2242,189.1983c-.1915-.0149-.3832-.0293-.5785-.03a7.377,7.377,0,1,0-.01,14.754l.0041.0022a7.3763,7.3763,0,0,0,6.8225-10.1851Z" fill="#d7c6ba"/><path d="M455.276,189.1687a7.3992,7.3992,0,0,0-1.12.0938l-5.6581,4.37a7.3771,7.3771,0,1,0,6.7783-4.4637Z" fill="#d7c6ba"/><path d="M741.8822,282.7524a7.4015,7.4015,0,0,0,.1365,1.4l11.7582-7.2222a7.369,7.369,0,0,0-11.8947,5.8226Z" fill="#d7c6ba"/><path d="M726.8988,275.3763a7.377,7.377,0,1,0,7.3762,7.3761A7.3771,7.3771,0,0,0,726.8988,275.3763Z" fill="#d7c6ba"/><path d="M749.26,254.091a7.3772,7.3772,0,1,0,7.3764,7.3763A7.3774,7.3774,0,0,0,749.26,254.091Z" fill="#d7c6ba"/><path d="M771.6223,254.091a7.3737,7.3737,0,0,0-3.3588,13.94l10.7336-6.5928A7.3765,7.3765,0,0,0,771.6223,254.091Z" fill="#d7c6ba"/><path d="M726.8988,254.091a7.3772,7.3772,0,1,0,7.3762,7.3763A7.3775,7.3775,0,0,0,726.8988,254.091Z" fill="#d7c6ba"/><path d="M816.3459,232.701a7.3632,7.3632,0,0,0-6.8812,10.0228l12.3486-7.585A7.3489,7.3489,0,0,0,816.3459,232.701Z" fill="#d7c6ba"/><path d="M749.26,232.701a7.377,7.377,0,1,0-.0019,14.754h.003a7.377,7.377,0,0,0-.0011-14.754Z" fill="#d7c6ba"/><path d="M726.8988,232.701a7.377,7.377,0,1,0-.0021,14.754H726.9a7.377,7.377,0,0,0-.001-14.754Z" fill="#d7c6ba"/><path d="M793.9842,232.701a7.377,7.377,0,1,0-.002,14.754h.003a7.377,7.377,0,0,0-.001-14.754Z" fill="#d7c6ba"/><path d="M771.6223,232.701a7.377,7.377,0,1,0-.002,14.754h.003a7.377,7.377,0,0,0-.001-14.754Z" fill="#d7c6ba"/><path d="M816.3439,226.1648a7.3747,7.3747,0,0,0,6.9636-4.9575L812,212.8356a7.3707,7.3707,0,0,0,4.3443,13.3292Z" fill="#d7c6ba"/><path d="M749.26,211.4108a7.377,7.377,0,1,0,7.3764,7.376A7.3771,7.3771,0,0,0,749.26,211.4108Z" fill="#d7c6ba"/><path d="M793.9842,211.4108a7.377,7.377,0,1,0,7.3762,7.376A7.3772,7.3772,0,0,0,793.9842,211.4108Z" fill="#d7c6ba"/><path d="M771.6223,211.4108a7.377,7.377,0,1,0,7.3762,7.376A7.377,7.377,0,0,0,771.6223,211.4108Z" fill="#d7c6ba"/><path d="M708.8694,234.1163a33.4182,33.4182,0,0,1-9.576.7751,7.3751,7.3751,0,0,0,5.2425,12.5636h.0029a7.3709,7.3709,0,0,0,4.3306-13.3387Z" fill="#d7c6ba"/><path d="M727.4645,211.4394l-3.3767,2.3874a19.8759,19.8759,0,0,1-2.5527,10.0167,7.3722,7.3722,0,1,0,5.9294-12.4041Z" fill="#d7c6ba"/><path d="M743.0082,200.45a7.3718,7.3718,0,1,0,12.0183-8.4971Z" fill="#d7c6ba"/><path d="M793.9822,203.9227v.0022a7.3388,7.3388,0,0,0,4.2018-1.3174l-11.2262-8.3111a7.3753,7.3753,0,0,0,7.0244,9.6263Z" fill="#d7c6ba"/><path d="M771.6223,189.1687a7.377,7.377,0,1,0,7.3762,7.376A7.3769,7.3769,0,0,0,771.6223,189.1687Z" fill="#d7c6ba"/><path d="M769.74,181.55l-.8059.57a7.34,7.34,0,0,0,2.2366.49Z" fill="#d7c6ba"/><path d="M559.9448,274.2529v3.881h12.8c-.065,1.006-.775,5.7681-8.27,13.6431l-.871.915,1.1221-.583c11.2924-5.856,13.7534-17.4851,13.7775-17.6l.051-.255Z"/><path d="M569.2957,289.5126a9.6509,9.6509,0,0,0-2.073.221l-.9.2.9.213a9.4,9.4,0,0,1-.2121,18.3321l-.907.2.9.218a9.8241,9.8241,0,1,0,2.2921-19.3781"/><path d="M564.0769,299.4936a4.132,4.132,0,1,0,4.1322,4.132h0a4.1371,4.1371,0,0,0-4.1322-4.132" fill="#fff"/><path d="M657.0285,274.2529v3.881h12.8c-.065,1.006-.7751,5.7681-8.27,13.6431l-.8711.915,1.1221-.583c11.2924-5.856,13.7535-17.4851,13.7775-17.6l.051-.255Z"/><path d="M666.3814,289.5126a9.6516,9.6516,0,0,0-2.073.221l-.9.2.9.213a9.4,9.4,0,0,1-.212,18.3321l-.9071.2.9.218a9.8241,9.8241,0,1,0,2.2921-19.3781"/><path d="M661.1606,299.4936a4.132,4.132,0,1,0,4.1322,4.132h0a4.1371,4.1371,0,0,0-4.1322-4.132" fill="#fff"/><path d="M535.9187,347a2.0922,2.0922,0,0,1-.3-.021,2.2511,2.2511,0,0,1-1.9323-2.53l0-.0021,4.3621-32.4063a2.2532,2.2532,0,0,1,4.4662.6l-4.3632,32.4062A2.2531,2.2531,0,0,1,535.9227,347"/><path d="M700.2266,347a2.2531,2.2531,0,0,1-2.2291-1.953L693.6343,312.64a2.2532,2.2532,0,0,1,4.4662-.6h0l4.3621,32.4062a2.251,2.251,0,0,1-1.93,2.5318l-.0021,0a2.0921,2.0921,0,0,1-.3.0209"/><path d="M617.7622,276.9538a21.7281,21.7281,0,0,1-16.8536-7.985,21.5235,21.5235,0,0,1-11.63,3.371,21.8006,21.8006,0,0,1-21.0737-16.25,21.7907,21.7907,0,0,1-29.2191-19.1221,21.5114,21.5114,0,0,1-6.16.9,21.8,21.8,0,0,1-17.8236-34.3553,21.7858,21.7858,0,0,1-6.8153-36.7682,21.7691,21.7691,0,0,1,7.3543-36.9413,21.7934,21.7934,0,0,1,25.77-33.3352,2.2534,2.2534,0,1,1-1.753,4.152,17.28,17.28,0,0,0-18.2687,28.7882,2.2529,2.2529,0,0,1-1.184,3.905A17.27,17.27,0,0,0,513.13,164.86a2.2528,2.2528,0,0,1,0,3.767,17.279,17.279,0,0,0,6.2573,31.4412,2.253,2.253,0,0,1,1.181,3.8,17.2753,17.2753,0,0,0,19.7467,27.7622,2.254,2.254,0,0,1,3.2231,2.249c-.056.571-.089,1.148-.089,1.732a17.3133,17.3133,0,0,0,17.2936,17.2931,17.0842,17.0842,0,0,0,8.0883-2.0149,2.2531,2.2531,0,0,1,3.2911,1.724,17.2875,17.2875,0,0,0,17.1566,15.2191,17.1153,17.1153,0,0,0,10.7324-3.749,2.253,2.253,0,0,1,3.1655.3635q.0636.08.12.1655a17.2867,17.2867,0,0,0,31.76-9.4581,2.2531,2.2531,0,0,1,4.5061,0,21.8254,21.8254,0,0,1-21.8007,21.8"/><path d="M618.383,276.9538a21.8253,21.8253,0,0,1-21.8008-21.8,2.2531,2.2531,0,0,1,4.5062,0,17.2867,17.2867,0,0,0,31.76,9.458,2.2476,2.2476,0,0,1,1.5251-.988,2.2164,2.2164,0,0,1,1.76.46,17.2676,17.2676,0,0,0,27.889-11.47,2.2533,2.2533,0,0,1,3.2911-1.7241,17.0854,17.0854,0,0,0,8.0853,2.0111,17.3135,17.3135,0,0,0,17.2936-17.2932c0-.584-.033-1.161-.089-1.732a2.2542,2.2542,0,0,1,3.2231-2.249,17.1,17.1,0,0,0,7.4893,1.727,17.289,17.289,0,0,0,12.2575-29.4882,2.2539,2.2539,0,0,1,1.181-3.8,17.279,17.279,0,0,0,6.2582-31.4412,2.253,2.253,0,0,1,0-3.767,17.27,17.27,0,0,0-6.9762-31.5472,2.2531,2.2531,0,0,1-1.1841-3.9051,17.2862,17.2862,0,0,0-18.2686-28.7882,2.2535,2.2535,0,1,1-1.7531-4.152,21.7833,21.7833,0,0,1,25.77,33.3352,21.7689,21.7689,0,0,1,7.3543,36.9413,21.7859,21.7859,0,0,1-6.8132,36.7682,21.7884,21.7884,0,0,1-23.9849,33.4583A21.7909,21.7909,0,0,1,667.94,256.09a21.8006,21.8006,0,0,1-21.0727,16.2521,21.5237,21.5237,0,0,1-11.63-3.371,21.7281,21.7281,0,0,1-16.8536,7.985"/><path d="M598.5345,40.2842a2.2528,2.2528,0,0,1-2.1-1.43l-10.6-27.0532-2.61,26.4512a2.2545,2.2545,0,0,1-4.4872-.442L582.264,2.031a2.255,2.255,0,0,1,4.3421-.6l14.0255,35.7772a2.2549,2.2549,0,0,1-2.1,3.076"/><path d="M575.3944,45.1406a1.5,1.5,0,0,1-1.241-2.346c.146-.216,3.6481-5.283,8.6733-5.64a8.8225,8.8225,0,0,1,6.6573,2.573,11.3653,11.3653,0,0,1,7.7792-2.729,9.8131,9.8131,0,0,1,6.4113,3.175,1.501,1.501,0,0,1-2.3,1.929,6.8584,6.8584,0,0,0-4.3592-2.11c-2.136-.126-4.3331.837-6.6142,2.885a1.5,1.5,0,0,1-2.1151-.1c-1.7-1.867-3.4681-2.734-5.2442-2.623-3.5331.251-6.3732,4.291-6.4,4.333a1.5,1.5,0,0,1-1.244.656"/><path d="M637.6037,40.2842a2.2541,2.2541,0,0,1-2.1-3.076L649.5361,1.431a2.2541,2.2541,0,0,1,4.3411.6L657.4044,37.81a2.2545,2.2545,0,0,1-4.4872.442L650.3111,11.801,639.7037,38.8542a2.251,2.251,0,0,1-2.1,1.43"/><path d="M660.7514,45.1416a1.5,1.5,0,0,1-1.242-.656c-.039-.054-2.8521-4.089-6.4153-4.333-1.777-.126-3.5371.76-5.2321,2.623a1.5,1.5,0,0,1-2.1151.1c-2.2791-2.05-4.5172-3.009-6.6122-2.885a6.8707,6.8707,0,0,0-4.3662,2.116,1.5029,1.5029,0,0,1-2.3-1.935,9.8118,9.8118,0,0,1,6.4122-3.175,11.3546,11.3546,0,0,1,7.7783,2.729,8.8154,8.8154,0,0,1,6.6573-2.573c5.0242.357,8.5273,5.424,8.6733,5.64a1.5,1.5,0,0,1-1.241,2.346"/><path d="M620.8476,31.6947a2.2371,2.2371,0,0,1-1.4281-.512c-.357-.29-8.9913-7.157-15.6565-.185a2.2532,2.2532,0,0,1-3.2592-3.112h0c7.65-8.0071,17.5877-3.624,21.7758-.185a2.253,2.253,0,0,1-1.431,3.994"/><path d="M615.3,31.6947a2.253,2.253,0,0,1-1.4311-3.994c4.1862-3.44,14.1226-7.8261,21.7758.185a2.2531,2.2531,0,0,1-3.2591,3.112h0c-6.7-7.018-15.2946-.111-15.6566.185a2.2367,2.2367,0,0,1-1.428.512"/><path d="M592.0346,161.177a1.5,1.5,0,0,1-1.3-2.258c.1-.173,10.0524-17.5841,10.0524-43.22a1.5,1.5,0,0,1,3,0c0,26.4912-10.0343,44-10.46,44.7323a1.5,1.5,0,0,1-1.3.745"/><path d="M644.1061,161.177a1.5,1.5,0,0,1-1.3-.745c-.427-.732-10.46-18.2411-10.46-44.7323a1.5,1.5,0,0,1,3,0c0,25.6352,9.9513,43.0473,10.0523,43.22a1.5,1.5,0,0,1-1.3,2.258"/><path d="M586.2292,97.1847a12.1721,12.1721,0,1,1,0-.002v.002" fill="#d4d5d5"/><path d="M586.2332,97.1822a12.1755,12.1755,0,0,1-24.3509,0,37.7809,37.7809,0,0,1,24.3509,0" fill="#fff"/><path d="M581.9951,97.1828a7.9383,7.9383,0,1,1-7.9423-7.9341h.008a7.9381,7.9381,0,0,1,7.9382,7.9381" fill="#302d2c"/><path d="M581.8943,95.9917a37.9642,37.9642,0,0,0-8.1593-.819,36.9779,36.9779,0,0,0-7.5213.831,7.9273,7.9273,0,0,1,15.6806-.012"/><path d="M574.0607,110.1068a12.9241,12.9241,0,1,1,12.9235-12.9251v.001A12.9383,12.9383,0,0,1,574.06,110.1068m0-24.3451a11.4219,11.4219,0,1,0,.001,0"/><path d="M571.9118,91.2549a2.78,2.78,0,1,1-2.7811-2.7791h.001a2.78,2.78,0,0,1,2.78,2.7791" fill="#fff"/><path d="M674.2582,97.1847a12.1735,12.1735,0,1,1-12.1734-12.1731h.001a12.1722,12.1722,0,0,1,12.1724,12.1721v.001" fill="#d4d5d5"/><path d="M674.26,97.1822a12.1764,12.1764,0,0,1-24.3519,0,37.7853,37.7853,0,0,1,24.3519,0" fill="#fff"/><path d="M670.0241,97.1828a7.9383,7.9383,0,1,1-7.9423-7.9341h.004a7.9382,7.9382,0,0,1,7.9383,7.9381" fill="#302d2c"/><path d="M669.9243,95.9917a37.9635,37.9635,0,0,0-8.1593-.819,36.9762,36.9762,0,0,0-7.5212.831,7.9273,7.9273,0,0,1,15.6805-.012"/><path d="M662.0838,110.1068a12.9241,12.9241,0,1,1,12.9245-12.9241h0a12.9383,12.9383,0,0,1-12.9245,12.9241m0-24.3451a11.4211,11.4211,0,1,0,11.4224,11.421,11.4212,11.4212,0,0,0-11.4224-11.421"/><path d="M659.94,91.2549a2.78,2.78,0,1,1-2.7811-2.7791h.001a2.779,2.779,0,0,1,2.78,2.7781v.001" fill="#fff"/><path d="M618.0713,159.1316c11.1,0,20.9058,2.094,20.9058,7.307s-11.9745,11.57-20.9058,11.57-20.9057-6.3571-20.9057-11.5691,9.8083-7.307,20.9057-7.307"/><path d="M618.0723,178.7567c-8.9463,0-21.6568-6.372-21.6568-12.32,0-7.274,15.1456-8.058,21.6568-8.058s21.6568.784,21.6568,8.058c0,5.9481-12.71,12.32-21.6568,12.32m0-18.8761c-12.4314,0-20.1547,2.513-20.1547,6.556,0,4.6521,11.4894,10.8181,20.1547,10.8181s20.1547-6.166,20.1547-10.8181c0-4.043-7.7242-6.556-20.1547-6.556"/><path d="M618.0707,184.2673a1.5,1.5,0,0,1-1.5-1.5v-4.755a1.5,1.5,0,0,1,3,0v4.755a1.5,1.5,0,0,1-1.5,1.5"/><path d="M618.07,218.6887c-17.8767,0-32.4192-17.49-32.4192-38.99S600.189,140.71,618.07,140.71s32.4212,17.4911,32.4212,38.9883-14.5436,38.99-32.42,38.99m0-73.4725c-15.3915,0-27.913,15.4691-27.913,34.4823s12.5215,34.4842,27.913,34.4842,27.913-15.47,27.913-34.4843-12.5215-34.4822-27.913-34.4822"/><path d="M546.7537,96.0489a2.254,2.254,0,0,1-2.0621-3.1561l15.15-34.6432q-.9889.036-1.9541.035c-25.08,0-38.0823-17.4-41.6495-33.2222-1.828-8.1-1.359-17.7,3.9922-19.6262,24.5939-8.82,50.2148,28.2,51.2918,29.7792a2.2531,2.2531,0,1,1-3.7221,2.54c-.243-.357-24.7189-35.7393-46.0476-28.0782-1.4091.506-3.0361,5.9-1.1191,14.3931,1.2411,5.5,9.1194,32.7642,42.54,29.44a2.2529,2.2529,0,0,1,2.285,3.144L548.82,94.6988a2.2532,2.2532,0,0,1-2.0651,1.35"/><path d="M689.3919,96.0479a2.253,2.253,0,0,1-2.0651-1.35L670.6892,56.6536a2.2531,2.2531,0,0,1,2.2851-3.144c33.4472,3.336,41.3014-23.9442,42.5405-29.4412,1.9151-8.5.288-13.8851-1.121-14.3911C693.037,2,668.5921,37.3965,668.3461,37.7555a2.2531,2.2531,0,0,1-3.7221-2.54c1.078-1.58,26.701-38.6083,51.2918-29.7792,5.3522,1.923,5.8222,11.5211,3.9922,19.6241C716.25,41.2825,702.6774,59.1556,676.3064,58.25l15.1515,34.6423a2.253,2.253,0,0,1-2.062,3.156"/><path d="M603.9008,324.9065a1.5,1.5,0,0,1-1.2541-2.327l35.8233-54.54a1.5018,1.5018,0,0,1,2.5111,1.648L605.1578,324.23a1.5,1.5,0,0,1-1.257.677"/><path d="M619.0369,299.3327a1.5,1.5,0,0,1-1.173-.5621l-23.1848-28.8842a1.5025,1.5025,0,1,1,2.345-1.879l23.1829,28.8832a1.5,1.5,0,0,1-1.17,2.4421"/><path d="M610.2,165.1713a2.7581,2.7581,0,1,1-2.7581-2.7581h0a2.7581,2.7581,0,0,1,2.7581,2.7581" fill="#fff"/><path d="M540.2775,314.5944a2.2406,2.2406,0,0,1-1.166-.326L401.2756,230.7878a2.252,2.252,0,0,1-.194-3.722L464.73,178.8125a2.2531,2.2531,0,0,1,2.7161-.006l47.1877,35.4542a2.254,2.254,0,0,1-2.5727,3.7019q-.07-.0483-.1355-.1018L466.1,183.4345l-59.6492,45.2223L541.45,310.4194a2.253,2.253,0,0,1-1.1691,4.18"/><path d="M695.8684,314.5944a2.253,2.253,0,0,1-1.169-4.18l134.9988-81.7626-59.6491-45.2173-45.83,34.43a2.254,2.254,0,0,1-2.7081-3.6L768.7,178.8105a2.2531,2.2531,0,0,1,2.7161.006L835.0644,227.07a2.2519,2.2519,0,0,1-.194,3.722L697.0345,314.2724a2.2444,2.2444,0,0,1-1.166.326"/><path d="M618.0719,212.1614c-5.5422,0-9.8854-6.786-9.8854-15.45s4.3422-15.45,9.8854-15.45,9.8854,6.788,9.8854,15.45-4.3422,15.45-9.8854,15.45m0-27.9c-3.73,0-6.8813,5.7-6.8813,12.4461s3.1511,12.4461,6.8813,12.4461,6.8812-5.7,6.8812-12.4461-3.1511-12.4461-6.8812-12.4461"/><path d="M431.767,208.3836a1.86,1.86,0,0,1-.868-.215c-12.6585-6.616-23.0008-19.1841-29.9171-36.3462a108.3882,108.3882,0,0,1-6.6832-24.0912,1.8751,1.8751,0,0,1,1.5461-2.092l26.5439-4.527a1.8679,1.8679,0,0,1,1.6761.559l18.4606,19.4451c.7691-6.471,4.1162-12.6731,9.6-13.7351a1.8782,1.8782,0,0,1,2.1992,1.4892q.0105.0552.0179.1108l4.8521,36.8423a1.8781,1.8781,0,0,1-3.7241.49l-4.5292-34.4c-3.1,2.187-5.2472,7.958-4.7671,13.6531a1.8771,1.8771,0,0,1-3.2321,1.449l-20.9108-22.0382-23.7209,4.043c1.4581,8.2161,8.9754,42.5633,34.3273,55.8174a1.877,1.877,0,0,1-.8711,3.54"/><path d="M804.377,208.3836a1.877,1.877,0,0,1-.8711-3.54c25.3519-13.2541,32.8692-47.6,34.3273-55.8174l-23.7208-4.043-20.9118,22.0292a1.8771,1.8771,0,0,1-3.2321-1.449c.479-5.7-1.67-11.4671-4.7672-13.6531l-4.5291,34.4a1.8781,1.8781,0,0,1-3.7241-.49L781.8,148.9783a1.8782,1.8782,0,0,1,2.1063-1.618q.0556.0073.1108.0179c5.4872,1.062,8.8333,7.2641,9.6,13.7351l18.4606-19.4451a1.862,1.862,0,0,1,1.6761-.559l26.544,4.527a1.8751,1.8751,0,0,1,1.546,2.0921,108.3889,108.3889,0,0,1-6.6832,24.0911c-6.9122,17.1621-17.2586,29.73-29.9171,36.3463a1.86,1.86,0,0,1-.868.215"/><path d="M22.1526,262.2637q-.4577,0-.9145-.0117h-.024c-1.73,0-4.0113-.1455-6.7526-.4307a1.879,1.879,0,0,1-1.7926-1.873,1.2665,1.2665,0,0,1,.0078-.1416c.2945-2.377.5323-5.6261.7076-9.6564.185-4.5234.271-8.0947.271-11.2354,0-2.1572-.0464-4.2285-.1411-6.3223-7.1453,1.61-9.475,2.4844-10.23,2.87a3.11,3.11,0,0,1-.5952.211,2.1749,2.1749,0,0,1-.9776.0029,1.571,1.571,0,0,1-1.25-1.2393A27.5684,27.5684,0,0,1,0,230.0066a18.4611,18.4611,0,0,1,.4658-3.7988,1.055,1.055,0,0,1,.0332-.1133,2.3868,2.3868,0,0,1,1.7359-1.5313c.0074-.0019.1041-.03.1114-.0312,2.3755-.4756,5.5866-1.2012,9.5438-2.1563,3.9708-.95,7.8064-1.917,11.4027-2.874,11.162-2.9922,14.5416-4.5,15.5626-5.1329a1.95,1.95,0,0,1,.6431-.2783,1.7667,1.7667,0,0,1,1.0239-.0029,1.6725,1.6725,0,0,1,1.2169,1.4394,34.4629,34.4629,0,0,1,.4058,4.9307,32.2006,32.2006,0,0,1-.482,5.5245,2.3048,2.3048,0,0,1-1.7706,1.8281c-.0254.0059-.1421.0235-.1679.0264-3.27.3867-6.9422.9658-10.9423,1.7246-.2427,4.5167-.3721,8.8683-.3848,12.9484-.0464,11.4121.6074,15.3536,1.1641,16.6495a1.8527,1.8527,0,0,1-.105,1.6475,2.1007,2.1007,0,0,1-1.334.9443A35.18,35.18,0,0,1,22.1526,262.2637Zm-.8887-2.0117a32.7219,32.7219,0,0,0,6.3992-.4512c-.8872-2.2471-1.3038-7.9161-1.2657-17.298.0137-4.3486.1587-9.003.4307-13.8331a1,1,0,0,1,.8086-.9248c4.3464-.8408,8.3275-1.4775,11.833-1.8916a.2934.2934,0,0,0,.2265-.2334,30.1234,30.1234,0,0,0,.4488-5.1524,32.7494,32.7494,0,0,0-.3379-4.3486c-2.1749,1.2753-7.5315,3.0459-15.9986,5.3154-3.6139.9619-7.4661,1.9317-11.4506,2.8858-3.9811.9609-7.2181,1.6924-9.619,2.1728a.4765.4765,0,0,0-.3409.2383A16.4039,16.4039,0,0,0,2,230.0047a25.38,25.38,0,0,0,.3589,3.6807c.0176-.0069.0351-.0137.0527-.0215,1.5274-.7813,5.5217-1.8926,11.8344-3.2832a1,1,0,0,1,1.2144.9336l.0381.8818c.106,2.2256.1572,4.4248.1572,6.7188,0,3.169-.0869,6.7657-.2729,11.3194-.1724,3.9649-.4058,7.1925-.6944,9.6C17.3649,260.1113,19.5837,260.208,21.2639,260.252ZM2.0831,233.7127l.37.9893-.2275-.9385A.399.399,0,0,0,2.0831,233.7127Zm37.6737-17.9249.0029.0166Zm255.4891,46.4691a25.8691,25.8691,0,0,1-7.4339-1.2979c-1.1826-.3789-1.6211-2.1172-1.5308-3.6778.5855-9.2071,1.0684-21.9816,1.4356-37.9739-2.5611-13.669-5.3342-26.6046-8.2425-38.4494-3.88-15.5011-5.5656-20.5685-6.2971-22.0881a5.33,5.33,0,0,1-.3222-2.6875,4.2611,4.2611,0,0,1,.9-2.3379,1.0976,1.0976,0,0,1,.0859-.0977,32.7752,32.7752,0,0,1,14.8741-8.4639,1.395,1.395,0,0,1,1.1651.19,2.8589,2.8589,0,0,1,1.0117,2.07c.4048,3.1728,1.4078,9.3409,3.0656,18.8487,1.145,6.628,2.4473,13.549,3.8824,20.634,1.8644-9.0655,3.3727-17.0187,4.4934-23.6965,1.0928-5.9873,1.8941-12.085,2.3843-18.1407a4.3791,4.3791,0,0,1,1.231-3.2364,1.005,1.005,0,0,1,.25-.1865,53.5277,53.5277,0,0,1,11.0063-4.333,1.424,1.424,0,0,1,1.1392.1767,2.5046,2.5046,0,0,1,.9859,1.7383,7.2051,7.2051,0,0,1-.1148,3.1455c-4.69,17.1906-10.329,42.9271-16.7623,76.5054-.3272,26.508.3384,34.8069.7647,37.3958a6.6907,6.6907,0,0,1-.0635,2.5293,2.8818,2.8818,0,0,1-1.1265,1.9327,1.012,1.012,0,0,1-.2012.1171A16.5881,16.5881,0,0,1,295.2459,262.2569Zm-6.7039-3.1631a23.8469,23.8469,0,0,0,6.7278,1.163,14.5529,14.5529,0,0,0,5.6316-1.1621.8758.8758,0,0,0,.27-.5439,1.0126,1.0126,0,0,1,.0195-.1153,4.7117,4.7117,0,0,0,.0528-1.8154c-.5347-3.2451-1.1051-12.4434-.7906-37.8352a1.018,1.018,0,0,1,.0181-.1758c6.4494-33.67,12.1059-59.4877,16.8116-76.7339a5.173,5.173,0,0,0,.0816-2.253,2.34,2.34,0,0,0-.06-.2431,51.5549,51.5549,0,0,0-10.02,3.9756,2.3728,2.3728,0,0,0-.5674,1.6875.9829.9829,0,0,1-.0015.1416c-.4946,6.1436-1.3066,12.3311-2.4126,18.3917-1.3141,7.8272-3.1618,17.4191-5.49,28.4944a.9993.9993,0,0,1-.9785.7939h0a.9993.9993,0,0,1-.9786-.7959c-1.8282-8.7579-3.4664-17.3155-4.8688-25.4338-1.6626-9.5371-2.67-15.7344-3.08-18.9435a2.7208,2.7208,0,0,0-.0923-.4658A30.8008,30.8008,0,0,0,275.3,155.0169a2.3641,2.3641,0,0,0-.4566,1.2646,3.41,3.41,0,0,0,.1709,1.7012c1.0875,2.253,3.2531,9.8145,6.4016,22.3937,2.9254,11.9151,5.7126,24.923,8.286,38.6663a.9713.9713,0,0,1,.0166.2061c-.3677,16.0694-.8526,28.9054-1.44,38.1535A3.3743,3.3743,0,0,0,288.542,259.0938Zm.7056-111.9842-.0361.01C289.2232,147.1164,289.2354,147.1135,289.2476,147.11ZM191.9536,262.253h-.01a31.6783,31.6783,0,0,1-7.2991-.9649c-1.0269-.2451-1.7091-1.5059-1.608-2.9942.36-5.6836.6866-12.8526.97-21.3038.271-8.461.4585-16.3751.5566-23.5226.2466-18.9064-.0356-30.7229-.8389-35.1184a4.3158,4.3158,0,0,1,.1294-2.02,2.8353,2.8353,0,0,1,1.1046-1.5586,31.5831,31.5831,0,0,1,7.1941-2.9981,27.3545,27.3545,0,0,1,6.7654-.8515,1.6565,1.6565,0,0,1,1.1811.5254,3.1314,3.1314,0,0,1,.6719,2.3379c-.42,7.2744-.8208,17.21-1.1919,29.5754,3.8942-8.5108,6.7678-15.41,8.3768-20.1222,2.3536-6.9913,2.8775-10.4239,2.9024-12.0724a3.6259,3.6259,0,0,1,1.2173-2.9092,1.0011,1.0011,0,0,1,.1592-.1152,53.9327,53.9327,0,0,1,12.9077-5.4561,1.5517,1.5517,0,0,1,1.2149.1894,2.382,2.382,0,0,1,.9639,1.5928,4.9561,4.9561,0,0,1-.3315,2.9034c-5.5427,11.9415-11.3686,24.9611-17.3288,38.7239,7.2049,22.5587,12.6255,37.19,16.503,44.5286,1.7447-7.3956,4.258-19.4542,7.4857-35.92,4.28-22.379,7.5915-40.6213,9.8426-54.2152a3.3937,3.3937,0,0,1,1.21-2.3389.9783.9783,0,0,1,.1431-.0986,30.1025,30.1025,0,0,1,6.1169-2.6426,17.8138,17.8138,0,0,1,5.8273-.5986c.7008.0488,1.5143.6386,1.7193,2.1465,1.6891,11.9444,4.3171,29.0373,8.27,53.7874,3.6935,23.7248,6.2893,38.9466,7.7161,45.2455a6.0692,6.0692,0,0,1,.0259,2.5019,2.8371,2.8371,0,0,1-1.1539,1.9639.995.995,0,0,1-.1812.1045,17.8112,17.8112,0,0,1-7.3,1.5117,18.16,18.16,0,0,1-6.6961-1.4394,2.68,2.68,0,0,1-1.3638-2.2647l-.8462-6.0909-2.1583-14.4942c-2.7237-.0937-5.4762-.0478-8.1961.1318a36.7836,36.7836,0,0,0-6.5481.8526c-1.4673,7.5274-2.6475,13.9991-3.6051,19.7677a2.9229,2.9229,0,0,1-1.1011,2.0176.9533.9533,0,0,1-.1343.0908,10.0644,10.0644,0,0,1-4.381,1.2676,12.0585,12.0585,0,0,1-5.0641-1.1875,1.0391,1.0391,0,0,1-.1446-.085,2.6275,2.6275,0,0,1-.81-.9336,19.7815,19.7815,0,0,1-4.5842,1.7383,36.6477,36.6477,0,0,1-7.8719.8067,2.0327,2.0327,0,0,1-1.8047-1.7129h0c-1.87-6.5694-5.75-17.9044-10.9789-32.0823q-.3546.7983-.751,1.7012c.0693,18.2277.6611,24.9269,1.1465,27.3361a4.5086,4.5086,0,0,1-.1148,2.1211,2.318,2.318,0,0,1-1.2061,1.542.91.91,0,0,1-.1567.0655A21.3093,21.3093,0,0,1,191.9536,262.253Zm20.6966-1.917h0Zm-27.437-.9678a29.6428,29.6428,0,0,0,6.7463.8847h.0078a19.3011,19.3011,0,0,0,5.8274-.9033.3814.3814,0,0,0,.1465-.2305,2.6425,2.6425,0,0,0,.0874-1.2509c-.7208-3.5762-1.1314-13.2365-1.1837-27.9192a.9985.9985,0,0,1,.0845-.4062c.7149-1.625,1.3267-3.004,1.8463-4.1465a.9825.9825,0,0,1,.9458-.585.9989.9989,0,0,1,.9019.6514c5.6774,15.3009,9.8958,27.5636,11.8778,34.5315l.0025.0087a1.33,1.33,0,0,0,.0918.2471,33.7174,33.7174,0,0,0,7.2073-.7568,17.7824,17.7824,0,0,0,5.153-2.1631,1,1,0,0,1,1.524.7734,2.6314,2.6314,0,0,0,.05.3428,1.1185,1.1185,0,0,1,.0176.1123.6188.6188,0,0,0,.206.4062,10.01,10.01,0,0,0,4.0671.9454,8.0191,8.0191,0,0,0,3.3546-.9668.9856.9856,0,0,0,.313-.6475c.9976-6.0391,2.2208-12.7315,3.75-20.55a1,1,0,0,1,.7466-.7794,38.6051,38.6051,0,0,1,7.5345-1.0507,84.4877,84.4877,0,0,1,9.2132-.1006,1,1,0,0,1,.9453.8515L258.959,251.99l.8457,6.09a1.96,1.96,0,0,0,.2295.7363,16.1623,16.1623,0,0,0,5.8835,1.2539,14.9154,14.9154,0,0,0,6.3435-1.29.8362.8362,0,0,0,.2749-.542.9854.9854,0,0,1,.0161-.1055,4.078,4.078,0,0,0-.01-1.71c-1.4557-6.4258-3.9875-21.2677-7.74-45.3675-3.9542-24.7589-6.5837-41.8635-8.2752-53.8255a1.808,1.808,0,0,0-.1074-.4385,15.741,15.741,0,0,0-4.904.5371,28.1179,28.1179,0,0,0-5.5935,2.4092,1.3854,1.3854,0,0,0-.4384.9268,1.02,1.02,0,0,1-.0113.1025c-2.254,13.6163-5.5715,31.8909-9.86,54.3158-3.6207,18.47-6.3459,31.4123-8.1009,38.4739a1,1,0,0,1-1.8218.2842c-4.0353-6.54-9.9393-22.0754-18.0495-47.4955a1,1,0,0,1,.0347-.7011c6.0192-13.9054,11.9037-27.06,17.49-39.096a2.9261,2.9261,0,0,0,.1924-1.6953,1.3818,1.3818,0,0,0-.0371-.1416,51.9408,51.9408,0,0,0-11.98,5.0986,1.6671,1.6671,0,0,0-.4858,1.2969c-.025,1.8789-.5689,5.5342-3.006,12.7735-1.9029,5.5743-5.5359,14.131-10.5063,24.7483a1,1,0,0,1-1.9053-.4522c.4107-14.669.86-26.2814,1.336-34.5129a1.82,1.82,0,0,0-.082-.7412,25.309,25.309,0,0,0-6.0256.7832,29.534,29.534,0,0,0-6.64,2.7539.8976.8976,0,0,0-.2525.4277,2.35,2.35,0,0,0-.08,1.11c.8248,4.5147,1.1178,16.46.87,35.4963-.0986,7.1612-.2861,15.088-.5576,23.5617-.2837,8.4727-.6114,15.6613-.9732,21.3693A1.6191,1.6191,0,0,0,185.2132,259.3682Zm27.17.88c-.0049.0009.0039.0009.018,0Zm-27.2608-.9024.01.002Zm74.9334-.5h0Zm-.1089-.0654.02.0078ZM95.665,262.2451h-.0185a22.7852,22.7852,0,0,1-5.0446-.69,2.2837,2.2837,0,0,1-1.5616-2.4561c.522-7.3438.8482-17.8809.9624-31.256.1167-13.1437-.1094-21.426-.6719-24.6174a2.7322,2.7322,0,0,1,1.2261-2.7422,29.38,29.38,0,0,1,6.6355-2.55,50.4291,50.4291,0,0,1,7.4012-1.334,1.7562,1.7562,0,0,1,1.836,1.2168c1.6372,3.9893,4.0328,9.502,7.78,18.0978l6.4855,15.2833c.0748-3.6153.1275-6.6387.1573-9.0245.1557-14.9884-.0484-24.1047-.606-27.093a3.0573,3.0573,0,0,1,1.0982-2.9345,15.7274,15.7274,0,0,1,4.4-2.085,19.9083,19.9083,0,0,1,5.2307-.6123,1.6791,1.6791,0,0,1,1.1983.5547,2.5225,2.5225,0,0,1,.5806,1.8506c-.5743,10.6973-.9439,23.2218-1.0982,37.2248-.17,14.6779.0073,24.6574.5137,28.9592a3.2924,3.2924,0,0,1,.122-.416c1.59-4.1924,4.5329-14.673,8.75-31.1594,4.0309-16.3458,7.3328-30.5305,9.5462-41.0149a2.8242,2.8242,0,0,1,1.3023-1.962c.0288-.0175.0581-.0341.0889-.05a39.5293,39.5293,0,0,1,6.0539-2.3945,24.2486,24.2486,0,0,1,5.7541-.82,1.8855,1.8855,0,0,1,1.796,1.74c1.688,8.5792,4.25,20.7121,8.5642,40.555,3.9938,18.8761,6.5208,29.8557,7.9549,34.56a4.2017,4.2017,0,0,1,.0239,2.1758,2.3427,2.3427,0,0,1-1.2539,1.6523.9675.9675,0,0,1-.1343.0557,22.4534,22.4534,0,0,1-7.2136,1.1524,23.1713,23.1713,0,0,1-6.6218-1.0889,1.01,1.01,0,0,1-.147-.0606,2.4149,2.4149,0,0,1-1.3057-1.8916l-.8731-4.5694-2.1993-10.8174c-2.5855-.0322-5.2927.043-8.2435.2334a48.9242,48.9242,0,0,0-6.591.7471c-1.3746,5.4356-2.5358,10.3594-3.4528,14.6456a2.42,2.42,0,0,1-1.2412,1.7217q-.0455.0234-.0923.0439a12.0343,12.0343,0,0,1-4.2844.918,15.0794,15.0794,0,0,1-4.9376-.8565,2.2493,2.2493,0,0,1-1.3306-1.59,3.2215,3.2215,0,0,1-.1993.66,2.1273,2.1273,0,0,1-1.2593,1.2012,26.7243,26.7243,0,0,1-6.5989.834,41.6632,41.6632,0,0,1-7.4973-.7324,1.0369,1.0369,0,0,1-.2036-.0615,2.106,2.106,0,0,1-1.3433-1.4737c-1.6568-4.793-4.1931-11.334-7.514-19.3595-2.2354-5.2061-4.484-10.25-6.7053-15.04-.0723,3.4883-.1113,6.2686-.1362,8.24-.1294,13.2276.0928,21.6251.66,24.9552a2.3925,2.3925,0,0,1-1.23,2.6338,1.0984,1.0984,0,0,1-.1211.0537A12.5888,12.5888,0,0,1,95.665,262.2451Zm8.9325-63.6352a48.4606,48.4606,0,0,0-6.9119,1.2608,27.3876,27.3876,0,0,0-6.1252,2.3408.7185.7185,0,0,0-.2568.6846c.5805,3.294.8169,11.6993.6992,24.964-.1148,13.4161-.4424,23.9963-.9742,31.4465-.0234.1846.0445.2969.1578.337a20.8255,20.8255,0,0,0,4.4865.6015,10.277,10.277,0,0,0,3.607-.6328.4156.4156,0,0,0,.168-.4394c-.6006-3.5137-.8321-12.03-.7017-25.38.0347-2.7256.0962-6.9854.2334-12.5245a1,1,0,0,1,1.9029-.4043c2.8141,5.9336,5.69,12.3165,8.5482,18.9738,3.3414,8.0742,5.8923,14.6544,7.5867,19.5685a.9755.9755,0,0,1,.3662.206,39.745,39.745,0,0,0,6.7693.63,24.7544,24.7544,0,0,0,6.0065-.7441c-.0468.0039-.0185-.0166-.0048-.0518a1.2573,1.2573,0,0,0,.0937-.6631c-.5737-4.1582-.7735-14.1612-.5928-29.7277.1548-14.03.5249-26.5842,1.1011-37.3118a.991.991,0,0,0-.0239-.2988,15.6628,15.6628,0,0,0-4.4577.5429,13.6778,13.6778,0,0,0-3.7477,1.7676,1.0436,1.0436,0,0,0-.3139.9639c.58,3.1094.7954,12.3555.6386,27.4767-.0419,3.3555-.1294,7.9649-.2588,13.7013a1,1,0,0,1-1.92.3682l-8.3006-19.5617C108.6592,208.1872,106.27,202.6891,104.5975,198.61Zm63.0105,60.5376a21.1033,21.1033,0,0,0,5.9421.9638,19.3168,19.3168,0,0,0,6.4588-1.0175.3847.3847,0,0,0,.1616-.254,2.3205,2.3205,0,0,0,.01-1.208c-1.4435-4.7344-3.9846-15.7686-7.99-34.6965-4.3156-19.8517-6.88-31.9953-8.5735-40.6018-.0078-.042-.0166-.0782-.0249-.1075a22.2546,22.2546,0,0,0-5.0129.7373,37.459,37.459,0,0,0-5.66,2.2374.8729.8729,0,0,0-.3633.5937c-2.23,10.5714-5.5368,24.78-9.5755,41.1546-4.2375,16.5675-7.2029,27.1184-8.8153,31.37a1.218,1.218,0,0,0-.0244.7344c.0318.1436.0767.2012.1382.2285a12.993,12.993,0,0,0,4.1711.711,10.0019,10.0019,0,0,0,3.4791-.7412.4389.4389,0,0,0,.1934-.3018c.9683-4.5313,2.1885-9.6915,3.6378-15.3956a1,1,0,0,1,.7764-.7354,50.9672,50.9672,0,0,1,7.4871-.8994c3.2955-.2129,6.3112-.2812,9.1956-.2217a1.0007,1.0007,0,0,1,.9576.8008l2.3614,11.6153.8843,4.627a1.0164,1.0164,0,0,1,.0146.1094A.4007.4007,0,0,0,167.608,259.1475Zm-63.0589-60.6557.0035.0088Zm59.2922-16.2726-.0107.001Zm-83.4429,79.93c-.0845,0-.1685,0-.253-.0009h-.1308a32.3345,32.3345,0,0,1-6.4-.7217.8789.8789,0,0,1-.1128-.0313,2.0242,2.0242,0,0,1-1.416-1.5029l-.9058-3.0918L68.9556,249.66c-2.7555.0381-5.5539.1475-8.33.3262-2.9483.1982-5.14.41-6.6667.6455-1.3424,3.6611-2.4186,6.7774-3.2848,9.5108a2.0391,2.0391,0,0,1-1.4219,1.3516,16.77,16.77,0,0,1-4.1711.5908,22.0969,22.0969,0,0,1-4.8254-.543,1.9693,1.9693,0,0,1-1.2964-2.8994c1.1314-1.9551,3.5177-7.0645,8.4779-20.3234,3.9073-10.921,7.1032-20.4787,9.2371-27.6262a2.5165,2.5165,0,0,1,1.397-1.5869,56.0066,56.0066,0,0,1,6.0256-2.1328,34.6037,34.6037,0,0,1,5.6638-1.0606,1.757,1.757,0,0,1,1.87,1.3077c1.86,6.06,4.547,14.2237,8.8489,27.1535,4.1555,13.0352,6.7513,20.5812,8.1732,23.7609A2.5043,2.5043,0,0,1,88.7,260.04a2.1033,2.1033,0,0,1-1.37,1.3007A30.2711,30.2711,0,0,1,80.3984,262.1494Zm-.2447-2.001a28.7682,28.7682,0,0,0,6.6585-.7382c-.03.0068-.0029-.02.0088-.0537a.5332.5332,0,0,0,.0014-.4151c-1.4487-3.2393-4.07-10.8526-8.2444-23.9484-4.2648-12.8165-6.9451-20.9611-8.8221-27.0685a32.5346,32.5346,0,0,0-5.1149.9726,54.2813,54.2813,0,0,0-5.779,2.045.5173.5173,0,0,0-.2715.3212c-2.1441,7.1827-5.3513,16.7756-9.2757,27.7434-3.9689,10.61-6.9485,17.74-8.6219,20.6339a23.7188,23.7188,0,0,0,4.3756.4444,14.7707,14.7707,0,0,0,3.6627-.5225c.9542-2.9219,2.1041-6.24,3.5509-10.168a1.0019,1.0019,0,0,1,.7633-.6387c1.604-.2861,4.04-.5361,7.4485-.7656,3.0655-.1973,6.155-.3116,9.1858-.3389h.0093a.9992.9992,0,0,1,.9546.7021l2.4513,7.8692.9263,3.1671a.93.93,0,0,1,.3125.1445,30.3276,30.3276,0,0,0,5.6936.6142Zm-10.4486-52.389.0039.0127Zm286.0283,54.2738h-.0547a15.5606,15.5606,0,0,1-6.7815-1.8037l0-.001a3.2767,3.2767,0,0,1-1.274-2.6006l-.8179-7.5059-2.1031-18.0792a64.3034,64.3034,0,0,0-8.1628.042,29.587,29.587,0,0,0-6.5242.9512c-1.4776,9.1446-2.7355,17.4532-3.7394,24.7033a3.6944,3.6944,0,0,1-1.01,2.3613,1.0049,1.0049,0,0,1-.1421.124,8.6021,8.6021,0,0,1-4.4611,1.5987,10.0117,10.0117,0,0,1-5.174-1.5254,1.0425,1.0425,0,0,1-.1479-.1133,3.0929,3.0929,0,0,1-.99-2.1,7.1951,7.1951,0,0,1,.0981-2.6231c1.7267-7.4131,4.9192-25.4689,9.2343-52.224,4.3131-27.1476,7.8157-50.3431,10.1307-67.08a4.0317,4.0317,0,0,1,1.1529-2.6465.98.98,0,0,1,.1743-.1416,26.4194,26.4194,0,0,1,6.1384-2.8985,14.8941,14.8941,0,0,1,5.9187-.3623c.5132.07,1.4106.4912,1.6333,2.5137,1.6251,14.7989,4.1628,35.9807,7.9861,66.6577,3.6437,29.7609,6.0964,47.9544,7.4993,55.6244a8.5459,8.5459,0,0,1-.0014,2.8877,3.3171,3.3171,0,0,1-1.0694,2.2275,1.0044,1.0044,0,0,1-.1968.1407A15.2664,15.2664,0,0,1,355.7334,262.0332Zm-5.8361-3.5381a13.5153,13.5153,0,0,0,5.8176,1.5391h.0439a13.2475,13.2475,0,0,0,6.2092-1.5625,1.33,1.33,0,0,0,.3535-.8448,1.1445,1.1445,0,0,1,.0147-.1269,6.551,6.551,0,0,0,.0107-2.249c-1.4077-7.6964-3.8663-25.928-7.5144-55.726-3.8244-30.6848-6.363-51.8754-7.9895-66.6841a2.9714,2.9714,0,0,0-.1744-.7842,12.9,12.9,0,0,0-4.8278.3321,24.4511,24.4511,0,0,0-5.5168,2.5977,2.0387,2.0387,0,0,0-.5137,1.292.9034.9034,0,0,1-.0088.1045c-2.3164,16.754-5.8239,39.9817-10.1434,67.1713-4.3229,26.802-7.5242,44.9046-9.2591,52.3519a5.2045,5.2045,0,0,0-.064,1.9288.932.932,0,0,1,.0108.1113,1.1074,1.1074,0,0,0,.2974.7139,7.9663,7.9663,0,0,0,3.9762,1.165,6.5551,6.5551,0,0,0,3.254-1.166,1.6936,1.6936,0,0,0,.4063-1.0449c.0014-.0342.0043-.0684.0087-.1016,1.03-7.4444,2.3278-16,3.8556-25.4318a1,1,0,0,1,.713-.8018,31.48,31.48,0,0,1,7.58-1.1914,65.6656,65.6656,0,0,1,9.2347.0146.9991.9991,0,0,1,.9215.8819l2.2,18.9142.8189,7.5117A2.8242,2.8242,0,0,0,349.8973,258.4951ZM56.5528,241.11a1,1,0,0,1-.9473-1.32c1.4747-4.3613,3.1779-9.3184,5.0622-14.7345a.999.999,0,0,1,.9234-.6718,1.0615,1.0615,0,0,1,.9507.6318c1.5181,3.833,3.1734,8.4571,4.92,13.7442a1,1,0,0,1-.77,1.2969c-1.0029.1836-1.9141.3184-2.7086.4014-2.397.2783-4.88.4971-7.3689.65C56.5933,241.1093,56.5728,241.11,56.5528,241.11Zm5.11-12.8233c-1.3346,3.8506-2.568,7.4444-3.6818,10.7257,1.9517-.1416,3.8912-.3233,5.7839-.543.4419-.0459.92-.1084,1.4312-.1875C63.9632,234.59,62.78,231.242,61.6624,228.2869Zm88.5,2.1143a1,1,0,0,1-.9732-1.23c1.3839-5.877,3.0407-12.7794,5.2146-21.7209a1,1,0,0,1,.9673-.7637h.0044a1,1,0,0,1,.97.7549c1.4806,5.8565,3.0807,12.8439,4.7551,20.7668a1.0006,1.0006,0,0,1-.7769,1.1865c-.9971.2051-1.91.3574-2.7149.4541-2.56.2861-5.0515.4717-7.4124.5508C150.1846,230.4012,150.1733,230.4012,150.1621,230.4012Zm5.2214-18.5089c-1.565,6.459-2.8424,11.7862-3.9455,16.4551,1.9146-.0947,3.9069-.2568,5.94-.4853.4736-.0566.9942-.1348,1.5537-.2354C157.7009,221.8376,156.5119,216.5671,155.3835,211.8923Zm87.381,7.9307a1,1,0,0,1-.9839-1.18c1.54-8.42,3.3463-18.049,5.37-28.6194a1,1,0,0,1,.982-.8115h.0039a1,1,0,0,1,.98.8194c1.3741,7.4815,2.8771,16.544,4.5954,27.7062a1,1,0,0,1-.751,1.124,23.4768,23.4768,0,0,1-2.7506.5,67.8267,67.8267,0,0,1-7.4382.461Zm5.3362-24.11c-1.5235,8.0108-2.9093,15.4171-4.133,22.0909,2.0064-.0507,4.0216-.1943,6.0061-.4277.5381-.0645,1.08-.1514,1.6182-.2588C250.3214,208.8952,249.17,201.8307,248.1007,195.7125ZM333.8,209.5387q-.5259,0-1.0508-.01a1.0005,1.0005,0,0,1-.9688-1.1514c1.6007-10.4405,3.4557-22.3283,5.5124-35.3313a1,1,0,0,1,.9878-.8438h.0074a1,1,0,0,1,.9824.8584c1.3682,9.5646,2.8654,21.16,4.4509,34.468a1.0006,1.0006,0,0,1-.73,1.0831,19.805,19.805,0,0,1-2.773.5468A54.4225,54.4225,0,0,1,333.8,209.5387Zm4.42-29.5344c-1.5709,9.9728-3.0079,19.2053-4.2873,27.5344a52.27,52.27,0,0,0,6.0452-.3652c.5537-.0684,1.1074-.1641,1.6529-.2852C340.4365,196.899,339.2939,187.8921,338.22,180.0043Z" fill="#fff"/><path d="M1145.7885,262.1123a24.0756,24.0756,0,0,1-14.5542-4.9346.2316.2316,0,0,1-.0244-.0195,32.1482,32.1482,0,0,1-9.9457-14.0743,56.55,56.55,0,0,1-3.4113-20.7033c.0508-8.669,1.502-16.2423,4.3137-22.4933,2.8624-6.2793,6.9006-10.8585,12.0063-13.6134,5.1212-2.6621,11.0179-3.3213,17.5435-1.9717a32.58,32.58,0,0,1,15.277,7.69,38.8936,38.8936,0,0,1,10.1654,14.2286,45.4784,45.4784,0,0,1,3.5763,18.52,40.3566,40.3566,0,0,1-4.385,19.0538,33.2805,33.2805,0,0,1-12.2748,13.2872,32.7468,32.7468,0,0,1-17.8883,5.0284Q1145.9877,262.1124,1145.7885,262.1123Zm-13.3276-6.5137a22.0309,22.0309,0,0,0,13.7231,4.5108,30.69,30.69,0,0,0,16.8356-4.7276,31.2861,31.2861,0,0,0,11.5482-12.4952,38.3988,38.3988,0,0,0,4.1672-18.1437,43.5432,43.5432,0,0,0-3.422-17.752,36.91,36.91,0,0,0-9.65-13.505,30.5673,30.5673,0,0,0-14.3491-7.2237c-6.0627-1.2578-11.516-.6592-16.2057,1.7793-4.6984,2.5362-8.4446,6.8018-11.12,12.671-2.6944,5.99-4.0871,13.2911-4.1359,21.6964a54.5961,54.5961,0,0,0,3.2921,19.9963A30.1668,30.1668,0,0,0,1132.4609,255.5986Zm-169.6477,6.5059c-5.6936,0-10.7435-2.4365-15.0093-7.2432-.0215-.02-.043-.042-.0625-.0644-4.21-4.8194-7.49-11.6417-9.7513-20.2766a116.1487,116.1487,0,0,1-3.2316-29.8752c.1123-12.4668,1.6075-23.507,4.4435-32.801,2.8605-9.2608,6.8948-16.2218,11.9907-20.6944a19.8233,19.8233,0,0,1,17.7741-4.6554c5.8234,1.21,10.9925,4.6055,15.3443,10.089,4.2872,5.3067,7.6467,12.2393,9.98,20.5988a99.1484,99.1484,0,0,1,3.3917,27.8908,91.0425,91.0425,0,0,1-4.506,29.1066c-2.9308,8.5313-7.0618,15.3488-12.2768,20.26-5.3293,5.085-11.4125,7.6651-18.0758,7.6651Zm-13.62-8.6856c.0185.0176.0361.0371.0537.0567,3.881,4.3984,8.4456,6.6289,13.5669,6.6289h.0088c6.132,0,11.7514-2.3945,16.7008-7.1163,4.9806-4.69,8.9368-11.2373,11.7631-19.462a89.1148,89.1148,0,0,0,4.3957-28.4816,97.169,97.169,0,0,0-3.32-27.3342c-2.2569-8.086-5.4924-14.7775-9.6126-19.8771-4.0578-5.1133-8.8373-8.2686-14.21-9.3848a17.8292,17.8292,0,0,0-16.0143,4.1924c-4.8283,4.2373-8.6634,10.8907-11.4125,19.79-2.7784,9.1074-4.2433,19.9571-4.3546,32.2453a114.15,114.15,0,0,0,3.171,29.3557C942.0967,242.31,945.2149,248.8378,949.1936,253.4189Zm-42.7691,8.2286c-8.9671-.0117-15.8482-5.4219-20.4539-16.0812l-.0019-.0039c-4.5061-10.5616-6.7014-25.884-6.5257-45.5413.127-13.6495,1.5987-25.7834,4.3723-36.0676,2.8038-10.2609,6.761-18.0021,11.7641-23.0129,5.1193-5.0225,11.0043-6.8907,17.49-5.5518,7.0989,1.4561,12.9048,4.5078,17.2536,9.0723a.9959.9959,0,0,1,.2764.711,95.6305,95.6305,0,0,1-1.8292,16.6651c-1.2,6.31-2.4425,10.5069-3.7941,12.8214a.9629.9629,0,0,1-.8994.4951.9975.9975,0,0,1-.8614-.5586,77.8073,77.8073,0,0,0-8.8382-14.005c-3.4484-4.2969-5.5461-5.6885-6.7541-6.0488-2.8175,1.6318-5.3371,6.2266-7.4954,13.6661a99.6,99.6,0,0,0-3.6,26.6828c-.123,13.3057,1.1124,23.4494,3.675,30.1594,2.4708,6.4424,6.0129,9.6748,10.8265,9.88a18.3074,18.3074,0,0,0,9.1439-2.1807,20.5227,20.5227,0,0,0,7.5755-6.4521,1,1,0,0,1,1.8067.455l1.7715,14.0685a.9936.9936,0,0,1-.0742.5215,39.71,39.71,0,0,1-10.82,14.5626C915.875,259.7158,911.1629,261.6475,906.4245,261.6475Zm-18.6159-16.87c4.32,9.9961,10.41,14.8594,18.6169,14.87,4.256,0,8.5364-1.7745,12.7211-5.2745a37.71,37.71,0,0,0,10.1615-13.5753L927.8667,229.35a22.48,22.48,0,0,1-6.7747,5.1739,20.3667,20.3667,0,0,1-10.1332,2.4043c-5.632-.24-9.8744-3.9962-12.6245-11.1642-2.6524-6.9463-3.9327-17.336-3.8067-30.881a101.5621,101.5621,0,0,1,3.6759-27.2209c2.4346-8.3956,5.3224-13.3224,8.8314-15.0753a.99.99,0,0,1,.62-.09c2.1866.3838,4.8967,2.6241,8.2864,6.8458a79.7783,79.7783,0,0,1,8.1448,12.5479,60.2541,60.2541,0,0,0,2.7208-10.4366,93.7064,93.7064,0,0,0,1.7823-15.9093,30.326,30.326,0,0,0-15.9224-8.1973c-5.8762-1.2119-11.0072.4287-15.6793,5.0137-4.7472,4.7539-8.5325,12.1974-11.2416,22.1164-2.73,10.1163-4.1769,22.0822-4.3029,35.5617-.1728,19.3791,1.9688,34.4319,6.3655,44.7377Zm343.7925,16.5762h-.0088a74.2568,74.2568,0,0,1-9.4905-.6982.9982.9982,0,0,1-.7627-.5537c-1.94-3.9981-4.9621-9.8233-10.1059-19.4767q-5.9709-11.5533-11.8373-22.9553c-.1211,6.1182-.1856,10.9738-.1924,14.4669-.0244,14.3458.3623,23.4973,1.15,27.1994a1.0008,1.0008,0,0,1-.6875,1.1651,16.8453,16.8453,0,0,1-5.1974.7559,30.8939,30.8939,0,0,1-6.2415-.7891.9994.9994,0,0,1-.77-1.0469c.6191-8.39.9492-20.55.9824-36.1438.0381-15.24-.3467-25.0676-1.1416-29.2092a1.0006,1.0006,0,0,1,.9737-1.1885,34.2926,34.2926,0,0,1,8.1379.9082,87.4571,87.4571,0,0,1,9.309,2.6368.998.998,0,0,1,.5908.5449c2.4132,5.5176,5.9914,13.0245,10.348,21.7091,3.9582,7.6583,7.8392,14.8322,11.56,21.3664.11-5.5049.1641-9.8809.16-13.0411.0117-13.3614-.3848-21.6808-1.1768-24.7306a1,1,0,0,1,.9033-1.25,19.1814,19.1814,0,0,1,5.1565.3692,39.1866,39.1866,0,0,1,6.2775,1.9365,1.0015,1.0015,0,0,1,.6241.9932c-.583,8.8223-.88,19.1193-.8838,30.6057,0,12.9551.4023,21.2306,1.1953,24.5949a1.0011,1.0011,0,0,1-.8184,1.2178,50.5626,50.5626,0,0,1-7.8254.6113h-.0186l-.2.0019Zm-8.6985-2.6084a72.3008,72.3008,0,0,0,8.6985.6084l.2-.0019h.0176a48.5087,48.5087,0,0,0,6.4924-.4366c-.6943-4.0029-1.0332-11.88-1.0332-23.9874.0039-11.2159.2861-21.3058.8408-30.0071a37.1527,37.1527,0,0,0-5.2785-1.5732,17.0279,17.0279,0,0,0-3.4483-.3643c.6728,3.8692.9961,11.7638.9854,24.0207.0048,3.833-.0752,9.4454-.2374,16.6788a1,1,0,0,1-1.8653.48c-4.2735-7.3741-8.7825-15.6427-13.4-24.5763-4.2717-8.5157-7.7982-15.9025-10.2211-21.4113a85.7652,85.7652,0,0,0-8.6927-2.4375,32.2453,32.2453,0,0,0-6.4993-.8467c.6924,4.79,1.0128,14.1114.9776,28.3918-.0322,15.1124-.3438,27.0207-.9258,35.4182a28.7505,28.7505,0,0,0,4.9865.5566,14.625,14.625,0,0,0,3.7238-.4345c-.709-4.3057-1.044-13.0646-1.0206-26.69.0078-4.2266.1006-10.4356.2744-18.4542a1,1,0,0,1,1.89-.4355q6.7546,13.1367,13.6372,26.4533C1217.9522,248.9814,1220.9455,254.7412,1222.9026,258.7451Zm-148.2856,2.1885h-.0488l-.1572-.0019h0a46.2906,46.2906,0,0,1-9.226-1.0625.9985.9985,0,0,1-.7832-1.0479c.3965-5.5362.7393-13.1427,1.0186-22.6076.2852-9.48.457-18.5734.5117-27.0256.1231-19.3487-.3926-31.5832-1.5313-36.3615a1,1,0,0,1,.6905-1.1905,32.6083,32.6083,0,0,1,10.5072-1.3086,67.63,67.63,0,0,1,13.1176,1.4336c8.1742,1.6787,14.5484,5.45,18.9412,11.2081,4.3487,5.6133,6.5393,12.9376,6.5051,21.7629a34.4778,34.4778,0,0,1-3.4679,15.6065,24.4363,24.4363,0,0,1-9.6273,10.4493,23.6611,23.6611,0,0,1-14.0943,3.1914,26.9692,26.9692,0,0,1-5.1291-.75c.0869,13.1984.5831,21.78,1.4747,25.5178a1,1,0,0,1-.73,1.2021A32.7887,32.7887,0,0,1,1074.617,260.9336Zm-.1787-2.002.1455.002h.044a30.7118,30.7118,0,0,0,6.5373-.7051c-.834-4.4336-1.27-13.0665-1.3282-26.3029a1.0038,1.0038,0,0,1,.4-.8057.9891.9891,0,0,1,.8848-.1572,25.3476,25.3476,0,0,0,5.9856,1.0215,21.6558,21.6558,0,0,0,12.9448-2.92,22.4481,22.4481,0,0,0,8.8431-9.6,32.4841,32.4841,0,0,0,3.2667-14.72c.0322-8.5068-1.96-15.2237-6.091-20.5567-4.0949-5.3682-10.07-8.8888-17.7614-10.4689a65.7632,65.7632,0,0,0-12.7612-1.3925,30.6719,30.6719,0,0,0-9.0013.9795c1.05,5.4863,1.503,17.2589,1.3848,35.8957-.0547,8.4678-.2266,17.5753-.5117,27.0715-.2666,9.0059-.59,16.339-.963,21.8185a44.3011,44.3011,0,0,0,7.9808.84Zm-44.5026,1.7139c-7.9338-.0244-14.1391-3.6367-18.443-10.7374-4.2228-7.0654-6.3166-17.129-6.2278-29.9162.0987-13.17.044-26.1711-.1631-38.6448-.1982-12.4551-.581-20.7609-1.1367-24.69a1.001,1.001,0,0,1,.9229-1.1377,32.43,32.43,0,0,1,8.9544.6484,42.4527,42.4527,0,0,1,8.4261,2.87.9979.9979,0,0,1,.5791.94c-.57,17.0773-.9346,36.5891-1.0831,57.9946-.1084,15.1671,3.4435,22.9982,10.558,23.2745a9.7486,9.7486,0,0,0,7.5023-2.5156c3.0274-2.8936,4.5861-8.3829,4.6349-16.3146.2109-31.5412.04-50.9466-.5088-57.6791a1.0007,1.0007,0,0,1,.81-1.0635,14.66,14.66,0,0,1,5.7375.0391,24.3448,24.3448,0,0,1,5.9406,2.3145.9979.9979,0,0,1,.5166.916c-.2588,6.5469-.5234,15.4952-.7842,26.5959-.2607,11.1182-.42,21.0333-.4736,29.47-.0635,10.8-2.0352,19.796-5.86,26.7385-3.93,7.2276-10.5951,10.8946-19.8073,10.8946Zm-23.8534-103.1823c.4932,4.3418.836,12.3516,1.02,23.8517.207,12.4884.2617,25.506.1631,38.6917-.0869,12.4151,1.9122,22.1281,5.9416,28.87,3.967,6.545,9.4388,9.7422,16.7223,9.7686l.08-.0019c8.5638,0,14.4683-3.2237,18.0739-9.8546,3.6642-6.6524,5.5529-15.3282,5.6144-25.79.0537-8.4483.2129-18.3751.4737-29.5051.2539-10.7618.51-19.504.7617-26.0012a22.3122,22.3122,0,0,0-4.8752-1.8281,12.5852,12.5852,0,0,0-4.045-.1611c.499,7.5264.6494,26.66.4473,56.9271-.0518,8.4942-1.8194,14.465-5.2532,17.7482a11.8307,11.8307,0,0,1-8.9622,3.0674c-8.3987-.3262-12.5971-8.8341-12.48-25.2863.1465-21.1447.5039-40.4437,1.0625-57.3793a40.49,40.49,0,0,0-7.4163-2.459A30.2175,30.2175,0,0,0,1006.0823,157.4632ZM1149.4693,252.1c-.2363,0-.4717-.0059-.708-.0176-4.8918-.1289-8.8431-2.7627-11.7192-7.8253-2.8048-4.9844-4.2072-11.5079-4.17-19.3927a39.5078,39.5078,0,0,1,2.2872-13.8155,18.66,18.66,0,0,1,6.3772-8.9151.797.797,0,0,1,.084-.0674,12.5288,12.5288,0,0,1,7.16-2.2725,14.0946,14.0946,0,0,1,2.2843.19.978.978,0,0,1,.2617.0811c4.4025,2.0664,7.9524,5.8174,10.55,11.1514a39.8009,39.8009,0,0,1,3.8282,17.9171c-.0263,6.9991-1.5547,12.63-4.5421,16.7179A14.0916,14.0916,0,0,1,1149.4693,252.1Zm-6.6331-48.4437a.3576.3576,0,0,1-.03.0244,16.6829,16.6829,0,0,0-5.7561,8.0206,37.5738,37.5738,0,0,0-2.1778,13.1543c-.0352,7.5518,1.28,13.7423,3.91,18.4172,2.54,4.47,5.83,6.6992,10.056,6.8106a12.0889,12.0889,0,0,0,10.684-5.3751c2.76-3.7774,4.1583-9.0147,4.1828-15.6026a37.8022,37.8022,0,0,0-3.631-17.0226c-2.3624-4.8516-5.55-8.2686-9.4711-10.1485a12.1413,12.1413,0,0,0-1.8262-.1406h-.0264A10.26,10.26,0,0,0,1142.8362,203.6559ZM965.8114,247.121c-.1123,0-.2247-.001-.3379-.0039-4.9563-.1289-8.9066-3.9444-11.74-11.3419-2.7257-7.1914-4.0558-16.6671-3.9552-28.1672a84.2857,84.2857,0,0,1,2.3594-20.255c1.5323-5.9092,3.6838-10.4346,6.3977-13.4659l.0078-.0078c2.4122-2.6358,5.1057-3.9737,8.0062-3.9756a10.1622,10.1622,0,0,1,1.6055.1318,1.0161,1.0161,0,0,1,.3652.1367c4.3811,2.712,7.891,8.044,10.435,15.8478a83.2128,83.2128,0,0,1,3.6261,26.5432c-.0752,10.4532-1.6143,18.8731-4.5734,25.0245C974.9914,243.9149,970.8887,247.121,965.8114,247.121Zm-5.79-71.894c-2.4971,2.791-4.4972,7.0342-5.9436,12.6124a82.284,82.284,0,0,0-2.2989,19.7716c-.0986,11.2647,1.1886,20.4962,3.8244,27.4523,2.5138,6.5645,5.8537,9.9483,9.9242,10.0538,4.4074.125,7.9251-2.6221,10.6771-8.3936,2.8312-5.8858,4.3039-14.02,4.3771-24.176a81.25,81.25,0,0,0-3.5274-25.9064c-2.36-7.2383-5.5266-12.168-9.4164-14.6612a8.1561,8.1561,0,0,0-1.0889-.0762C964.2029,171.9057,962.0671,172.9926,960.0211,175.227Zm131.2205,47.5911c-.03,0-.0605-.001-.0918-.0039-2.6094-.24-6.15-1.5615-10.8246-4.0381a1.0028,1.0028,0,0,1-.5312-.89c.05-8.7549.3379-19.4659.8584-31.8351a1.0024,1.0024,0,0,1,.8819-1.0391,10.5529,10.5529,0,0,1,1.8662-.1455,17.3846,17.3846,0,0,1,2.8761.2637c8.5814,1.4912,12.9077,7.8106,12.854,18.7833a30.135,30.135,0,0,1-2.0177,11.2325,16.9777,16.9777,0,0,1-5.2375,7.4454A.9978.9978,0,0,1,1091.2416,222.8181Zm-9.4437-5.5283c3.87,2.0136,6.9368,3.1836,9.1293,3.4853a15.007,15.007,0,0,0,4.31-6.3223,28.2226,28.2226,0,0,0,1.8936-10.5313c.0488-10.0069-3.6154-15.503-11.2-16.8214a15.4465,15.4465,0,0,0-2.544-.2334c-.2549.0049-.5118.0088-.7676.0283C1082.1319,198.6363,1081.8556,208.8532,1081.7979,217.29Z" fill="#fff"/></svg>