<svg xmlns="http://www.w3.org/2000/svg" viewBox="0 0 1300 571"><polygon points="1300 0 0 0 0 571 409.703 571 432.885 438.792 433.999 393.935 437.648 571 867 571 867 393.937 874.618 571 1300 571 1300 0"/><path d="M648.4135,282.216q-1.7369,0-3.455.1c49.19-38.3994,60.81-93.2132,60.939-93.8433l.317-1.5832H589.9936v24.2424h79.9309c-.423,6.3079-4.977,36.1842-51.6559,85.2431l-5.445,5.7238,7.01-3.6375a162.8485,162.8485,0,0,0,18.752-11.4016,58.7193,58.7193,0,0,1-4.461,113.6451l-5.6668,1.2191,5.6359,1.3612a61.3792,61.3792,0,1,0,14.319-121.0711" fill="#fff"/><path d="M615.8086,344.5858a25.8139,25.8139,0,1,0,.004,0" fill="#fff"/><path d="M1083.42,282.216q-1.7369,0-3.4549.1c49.19-38.3994,60.81-93.2132,60.9388-93.8433l.317-1.5832H1025v24.2424h79.9309c-.423,6.3079-4.977,36.1842-51.6559,85.2431l-5.4449,5.7238,7.01-3.6375A162.8613,162.8613,0,0,0,1073.592,287.06a58.7193,58.7193,0,0,1-4.461,113.6451l-5.667,1.2191,5.636,1.3612a61.3792,61.3792,0,1,0,14.3189-121.0711" fill="#fff"/><path d="M1050.8152,344.5858a25.814,25.814,0,1,0,.004,0" fill="#fff"/><path d="M213.4188,282.216q-1.737,0-3.455.1c49.19-38.3994,60.81-93.2132,60.939-93.8433l.317-1.5832H154.9989v24.2424H234.93c-.423,6.3079-4.977,36.1842-51.6559,85.2431l-5.445,5.7238,7.01-3.6375A162.865,162.865,0,0,0,203.5908,287.06a58.7193,58.7193,0,0,1-4.461,113.6451l-5.6669,1.2191,5.6359,1.3612a61.3792,61.3792,0,1,0,14.319-121.0711" fill="#fff"/><path d="M180.8139,344.5858a25.8139,25.8139,0,1,0,.004,0" fill="#fff"/><rect y="15" width="23" height="6" fill="#bc9b82"/><rect x="36" y="15" width="100" height="6" fill="#bc9b82"/><rect x="149.0001" y="15" width="100" height="6" fill="#bc9b82"/><rect x="261.0001" y="15" width="100" height="6" fill="#bc9b82"/><rect x="374.0002" y="15" width="100" height="6" fill="#bc9b82"/><rect x="487.0002" y="15" width="100" height="6" fill="#bc9b82"/><rect x="600.0003" y="15" width="100" height="6" fill="#bc9b82"/><rect x="712.0003" y="15" width="100" height="6" fill="#bc9b82"/><rect x="825.0004" y="15" width="100" height="6" fill="#bc9b82"/><rect x="938.0004" y="15" width="100" height="6" fill="#bc9b82"/><rect x="1051.0005" y="15" width="100" height="6" fill="#bc9b82"/><rect x="1163.0005" y="15" width="100" height="6" fill="#bc9b82"/><rect x="1276.0006" y="15" width="23.9994" height="6" fill="#bc9b82"/><path d="M433.334,420.7057c-.2693,1.0237,2.8843,59.541-63.1954,136.9243L409.7026,571S432.334,514.585,433.334,420.7057Z" fill="#fff"/></svg>