<svg xmlns="http://www.w3.org/2000/svg" viewBox="0 0 155 127"><path d="M33.2259,127c10.76-9.702,8.278-18.0826,0-21.1958C-4.8631,91.4785-5.1371,47.9067,7.3719,28.699,20.9609,7.8326,47.3559,2.27,66.6418.68c29.287-2.4125,55.305.917,75.095,21.0336C163.4087,43.7455,161.4217,93.4065,113.9,106.73c-23.078,6.47-45.054.6406-54.8509,7.1233C49.0939,120.44,45.11,124.7987,33.2289,127" fill="#fff" fill-rule="evenodd"/><path d="M55.0008,45.7408v-1.782h1.35v-5.724h10.332v5.724h1.278v1.782Zm1.89-8.568v-6.84h9.27v6.84Zm-4.09,8.892-1.836-1.314a12.41,12.41,0,0,0,.846-1.278q.432-.738.837-1.539t.738-1.575a12.4611,12.4611,0,0,0,.515-1.386q.162.162.468.414a8.1356,8.1356,0,0,0,.657.486q.351.234.585.378-.2.63-.531,1.413t-.731,1.595q-.4.81-.792,1.539A14.6869,14.6869,0,0,1,52.8008,46.0648Zm1.476-8.154a9.9689,9.9689,0,0,0-.891-.684q-.567-.4-1.179-.765a8.7342,8.7342,0,0,0-1.08-.567l1.062-1.728q.792.378,1.719.909a11.0775,11.0775,0,0,1,1.557,1.053,5.7782,5.7782,0,0,0-.387.513q-.243.351-.468.7A6.5328,6.5328,0,0,0,54.2768,37.9108Zm.7-4.212a7.9692,7.9692,0,0,0-.873-.684q-.567-.4-1.188-.756a9.982,9.982,0,0,0-1.089-.558l1.08-1.692a10.1339,10.1339,0,0,1,1.125.558q.639.36,1.233.738a7.3947,7.3947,0,0,1,.918.666q-.2058.24-.387.5-.243.342-.477.684a5.872,5.872,0,0,0-.34.544Zm3.942,1.926h5.2v-1.152h-5.2Zm0-2.61h5.2v-1.134h-5.2Zm-.7,10.944h1.1v-4.014h-1.1Zm2.754,0h1.1v-4.014h-1.1Zm2.736,0h1.1v-4.014h-1.1Zm11.992,2.358q-.036-.45-.144-1.053a8.043,8.043,0,0,0-.234-1h1.148a.81.81,0,0,0,.522-.125.6059.6059,0,0,0,.144-.468v-5.688h-4.968v-6.75h3.618q.2-.414.4-.909t.333-.819l2.43.2q-.108.27-.306.7t-.4.828h5.643v6.75h-.468l1.512,1.4q-.522.45-1.332,1.044t-1.566,1.12a15.271,15.271,0,0,0,2.187,1.494,14.2751,14.2751,0,0,0,2.381,1.08q-.288.4-.621.9a8.87,8.87,0,0,0-.531.9,14.8787,14.8787,0,0,1-3.515-2.062,14.4933,14.4933,0,0,1-2.745-2.816v3.366a1.7549,1.7549,0,0,1-.567,1.45,2.7323,2.7323,0,0,1-1.737.459Zm-5-.252a7.1149,7.1149,0,0,0-.585-.9,5.2125,5.2125,0,0,0-.693-.792,10.62,10.62,0,0,0,2.755-1.575,7.5462,7.5462,0,0,0,1.935-2.169h-3.906v-1.782h5.922l.576.522a9.5942,9.5942,0,0,1-2.2,3.933,11.7277,11.7277,0,0,1-3.812,2.763Zm3.582-9.684h7.48v-1.08h-7.488Zm0-2.5h7.48v-1.044h-7.488Zm6.364,6.352q.486-.342,1.008-.756t.99-.81a9.058,9.058,0,0,0,.738-.684h-4.194v.018a8.4414,8.4414,0,0,0,.621,1.125A10.1381,10.1381,0,0,0,80.6468,40.2328Zm9.792,5.094a3.6808,3.6808,0,0,0-.5-.4q-.342-.234-.7-.432a3.088,3.088,0,0,0-.612-.27,11.92,11.92,0,0,0,1.452-1.966,25.5,25.5,0,0,0,1.332-2.53,28.459,28.459,0,0,0,1.116-2.808q-.918.108-1.773.252t-1.413.286q-.018-.234-.09-.63t-.162-.783a2.7487,2.7487,0,0,0-.18-.567q.414-.036,1.08-.1t1.476-.144q.81-.081,1.62-.135.324-1.134.531-2.223a18.4878,18.4878,0,0,0,.279-2.018l2.124.378q-.09.828-.288,1.773t-.486,1.935q.36-.018.648-.027t.5-.009a3.4652,3.4652,0,0,1,1.287.225,1.8407,1.8407,0,0,1,.909.792,3.3991,3.3991,0,0,1,.4,1.566,11.1564,11.1564,0,0,1-.234,2.547,15.5182,15.5182,0,0,1-.819,3.042,3.31,3.31,0,0,1-1.143,1.544,3.1185,3.1185,0,0,1-1.746.45,4.2567,4.2567,0,0,1-1.89-.4q.018-.432,0-1.044a5.3837,5.3837,0,0,0-.108-1.008,4.362,4.362,0,0,0,1.764.4,1.1873,1.1873,0,0,0,.747-.243,2.3088,2.3088,0,0,0,.6-.972,13.5365,13.5365,0,0,0,.579-2.149,7.5657,7.5657,0,0,0,.216-1.953,1.0836,1.0836,0,0,0-.342-.837,1.2411,1.2411,0,0,0-.72-.2q-.5,0-1.206.054-.558,1.674-1.269,3.294t-1.476,3A17.4264,17.4264,0,0,1,90.4388,45.3268Zm13.122-4.68a12.7324,12.7324,0,0,0-.792-1.152q-.5-.666-1.1-1.341t-1.15-1.242a7.234,7.234,0,0,0-.972-.855l1.584-1.332a11.59,11.59,0,0,1,1.008.873q.576.549,1.188,1.2t1.134,1.275a9.9957,9.9957,0,0,1,.81,1.1Zm.81-7.416a8.7333,8.7333,0,0,0-1.2-.909,8.9,8.9,0,0,0-1.251-.693l.756-1.026q.306.144.783.432t.954.6a7.3714,7.3714,0,0,1,.747.549Zm-1.224,1.728a8.2341,8.2341,0,0,0-1.179-.918,10.1449,10.1449,0,0,0-1.251-.72l.756-1.008a8.0441,8.0441,0,0,1,.783.441q.477.3.945.612a7.8361,7.8361,0,0,1,.738.549Z"/><path d="M52.6568,77.2518a5.38,5.38,0,0,0-.42-1.064A9.1117,9.1117,0,0,0,51.5228,75a6.0278,6.0278,0,0,0-.8-.938,10.5338,10.5338,0,0,0,5.838-2.506,6.47,6.47,0,0,0,2.114-4.522,6.8994,6.8994,0,0,0-.756-3.7,7.2629,7.2629,0,0,0-5.654-3.834,39.258,39.258,0,0,1-.84,5.32,27.8581,27.8581,0,0,1-1.666,5.1,14.6988,14.6988,0,0,1-2.558,4.028,4.2425,4.2425,0,0,1-2.23,1.428,3.9938,3.9938,0,0,1-2.282-.308,5.4487,5.4487,0,0,1-2.072-1.6,7.72,7.72,0,0,1-1.372-2.59,9.0428,9.0428,0,0,1-.392-3.206,11.5661,11.5661,0,0,1,4.056-8.316,12.2588,12.2588,0,0,1,4.116-2.324,13.175,13.175,0,0,1,4.956-.644,11.14,11.14,0,0,1,4,.952,10.4623,10.4623,0,0,1,5.474,5.71,10.5009,10.5009,0,0,1-2.054,10.66A13.0424,13.0424,0,0,1,52.6568,77.2518Zm-9.1-5.656a1.0792,1.0792,0,0,0,.644.224.9681.9681,0,0,0,.672-.336,9.8812,9.8812,0,0,0,1.862-2.856,23.2117,23.2117,0,0,0,1.428-4.172,27.7478,27.7478,0,0,0,.742-4.732,8.6939,8.6939,0,0,0-5.796,4.466,8.9017,8.9017,0,0,0-.98,3.654,5.2752,5.2752,0,0,0,.35,2.282,3.4561,3.4561,0,0,0,1.078,1.474ZM79.7328,77.5a6.9569,6.9569,0,0,0-.686-1.564,7.51,7.51,0,0,0-1.078-1.512,10.4628,10.4628,0,0,0,6.09-1.932,5.627,5.627,0,0,0,2.114-4.62,4.6807,4.6807,0,0,0-1.064-3.08,5.8666,5.8666,0,0,0-2.908-1.848,36.1151,36.1151,0,0,1-3.448,5.964,11.3659,11.3659,0,0,0,1.624,1.008,5.5638,5.5638,0,0,0-1.12,1.19,10.0922,10.0922,0,0,0-.868,1.386q-.42-.2241-.84-.49t-.84-.574a14.7,14.7,0,0,1-3.472,2.94,5.48,5.48,0,0,1-2.926.882,2.82,2.82,0,0,1-2.184-1.036,4.5327,4.5327,0,0,1-.826-2.954,9.4462,9.4462,0,0,1,.9-3.99,12.5574,12.5574,0,0,1,2.38-3.486q-.84-1.5681-1.5-3.122t-1.078-2.9l2.94-1.176a13.5951,13.5951,0,0,0,.7,2.52,22.1985,22.1985,0,0,0,1.258,2.746,13.0933,13.0933,0,0,1,3.15-1.526,10.8532,10.8532,0,0,1,3.4-.546h.616q.4761-1.3161.826-2.646a18.2689,18.2689,0,0,0,.49-2.534l3.36.84q-.252,1.2-.6,2.422t-.826,2.45a9.52,9.52,0,0,1,3.374,1.722,7.9381,7.9381,0,0,1,2.128,2.632,7.1252,7.1252,0,0,1,.742,3.206,9.2587,9.2587,0,0,1-1.12,4.55,8.9348,8.9348,0,0,1-3.3,3.346A13.8629,13.8629,0,0,1,79.7328,77.5Zm-7.952-5.736a10.1488,10.1488,0,0,0,2.744-2.352q-.6439-.7-1.232-1.47t-1.148-1.554a8.71,8.71,0,0,0-1.358,2.3,6.7637,6.7637,0,0,0-.486,2.512Q70.3008,72.5477,71.7808,71.7638Zm4.676-4.9a39.193,39.193,0,0,0,2.408-4.256,8.1952,8.1952,0,0,0-2.324.518,9.2627,9.2627,0,0,0-2.156,1.162A27.2248,27.2248,0,0,0,76.4568,66.8638Zm30.8,11.036a7.9009,7.9009,0,0,1-4.956-1.278,3.8613,3.8613,0,0,1-1.6-3.122,3.4753,3.4753,0,0,1,.588-2.044,3.9485,3.9485,0,0,1,1.54-1.3,4.6192,4.6192,0,0,1,2.044-.462,4.5,4.5,0,0,1,3.35,1.286,6.0337,6.0337,0,0,1,1.638,3.192,4.0472,4.0472,0,0,0,1.694-1.456,4.12,4.12,0,0,0,.658-2.352,3.97,3.97,0,0,0-.56-2.1,4.0147,4.0147,0,0,0-1.582-1.47,4.9447,4.9447,0,0,0-2.366-.546,10.6345,10.6345,0,0,0-3.262.448,7.0769,7.0769,0,0,0-2.506,1.428q-.5.4479-1.33,1.148t-1.554,1.26l-2.3-2.464a23.3069,23.3069,0,0,0,2.688-1.848q1.428-1.12,2.884-2.492t2.776-2.842a36.4772,36.4772,0,0,0,2.352-2.9q-1.2.28-2.618.532t-2.716.42q-1.3.168-2.2.224l-.618-3.19a14.3789,14.3789,0,0,0,1.89-.014q1.134-.07,2.45-.2t2.562-.322q1.2461-.2,2.24-.406a7.1777,7.1777,0,0,0,1.47-.434l2.52,1.68a22.6089,22.6089,0,0,1-2.618,3.934,50.83,50.83,0,0,1-3.57,3.962,4.9049,4.9049,0,0,1,1.064-.35,5.4606,5.4606,0,0,1,1.152-.122,8.2446,8.2446,0,0,1,3.836.84,6.2612,6.2612,0,0,1,2.534,2.338,6.58,6.58,0,0,1,.91,3.486,7.1269,7.1269,0,0,1-1.05,3.808,7.5008,7.5008,0,0,1-2.954,2.716A9.4452,9.4452,0,0,1,107.2568,77.9Zm-.364-3.08a3.3726,3.3726,0,0,0-.658-1.708,1.6587,1.6587,0,0,0-1.358-.644,1.2511,1.2511,0,0,0-.756.224.777.777,0,0,0-.308.672,1.1413,1.1413,0,0,0,.63.98,4.54,4.54,0,0,0,2.114.448.5309.5309,0,0,0,.168.028Z"/></svg>