<svg xmlns="http://www.w3.org/2000/svg" viewBox="0 0 155 127"><path d="M33.2259,127c10.76-9.702,8.278-18.0826,0-21.1958C-4.8631,91.4785-5.1371,47.9067,7.3719,28.699,20.9609,7.8326,47.3559,2.27,66.6418.68c29.287-2.4125,55.305.917,75.095,21.0336C163.4087,43.7455,161.4217,93.4065,113.9,106.73c-23.078,6.47-45.054.6406-54.8509,7.1233C49.0939,120.44,45.11,124.7987,33.2289,127" fill="#fff" fill-rule="evenodd"/><path d="M54.0018,44.4947v-1.782h1.35v-5.724h10.332v5.724h1.278v1.782Zm1.89-8.568v-6.84h9.27v6.84Zm-4.09,8.892-1.836-1.314a12.41,12.41,0,0,0,.846-1.278q.432-.738.837-1.539t.738-1.575a12.4537,12.4537,0,0,0,.515-1.386q.162.162.468.414a8.1356,8.1356,0,0,0,.657.486q.351.234.585.378-.2.63-.531,1.413t-.731,1.595q-.4.81-.792,1.539A14.6869,14.6869,0,0,1,51.8018,44.8187Zm1.476-8.154a9.9877,9.9877,0,0,0-.891-.684q-.567-.4-1.179-.765a8.7342,8.7342,0,0,0-1.08-.567l1.062-1.728q.792.378,1.719.909a11.0775,11.0775,0,0,1,1.557,1.053,5.7782,5.7782,0,0,0-.387.513q-.243.351-.468.7A6.5328,6.5328,0,0,0,53.2778,36.6647Zm.7-4.212a7.9814,7.9814,0,0,0-.873-.684q-.567-.4-1.188-.756a9.982,9.982,0,0,0-1.089-.558l1.08-1.692a10.1514,10.1514,0,0,1,1.125.558q.639.36,1.233.738a7.405,7.405,0,0,1,.918.666q-.2058.24-.387.5-.243.342-.477.684a5.872,5.872,0,0,0-.34.544Zm3.942,1.926h5.2v-1.152h-5.2Zm0-2.61h5.2v-1.134h-5.2Zm-.7,10.944h1.1v-4.014h-1.1Zm2.754,0h1.1v-4.014h-1.1Zm2.736,0h1.1v-4.014h-1.1Zm11.992,2.358q-.036-.45-.144-1.053a8.043,8.043,0,0,0-.234-1h1.148a.81.81,0,0,0,.522-.125.6059.6059,0,0,0,.144-.468v-5.688H71.17v-6.75h3.618q.2-.414.4-.909t.333-.819l2.43.2q-.108.27-.306.7t-.4.828h5.643v6.75H82.42l1.512,1.4q-.522.45-1.332,1.044t-1.566,1.12a15.271,15.271,0,0,0,2.187,1.494,14.2751,14.2751,0,0,0,2.381,1.08q-.288.4-.621.9a8.8618,8.8618,0,0,0-.531.9,14.8753,14.8753,0,0,1-3.515-2.062,14.4877,14.4877,0,0,1-2.745-2.816v3.366a1.7549,1.7549,0,0,1-.567,1.45,2.7323,2.7323,0,0,1-1.737.459Zm-5-.252a7.1221,7.1221,0,0,0-.585-.9,5.2173,5.2173,0,0,0-.693-.792,10.62,10.62,0,0,0,2.755-1.575,7.5462,7.5462,0,0,0,1.935-2.169h-3.906v-1.782H75.13l.576.522a9.593,9.593,0,0,1-2.2,3.933,11.7277,11.7277,0,0,1-3.812,2.763Zm3.582-9.684h7.48v-1.08h-7.488Zm0-2.5h7.48v-1.044h-7.488Zm6.364,6.352q.486-.342,1.008-.756t.99-.81a9.04,9.04,0,0,0,.738-.684H78.19v.018a8.4352,8.4352,0,0,0,.621,1.125A10.1285,10.1285,0,0,0,79.6478,38.9867Zm9.594,4.752q-.126-.738-.2-1.809t-.1-2.34q-.027-1.269,0-2.619t.108-2.637q.081-1.287.216-2.385a18.2606,18.2606,0,0,1,.315-1.872l2.106.432a11.2314,11.2314,0,0,0-.342,1.683q-.144,1.035-.234,2.268t-.109,2.529q-.027,1.3.009,2.52t.121,2.214a11.9923,11.9923,0,0,0,.234,1.6Zm7.65-.972q-3.114-.09-3.528-2.034a3.8961,3.8961,0,0,1-.072-1.08,5.3385,5.3385,0,0,1,.27-1.314l1.89.468a1.9912,1.9912,0,0,0-.135.612,1.3871,1.3871,0,0,0,.063.486q.234.648,1.908.7a15.9356,15.9356,0,0,0,1.737-.063q.927-.081,1.818-.243a14.8436,14.8436,0,0,0,1.557-.36q-.036.252-.081.684t-.063.873q-.018.441,0,.729a15.3879,15.3879,0,0,1-1.809.342q-.963.126-1.89.171T96.8918,42.7667Zm-2.7-8.784-.126-2.214a15.2574,15.2574,0,0,0,1.674.108q.99.018,2.061-.027t2.052-.162a11.1864,11.1864,0,0,0,1.629-.3l-.09,2.178q-.72.126-1.674.225t-1.971.153q-1.017.054-1.944.063T94.1918,33.9827Z"/><path d="M36.8378,76.2537a5.5,5.5,0,0,1-3.5-1.288,3.6642,3.6642,0,0,1-1.288-2.912,3.4136,3.4136,0,0,1,.7-1.974,4.6333,4.6333,0,0,1,1.9-1.456,7.2191,7.2191,0,0,1,2.94-.546,15.79,15.79,0,0,1,1.68.084q-.0279-1.2321-.084-2.8t-.112-3.416q-1.7359.1119-3.36.126t-2.772-.042l-.224-3.416a18.7181,18.7181,0,0,0,2.73.182q1.6941.014,3.57-.07-.0279-1.12-.042-2.282t-.014-2.366h3.276q-.0279,1.0639-.042,2.184t-.014,2.268q1.68-.14,3.052-.322a12.7908,12.7908,0,0,0,2.072-.406v3.36a21.079,21.079,0,0,1-2.128.308q-1.344.14-2.912.28.0561,2.0439.14,3.906t.14,3.262a17.1735,17.1735,0,0,1,3.028,1.436,30.687,30.687,0,0,1,2.856,1.932,4.99,4.99,0,0,0-.714.77,11.4773,11.4773,0,0,0-.742,1.064,9.1,9.1,0,0,0-.5.91,18.3848,18.3848,0,0,0-3.872-2.748,3.8568,3.8568,0,0,1-1.69,3.15A7.0356,7.0356,0,0,1,36.8378,76.2537Zm-10.388.34a26.0758,26.0758,0,0,1-.308-2.814q-.1119-1.722-.154-3.836t-.014-4.368q.028-2.2541.14-4.41t.294-3.976a29.5155,29.5155,0,0,1,.434-3.024l3.192.756a15.7287,15.7287,0,0,0-.518,2.632q-.21,1.652-.322,3.682t-.14,4.186q-.0279,2.1559.042,4.186t.224,3.71a23.5108,23.5108,0,0,0,.382,2.716Zm10.64-3.192a2.7083,2.7083,0,0,0,1.722-.462,2.039,2.039,0,0,0,.574-1.666v-.2a11.3238,11.3238,0,0,0-1.988-.28,3.14,3.14,0,0,0-1.666.336,1.149,1.149,0,0,0-.658.952,1.0321,1.0321,0,0,0,.532.952A2.6873,2.6873,0,0,0,37.09,73.4017Zm25.06-.476a4.2839,4.2839,0,0,1-2.632.63,3.1643,3.1643,0,0,1-2.184-1.582,18.5014,18.5014,0,0,1-1.6-3.164,30.7185,30.7185,0,0,1-1.246-3.864,35.0426,35.0426,0,0,1-.784-4.088,26.6,26.6,0,0,1-.238-3.836l3.416.028a18.3417,18.3417,0,0,0,.084,3,29.1872,29.1872,0,0,0,.536,3.272,25.4507,25.4507,0,0,0,.868,3.066,12.55,12.55,0,0,0,1.092,2.366,1.43,1.43,0,0,0,.854.77,1.33,1.33,0,0,0,.994-.238,8.4572,8.4572,0,0,0,1.414-1.232,12.9383,12.9383,0,0,0,1.246-1.512,4.8608,4.8608,0,0,0,.462.952q.3221.5319.7,1.036a7.6916,7.6916,0,0,0,.686.812,13.5323,13.5323,0,0,1-1.722,2.072A9.563,9.563,0,0,1,62.15,72.9257Zm10.584-5.236a18.6114,18.6114,0,0,0-.868-2.016q-.588-1.2-1.344-2.506T69.01,60.76a10.9942,10.9942,0,0,0-1.4-1.722l2.692-1.708a15.904,15.904,0,0,1,1.55,1.876q.8541,1.176,1.68,2.506t1.47,2.576a14.4573,14.4573,0,0,1,.924,2.114,9.1366,9.1366,0,0,0-1.75.532A7.5707,7.5707,0,0,0,72.7338,67.69Zm13.188,9.576v-7.98q-1.0359,1.1479-1.904,2.168t-1.372,1.668l-2.464-2.128q1.176-.98,2.646-2.478t3.094-3.122v-3.84q-1.232.28-2.422.532t-1.918.392l-.672-3.104q.8121-.0561,2.226-.28t2.786-.5v-5.52h3.136v4.68l.056-.028,1.708,1.26-1.62,3.16q1.3161-1.2,2.6-2.184a15.7465,15.7465,0,0,1,2.464-1.568,4.8781,4.8781,0,0,1,2.156-.588,3.232,3.232,0,0,1,2.8,1.19,5.7326,5.7326,0,0,1,.644,3.822q-.0279.4479-.126,1.33t-.2,1.974q-.1,1.092-.2,2.17t-.174,1.932q-.084.854-.112,1.246-.14,1.2,1.008,1.2a3.206,3.206,0,0,0,2.128-.84,7.8739,7.8739,0,0,0,1.68-2.044,6.6313,6.6313,0,0,0,.462.968,10.8909,10.8909,0,0,0,.7,1.092,6.9825,6.9825,0,0,0,.658.8,7.1576,7.1576,0,0,1-1.624,1.82,8.019,8.019,0,0,1-2.086,1.218,5.9156,5.9156,0,0,1-2.17.434q-4.5079,0-4.116-4.536.0561-.448.14-1.358t.182-2.016q.1-1.1061.21-2.212t.2-1.988q.084-.882.112-1.274a2.5892,2.5892,0,0,0-.168-1.344.9119.9119,0,0,0-.868-.392,3.1912,3.1912,0,0,0-1.568.686,21.9279,21.9279,0,0,0-2.268,1.82q-1.26,1.134-2.6,2.478v11.284Zm35.336-.612a7.9009,7.9009,0,0,1-4.956-1.278,3.861,3.861,0,0,1-1.6-3.122,3.4753,3.4753,0,0,1,.588-2.044,3.9485,3.9485,0,0,1,1.54-1.3,4.6205,4.6205,0,0,1,2.044-.462,4.5,4.5,0,0,1,3.35,1.286,6.0337,6.0337,0,0,1,1.638,3.192,4.0472,4.0472,0,0,0,1.694-1.456,4.12,4.12,0,0,0,.658-2.352,3.97,3.97,0,0,0-.56-2.1,4.0147,4.0147,0,0,0-1.582-1.47,4.9459,4.9459,0,0,0-2.366-.546,10.6376,10.6376,0,0,0-3.262.448,7.0769,7.0769,0,0,0-2.506,1.428q-.5.4479-1.33,1.148t-1.554,1.26l-2.3-2.464a23.3069,23.3069,0,0,0,2.688-1.848q1.428-1.12,2.884-2.492t2.776-2.842a36.4592,36.4592,0,0,0,2.352-2.9q-1.2.28-2.618.532t-2.716.42q-1.3.168-2.2.224l-.618-3.19a14.3789,14.3789,0,0,0,1.89-.014q1.134-.07,2.45-.2t2.562-.322q1.246-.2,2.24-.406a7.1652,7.1652,0,0,0,1.47-.434l2.52,1.68a22.6051,22.6051,0,0,1-2.618,3.934,50.83,50.83,0,0,1-3.57,3.962,4.91,4.91,0,0,1,1.064-.35,5.4738,5.4738,0,0,1,1.152-.122,8.2458,8.2458,0,0,1,3.836.84,6.2612,6.2612,0,0,1,2.534,2.338,6.58,6.58,0,0,1,.91,3.486,7.1269,7.1269,0,0,1-1.05,3.808,7.5,7.5,0,0,1-2.954,2.716A9.4452,9.4452,0,0,1,121.2578,76.6537Zm-.364-3.08a3.3726,3.3726,0,0,0-.658-1.708,1.6587,1.6587,0,0,0-1.358-.644,1.2511,1.2511,0,0,0-.756.224.7772.7772,0,0,0-.308.672,1.1413,1.1413,0,0,0,.63.98,4.54,4.54,0,0,0,2.114.448.5309.5309,0,0,0,.168.028Z"/></svg>