<svg xmlns="http://www.w3.org/2000/svg" viewBox="0 0 155 127"><path d="M33.2259,127c10.76-9.702,8.278-18.0826,0-21.1958C-4.8631,91.4785-5.1371,47.9067,7.3719,28.699,20.9609,7.8326,47.3559,2.27,66.6418.68c29.287-2.4125,55.305.917,75.095,21.0336C163.4087,43.7455,161.4217,93.4065,113.9,106.73c-23.078,6.47-45.054.6406-54.8509,7.1233C49.0939,120.44,45.11,124.7987,33.2289,127" fill="#fff" fill-rule="evenodd"/><path d="M54.0008,44.4948v-1.782h1.35v-5.724h10.332v5.724h1.278v1.782Zm1.89-8.568v-6.84h9.27v6.84Zm-4.09,8.892-1.836-1.314a12.41,12.41,0,0,0,.846-1.278q.432-.738.837-1.539t.738-1.575a12.4537,12.4537,0,0,0,.515-1.386q.162.162.468.414a8.0881,8.0881,0,0,0,.657.486q.351.234.585.378-.2.63-.531,1.413t-.731,1.595q-.4.81-.792,1.539A14.6869,14.6869,0,0,1,51.8008,44.8188Zm1.476-8.154a9.9877,9.9877,0,0,0-.891-.684q-.567-.4-1.179-.765a8.7478,8.7478,0,0,0-1.08-.567l1.062-1.728q.792.378,1.719.909a11.0861,11.0861,0,0,1,1.557,1.053,5.7928,5.7928,0,0,0-.387.513q-.243.351-.468.7A6.5626,6.5626,0,0,0,53.2768,36.6648Zm.7-4.212a7.9936,7.9936,0,0,0-.873-.684q-.567-.4-1.188-.756a10,10,0,0,0-1.089-.558l1.08-1.692a10.1514,10.1514,0,0,1,1.125.558q.639.36,1.233.738a7.405,7.405,0,0,1,.918.666q-.2058.24-.387.5-.243.342-.477.684a5.872,5.872,0,0,0-.34.544Zm3.942,1.926h5.2v-1.152h-5.2Zm0-2.61h5.2v-1.134h-5.2Zm-.7,10.944h1.1v-4.014h-1.1Zm2.754,0h1.1v-4.014h-1.1Zm2.736,0h1.1v-4.014h-1.1Zm11.992,2.358q-.036-.45-.144-1.053a8.043,8.043,0,0,0-.234-1h1.148a.8084.8084,0,0,0,.522-.125.6059.6059,0,0,0,.144-.468v-5.688h-4.968v-6.75h3.618q.2-.414.4-.909t.333-.819l2.43.2q-.108.27-.306.7t-.4.828h5.643v6.75h-.468l1.512,1.4q-.522.45-1.332,1.044t-1.566,1.12a15.271,15.271,0,0,0,2.187,1.494,14.2751,14.2751,0,0,0,2.381,1.08q-.288.4-.621.9a8.8618,8.8618,0,0,0-.531.9,14.8719,14.8719,0,0,1-3.515-2.062,14.4877,14.4877,0,0,1-2.745-2.816v3.366a1.7549,1.7549,0,0,1-.567,1.45,2.7317,2.7317,0,0,1-1.737.459Zm-5-.252a7.1221,7.1221,0,0,0-.585-.9,5.2173,5.2173,0,0,0-.693-.792,10.6167,10.6167,0,0,0,2.755-1.575,7.5449,7.5449,0,0,0,1.935-2.169h-3.906v-1.782h5.922l.576.522a9.593,9.593,0,0,1-2.2,3.933,11.7277,11.7277,0,0,1-3.812,2.763Zm3.582-9.684h7.48v-1.08h-7.488Zm0-2.5h7.48v-1.044h-7.488Zm6.364,6.352q.486-.342,1.008-.756t.99-.81a9.04,9.04,0,0,0,.738-.684h-4.194v.018a8.4289,8.4289,0,0,0,.621,1.125A10.1285,10.1285,0,0,0,79.6468,38.9868Zm9.792,5.094a3.6808,3.6808,0,0,0-.5-.4q-.342-.234-.7-.432a3.088,3.088,0,0,0-.612-.27,11.9115,11.9115,0,0,0,1.452-1.966,25.4887,25.4887,0,0,0,1.332-2.53,28.4492,28.4492,0,0,0,1.116-2.808q-.918.108-1.773.252t-1.413.286q-.018-.234-.09-.63t-.162-.783a2.7526,2.7526,0,0,0-.18-.567q.414-.036,1.08-.1t1.476-.144q.81-.081,1.62-.135.324-1.134.531-2.223a18.481,18.481,0,0,0,.279-2.018l2.124.378q-.09.828-.288,1.773t-.486,1.935q.36-.018.648-.027t.5-.009a3.4652,3.4652,0,0,1,1.287.225,1.8412,1.8412,0,0,1,.909.792,3.3994,3.3994,0,0,1,.4,1.566,11.1553,11.1553,0,0,1-.234,2.547,15.5164,15.5164,0,0,1-.819,3.042,3.3092,3.3092,0,0,1-1.143,1.544,3.1176,3.1176,0,0,1-1.746.45,4.2553,4.2553,0,0,1-1.89-.4q.018-.432,0-1.044a5.3854,5.3854,0,0,0-.108-1.008,4.3587,4.3587,0,0,0,1.764.4,1.1873,1.1873,0,0,0,.747-.243,2.3082,2.3082,0,0,0,.6-.972,13.5337,13.5337,0,0,0,.579-2.149,7.5652,7.5652,0,0,0,.216-1.953,1.0838,1.0838,0,0,0-.342-.837,1.2419,1.2419,0,0,0-.72-.2q-.5,0-1.206.054-.558,1.674-1.269,3.294t-1.476,3A17.42,17.42,0,0,1,89.4388,44.0808Zm13.122-4.68a12.7324,12.7324,0,0,0-.792-1.152q-.5-.666-1.1-1.341t-1.15-1.242a7.241,7.241,0,0,0-.972-.855l1.584-1.332a11.624,11.624,0,0,1,1.008.873q.576.549,1.188,1.2t1.134,1.275a10.0086,10.0086,0,0,1,.81,1.1Zm.81-7.416a8.7493,8.7493,0,0,0-1.2-.909,8.9105,8.9105,0,0,0-1.251-.693l.756-1.026q.306.144.783.432t.954.6a7.3866,7.3866,0,0,1,.747.549Zm-1.224,1.728a8.2412,8.2412,0,0,0-1.179-.918,10.1449,10.1449,0,0,0-1.251-.72l.756-1.008a8.0651,8.0651,0,0,1,.783.441q.477.3.945.612a7.8536,7.8536,0,0,1,.738.549Z"/><path d="M28.1008,77.0418a10.52,10.52,0,0,0-1.6-.798,11.09,11.09,0,0,0-1.7-.574,19.5251,19.5251,0,0,0,1.508-2.646q.784-1.61,1.568-3.584t1.512-4.116q.7281-2.142,1.316-4.214-1.6.14-3.01.2a22.5494,22.5494,0,0,1-2.338,0l-.308-3.36a26.4283,26.4283,0,0,0,2.9.084q1.75-.0281,3.626-.2.364-1.456.574-2.688a20.2368,20.2368,0,0,0,.266-2.184l3.5.476q-.1119.812-.336,1.806t-.5,2.142q1.1481-.2,2.156-.434a15.9615,15.9615,0,0,0,1.708-.49l.5,3.136q-.8679.28-2.254.574t-3.01.518q-.6159,2.212-1.372,4.55t-1.568,4.55q-.8119,2.212-1.61,4.074T28.1008,77.0418Zm18.984-1.176a22.8445,22.8445,0,0,1-5.7.224,15.6,15.6,0,0,1-4.646-1.092,7.2251,7.2251,0,0,1-2.954-2.1l1.708-2.52a7.0741,7.0741,0,0,0,2.758,1.638,14.2641,14.2641,0,0,0,4.172.728,23.2239,23.2239,0,0,0,5.222-.434,7.8515,7.8515,0,0,0-.434,1.764A10.1429,10.1429,0,0,0,47.0848,75.8658Zm-.84-9.912a17.5238,17.5238,0,0,0-2.128-.546q-1.2-.2381-2.534-.378t-2.6-.182q-1.2739-.042-2.31.014l.42-3.276a22.47,22.47,0,0,1,2.366.014q1.3581.07,2.828.21t2.8.35q1.33.21,2.282.434Zm28.956,6.384q-.924-.5-2.226-1.344t-2.774-1.862q-1.47-1.0219-2.926-2.1t-2.716-2.086q-1.26-1.008-2.1-1.764a1.1791,1.1791,0,0,0-.644-.392,1.1226,1.1226,0,0,0-.616.336q-.8679.8119-2.016,1.75t-2.366,1.862q-1.218.924-2.366,1.708l-2.632-2.884q.84-.392,2.044-1.092t2.478-1.554q1.2741-.8539,2.394-1.708a18.2685,18.2685,0,0,0,1.82-1.554,1.694,1.694,0,0,1,1.3-.672,2.6658,2.6658,0,0,1,1.386.728q.6441.532,1.918,1.5t2.9,2.114q1.6221,1.146,3.342,2.28t3.3,2.058a22.0209,22.0209,0,0,0,2.758,1.4,5.15,5.15,0,0,0-.854.91,14.0366,14.0366,0,0,0-.854,1.246A6.2178,6.2178,0,0,0,75.2008,72.3378Zm-4.372-11.116a15.645,15.645,0,0,0-1.568-1.736,14.6063,14.6063,0,0,0-1.708-1.456l1.428-1.376a9.9361,9.9361,0,0,1,1.092.91q.6441.6,1.274,1.218a12.16,12.16,0,0,1,.966,1.036Zm2.352-2.324a13.7171,13.7171,0,0,0-1.6-1.722,17.1117,17.1117,0,0,0-1.732-1.442l1.428-1.344a11.6151,11.6151,0,0,1,1.092.882q.6441.574,1.288,1.19a11.2456,11.2456,0,0,1,.98,1.036Zm12.74,18.368v-7.98q-1.0359,1.148-1.904,2.168t-1.372,1.668l-2.464-2.128q1.176-.98,2.646-2.478t3.094-3.122v-3.84q-1.2319.28-2.422.532t-1.918.392l-.672-3.104q.8121-.056,2.226-.28t2.786-.5v-5.52h3.136v4.68l.056-.028,1.708,1.26-1.62,3.16q1.3161-1.2,2.6-2.184a15.7538,15.7538,0,0,1,2.464-1.568,4.8794,4.8794,0,0,1,2.156-.588,3.232,3.232,0,0,1,2.8,1.19,5.7326,5.7326,0,0,1,.644,3.822q-.0279.4481-.126,1.33t-.2,1.974q-.1,1.092-.2,2.17t-.174,1.932q-.084.8539-.112,1.246-.14,1.2,1.008,1.2a3.206,3.206,0,0,0,2.128-.84,7.8739,7.8739,0,0,0,1.68-2.044,6.6264,6.6264,0,0,0,.462.968,10.8909,10.8909,0,0,0,.7,1.092,6.9825,6.9825,0,0,0,.658.8,7.1576,7.1576,0,0,1-1.624,1.82,8.019,8.019,0,0,1-2.086,1.218,5.9156,5.9156,0,0,1-2.17.434q-4.508,0-4.116-4.536.0561-.448.14-1.358t.182-2.016q.1-1.106.21-2.212t.2-1.988q.084-.882.112-1.274a2.5893,2.5893,0,0,0-.168-1.344.9119.9119,0,0,0-.868-.392,3.193,3.193,0,0,0-1.568.686,21.9279,21.9279,0,0,0-2.268,1.82q-1.26,1.134-2.6,2.478v11.284Zm35.336-.612a7.9,7.9,0,0,1-4.956-1.278,3.861,3.861,0,0,1-1.6-3.122,3.4755,3.4755,0,0,1,.588-2.044,3.9485,3.9485,0,0,1,1.54-1.3,4.6205,4.6205,0,0,1,2.044-.462,4.5,4.5,0,0,1,3.35,1.286,6.0337,6.0337,0,0,1,1.638,3.192,4.0472,4.0472,0,0,0,1.694-1.456,4.12,4.12,0,0,0,.658-2.352,3.97,3.97,0,0,0-.56-2.1,4.0154,4.0154,0,0,0-1.582-1.47,4.9459,4.9459,0,0,0-2.366-.546,10.6376,10.6376,0,0,0-3.262.448,7.0784,7.0784,0,0,0-2.506,1.428q-.5.4481-1.33,1.148t-1.554,1.26l-2.3-2.464a23.3069,23.3069,0,0,0,2.688-1.848q1.428-1.12,2.884-2.492t2.776-2.842a36.4592,36.4592,0,0,0,2.352-2.9q-1.2.28-2.618.532t-2.716.42q-1.3.168-2.2.224l-.618-3.19a14.3789,14.3789,0,0,0,1.89-.014q1.134-.07,2.45-.2t2.562-.322q1.2461-.2,2.24-.406a7.1652,7.1652,0,0,0,1.47-.434l2.52,1.68a22.6051,22.6051,0,0,1-2.618,3.934,50.83,50.83,0,0,1-3.57,3.962,4.91,4.91,0,0,1,1.064-.35,5.4738,5.4738,0,0,1,1.152-.122,8.2458,8.2458,0,0,1,3.836.84,6.2619,6.2619,0,0,1,2.534,2.338,6.58,6.58,0,0,1,.91,3.486,7.1267,7.1267,0,0,1-1.05,3.808,7.5,7.5,0,0,1-2.954,2.716A9.4429,9.4429,0,0,1,121.2568,76.6538Zm-.364-3.08a3.3726,3.3726,0,0,0-.658-1.708,1.6589,1.6589,0,0,0-1.358-.644,1.2511,1.2511,0,0,0-.756.224.7772.7772,0,0,0-.308.672,1.1413,1.1413,0,0,0,.63.98,4.54,4.54,0,0,0,2.114.448.5277.5277,0,0,0,.168.028Z"/></svg>