<svg xmlns="http://www.w3.org/2000/svg" viewBox="0 0 480 121"><path d="M175.0823,57.7265q-.6861,0-1.364.04a69.9309,69.9309,0,0,0,24.0659-37.0842l.125-.6255h-45.9v9.5805H183.575c-.167,2.493-1.966,14.2993-20.4,33.6856l-2.15,2.2618,2.768-1.4372a64.2865,64.2865,0,0,0,7.405-4.5035,23.2076,23.2076,0,0,1-1.761,44.9094l-2.238.4813,2.226.5385A24.2551,24.2551,0,1,0,175.08,57.73" fill="#fff"/><path d="M162.2063,82.3729A10.2021,10.2021,0,1,0,172.4,92.5834V92.575a10.198,10.198,0,0,0-10.1937-10.2021h0" fill="#fff"/><path d="M99.0776,57.7255q-.684,0-1.363.039A69.9357,69.9357,0,0,0,121.78,20.6823l.125-.6255h-45.9v9.58h31.5659c-.1671,2.4919-1.966,14.2992-20.4,33.6855l-2.15,2.2608,2.768-1.4361a64.1257,64.1257,0,0,0,7.4049-4.5036,23.2086,23.2086,0,0,1-1.761,44.91l-2.238.4814,2.226.5374a24.2551,24.2551,0,1,0,5.655-47.8437" fill="#fff"/><path d="M86.2016,82.3719a10.2021,10.2021,0,1,0,10.194,10.21v-.0082a10.198,10.198,0,0,0-10.194-10.202" fill="#fff"/><path d="M23.0729,57.7255q-.684,0-1.363.039A69.93,69.93,0,0,0,45.7738,20.6813l.126-.6255H0v9.58H31.5659c-.167,2.4919-1.966,14.2992-20.4,33.6855l-2.15,2.2608,2.7679-1.4362A64.226,64.226,0,0,0,19.19,59.642a23.2086,23.2086,0,0,1-1.762,44.91l-2.237.4814,2.224.5374A24.2551,24.2551,0,1,0,23.07,57.7275" fill="#fff"/><path d="M10.196,82.3719A10.2021,10.2021,0,1,0,20.3909,92.5812v-.0063a10.198,10.198,0,0,0-10.193-10.203H10.196" fill="#fff"/><path d="M286.5538,36.99a.9763.9763,0,0,0,.976.9768h35.5168a.9768.9768,0,0,0,0-1.9535H287.53a.9764.9764,0,0,0-.976.9768h0" fill="#fff"/><path d="M293.41,73.8422a.9763.9763,0,0,0-.976.9766v0h0v29.1639a.976.976,0,1,0,1.9508.0679l0-.0053c.0006-.0209.0006-.0417,0-.0626V74.8189a.9754.9754,0,0,0-.9739-.9767h-.0021" fill="#fff"/><path d="M315.7167,73.8422a.9763.9763,0,0,0-.976.9766v0h0v29.1639a.976.976,0,0,0,1.952.004V74.8189a.9764.9764,0,0,0-.976-.9767h0" fill="#fff"/><path d="M338.5116,36.9891a22.6861,22.6861,0,0,0-22.6469-22.6739,22.3179,22.3179,0,0,0-4.778.5095l-2.084.4573,2.075.4944a21.7028,21.7028,0,0,1-.487,42.3063l-2.091.45,2.079.5a22.6476,22.6476,0,0,0,27.9319-22.0454" fill="#fff"/><path d="M282.8878,37.1072a21.7912,21.7912,0,0,1,17.1-21.2107l2.092-.45-2.08-.5a22.6709,22.6709,0,1,0-5.2849,44.72,22.3176,22.3176,0,0,0,4.7779-.5094l2.084-.4574-2.075-.4934A21.5925,21.5925,0,0,1,282.8889,37.11" fill="#fff"/><path d="M325.5916,66.7266a22.3755,22.3755,0,0,0-4.7779.5084l-2.083.4573,2.074.4954a21.7028,21.7028,0,0,1-.487,42.3073l-2.092.45,2.08.5a22.6709,22.6709,0,1,0,5.2849-44.72" fill="#fff"/><path d="M288.69,68.3078l2.092-.45-2.08-.5a22.6709,22.6709,0,1,0-5.285,44.7142,22.3239,22.3239,0,0,0,4.778-.5084l2.083-.4573-2.074-.4954a21.7028,21.7028,0,0,1,.487-42.3064" fill="#fff"/><path d="M243.042,28.4824a9.5356,9.5356,0,1,0,9.528,9.5432V38.018h0a9.5436,9.5436,0,0,0-9.5279-9.5355" fill="#fff"/><path d="M243.042,53.6593a9.5355,9.5355,0,1,0,9.5279,9.5431v-.0066a9.5317,9.5317,0,0,0-9.5269-9.5365h-.001" fill="#fff"/><path d="M243.042,78.8361a9.5355,9.5355,0,1,0,9.5279,9.5431v-.0066a9.5317,9.5317,0,0,0-9.5269-9.5365h-.001" fill="#fff"/><path d="M408.3973,0a10.2021,10.2021,0,1,0,10.195,10.2092V10.202A10.1979,10.1979,0,0,0,408.3985,0h-.0012" fill="#fff"/><path d="M403.8953,63.7892a1.0443,1.0443,0,0,0,1.044-1.0446v0h0V44.506h33.2129a1.045,1.045,0,1,0,0-2.09H404.9393V24.175a1.044,1.044,0,0,0-2.088,0V62.7484a1.0442,1.0442,0,0,0,1.0438,1.0448h0" fill="#fff"/><path d="M464.5571,19.8276l.126-.6255h-45.9v9.5806h31.5688c-.157,2.4829-1.912,14.2392-20.4,33.6845l-2.149,2.2608,2.768-1.4361c27.8579-14.4634,33.9289-43.176,33.9869-43.4643" fill="#fff"/><path d="M425.4942,70.5706a1.0444,1.0444,0,0,0-1.044,1.0448h0v48.3381a1.044,1.044,0,1,0,2.088.0033h0V71.6154a1.0444,1.0444,0,0,0-1.044-1.0448h0" fill="#fff"/><path d="M370.7855,84.93h31.5678c-.158,2.4829-1.912,14.24-20.4,33.6855l-2.15,2.2608,2.768-1.4371c27.86-14.4644,33.93-43.175,33.9879-43.4633l.125-.6254h-45.9Z" fill="#fff"/><path d="M480,75.3493H434.1l.125.6255c.058.2883,6.129,28.9989,33.9868,43.4633l2.769,1.4371-2.15-2.2608c-18.4339-19.3882-20.2329-31.1926-20.4-33.6855H479.997Z" fill="#fff"/></svg>