<svg xmlns="http://www.w3.org/2000/svg" viewBox="0 0 150 58"><path d="M3.7966,19.0444H9.0318V16.4036h-5l.265-.86H9.3708v-.7545h-4.85l.211-.6906h-.935l-.9,2.9941h.9Zm.882-1.9621H8.1357l-.0009,1.2785H4.6786Z"/><polygon points="2.785 21.947 1.862 22.146 1.862 17.177 2.733 17.177 2.733 16.328 1.862 16.328 1.862 14.098 1.011 14.098 1.011 16.328 0.063 16.328 0.063 17.177 1.011 17.177 1.011 22.327 0.063 22.527 0.063 23.366 2.785 22.807 2.785 21.947"/><polygon points="24.427 5.452 23.461 5.452 21.856 9.715 22.811 9.714 24.427 5.452"/><path d="M3.4216,19.9057v2.78h-.317v.7864H9.5778v-.7864h-.256v-2.78Zm1.8,2.7806H4.1786v-2.059h1.043Zm1.67,0H5.8387v-2.059h1.053Zm1.67,0H7.4988v-2.059h1.064Z"/><polygon points="120 45.033 136.323 45.033 128.161 38.254 120 45.033"/><path d="M83.8559,46.525h21.2716V25.2957H83.8559ZM94.4932,29.0074a6.9034,6.9034,0,1,1-6.9172,6.9034A6.91,6.91,0,0,1,94.4932,29.0074Z"/><rect x="119.9998" y="48.9702" width="16.3215" height="6.7826"/><polygon points="24.231 3.472 21.868 2.65 21.868 3.593 24.231 4.414 24.231 3.472"/><path d="M51.42,8.5082a.3066.3066,0,0,1-.306.3075H49.7083v.8752h2.6571V5.2676a.3059.3059,0,0,1,.3062-.3054h1.0709V4.086h-1.072a.3058.3058,0,0,1-.3051-.3064V2.6368H51.42V3.7816a.3056.3056,0,0,1-.306.3053H44.6662v.8774h6.4492a.3057.3057,0,0,1,.305.3064V8.5082Z"/><polygon points="46.597 8.641 47.561 8.641 46.769 5.914 45.806 5.914 46.597 8.641"/><path d="M45.3183,1.7756a.3078.3078,0,0,1,.3069-.3066h7.0842a.3079.3079,0,0,1,.3071.3066V3.1008h.9V.6357h-3.974a.3078.3078,0,0,1-.3072-.3064V.0069h-.944V.3324a.3057.3057,0,0,1-.308.3033H44.4071V3.1139h.9112Z"/><path d="M106.2986,14.0982l0,43.6174h1.172V35.3275H150V14.0982Zm38.6962,14.6492a6.9187,6.9187,0,0,1-5.6143,2.8714l-.0009-.0021a6.9042,6.9042,0,0,1-5.6112-2.8763,6.9068,6.9068,0,0,1-11.2224,0,6.8973,6.8973,0,1,1,0-8.0512,6.9066,6.9066,0,0,1,11.2224,0,6.91,6.91,0,0,1,11.2264,8.0582Z"/><polygon points="24.227 0.822 21.868 0 21.868 0.94 24.227 1.773 24.227 0.822"/><path d="M38.9645,35.3275H60.24V14.0982H38.9645ZM49.6029,17.8119a6.9024,6.9024,0,1,1-6.9173,6.9014A6.9094,6.9094,0,0,1,49.6029,17.8119Z"/><path d="M31.2778.1826H25.2386V3.71h6.0392Zm-.8771,2.572a.3065.3065,0,0,1-.306.3063H26.4266a.3076.3076,0,0,1-.307-.3063V2.568a.3066.3066,0,0,1,.307-.3064h3.6691a.3057.3057,0,0,1,.305.3064Zm0-1.4282a.3067.3067,0,0,1-.306.3064H26.4266a.3077.3077,0,0,1-.307-.3074V1.14a.3078.3078,0,0,1,.307-.3064h3.6681a.3067.3067,0,0,1,.306.3064Z"/><path d="M26.1207,6.7049h.6179a.3074.3074,0,0,1,.253.4809L25.2725,9.694h.845L28.06,6.8415a.3071.3071,0,0,1,.2539-.1347h.6131a.3076.3076,0,0,1,.2639.471l-1.59,2.5151h.835l1.653-2.6857a.31.31,0,0,1,.2621-.1447.3194.3194,0,0,1,.083.0119.3045.3045,0,0,1,.2229.3l.002,2.5241h.78V6.0052H27.0946a.3055.3055,0,0,1-.2739-.17.3094.3094,0,0,1,.0269-.32L26.98,5.34a.3.3,0,0,1,.2471-.1257H31.56V4.4792H24.9246v.7376H25.59a.3087.3087,0,0,1,.25.4881L24.7615,7.1858V8.3276l1.1121-1.497A.307.307,0,0,1,26.1207,6.7049Z"/><polygon points="5.11 40.909 8.478 46.535 9.595 46.535 6.149 40.909 5.11 40.909"/><rect x="82.6549" y="46.5258" width="1.172" height="10.6151"/><path d="M16.52,57.7184H37.7915V36.4891H16.52ZM27.1581,40.2029a6.9025,6.9025,0,1,1-6.9172,6.9014A6.9093,6.9093,0,0,1,27.1581,40.2029Z"/><rect x="82.6822" y="14.6782" width="1.172" height="10.6151"/><path d="M.5379,30.7972l-.5,4.2128H.91l.531-4.2038V26.5407H5.3219l-.1479.9551H2.4418v4.3834H5.3659v3.2036H6.301V31.8781H9.323V27.4948H6.11l.15-.9551H9.5981v-.8175H.5379Zm7.8591.3594H3.3558V30H8.4021Zm.0051-2.94L8.397,29.362H3.3558V28.2163Z"/><path d="M38.9645,57.7184H60.24V36.4891H38.9645ZM49.6029,40.2029a6.9025,6.9025,0,1,1-6.9173,6.9014A6.9094,6.9094,0,0,1,49.6029,40.2029Z"/><polygon points="1.184 46.535 5.055 40.211 9.585 40.211 9.585 39.243 5.319 39.243 5.319 37.014 4.31 37.014 4.31 39.243 0.057 39.243 0.057 40.211 3.948 40.211 0.025 46.535 1.184 46.535"/><path d="M16.52,35.3275H37.7915V14.0982H16.52ZM27.1581,17.8119a6.9024,6.9024,0,1,1-6.9172,6.9014A6.9093,6.9093,0,0,1,27.1581,17.8119Z"/><path d="M82.6808,25.2957H61.4091V46.525H82.6808ZM72.0485,42.8142h-.0031a6.9188,6.9188,0,1,1,.0031,0Z"/><polygon points="0.011 57.86 0.616 57.86 0.8 54.567 0.191 54.567 0.011 57.86"/><polygon points="8.865 32.526 7.971 32.526 8.625 35.073 9.524 35.073 8.865 32.526"/><polygon points="2.739 32.526 2.08 35.073 3.01 35.073 3.622 32.526 2.739 32.526"/><polygon points="4.126 57.966 4.86 57.966 4.86 49.433 8.593 49.433 8.593 57.966 9.338 57.969 9.338 48.639 4.126 48.639 4.126 57.966"/><polygon points="8.113 50.072 7.513 50.072 7.193 51.748 6.28 51.748 5.95 50.072 5.35 50.072 5.68 51.748 5.307 51.748 5.307 52.535 6.455 52.535 6.455 56.78 5.826 56.78 5.826 53.532 5.306 53.532 5.306 57.531 8.142 57.533 8.142 53.532 7.6 53.532 7.6 56.781 6.976 56.781 6.976 52.535 8.153 52.535 8.153 51.748 7.793 51.748 8.113 50.072"/><polygon points="2.88 54.567 3.062 57.86 3.671 57.86 3.48 54.567 2.88 54.567"/><polygon points="2.7 51.907 2.914 53.15 0.871 53.15 3.5 49.711 2.637 49.711 1.989 50.561 0.754 50.561 2.328 48.479 1.478 48.479 0 50.411 0 51.334 1.393 51.334 0 53.15 0 53.968 1.489 53.968 1.489 58 2.211 58 2.211 53.968 3.69 53.968 3.35 51.907 2.7 51.907"/></svg>