<svg xmlns="http://www.w3.org/2000/svg" viewBox="0 0 275 175"><path d="M36.5735,0,29.3709,11.1736,275,116.5631l-.75-3.37Z" fill="#fff"/><path d="M3.3974,126.38,0,139.2331,266.6263,175l-1.7544-2.9731Z" fill="#fff"/><path d="M161.6579,132.6179c.1048-.4541,1.699-5.977,2.2225-8.2444.058-.2513.0533-.6753-.3014-.7572s-.8808.5921-1.56,1.2307c-.7626.7784-2.9517,3.1385-3.6764,3.9749-.221.2681-.4926.5246-.7947.4549-.8565-.1978-3.2076-3.3412-3.01-4.1977a5.5377,5.5377,0,0,1,1.4242-1.5812c3.64-3.352,6.96-6.9349,10.2432-10.583a4.8676,4.8676,0,0,0,1.1529-2.2287c.1042-.4512.3069-.8847.4-1.2861a.6819.6819,0,0,0-.48-.9073,3.08,3.08,0,0,0-.964.0412c-1.163.21-5.6186.8786-6.5755.6577-.8058-.186-1.0334-1.036-1.1358-1.7483a15.2172,15.2172,0,0,1-.267-3.6712c.1856-.8038,1.2437-.5595,1.8656-.5237,1.5586.1484,8.214.518,9.0977-.5537a3.3465,3.3465,0,0,0,.6015-1.4539c.3136-1.3583,1.213-4.3384,1.7241-6.5521.14-.6071.2285-1.2209.3093-1.5707.1277-.5535.415-.6462.9694-.5182s4.6077,1.6467,5.0775,1.9142c.2279.1553.4952.38.4255.6822a1.1547,1.1547,0,0,1-.5768.6623c-.7842.4049-.77.5653-1.5461,2.5628-.2952.834-1.2238,3.22-1.3867,3.9257-.1277.5535.1921.7864.61,1.043a3.7116,3.7116,0,0,1,1.1773,2.7113c-.0466.2017-.2938.357-.4291.4849-.334.2954-1.6978,1.8372-1.9341,2.1541a4.12,4.12,0,0,0-.2839.7853c-.0578.25-.0189.5262.289.5973a.702.702,0,0,0,.4609-.16c1.3139-.8636,3.747-2.2139,5.1942-2.9389,2.4224-1.2994,5.3608-2.531,8.1338-1.8908a5.577,5.577,0,0,1,3.8193,3.2167c.5539,1.5082.1521,3.4845-.1968,4.9957-.6047,2.6191-1.307,5.2167-2.0551,7.75-.5975,2.1435-1.2737,4.3745-1.7626,6.4919-.2791,1.2091-.7379,2.9608.4216,3.2285,1.3641.315,4.0275-1.3527,5.1653-2.1512a1.4832,1.4832,0,0,1,1.0865-.3321c.8555.1975,1.4471,4.3121,1.2606,5.12-.1628.7055-2.3311,1.5842-2.9782,1.8577-2.3505.9968-5.2544,1.8658-7.778,1.2832-4.2307-.9767-3.5079-5.9568-2.775-9.1313,1.0469-4.5347,2.7608-8.9667,3.8077-13.5015.256-1.1088.663-2.8714-.8492-3.2205-1.41-.3256-3.15.5452-4.3927,1.1072a52.3917,52.3917,0,0,0-6.6219,3.6192c-.8069.5033-3.0768,1.8359-3.57,2.5728-.3529.6082-1.57,6.8-1.8376,7.96-.07.303-.3212,1.8358-.4637,2.7061-.3792,2.0872-.8541,4.8419-.9825,5.3983-.0812.3517-.1471.8682-3.876.0073C162.3325,133.8389,161.4244,133.6293,161.6579,132.6179Zm49.4,6.0014a5.4551,5.4551,0,0,1,6.6-3.8706,7.0862,7.0862,0,0,1,4.9354,4.3036,4.32,4.32,0,0,1,.1385,2.8851c-.0265.3017.0425.59.3806.6677,1.1.254,5.64-1.0585,6.6272-5.336.9479-4.106-2.133-6.6-5.8162-7.45a13.1844,13.1844,0,0,0-10.4392,1.9589c-2.0222,1.2286-3.9458,2.6124-5.87,3.994a.5889.5889,0,0,1-.5342.1845c-.89-.2054-2.5-3.0741-2.3436-3.7493.1176-.51.86-.8277,1.3091-1.0381a173.6737,173.6737,0,0,0,16.234-10.2509c.4161-.26,1.354-.8461,1.4519-1.27.0879-.381-.2643-.5937-.6033-.672a10.0432,10.0432,0,0,0-1.0545-.0648c-1.0747.0187-7.3262-.1314-8.0024-.2876-.9325-.2152-.3251-3.42-.1584-4.1417.225-.9744.2872-1.0483,1.5558-.7554l1.0153.2344c2.7088.6254,8.3926,1.3136,11.0706.9076a5.947,5.947,0,0,1,1.7172-.0941c1.6934.3909,3.4065,4.1732,3.24,4.8923-.0686.2972-.5948.4425-1.1379.6743a41.9492,41.9492,0,0,0-7.4484,4.2566,1.2857,1.2857,0,0,0-.5887.6205c-.0785.34.21.6283.593.7167a2.4922,2.4922,0,0,0,.5679.0429,8.3,8.3,0,0,1,1.7747.23,12.7539,12.7539,0,0,1,4.9137,2.4686,8.978,8.978,0,0,1,3.1408,9.3738c-1.73,7.4929-9.2732,9.8535-16.09,8.28-3.5138-.7968-8.1773-3.3883-7.18-7.7067Zm3.6832.85c-.3519,1.5239,1.5122,2.71,2.7837,3.0032.8039.1856,1.32-.4979,1.4762-1.175a2.654,2.654,0,0,0-2.0486-3.1024,1.8,1.8,0,0,0-2.2088,1.2654l-.0034.0127ZM53.9027,105.1246c-.8933-.976-2.7061-3.1484-2.3835-4.5457.23-.9968,4.1967-4.2149,5.2607-3.9693.4677.108.7937.8165.9825,1.208,2.1706,3.9341,7.0893,5.7008,11.1485,6.638a30.833,30.833,0,0,0,9.7477.8495,2.43,2.43,0,0,1,.6969.0223c1.1312.2612.7783,1.79.1639,4.451-.307,1.33-.5947,2.8739-1.5,3.1575-1.32.2536-8.9124-1.1472-10.5756-1.5312C63.0589,110.39,57.0622,108.4434,53.9027,105.1246ZM32.0483,98.747a5.0672,5.0672,0,0,1,1.638-1.9341c5.5717-5.0183,13.231-15.4384,17.4543-21.8887a10.6208,10.6208,0,0,0,.93-1.6059c.1536-.6655-.3-1.1213-.967-1.2752-.93-.2146-3.9344-.5574-5.9952-1.0331-1.33-.3071-2.4094-.4865-2.5173-1.8415a29.3034,29.3034,0,0,1,.5894-4.98c.1687-.7308.4767-1.1493,1.2728-.9655.6.1386,3.3313,1.0493,6.19,1.7093,4.2561.9826,5.2711,1.1471,6.1.2856,1.1046-1.1439,4.743-9.6217,5.2546-11.5357.2943-.9809.4481-1.6474,1.12-1.4924.5992.1383,4.6783,2.483,5.4831,2.949.5552.3335,2.3091,1.232,2.14,1.9638-.0769.3332-.5223.44-.7548.5267-1.1347.3671-1.2618.62-2.0643,1.9752-.37.6864-2.889,5.2189-2.9653,5.5492A1.008,1.008,0,0,0,65.69,66.376l.0324.0076c1.1975.2764,6.83-.4554,8.2843-.68a3.6313,3.6313,0,0,1,1.4735-.0078c1.33.3071.3938,4.3624.1639,5.3582-.2612,1.1313-.6109,2.0327-1.82,2.1046a102.4979,102.4979,0,0,1-11.5035.0741c-2.0213-.0469-2.2989.24-3.3275,1.9659a212.9209,212.9209,0,0,1-19.1407,26.4728c-1.2344,1.3992-1.981,2.2059-2.9807,1.9751C35.81,103.3985,31.71,100.2105,32.0483,98.747ZM242.1715,150.59a2.5779,2.5779,0,0,1-.7995-3.557q.0573-.0906.1219-.1761a2.9713,2.9713,0,0,1,4.3425-.774,2.661,2.661,0,0,1,.7662,3.6844q-.0589.09-.1249.1748a2.9261,2.9261,0,0,1-3.05,1.2457A3.4662,3.4662,0,0,1,242.1715,150.59ZM131.8907,117.34c-4.873-5.6408-8.5968-12.1072-11.9813-18.679-1.4167-2.6876-2.3848-4.5624-3.6544-4.8555-1.63-.3763-5.0791,1.8848-6.69,2.7855-2.9046,1.5565-6.6752,3.5524-9.3189,5.357-.4474.2795-1.1433.8178-1.6889.6918-1.1449-.2643-3.8566-6.1717-3.6195-7.1987.1393-.6031,1.6684-.8875,2.2077-1.0185,3.518-.9058,8.1386-3.2762,11.404-5.0039,2.7582-1.4651,6.2066-3.7233,9.4688-2.97,3.9277.9068,5.7607,4.8317,7.4436,8.02,4.0323,7.6152,8.68,15.05,15.428,20.5574.4894.3655,1.0854.8243.9322,1.4879-.2649,1.1478-4.1527,5.0246-5.7838,4.648-.9059-.21-3.4407-3.02-4.1458-3.82ZM248.076,143.8814l-1.0589-.77c-.8033-.5837-.8479-.8618-.2967-1.689l5.6825-8.2944c1.3375-1.9747,4.2413-6.444,4.7078-7.0866.3971-.5466.6821-.5363,1.39-.0217l2.25,1.634c.7028.5122.8066.7825.4121,1.3267-.4665.6426-3.8211,4.7841-5.4261,6.8551l-5.96,7.7982c-.3974.5035-.6534.701-1.0013.6207a2.1,2.1,0,0,1-.698-.3726ZM79.3435,89.0023a30.6555,30.6555,0,0,0-10.1928-4.1051c-.8633-.1993-1.6783-.3187-2.5406-.5178-1.33-.307-1.587-.7143-1.3258-1.8455,1.32-5.72,2.4261-5.0456,5.5519-4.3239,3.5243.8136,9.9041,2.92,12.9361,4.95a1.2861,1.2861,0,0,1,.6254,1.5453,17.1992,17.1992,0,0,1-2.3415,4.3631,1.1763,1.1763,0,0,1-1.3968.5869A3.6822,3.6822,0,0,1,79.3435,89.0023ZM134.14,94.3715c-.683-1.1758-1.5987-2.7214-2.6326-4.3025a1.0259,1.0259,0,0,1-.3193-.8393c.1673-.725,2.8963-2.0675,3.439-1.9422.6635.1532,4.7507,6.4418,4.5689,7.2291-.1953.8457-2.7562,2.2917-3.5415,2.11-.2408-.05-.7385-.931-1.5154-2.2557ZM142.7283,93.3c-.9317-1.7432-2.3623-4.1087-3.5061-5.7736-.1993-.239-.4441-.548-.3743-.85.1531-.6636,2.8329-2.0821,3.4975-1.9287.606.14,4.7061,6.3679,4.5246,7.1542-.1955.8467-2.7115,2.3647-3.4948,2.1838-.3038-.0712-.5262-.4992-.6479-.7859Z"/></svg>