<svg xmlns="http://www.w3.org/2000/svg" viewBox="0 0 668 685"><path d="M413.95,382.84l19.8376,68.9375c-34.76.087-72.8266-2.132-34.8034-14.4,18.0326-5.83,2.4148-8.9629-21.6434-10.4419l-2.9588-.2,7.3525-45.27c-33.8025-.957-69.8948-.435-109.8768,1.893l7.0255,42.8547c-18.0547.3-35.5364.74-49.7623,1.218l12.0991-42.05c-.4789.022-.9789.065-1.4789.109C112.0125,395.4976-.599,437.83,72.2275,484.579c91.33,58.6716-124.9266,50.0577-59.78,101.0483,50.1382,39.2437,316.8852-23.8858,247.9094,41.7-50.1823,47.7057,123.9437,64.5216,199.885,55.2107,97.0367-11.9,193.7024-62,90.01-106.81-27.277-11.7909-14.03-47.8577,45.6966-72.0695,95.8838-38.8518,24.4281-108.6813-182-120.82M246.0444,457.6942c3.0238,4.96,8.3314,28.3888-16.7057,33.8708-6.6125,1.4359-12.1991,9.4409-15.3139,14.88-16.2487.152-32.02-1.131-22.3393-7.4,8.8314-5.721,2.3928-7.8529-7.2434-8.5059,1.4578-11.878,8.7663-45.1607,44.4616-48.6847,40.59-4,13.1821,9.4,17.1407,15.8369" fill="#fff"/><path d="M523.1268,348.3154c-33.7817-30.8538-29.9909-55.3606-25.1912-86.39,2.8057-18.1419,5.9866-38.7037,2.4536-63.91-6.8642-49.0256-27.8778-89.6594-60.76-117.5062C409.378,54.8883,369.692,41.1525,327.8233,41.6815c-41.8789-.5381-81.6249,13.2059-111.8795,38.8277-32.8828,27.8468-53.8929,68.4795-60.7606,117.5062-3.5327,25.21-.352,45.7667,2.4539,63.91,4.7985,31.03,8.5873,55.5376-25.1912,86.39a2.72,2.72,0,0,0,1.1179,4.631c18.6446,5.09,29.1919.779,34.3255-2.915a133.174,133.174,0,0,0,8.7594,26.6348c9.79,21.2539,23.7772,32.6048,40.45,32.8288a2.5266,2.5266,0,0,0,2.075-.922,2.7155,2.7155,0,0,0,.655-2.1749c-4.1059-29.1736,2.0318-40.8,6.6379-47.5735,20.2019,16.4046,54.1942,24.7137,101.3347,24.7137l0,.001c47.1268,0,81.1106-8.3043,101.3158-24.6994,4.6061,6.7766,10.7287,18.4083,6.6309,47.5562a2.7251,2.7251,0,0,0,2.6929,3.1l.0349-.001c16.6709-.229,30.6549-11.5759,40.4462-32.8288a132.9168,132.9168,0,0,0,8.7591-26.6348c5.1388,3.696,15.6858,8.001,34.3275,2.915a2.72,2.72,0,0,0,1.1181-4.631Zm-316.019-57.7569c-.9992.0774-2.0008.125-3.0034.1361-7.0056,0-12.899-2.067-17.5988-6.1349-7.3745-6.352-9.9841-16.3159-9.9841-23.5159,0-8.4189,3.4587-16.0329,9.2661-20.3618,4.0019-2.9945,11.0065-5.8334,22.25-3.3231C211.2628,258.23,208.4685,281.4907,207.1078,290.5585ZM469.3525,240.679c5.8074,4.3289,9.2662,11.9429,9.2662,20.3618,0,7.201-2.6317,17.1639-9.9842,23.5159-4.7215,4.068-10.6161,6.1349-17.5987,6.1349-.8469-.0042-1.693-.0382-2.5374-.0938-1.36-9.0585-4.17-32.4184-.9182-53.34C458.53,234.94,465.4182,237.7262,469.3525,240.679ZM327.8,378.0994c-52.8009,0-88.3332-10.436-105.6151-31.0189-16.0725-19.1468-12.0159-42.2407-10.2819-52.1.8359-4.77,7.6759-46.2218-2.3853-74.3515A336.5005,336.5005,0,0,1,327.806,199.2615h1.3749c8.2945.041,13.9721.18,21.9764.8111l1.3361.1069,11.5482-12.8149-.3372,14.02L379.96,183.9377l-3.0718,18.9558,2.7669.374c30.9486,4.198,50.669,11.3449,66.4308,17.3529-10.0652,28.1188-3.2288,69.5875-2.3907,74.3605,1.734,9.8609,5.7906,32.9538-10.2822,52.1C416.1336,367.6644,380.6014,378.0994,327.8,378.0994Z"/><path d="M266.7421,282.8231c-15.4619,0-23.7032-13.714-23.7032-30.6318s6.8994-30.6288,23.7032-30.6288,23.7032,13.7139,23.7032,30.6288-8.2414,30.6318-23.7032,30.6318" fill="#fff"/><path d="M290.45,252.1913a96.854,96.854,0,0,0-47.4154,0c0-16.9,6.9-30.6288,23.7072-30.6288s23.7072,13.7269,23.7072,30.6288" fill="#d4d5d5"/><path d="M266.7431,283.9082c-14.8259,0-24.7891-12.7459-24.7891-31.7148,0-19.8609,9.2663-31.7208,24.7891-31.7208s24.7912,11.86,24.7912,31.7208c0,18.9689-9.9623,31.7148-24.7912,31.7148m0-61.2606c-20.4124,0-22.6133,20.6639-22.6133,29.5458,0,17.9469,8.8774,29.5388,22.6133,29.5388s22.6153-11.5929,22.6153-29.5388c0-8.8819-2.2-29.5458-22.6153-29.5458"/><path d="M266.7444,273.094c-10.55,0-16.1748-9.3579-16.1748-20.9s4.7077-20.9,16.1748-20.9,16.1748,9.3579,16.1748,20.9-5.6256,20.9-16.1748,20.9" fill="#302d2c"/><path d="M282.902,250.5822a98.7042,98.7042,0,0,0-16.56-1.349,97.1773,97.1773,0,0,0-15.76,1.349c.435-10.7809,5.2077-19.3,16.1488-19.3,10.9632,0,15.7358,8.5189,16.1708,19.3"/><path d="M263.2315,237.3339a6.3245,6.3245,0,1,1-6.3255-6.324,6.3247,6.3247,0,0,1,6.3255,6.324" fill="#fff"/><path d="M389.2353,282.8231c-15.4618,0-23.7032-13.714-23.7032-30.6318s6.8995-30.6288,23.7032-30.6288,23.7033,13.7139,23.7033,30.6288-8.2414,30.6318-23.7033,30.6318" fill="#fff"/><path d="M412.9436,252.1913a96.8544,96.8544,0,0,0-47.4155,0c0-16.9,6.8995-30.6288,23.7073-30.6288s23.7072,13.7269,23.7072,30.6288" fill="#d4d5d5"/><path d="M389.2334,283.9082c-14.8258,0-24.7891-12.7459-24.7891-31.7148,0-19.8609,9.2663-31.7208,24.7891-31.7208s24.7912,11.86,24.7912,31.7208c0,18.9689-9.9623,31.7148-24.7911,31.7148m0-61.2606c-20.4125,0-22.6133,20.6639-22.6133,29.5458,0,17.9469,8.8773,29.5388,22.6133,29.5388s22.6153-11.5929,22.6153-29.5388c0-8.8819-2.2-29.5458-22.6153-29.5458"/><path d="M389.2357,273.094c-10.55,0-16.1748-9.3579-16.1748-20.9s4.7077-20.9,16.1748-20.9,16.1748,9.3579,16.1748,20.9-5.6246,20.9-16.1748,20.9" fill="#302d2c"/><path d="M405.3953,250.5822a98.7045,98.7045,0,0,0-16.56-1.349,97.1761,97.1761,0,0,0-15.76,1.349c.435-10.7809,5.2076-19.3,16.1488-19.3,10.9632,0,15.7358,8.5189,16.1708,19.3"/><path d="M385.7228,237.3339a6.3236,6.3236,0,1,1-6.3236-6.324,6.3238,6.3238,0,0,1,6.3236,6.324" fill="#fff"/><path d="M318.612,296.6315a3.7,3.7,0,1,1-3.7-3.7h0a3.7,3.7,0,0,1,3.7,3.7" fill="#fff"/><path d="M327.7914,310.1607c-9.9642,0-23.8292-7.0719-23.8292-14.0359,0-8.2379,14.9289-9.4669,23.8292-9.4669s23.8292,1.229,23.8292,9.4669c0,6.963-13.8649,14.0359-23.8292,14.0359m0-20.24c-12.2991,0-20.5664,2.493-20.5664,6.2,0,4.155,11.23,10.772,20.5664,10.772s20.5665-6.618,20.5665-10.772c0-3.7109-8.2654-6.2-20.5665-6.2"/><path d="M306.438,293.73a1.0879,1.0879,0,0,1-.7349-1.8879,28.0581,28.0581,0,0,0,6.1555-8.171c2.2858-4.584,2.4578-7.3,2.46-7.3329a1.017,1.017,0,0,1,.9973-1.0363.999.999,0,0,1,.1426.0073,1.084,1.084,0,0,1,1.031,1.133c0,.126-.168,3.1519-2.6838,8.2a30.1287,30.1287,0,0,1-6.6325,8.8,1.0855,1.0855,0,0,1-.735.287"/><path d="M349.1442,293.73a1.0843,1.0843,0,0,1-.7349-.287,30.13,30.13,0,0,1-6.6325-8.8c-2.5168-5.045-2.68-8.071-2.6838-8.2a1.084,1.084,0,0,1,1.03-1.1358l.0053,0a1,1,0,0,1,1.1359,1.038,21.43,21.43,0,0,0,2.46,7.3269,28.06,28.06,0,0,0,6.1556,8.171,1.088,1.088,0,0,1-.735,1.8879"/><path d="M418.8318,218.8626c-.0789-.193-8.2744-19.4409-29.7637-19.4409-20.8335,0-29.3479,19.2429-29.4328,19.4369a.2739.2739,0,0,0,.1.333.267.267,0,0,0,.1539.046l-.006-.002a.2612.2612,0,0,0,.189-.078c.1259-.121,12.2861-12.054,28.9978-12.1209h.146c16.8247,0,29.05,11.9989,29.1738,12.1209a.27.27,0,0,0,.3419.033A.2649.2649,0,0,0,418.8318,218.8626Z"/><path d="M309.5889,280.9673a1.6321,1.6321,0,0,1-1.3329-2.567l9.7273-13.9a1.6311,1.6311,0,1,1,2.6738,1.869h0l-9.7293,13.9a1.6249,1.6249,0,0,1-1.3379.7" fill="#f72f8d"/><path d="M322.923,280.9673a1.631,1.631,0,0,1-1.3339-2.569l9.7293-13.9a1.6323,1.6323,0,1,1,2.6738,1.873l-9.7323,13.9a1.6288,1.6288,0,0,1-1.3379.694" fill="#f72f8d"/><path d="M336.2611,280.9673a1.631,1.631,0,0,1-1.3329-2.569l9.7293-13.9a1.6323,1.6323,0,1,1,2.6738,1.873h0l-9.7323,13.9a1.6279,1.6279,0,0,1-1.3379.694" fill="#f72f8d"/><path d="M432.9013,465.7392a2.7179,2.7179,0,0,1-2.6838-2.317c-9.3993-62.8286-25.5061-93.2164-25.6671-93.5164a2.7189,2.7189,0,0,1,4.7837-2.584c.6789,1.251,16.6987,31.4,26.261,95.2994a2.716,2.716,0,0,1-2.281,3.09l-.0048.0007a2.58,2.58,0,0,1-.407.03"/><path d="M226.26,444.9194a2.7516,2.7516,0,0,1-.513-.048,2.723,2.723,0,0,1-2.16-3.183c9.5423-49.7656,22.13-73.3995,22.6613-74.3755a2.7208,2.7208,0,0,1,4.7856,2.589c-.126.233-12.745,23.9809-22.1043,72.81a2.7208,2.7208,0,0,1-2.6688,2.208"/><path d="M415.0883,223.8517a.271.271,0,0,0-.492-.189,18.8773,18.8773,0,0,1-4.3783,4.5968,18.341,18.341,0,0,0,3-7.8.271.271,0,0,0-.492-.189,18.0908,18.0908,0,0,1-4.8719,4.9348,18.3257,18.3257,0,0,0,3.1716-8.04.2711.2711,0,0,0-.4921-.189,16.3314,16.3314,0,0,1-5.6551,5.387,23.7342,23.7342,0,0,0-15.6492-5.505c-20.3276,0-25.0041,20.1289-25.05,20.3289a.2742.2742,0,0,0,.17.313.3064.3064,0,0,0,.1.0169l-.0029-.003a.2742.2742,0,0,0,.239-.1389c.0869-.156,8.8053-15.545,24.6211-15.545,15.3828,0,24.3842,15.1759,24.4732,15.3279a.273.273,0,0,0,.5-.2,29.4689,29.4689,0,0,0-2.1666-5.3459A18.3249,18.3249,0,0,0,415.0883,223.8517Z"/><polygon points="237.398 219.238 237.396 219.237 237.394 219.238 237.398 219.238"/><path d="M296.3425,218.86c-.0849-.194-8.6032-19.4369-29.4327-19.4369-21.4894,0-29.6827,19.2469-29.7638,19.4409a.2671.2671,0,0,0,.1.328.26.26,0,0,0,.15.0453.2694.2694,0,0,0,.1892-.0773c.122-.121,12.3381-12.121,29.1718-12.121h.146c16.7188.0671,28.8758,12.001,28.9978,12.121a.272.272,0,0,0,.4419-.3Z"/><path d="M266.7406,216.8615a23.7452,23.7452,0,0,0-15.6362,5.4963,16.3,16.3,0,0,1-5.6526-5.3844.2749.2749,0,0,0-.32-.1.2709.2709,0,0,0-.172.287,18.2579,18.2579,0,0,0,3.1718,8.0395,18.0317,18.0317,0,0,1-4.8743-4.9362.2756.2756,0,0,0-.32-.1.2709.2709,0,0,0-.1721.2869,18.2765,18.2765,0,0,0,3.0067,7.81,18.8343,18.8343,0,0,1-4.3864-4.6012.2816.2816,0,0,0-.32-.1.2709.2709,0,0,0-.1721.287,18.2839,18.2839,0,0,0,2.9731,7.7552,29.3484,29.3484,0,0,0-2.1713,5.3595.2709.2709,0,0,0,.5.2c.089-.153,9.09-15.328,24.4733-15.328,15.81,0,24.5341,15.39,24.6211,15.547a.2769.2769,0,0,0,.239.1369l-.0061.0031a.2593.2593,0,0,0,.1-.017.2711.2711,0,0,0,.17-.311C291.7467,236.99,287.07,216.8615,266.7406,216.8615Z"/><path d="M228.1809,361.3227a26.47,26.47,0,1,1,26.468-26.47,26.4689,26.4689,0,0,1-26.468,26.47m0-49.6767a23.2069,23.2069,0,1,0,23.2052,23.2069,23.2061,23.2061,0,0,0-23.2052-23.2069" fill="#f72f8d"/><path d="M427.4181,361.3227a26.47,26.47,0,1,1,26.468-26.47,26.4689,26.4689,0,0,1-26.468,26.47m0-49.6767a23.2069,23.2069,0,1,0,23.2053,23.2069,23.206,23.206,0,0,0-23.2053-23.2069" fill="#f72f8d"/><path d="M384.2149,366.2187l-2.48,15.2488-7.3525,45.27-9.0053,55.32H294.2306l-7.9394-49.3587-6.2715.479-10.9672-66.9585Z" fill="#fff"/><path d="M353.8429,341.8192c25.1061,0,31.7166,24.3949,31.7166,24.3949H269.5362s6.6085-24.3949,31.7166-24.3949" fill="#fff"/><path d="M179.8956,431.6557a2.175,2.175,0,0,1-.117-4.346c.194-.011,19.6816-1.079,49.2733-2.047,15.6139-.526,32.08-.935,48.9354-1.22l1.3-.022a2.1755,2.1755,0,0,1,0,4.351l-1.2619.022c-16.7928.283-33.2325.692-48.8274,1.216-29.54.968-48.9833,2.032-49.1773,2.043a1.1284,1.1284,0,0,1-.122,0"/><path d="M283.9374,456.9731H248.329a2.1729,2.1729,0,0,1-2.1748-2.171V450.58a2.1754,2.1754,0,1,1,4.3507,0h0v2.0429H281.38l-4.8307-29.6718a2.1752,2.1752,0,1,1,4.2937-.7h0l5.2426,32.1928a2.1766,2.1766,0,0,1-2.1468,2.526" fill="#f72f8d"/><path d="M307.7372,428.3747H279.2833a2.1755,2.1755,0,0,1,0-4.351h28.4559a2.1755,2.1755,0,0,1,0,4.351" fill="#f72f8d"/><path d="M312.0871,351.9713a1.622,1.622,0,0,1-1.0939-.42c-5.1-4.607-1.9729-9.1129.311-12.4,2.8447-4.1,4.0107-6.222-.535-9.4059a1.63,1.63,0,0,1,1.8586-2.6782l.01.0072c7.4134,5.1859,3.7607,10.4529,1.3469,13.9379-2.5468,3.6719-3.6458,5.5539-.8,8.1209a1.632,1.632,0,0,1-1.0939,2.843" fill="#f72f8d"/><path d="M326.9749,351.9713a1.622,1.622,0,0,1-1.0939-.42c-5.1-4.607-1.9729-9.1129.311-12.4,2.8447-4.1,4.0107-6.222-.535-9.4059a1.63,1.63,0,0,1,1.8586-2.6782l.01.0072c7.4134,5.1859,3.7607,10.4529,1.3469,13.9379-2.5468,3.6719-3.6458,5.5539-.8,8.1209a1.632,1.632,0,0,1-1.0939,2.843" fill="#f72f8d"/><path d="M341.8637,351.9713a1.622,1.622,0,0,1-1.0939-.42c-5.1-4.607-1.9729-9.1129.311-12.4,2.8448-4.1,4.0107-6.222-.535-9.4059a1.63,1.63,0,0,1,1.8586-2.6782l.01.0072c7.4134,5.1859,3.7607,10.4529,1.3469,13.9379-2.5468,3.6719-3.6458,5.5539-.8,8.1209a1.632,1.632,0,0,1-1.0939,2.843" fill="#f72f8d"/><path d="M385.56,368.39H269.5354a2.1769,2.1769,0,0,1-2.1-2.7449c.072-.259,7.35-26,33.8155-26a2.1755,2.1755,0,0,1,0,4.351c-18.4567,0-26.1661,13.9589-28.65,20.0439H382.4929c-2.4838-6.085-10.1932-20.0439-28.65-20.0439a2.1755,2.1755,0,0,1,0-4.351c26.466,0,33.7464,25.7409,33.8154,26a2.1768,2.1768,0,0,1-2.1,2.7449" fill="#f72f8d"/><path d="M431.86,453.9549c-49.6323,0-50.4062-4.923-50.8282-7.5809-.5-3.135,2.2508-6.217,17.2867-11.068a25.7416,25.7416,0,0,0,5.76-2.406c-1.8119-.8809-7.7285-2.6169-26.868-3.7939a2.1751,2.1751,0,0,1,.268-4.342c28.3818,1.745,31.1166,4.727,31.4836,7.6329.429,3.411-4.22,5.4-9.3073,7.048-10.6132,3.424-13.399,5.5-14.117,6.269,1.5179,1.0789,9.2183,4.0459,48.2464,3.8869,21.3044-.065,41.6229-.99,41.8229-1a2.176,2.176,0,0,1,.2,4.346c-.2.009-20.6085.938-42.01,1h-1.9358"/><path d="M366.7261,484.2311H295.6a2.1778,2.1778,0,0,1-2.1488-1.832L285.9582,435.35H250.5049v6.446a2.1754,2.1754,0,1,1-4.3507,0V433.18a2.176,2.176,0,0,1,2.1749-2.175h39.482a2.1757,2.1757,0,0,1,2.1468,1.831l7.5,47.0447h67.4209l18.1276-111.4833h-110.91l7.1894,44.1377h46.09v-29.87a2.1753,2.1753,0,1,1,4.3506,0h0v32.0418a2.173,2.173,0,0,1-2.1708,2.175H277.4339a2.173,2.173,0,0,1-2.1469-1.823l-7.8994-48.4907a2.18,2.18,0,0,1,2.1469-2.526H385.5638a2.1768,2.1768,0,0,1,2.1468,2.523L368.873,482.4031a2.1749,2.1749,0,0,1-2.1469,1.827" fill="#f72f8d"/><path d="M374.3854,428.9137h-.137l-8.6813-.544a2.1752,2.1752,0,0,1,.272-4.3419h0l8.6813.544a2.175,2.175,0,0,1-.135,4.3459" fill="#f72f8d"/><path d="M211.3986,514.3345a2.721,2.721,0,0,1-2.4928-3.8c.044-.1,1.0329-2.362,2.7608-5.41,3.7237-6.511,9.6993-14.5949,17.08-16.2,7.9434-1.736,13.214-5.539,15.6658-11.295,3.2908-7.7329.6-16.4-.7-18.5168-2.2-3.6.5289-7.457,2.7188-10.555a17.87,17.87,0,0,0,2.2648-3.7439c-.781-.5-4.3267-1.729-19.54-.231-11.0392,1.09-37.2332,7.7859-42.03,46.3137a2.7206,2.7206,0,1,1-5.4-.672h0c1.3729-11.025,8.8094-47.2927,46.8915-51.0557,18.25-1.8,23.05-.2,24.8871,2.963,1.8659,3.209-.5259,6.5889-2.6368,9.5689-.8789,1.236-2.7,3.809-2.5188,4.579,2.0449,3.324,5.1556,13.87,1.0659,23.4788-2.1858,5.138-7.3474,11.8189-19.5135,14.4789-4.2327.92-9.0313,5.739-13.51,13.5719-1.5709,2.774-2.4908,4.873-2.5,4.892a2.7158,2.7158,0,0,1-2.4928,1.634"/><path d="M212.4965,509.42c-13.5889,0-24.4471-1.286-25.783-5.227-1.07-3.17,2.5728-5.528,3.77-6.3a9.8886,9.8886,0,0,0,3.1218-2.671c-2.4059-2.1709-18.79-2.7279-36.45-1.1939a2.1149,2.1149,0,0,1-2.3453-1.8562c-.0046-.04-.0082-.08-.0105-.1208a2.1739,2.1739,0,0,1,1.9753-2.3559l.0015,0c14.3669-1.251,38.8081-2.36,41.0529,4.188,1.246,3.6289-3.2777,6.5589-4.9786,7.6639a8.8672,8.8672,0,0,0-1.7449,1.379c4.0237,2.615,28.4979,2.51,49.8493.855a2.1755,2.1755,0,0,1,.335,4.338c-9.4663.7349-19.7355,1.3069-28.7979,1.3069"/><path d="M475.3748,262.5215l-4.2377-9.8279-61.4954,26.5108,6.5145,15.1149,50.4912-21.7669-32.0825,43.0768,54.4539,40.5657,40.002-53.7077Z" fill="#bdbebf"/><path d="M489.3566,358.4757,432.2828,315.96l29.4218-39.5-46.3965,20-7.8064-18.11,64.4881-27.8,4.71,10.9249,54.6109,40.68ZM436.8505,315.295,488.6876,353.91l38.0531-51.0887-52.696-39.2527-3.7627-8.7319-58.4956,25.2188,5.2226,12.1189,54.5849-23.5308Z"/><path d="M437.5027,300.718a3.6849,3.6849,0,1,1-5.1576.755,3.685,3.685,0,0,1,5.1576-.755" fill="#fff"/><path d="M421.303,301.1553a3.6849,3.6849,0,1,1-5.1576.755,3.6852,3.6852,0,0,1,5.1576-.755" fill="#fff"/><path d="M401.7984,307.5247a3.6849,3.6849,0,1,1-5.1576.755,3.6852,3.6852,0,0,1,5.1576-.755" fill="#fff"/><path d="M384.0075,321.12a3.6849,3.6849,0,1,1-5.1577.755,3.6851,3.6851,0,0,1,5.1577-.755" fill="#fff"/><path d="M408.05,323.9278a3.6849,3.6849,0,1,1-5.1576.755,3.6852,3.6852,0,0,1,5.1576-.755" fill="#fff"/><path d="M397.8558,339.3892a3.6849,3.6849,0,1,1-5.1576.755,3.6852,3.6852,0,0,1,5.1576-.755" fill="#fff"/><path d="M363.731,326.3188a3.6849,3.6849,0,1,1-5.1577.755,3.6852,3.6852,0,0,1,5.1577-.755" fill="#fff"/><path d="M376.9989,342.4653a3.6849,3.6849,0,1,1-5.1576.755,3.6852,3.6852,0,0,1,5.1576-.755" fill="#fff"/><path d="M422.373,335.4089a3.6849,3.6849,0,1,1-5.1576.755,3.685,3.685,0,0,1,5.1576-.755" fill="#fff"/><path d="M410.96,352.1477a3.6849,3.6849,0,1,1-5.1576.755,3.6851,3.6851,0,0,1,5.1576-.755" fill="#fff"/><path d="M425.8891,316.3a3.6849,3.6849,0,1,1-5.1576.755,3.6851,3.6851,0,0,1,5.1576-.755" fill="#fff"/><path d="M497.3961,304.9344a12.9332,12.9332,0,0,0-18.0983,2.6476c-.1525.203-.2834.4206-.4233.6323a37.3164,37.3164,0,0,0-8.1844-22.15l-.228-.252-14.6308,19.6418,4.1,3.05,10.0623-13.5089c1.0077.863,5.4825,5.3969,7.8993,19.4629l.278,1.64.2678-1.6431a34.2071,34.2071,0,0,0,.4346-4.6062,12.3754,12.3754,0,0,1,18.6453,15.0634l-.511,1.114.945-.7839a13.114,13.114,0,0,0,2.0909-2.208A12.9352,12.9352,0,0,0,497.3961,304.9344Z"/><path d="M490.1032,318.7505a5.4382,5.4382,0,1,0,5.4273,5.4479A5.4381,5.4381,0,0,0,490.1032,318.7505Z" fill="#fff"/><path d="M360.8209,356.5466a3.6849,3.6849,0,1,1-5.1576.755,3.6854,3.6854,0,0,1,5.1576-.755" fill="#fff"/><path d="M380.1912,355.8329a3.6849,3.6849,0,1,1-5.1576.755,3.6851,3.6851,0,0,1,5.1576-.755" fill="#fff"/><path d="M358.4311,342.641a3.6849,3.6849,0,1,1-5.1576.755,3.6851,3.6851,0,0,1,5.1576-.755" fill="#fff"/><path d="M427.4944,92.55,409.8858,78.3323a.8.8,0,0,0-.7289-.141.7867.7867,0,0,0-.5242.5241l-1.7728,5.81L397.0328,78.01a.8.8,0,0,0-.925.0369.7872.7872,0,0,0-.259.888l1.516,4.3-11.6112-6.8419a.8.8,0,0,0-.809,0,.7907.7907,0,0,0-.3828.7111l.3259,7.8359-14.557-7.549a.79.79,0,0,0-1.1508.616l-.9,8.0229-13.9079-8.3528a.7719.7719,0,0,0-.666-.07.784.784,0,0,0-.4809.4661l-3.7888,9.9148-10.5521-7.2268a.7907.7907,0,0,0-1.0749.1679l-8.4205,10.914-10.343-10.944a.7922.7922,0,0,0-1.24.109l-6.6323,10.29-6.8277-10.3369a.7781.7781,0,0,0-.581-.352.8093.8093,0,0,0-.64.228l-9.1993,9.25-1.9669-8.0049a.7918.7918,0,0,0-1.3358-.3629l-8.1593,8.4-2.5889-8.312a.7917.7917,0,0,0-.509-.5159.7676.7676,0,0,0-.716.1151l-7.7394,5.7-.6789-7.024a.7888.7888,0,0,0-.4351-.631.7755.7755,0,0,0-.7638.03l-10.7243,6.507.7331-5.5861a.8006.8006,0,0,0-.3311-.7509.7858.7858,0,0,0-.818-.054l-8.2223,4.238-.6569-6.728a.7932.7932,0,0,0-1.2441-.572L228.15,90.3422a.7935.7935,0,0,0-.2868.927.81.81,0,0,0,.8237.5089l15.627-1.6289-9.9624,11.382a.791.791,0,0,0,.8791,1.26l20.4574-7.7859-2.1,12.1389a.7881.7881,0,0,0,.3439.8.7993.7993,0,0,0,.87,0l14.8787-9.7348,5.6317,11.9a.7925.7925,0,0,0,.4609.413.8183.8183,0,0,0,.6159-.046l16.7859-8.5729,5.5376,11.6949a.7991.7991,0,0,0,.5239.426.7649.7649,0,0,0,.6609-.131l12.7251-9.374,11.14,11.286a.7872.7872,0,0,0,.563.237l-.003-.004h.043a.8.8,0,0,0,.5791-.3l10.7921-13.74,12.512,12.0409a.79.79,0,0,0,1.3139-.379l3.6069-14.312,17.3586,10.635a.7776.7776,0,0,0,.77.0329.7906.7906,0,0,0,.4331-.6329l1.3339-14.0419,18.3685,10.645a.7921.7921,0,0,0,1.1879-.735l-.8589-13.4,17.7846,7.962a.7908.7908,0,0,0,1.112-.759l-.365-7.99,16.5666,2.88a.7694.7694,0,0,0,.855-.4519A.79.79,0,0,0,427.4944,92.55Z" fill="#fff"/><path d="M325.2736,47.7447a12.2343,12.2343,0,0,0,2.3578,7.1069,29.8267,29.8267,0,0,0,5.5516,5.567c2.8628,2.132,3.0278,2.369,3.0278,3.2a1.572,1.572,0,0,1-1.6859,1.777c-1.5139,0-3.7-1.305-5.5516-2.371a32.8228,32.8228,0,0,1-8.2464-6.75c-4.0377-4.383-5.0486-7.2269-5.0486-10.9,0-4.383,2.1859-6.635,7.7414-14.5709,5.2166-7.464,6.9-10.7789,6.9-13.1479a12.7794,12.7794,0,0,0-2.3578-7.107A26.0415,26.0415,0,0,0,322.41,5.1c-2.6928-2.252-3.03-2.489-3.03-3.2,0-.831.337-1.9,1.6839-1.9,1.5119,0,3.7,1.3,5.5516,2.489a55.506,55.506,0,0,1,8.2464,6.6329c4.2067,4.146,5.0486,7.344,5.0486,10.9,0,3.6719-1.6819,7.1069-7.7414,14.6879-3.2,3.9089-6.8995,10.7789-6.8995,13.0309" fill="#fff"/><path d="M369.9143,47.7447a12.2336,12.2336,0,0,0,2.3578,7.1069,29.8267,29.8267,0,0,0,5.5516,5.567c2.8628,2.132,3.0278,2.369,3.0278,3.2a1.5722,1.5722,0,0,1-1.6819,1.779c-1.5139,0-3.7-1.305-5.5516-2.371a32.8184,32.8184,0,0,1-8.2463-6.75c-4.0377-4.383-5.0487-7.2269-5.0487-10.9,0-4.383,2.1859-6.635,7.7415-14.5709,5.2166-7.464,6.8994-10.7789,6.8994-13.1479a12.7794,12.7794,0,0,0-2.3578-7.107,26.0415,26.0415,0,0,0-5.5516-5.4489c-2.6928-2.252-3.03-2.489-3.03-3.2,0-.831.3369-1.9,1.6838-1.9,1.5119,0,3.7,1.3,5.5516,2.489a55.4944,55.4944,0,0,1,8.2464,6.6329c4.2067,4.146,5.0486,7.344,5.0486,10.9,0,3.6719-1.6819,7.1069-7.7414,14.6879-3.2,3.9089-6.8995,10.7789-6.8995,13.0309" fill="#fff"/><path d="M280.6309,47.7447a12.2343,12.2343,0,0,0,2.3578,7.1069,29.83,29.83,0,0,0,5.5516,5.567c2.8628,2.132,3.0278,2.369,3.0278,3.2a1.5722,1.5722,0,0,1-1.6819,1.779c-1.5139,0-3.7-1.305-5.5516-2.371a32.8228,32.8228,0,0,1-8.2464-6.75c-4.0377-4.383-5.0486-7.2269-5.0486-10.9,0-4.383,2.1859-6.635,7.7414-14.5709,5.2166-7.464,6.8995-10.7789,6.8995-13.1479a12.7794,12.7794,0,0,0-2.3578-7.107,26.0415,26.0415,0,0,0-5.5516-5.4489c-2.6928-2.252-3.03-2.489-3.03-3.2,0-.831.337-1.9,1.6839-1.9,1.5119,0,3.7,1.3,5.5516,2.489a55.506,55.506,0,0,1,8.2464,6.6329c4.2067,4.146,5.0486,7.344,5.0486,10.9,0,3.6719-1.6819,7.1069-7.7414,14.6879-3.2,3.9089-6.8995,10.7789-6.8995,13.0309" fill="#fff"/></svg>