<svg xmlns="http://www.w3.org/2000/svg" viewBox="0 0 152 83"><path d="M151.523,22.7764l.0021.0005c-3.2169-15.0195-17.3977-21.295-32.1763-22.63-19-1.7165-81.2953,12.0547-97.34,18.9731C5.1807,26.37-1.5945,38.6687.3123,52.2494,2.0877,64.9,16.7428,73.9005,32.8073,74.8174c7.9372.4535,18.7063-1.0678,39.3958-4.191C79.7283,69.49,84.7332,83,84.7332,83s-.5-14.4613,6.0947-16.0037c15.49-3.6245,31.4927-7.83,39.316-11.1511C144.2009,49.8768,154.36,36.03,151.523,22.7764Z" fill-rule="evenodd"/><path d="M46.2766,44.8551a25.5887,25.5887,0,0,0,3.4789-4.98c.1454-.2594.1715-.3332.36-.3991.145-.0561.4665-.13.4221-.3232s-.1887-.2481-.98-.562a6.8417,6.8417,0,0,0-1.2153-.3743c-.15.0347-.2177.2308-.3106.4328a22.7184,22.7184,0,0,1-3.6639,5.1565c-.1089.1155-.2935.2935-.2491.4865a2.2253,2.2253,0,0,0,1.55,1.042A1.393,1.393,0,0,0,46.2766,44.8551Z" fill="#fff"/><path d="M44.8154,39.5661a25.98,25.98,0,0,0,3.0965-4.7789c.15-.3282.2092-.3644.3154-.4115.2827-.1269.4014-.2.3717-.3281-.0346-.15-.1188-.221-.39-.32a12.1567,12.1567,0,0,0-1.7991-.5557c-.1715.04-.2292.2788-.2639.4221a22.1975,22.1975,0,0,1-3.1087,4.823c-.18.2-.3759.4256-.3314.6184a2.3112,2.3112,0,0,0,1.5786.97A.9767.9767,0,0,0,44.8154,39.5661Z" fill="#fff"/><path d="M129.9172,23.9215a7.44,7.44,0,0,0-3.3823-4.7734,7.8236,7.8236,0,0,0-6.0439-.84,9.064,9.064,0,0,0-6.8738,10.82q.0267.119.0564.2373a6.9,6.9,0,0,0,1.3672,2.8906,3.5458,3.5458,0,0,0,3.3855,1.3633,3.94,3.94,0,0,0,2.4445-2.3029c1.4888-2.94,1.3582-6.9291.8714-10.1131-.0628-.3694-.1715-.8411.3215-.9549a3.8359,3.8359,0,0,1,.8595.0069,5.3368,5.3368,0,0,1,4.6127,4.3313c.7076,3.0654-1.0747,5.4187-3.73,6.7314-.2044.0925-.516.21-.4666.4238.1089.4717,1.2928,1.5983,1.852,1.4692a8.5572,8.5572,0,0,0,2.1405-1.3974A7.9,7.9,0,0,0,129.9172,23.9215Zm-11.9926,7.3111c-1.0933.2525-1.8321-1.6767-2.0153-2.47a6.8072,6.8072,0,0,1,2.4288-7.0655,2.4766,2.4766,0,0,1,.6741-.406.3488.3488,0,0,1,.4329.3106,22.3708,22.3708,0,0,1,.2829,4.3375C119.6326,28.2644,118.9963,30.9852,117.9246,31.2326Z" fill="#fff"/><path d="M51.9838,45.1877c.1285-.03.4765-.0874.4171-.3446-.0545-.2358-.3512-.3479-1.0241-.6216a5.7074,5.7074,0,0,0-1.1827-.4288c-.1072.0247-.17.1521-.2123.2542A23.4119,23.4119,0,0,1,45.73,49.883c-.1467.1468-.4666.4239-.4122.66a2.2315,2.2315,0,0,0,1.5979,1.0536,1.4658,1.4658,0,0,0,.6332-.4849,26.5552,26.5552,0,0,0,4.0807-5.5029C51.7512,45.3543,51.7908,45.2324,51.9838,45.1877Z" fill="#fff"/><path d="M27.3542,37.8872c-.75.1731-1.4741.3628-2.2243.536l-2.3581.5444c-.8575.1979-1.7247.3531-2.5822.5509-.5359.1238-.46.3546-.272,1.1692.1781.7718.2162,1.034.7306.9152.3-.0694.8525-.2194,1.1692-.3151.4121-.0726.6023.0662.6909.45l.3216,1.3934c.0842.3643.01.63-.3973.7239-.5738.155-1.189.2293-1.7891.3679-.45.1039-.3594.3991-.1961,1.1065.1732.75.2162,1.0339.6876.925.2144-.05,1.3406-.3547,1.6836-.4338.3948-.0686.5706.0262.686.4286.0874.4765.2013.97.2459,1.456.0511.4171-.1121.59-.5144.7058-.2193.028-1.3175.2589-1.5105.3036-.4716.1089-.3906.3611-.2176,1.1114.1783.7717.2161,1.0339.6878.925.4287-.099.831-.2144,1.2383-.3085.2788-.0643.4963-.0017.5656.2985l.0364.1311A13.3876,13.3876,0,0,1,22.9976,56.26a1.3768,1.3768,0,0,0-.2094.6579,2.213,2.213,0,0,0,1.7727.8326c.2787-.0642.4089-.4782.5386-.7791a16.7767,16.7767,0,0,0,.9925-6.5737c.03-.4585.15-.6217.5789-.7207l1.6077-.3711c.39-.09.5754.0477.6645.4336.137.9844.5,3.6325.08,4.4521a1.9194,1.9194,0,0,1-1.3059.7984c-.3.0692-.4551.0824-.7388.1252a4.2719,4.2719,0,0,0-.5243.0759c-.39.09-.2809.5616-.2165.84.3117,1.35.68,1.3823,1.6236,1.1645,1.6934-.3908,3.0917-.9846,3.43-2.8445.5868-3.1486-1.4849-11.517-2.2676-14.9079C28.8,38.479,28.64,37.59,27.3542,37.8872ZM24.8711,42.664,24.55,41.2707c-.0992-.4287.0328-.64.4615-.7387l.7931-.1831c.8147-.188,1.13-.1932,1.2978.5358l.2872,1.2432c.0939.4074-.0663.6023-.4717.6959l-1.3076.3019C25.1811,43.2247,24.97,43.0928,24.8711,42.664Zm3.0428,4.6714-1.4361.3316c-.4074.094-.5969-.0429-.6911-.45-.066-.4815-.1319-.9629-.2408-1.4346-.03-.4221.0857-.6068.4929-.7008l1.3291-.3068c.4072-.0941.6348.0115.7289.4187a11.008,11.008,0,0,1,.31,1.4412C28.48,47.0467,28.3213,47.2413,27.9139,47.3354Z" fill="#fff"/><path d="M37.5023,42.9992a.9786.9786,0,0,1-.3924-.4287.9626.9626,0,0,1,.0559-.4419c.2769-.8541,1.266-4.7854,1.1076-5.4714a1.4234,1.4234,0,0,0-1.7959-.7368c-.45.104-.89.2507-1.34.3546l-1.7791.4108c-.5574.1286-1.1246.2144-1.682.3431-.7716.1781-1.2411.4918-1.0387,1.3688.1436.6216.3353,1.2568.4784,1.8764l2.702,11.7042c.2376,1.029.4109,2.0727.6533,3.123.1575.6821.3777.658,1.2781.45.9216-.2129,1.11-.2788.9572-.9395-.2426-1.05-.5229-2.0693-.7654-3.12L33.1586,39.4413a.5308.5308,0,0,1,.4616-.7389l1.5434-.3562c.1716-.04.5409-.1023.6.1549a1.2477,1.2477,0,0,1,.0256.4046c-.29,1.2862-.5534,2.5909-.8867,3.8851a1.2494,1.2494,0,0,0-.0412.5062c.0842.3644.59.6991.8641.9068A6.4583,6.4583,0,0,1,38.35,47.7483c.2178.9431.14,1.6836-.9315,1.931-.3215.0742-.6969.0931-.8722.1337-.3216.0742-.3354.3257-.271.6045.43,1.8648,1.2777,1.5338,1.8156,1.41a3.4527,3.4527,0,0,0,2.36-1.3352,3.6562,3.6562,0,0,0,.2817-2.8873A8.39,8.39,0,0,0,37.5023,42.9992Z" fill="#fff"/><path d="M99.45,36.0357c.1071-.0247.3381-.1007.3034-.2506-.0495-.2143-.5754-.3413-.74-.3711-.0916-.0239-.2614-.0749-.4792-.1377a6.5425,6.5425,0,0,0-1.0471-.2324c-.1287.03-.1652.1736-.2028.2952A14.3642,14.3642,0,0,1,95.0181,39.61c-.1039.1368-.3156.4115-.271.6044.104.45,1.2763.8343,1.6836.74.6217-.1434,2.3264-3.8109,2.633-4.5365C99.1528,36.2171,99.2137,36.09,99.45,36.0357Z" fill="#fff"/><path d="M74.0149,40.2822c-.0791-.343-.2969-.9927-.7471-.8888a5.3177,5.3177,0,0,0-.6909.43c-.1187.0727-.2159.14-.2754.1764-.0642.0149-.1235.0513-.19.0666-.2571.0594-.3924-.1352-.4683-.3661l-1.0492-4.5445a.53.53,0,0,1,.44-.7339c.3693-.0626.7387-.1252,1.1245-.2143s.3838-.294.2357-.9351a.3.3,0,0,1,.215-.3657l.0159-.0037a.64.64,0,0,1,.2048-.002.5.5,0,0,0,.2505.01c.45-.104,1.0009-1.631,1.1689-2.0762a.8882.8882,0,0,1,.7731-.6526l6.349-1.4658c.7288-.1682,1.489-.2986,2.2393-.4719.4715-.1088.3957-.34.2224-1.09-.1682-.7289-.19-1.0174-.6826-.9036-.75.1731-1.4859.4107-2.2146.5789L75.62,28.0577c-.0428.01-.3479.0578-.4072-.2a.5132.5132,0,0,1,.0032-.1812c.0725-.1748.0759-.3562.216-.4338.1236-.0511.3875-.18.3479-.3513-.0594-.2572-.5029-.2225-.8443-.234-.2516-.0138-1.4016-.1053-1.5517-.0708-.2573.0595-.2457.3051-.31.6134a15.3119,15.3119,0,0,1-1.5347,4.3057,1.4692,1.4692,0,0,0-.2061.4765c-.0065.0694-.0247.1863-.1052.2295-.2143.05-.45.104-.6594.1748-.4387.0562-.6238-.0611-.7174-.4665l-.5148-2.2293c-.188-.8147-.216-1.0339-.0412-1.2548.1418-.1683.2551-.2642.2209-.4124-.0593-.2572-.343-.2144-.5195-.196-.3054.0459-1.7235.26-1.9418.3108s-.38.1328-.3254.3685c.0147.0643.061.1666.0758.2308.1617.5047.353,1.1378.4867,1.7166l.45,1.9487c.09.39-.0164.6135-.3972.7239-.1717.04-1.1675.2245-1.2766.25-.4717.1089-.35.442-.1813,1.1708s.2,1.06.6713.9514c.4072-.094.831-.2144,1.2334-.33a.525.525,0,0,1,.6958.4714L69.69,40.8515c.0658.4364.041.6228-.3579.85-.5179.3-.9053.48-1.1925.614-.5277.2573-.63.3035-.5805.5178a3.2527,3.2527,0,0,0,.31.5606c.1452.2375.259.437.3629.5936.3718.6326.5294.826.7438.7766.1948-.045.2226-.2095.2736-.3793.0408-.2147.14-.2807.4568-.4668,1.239-.6965,2.902-1.7085,4.0479-2.515C74.0627,41.1743,74.1881,41.0324,74.0149,40.2822Z" fill="#fff"/><path d="M82.6748,31.622c-.0742-.3215-.1271-.6479-.2013-.9694-.1486-.6431-.5145-.7618-1.1149-.6233-.4287.0991-.8474.2409-1.2761.34l-4.0085.9256c-.45.1038-.887.16-1.3177.259-.5787.1335-.8552.4026-.7121,1.0223.0742.3216.1748.66.249.9811l.4207,1.822c.1088.4717.1749.9532.2887,1.4463.1574.682.6794.4978,1.2368.3692a1.8218,1.8218,0,0,0,.7254-.28,1.5305,1.5305,0,0,1,.3348-.2129l4.1157-.95a.3541.3541,0,0,1,.2606.0527,1.6079,1.6079,0,0,0,.8656-.0643c.5789-.1337,1.0818-.2046.9233-.8905-.1137-.493-.2655-.9548-.3744-1.4263ZM80.5264,34.15l-3.19.7366a.63.63,0,0,1-.7427-.4607l-.1732-.75a.63.63,0,0,1,.4617-.7389l3.1939-.7375a.63.63,0,0,1,.7388.4617l.1732.75A.63.63,0,0,1,80.5264,34.15Z" fill="#fff"/><path d="M86.8064,41.3028c-.0645.0148-.1238.0512-.19.0664a.4541.4541,0,0,1-.5913-.41l-.6424-2.7827c-.0792-.343-.1146-.6919-.1947-1.0388-.1732-.75-.8047-.65-1.405-.5111-.5573.1287-1.1312.2838-1.6885.4124l-4.9927,1.1526c-.5787.1337-1.1625.2459-1.72.3745-.6.1386-1.1856.3415-1.0174,1.07.0791.3429.1766.5689.28,1.0191L75.2786,43.4c.094.4073-.0613.6237-.4666.7174-.4122.0725-.8245.1451-1.21.2341-.6646.1536-.6195.3484-.432,1.161.1831.7931.2326,1.0075.8757.859.7717-.1782,1.5121-.3943,2.2625-.5674L84.9894,43.8c.7717-.1782,1.5318-.3084,2.2821-.4816.6645-.1535.61-.3892.4319-1.1609C87.52,41.3637,87.4709,41.1494,86.8064,41.3028Zm-8.67,2.0694c-.0132.0035-.0264.0067-.04.0091l-.2359.0545a.508.508,0,0,1-.624-.356c-.0037-.013-.0066-.0264-.0091-.04l-.5148-2.2292a.5081.5081,0,0,1,.3559-.6241c.0132-.0036.0264-.0067.04-.0092l.2359-.0545a.5081.5081,0,0,1,.624.356c.0037.0132.0066.0264.0092.04l.5147,2.2292A.5082.5082,0,0,1,78.1365,43.3722Zm2.8081-.6483c-.0132.0036-.0264.0065-.04.0091l-.2359.0545a.508.508,0,0,1-.624-.3559c-.0035-.0132-.0066-.0265-.0091-.04l-.5148-2.2293a.5082.5082,0,0,1,.3559-.6242c.0132-.0035.0264-.0066.04-.0091l.2359-.0544a.5077.5077,0,0,1,.624.3559c.0037.013.0066.0263.0093.04L81.3005,42.1A.5081.5081,0,0,1,80.9446,42.7239Zm2.8471-.6573c-.0131.0036-.0263.0066-.04.0091l-.2534.0586a.5081.5081,0,0,1-.624-.356c-.0037-.0132-.0066-.0264-.0092-.04L82.3467,39.51a.5081.5081,0,0,1,.3559-.624c.0132-.0036.0264-.0066.04-.0092L83,38.8174a.5082.5082,0,0,1,.6241.3559c.0035.0132.0066.0264.0091.04l.5147,2.2294A.5081.5081,0,0,1,83.7917,42.0666Z" fill="#fff"/><path d="M105.67,33.4255a.3794.3794,0,0,0-.34-.1022c-.3.0694-1.2664.97-1.187,1.3128.0295.1285.1879.2275.2934.2934a46.9547,46.9547,0,0,1,3.9331,2.953c.1419.1253.3991.3594.5706.32.3-.0694,1.2827-.9961,1.1937-1.382a18.894,18.894,0,0,0-2.7069-2.2384A20.3551,20.3551,0,0,0,105.67,33.4255Z" fill="#fff"/><path d="M64.3884,46.8889c-.5426-.1-3.6987-.8621-3.8027-1.3123-.0156-.0681.0073-.1638.1533-.2159.3948-.0685.7766-.1567,1.1411-.2408.7074-.1634,1.0054-.4374.8327-1.1858-.1188-.5144-.2854-1.04-.4042-1.555L60.9814,36.63c-.1237-.5359-.2046-1.0816-.3283-1.6176-.1783-.7716-.6075-.8532-1.29-.6957-.5574.1287-1.0832.2952-1.6192.419l-1.5044.3474c-.2.0234-.3842-.0017-.4338-.2161a6.0388,6.0388,0,0,1,.27-1.0784.8272.8272,0,0,1,.7437-.691l1.5649-.3612c.7931-.1832,1.6011-.302,2.3942-.4851.493-.1138.3907-.3611.2126-1.1328-.1831-.7932-.2112-1.0125-.7042-.8987-.7932.1831-1.5549.4042-2.3482.5873l-6.0585,1.3988c-.7931.1831-1.5962.3232-2.3893.5063-.4931.1138-.4123.3662-.2389,1.1165s.216,1.0338.709.92c.7932-.1831,1.5715-.43,2.3646-.6135l1.05-.2426c.0642-.0147.4122-.0726.4814.2276a3.71,3.71,0,0,1-.2751,1.057.8138.8138,0,0,1-.7273.6645c-.3.0694-.5837.1123-.8818.1812-.7073.1633-.98.4519-.8062,1.2021.1237.5359.2688,1.0669.3876,1.5813l1.3273,5.7488c.1187.5144.216,1.0339.34,1.57.1781.7718.5822.859,1.29.6957l.5358-.1237c.1714-.04.2342.0362.254.122a.2269.2269,0,0,1-.0462.1913,16.6693,16.6693,0,0,1-3.1534,2.602c-.5338.3285-.7338.4405-.6794.6762.0694.3.8305,1.3478,1.3235,1.234a3.3843,3.3843,0,0,0,.7007-.3877,22.8817,22.8817,0,0,0,3.41-2.9321.651.651,0,0,1,.2869-.2244A.4287.4287,0,0,1,57.32,47.96c.0427-.01.1121-.0034.1549-.0132a.2168.2168,0,0,0,.1693-.2443c-.04-.1715-.6562-.5937-1.0041-.8294-.1056-.0659-.2809-.14-.3151-.2886a.2219.2219,0,0,1,.1908-.2492l2.5938-.5989a.232.232,0,0,1,.3067.155.2493.2493,0,0,1-.0248.1863,1.5888,1.5888,0,0,0-.3049.9285c.1238.5359,4.6272,2.0476,5.2061,1.9139.4929-.1139.8243-1.3192.73-1.7266C64.9737,46.98,64.6753,46.9582,64.3884,46.8889ZM53.7978,38.376c-.0035-.0132-.0065-.0264-.009-.04l-.0693-.3a.5079.5079,0,0,1,.3559-.6241c.0131-.0036.0264-.0067.04-.0092l3.9441-.9106a.5081.5081,0,0,1,.6242.3559c.0035.0132.0067.0264.0091.04l.0694.3a.5081.5081,0,0,1-.356.624c-.0132.0037-.0264.0067-.04.0093l-3.9442.9106A.5083.5083,0,0,1,53.7978,38.376Zm.6731,2.9152c-.0035-.0131-.0066-.0263-.0091-.04l-.0639-.2767a.5078.5078,0,0,1,.356-.624c.0131-.0036.0264-.0067.04-.0092l3.9438-.9126a.5081.5081,0,0,1,.624.356c.0036.0132.0068.0264.0092.04l.0645.2786a.5081.5081,0,0,1-.356.624c-.0132.0036-.0264.0067-.04.0093l-3.9443.9106A.5081.5081,0,0,1,54.4709,41.2912ZM59.77,43.6623a.466.466,0,0,1-.0525.011l-3.9444.9107a.4909.4909,0,0,1-.6149-.3223.4658.4658,0,0,1-.0132-.052l-.0843-.3645a.4911.4911,0,0,1,.3482-.6008.4754.4754,0,0,1,.0525-.011l3.9443-.9107a.4912.4912,0,0,1,.6151.3223.514.514,0,0,1,.0132.052l.0841.3645A.4909.4909,0,0,1,59.77,43.6623Z" fill="#fff"/><path d="M103.2707,35.9438l-.5739-2.4865c-.0992-.4288.0328-.64.44-.7339l1.5434-.3564c.0691.0066.239.0578.33.0594a2.25,2.25,0,0,0,.9514-.0841c.5788-.1338,1.0768-.2261.9383-.8263-.099-.4287-.2508-.89-.36-1.3621l-.9552-4.1371c-.1089-.4717-.17-.9316-.2789-1.4033-.1484-.6431-.531-.7353-1.1311-.5968-.536.1237-1.062.29-1.6193.4191l-2.2937.5295c-.2.0234-.3842-.0017-.4385-.2375a.6391.6391,0,0,1-.0022-.2047c.0622-.22.1048-.4347.1665-.6481a.7732.7732,0,0,1,.7007-.6812l2.8939-.6679c.8146-.1882,1.639-.3333,2.4536-.5214.493-.1139.4171-.3446.234-1.1378-.198-.8574-.2209-1.0554-.7355-.9365-.8145.1879-1.6143.44-2.4074.6235L92.259,23.0627c-.6645.1535-1.36.2689-2.0249.4224-.7717.1782-1.118.4387-.925,1.2746.1484.6432.34,1.2764.4883,1.92l.8364,3.6228a25.9192,25.9192,0,0,1,.9154,7.4858A16.4978,16.4978,0,0,1,91,40.7864a1.2731,1.2731,0,0,0-.11.4995c.104.45,1.5649.8128,1.8864.7386.4287-.099.7007-1.5616.7881-1.9657a23.3873,23.3873,0,0,0-.6423-9.6282l-1.0591-4.5874a.5088.5088,0,0,1,.4451-.7124l4.8446-1.1184c.2193-.028.4222-.03.4815.2276a.6361.6361,0,0,1,.0021.2047c-.0621.22-.1008.4523-.183.6744a.8267.8267,0,0,1-.7485.67l-.1715.04c-.5573.1287-1.1246.2144-1.66.3382-.6.1385-.9036.3891-.75,1.0537.1039.45.2508.89.36,1.3621l.9552,4.1372c.0593.2572.2292,1.1888.2688,1.36.1435.6216.5887.4964,1.1889.3577a2.3534,2.3534,0,0,0,.9136-.3463,2.0761,2.0761,0,0,1,.2917-.2029l1.7793-.4108c.4288-.0989.64.033.7388.4617l.5953,2.57c.2624,1.1361.4521,1.5666-.8555,1.8683-.4074.0941-.851.1288-1.1082.1883-.3.0692-.31.32-.2506.5771a3.1558,3.1558,0,0,0,.6,1.2388.9912.9912,0,0,0,1.0273.1466c2.0794-.48,3.5134-1.0165,3.0388-3.0724C103.5463,36.9414,103.39,36.4582,103.2707,35.9438ZM96.67,28.5769c-.0037-.0144-.0069-.0292-.0094-.044l-.0595-.2573a.583.583,0,0,1,.3965-.7229c.0144-.0041.0291-.0078.0437-.011l5.7879-1.3362a.5831.5831,0,0,1,.708.4227c.0036.0145.0068.0292.0092.044l.0595.2572a.583.583,0,0,1-.3965.7229c-.0144.0042-.0289.0078-.0437.011L97.3777,29A.583.583,0,0,1,96.67,28.5769Zm1.4295,3.5483a.583.583,0,0,1-.708-.4225c-.0036-.0145-.0067-.0291-.0094-.044l-.0742-.3216a.5442.5442,0,0,1,.4453-.7124l5.7876-1.3361a.5434.5434,0,0,1,.7124.445l.0742.3216a.5828.5828,0,0,1-.3964.7229c-.0144.0042-.029.0079-.0437.0109Z" fill="#fff"/></svg>