<svg xmlns="http://www.w3.org/2000/svg" viewBox="0 0 275 175"><path d="M36.5735,0,29.3709,11.1736,275,116.5631l-.75-3.37Z" fill="#fff"/><path d="M3.3974,126.38,0,139.2331,266.6263,175l-1.7544-2.9731Z" fill="#fff"/><path d="M77.6646,107.5065c.1575-.6821,1.22-.5866,1.94-.5642,9.4932-.0528,17.9331-4.3278,20.2015-14.1534,1.6968-7.35-.6278-14.8354-7.2029-18.9582a12.3221,12.3221,0,0,0-2.4672-1.2182c-1.5824-.3653-1.9311,1.145-2.268,2.2977-3.0725,9.8544-8.3,21.5288-16.718,27.9106-2.9034,2.227-6.5143,4.0689-10.2919,3.1968-4.19-.9673-6.7907-4.7493-7.837-8.6856a22.1224,22.1224,0,0,1,.1229-10.25c3.7114-16.0762,18.96-26.0167,35.1739-22.2735,6.7339,1.5547,12.4565,4.9777,16.2263,10.9118A23.856,23.856,0,0,1,107.58,94.2246a25.33,25.33,0,0,1-18.518,19.0947c-1.7731.461-6.4744,1.4025-8.1259,1.0212C79.1489,113.929,77.3157,109.0177,77.6646,107.5065ZM77.3605,71.54a21.821,21.821,0,0,0-16.943,16.9316c-.5869,2.5422-1.1684,9.1374,2.3344,9.9461,3.4356.7932,9.0935-6.15,12.6343-12.7117,1.6523-3.0936,4.53-9.5919,5.2917-12.8921a1.113,1.113,0,0,0-.8138-1.4892A7.9632,7.9632,0,0,0,77.3605,71.54Zm61.9173,50.5962c.1658-.7181,1.1033-.6895,2.1275-.7692,7.4614-.6717,15.7535-4.1106,17.6183-12.1881,1.8777-8.133-5.309-12.7541-6.984-13.1408-.8389-.1937-1.3764.5032-1.6481,1.1333a45.78,45.78,0,0,1-11.8523,16.4145c-3.9909,3.3634-9.7844,6.3733-15.1123,5.1433-5.5617-1.284-6.0785-7.514-5.0154-12.1188a22.2142,22.2142,0,0,1,8.9772-13.4924,1.8287,1.8287,0,0,0,.9751-1.223,4.2944,4.2944,0,0,0-.0279-1.5192c-.2561-2.705-.319-5.4289-.564-8.1949a4.0678,4.0678,0,0,1,.0274-.9369,1.11,1.11,0,0,1,1.1777-.7359,31.1992,31.1992,0,0,1,5.001-.1058c.9568.2209.7963,1.1917.7377,1.9972-.0919,1.4915-.1393,3.875-.102,5.3317.0568.5806.1971,1.0533.8567,1.2056a2.0768,2.0768,0,0,0,1.0863-.0643,25.5742,25.5742,0,0,1,8.5621-.7943c2.1026.17,2.3052-.16,3.3549-4.7069.2069-.8965.3551-1.8095.5479-2.6446.1379-.5973.3674-1.0492,1.0856-.8834a37.5638,37.5638,0,0,1,5.6108,2.7424c.3762.2778.9206.6539.7822,1.2531-.0965.418-.3915.6024-.6558.92a8.2654,8.2654,0,0,0-1.916,3.65c-.0277.12-.1555.4064-.1833.5273-.2756,1.1936.8326,1.5767,1.6135,2.0084,7.7132,3.9853,11.9216,11.1311,9.9189,19.8059-2.3334,10.1071-10.6348,14.6841-20.1275,16.7753a9.1113,9.1113,0,0,1-3.2232.3273C140.5529,127.5356,139.002,123.3309,139.2778,122.1364Zm-14.8-14.1879c-.36,1.559-.7683,4.4215,1.2633,4.8905,1.7344.4,5.5229-.993,5.84-2.3679a2.3042,2.3042,0,0,0-.0323-.9537c-.631-2.7258-1.2151-5.3833-1.7117-8.1448-.0512-.3248-.225-.9325-.6449-1.0294C128.2356,100.1191,125.363,104.1153,124.478,107.9485Zm10.8361-11.7372c-.18.7795.749,6.0331.9471,7.0867.2616,1.3207.3377,2.0936.933,2.231,1.559.36,6.8846-8.807,7.2711-10.481a.7759.7759,0,0,0-.644-1.0292c-1.4394-.3354-8.0564.2173-8.5112,2.1874ZM180.69,129.4156a6.2319,6.2319,0,0,1,7.54-4.4222,8.1,8.1,0,0,1,5.6384,4.9174,4.9289,4.9289,0,0,1,.1625,3.297c-.0313.3489.0495.6745.4393.7644,1.2569.29,6.4429-1.2127,7.57-6.0962,1.0831-4.6916-2.4361-7.5413-6.6444-8.5129-4.4022-1.0163-8.1282-.0938-11.9284,2.2391-2.31,1.4034-4.5079,2.9844-6.7074,4.5631a.6729.6729,0,0,1-.6112.2161c-1.0163-.2347-2.8561-3.5125-2.6779-4.2842.1349-.5847.9818-.9454,1.4968-1.1847A198.5613,198.5613,0,0,0,193.515,109.2c.48-.3,1.5471-.9667,1.6589-1.451.1-.4346-.3021-.6783-.6889-.7676a11.4818,11.4818,0,0,0-1.2055-.0731c-1.2279.0244-8.3708-.15-9.1435-.3282-1.064-.2457-.3715-3.9078-.1816-4.73.2567-1.1118.3279-1.198,1.7777-.8632l1.1517.2658c3.0946.7145,9.589,1.5016,12.65,1.0372a6.7609,6.7609,0,0,1,1.96-.1077c1.9351.4467,3.8923,4.7677,3.7024,5.59-.0785.34-.6783.5064-1.3.77a48.0772,48.0772,0,0,0-8.5118,4.8619,1.4754,1.4754,0,0,0-.6768.7089c-.09.39.2446.7184.6772.8183a2.9031,2.9031,0,0,0,.65.0475,9.4172,9.4172,0,0,1,2.0278.2629,14.5766,14.5766,0,0,1,5.6144,2.8253,10.26,10.26,0,0,1,3.5888,10.71c-1.9767,8.5618-10.5971,11.2577-18.3842,9.46C184.8733,137.309,179.5505,134.35,180.69,129.4156Zm4.2083.9716c-.4018,1.74,1.7283,3.0982,3.1792,3.4331.9188.2121,1.5087-.5692,1.6871-1.3419a3.0341,3.0341,0,0,0-2.3415-3.5456,2.055,2.055,0,0,0-2.5248,1.4391l-.0039.0144Zm31.3461,12.7018a2.945,2.945,0,0,1-.91-4.0642q.0651-.1026.1385-.2a3.4,3.4,0,0,1,4.6863-1.0762q.1429.09.2766.193a3.0409,3.0409,0,0,1,.8641,4.2129q-.0642.0974-.1359.19a3.3439,3.3439,0,0,1-3.4841,1.4217,3.9651,3.9651,0,0,1-1.4429-.6759Zm6.7478-7.6634-1.211-.88c-.9186-.6667-.9685-.9841-.34-1.9258l6.498-9.4751c1.5277-2.2561,4.8457-7.3637,5.3785-8.0976.4522-.6253.7787-.6126,1.5884-.0254l2.5718,1.8674c.8067.5865.9225.8945.47,1.52-.5337.7337-4.3657,5.467-6.2018,7.8367l-6.8078,8.91c-.4551.5754-.7472.8-1.1448.7087a2.4015,2.4015,0,0,1-.81-.44Z"/></svg>