<svg xmlns="http://www.w3.org/2000/svg" viewBox="0 0 276 118"><path d="M66.55,95.6648a2.4743,2.4743,0,0,1,.4792-1.459l.5464,1.4611,2.8654-2.0779a2.4985,2.4985,0,1,1-3.891,2.0758Zm2.5016,4.7388a2.4973,2.4973,0,1,0,2.5017,2.4972A2.4994,2.4994,0,0,0,69.052,100.4036Zm0,7.2349a2.4973,2.4973,0,1,0,2.5017,2.4973A2.4995,2.4995,0,0,0,69.052,107.6385Zm-2.38,9h1.0008l2.3605-1.5645a2.49,2.49,0,0,0-3.3613,1.5645Zm-5.7567-23.471a2.4973,2.4973,0,1,0,2.5016,2.4972A2.5,2.5,0,0,0,60.9156,93.1676Zm0,7.236a2.4973,2.4973,0,1,0,2.5016,2.4972A2.5,2.5,0,0,0,60.9156,100.4036Zm0,7.2349a2.4973,2.4973,0,1,0,2.5016,2.4973A2.5,2.5,0,0,0,60.9156,107.6385Zm0,7.235a2.4928,2.4928,0,0,0-2.38,1.7651h4.7594A2.4928,2.4928,0,0,0,60.9156,114.8735ZM53.3386,93.17A2.4973,2.4973,0,1,0,55.84,95.6669,2.4995,2.4995,0,0,0,53.3386,93.17ZM45.76,98.1641a2.49,2.49,0,0,0,.7647-4.863l-2.5634,4.0955A2.4919,2.4919,0,0,0,45.76,98.1641Zm7.578,2.2395a2.4973,2.4973,0,1,0,2.5017,2.4972A2.5,2.5,0,0,0,53.3375,100.4036Zm0,7.2349a2.4973,2.4973,0,1,0,2.5017,2.4973A2.5,2.5,0,0,0,53.3375,107.6385Zm0,7.235a2.4928,2.4928,0,0,0-2.38,1.7651h4.7593A2.4926,2.4926,0,0,0,53.3375,114.8735Zm-7.579-14.47a2.4973,2.4973,0,1,0,2.5017,2.4972A2.4994,2.4994,0,0,0,45.7585,100.4036Zm0,7.2349a2.4973,2.4973,0,1,0,2.5017,2.4973A2.4995,2.4995,0,0,0,45.7585,107.6385Zm0,7.235a2.4926,2.4926,0,0,0-2.38,1.7651h4.7593A2.4926,2.4926,0,0,0,45.7585,114.8735Zm-7.579-14.47a2.4973,2.4973,0,1,0,2.5017,2.4972A2.4994,2.4994,0,0,0,38.18,100.4036Zm0,7.2349a2.4973,2.4973,0,1,0,2.5017,2.4973A2.4995,2.4995,0,0,0,38.18,107.6385Zm0,7.235a2.4928,2.4928,0,0,0-2.38,1.7651h4.7594A2.4928,2.4928,0,0,0,38.18,114.8735Zm-7.578-21.7059a2.4973,2.4973,0,1,0,2.5017,2.4972A2.4994,2.4994,0,0,0,30.6015,93.1676Zm0,7.236a2.4973,2.4973,0,1,0,2.5017,2.4972A2.4994,2.4994,0,0,0,30.6015,100.4036Zm0,7.2349a2.4973,2.4973,0,1,0,2.5017,2.4973A2.4995,2.4995,0,0,0,30.6015,107.6385Zm0,7.235a2.4928,2.4928,0,0,0-2.38,1.7651h4.7594A2.4928,2.4928,0,0,0,30.6015,114.8735ZM23.0174,93.1676a2.4973,2.4973,0,1,0,2.5017,2.4972A2.4994,2.4994,0,0,0,23.0174,93.1676Zm0,7.236a2.4973,2.4973,0,1,0,2.5017,2.4972A2.4994,2.4994,0,0,0,23.0174,100.4036Zm0,7.2349a2.4973,2.4973,0,1,0,2.5017,2.4973A2.4995,2.4995,0,0,0,23.0174,107.6385Zm0,7.235a2.4928,2.4928,0,0,0-2.38,1.7651h4.7593A2.4926,2.4926,0,0,0,23.0174,114.8735ZM17.9451,95.6648a2.4845,2.4845,0,0,0-2.9627-2.4508L14.35,97.901a2.4861,2.4861,0,0,0,3.5952-2.2362Zm-2.5017,9.7333a2.4973,2.4973,0,1,0-1.5-4.4844l-.4731,3.5057A2.49,2.49,0,0,0,15.4434,105.3981Zm5.0724-16.9362a2.4972,2.4972,0,0,0,4.8413.8609,7.37,7.37,0,0,1-1.7321-3.2753,2.474,2.474,0,0,0-3.1092,2.4144Zm-2.5707,0a2.4988,2.4988,0,0,0-1.9914-2.4446l-.6648,4.9263c.0521.0032.1016.0155.1545.0155A2.5,2.5,0,0,0,17.9451,88.4619Zm42.9705-2.4972a2.4972,2.4972,0,1,0,2.5016,2.4972A2.4995,2.4995,0,0,0,60.9156,85.9647ZM77.1864,98.1621a2.4973,2.4973,0,1,0-2.5017-2.4973A2.4994,2.4994,0,0,0,77.1864,98.1621Zm0,7.236a2.4973,2.4973,0,1,0-2.5017-2.4973A2.4995,2.4995,0,0,0,77.1864,105.3981Zm0,2.24a2.5,2.5,0,0,0-2.5017,2.4973,2.4709,2.4709,0,0,0,.5213,1.51L79.3481,108.9A2.4915,2.4915,0,0,0,77.1864,107.6385Zm8.1764-9.4764a2.4884,2.4884,0,0,0,1.7024-.6767l-4.14-2.3677a2.4825,2.4825,0,0,0,2.4372,3.0444Zm0,2.2415a2.4923,2.4923,0,0,0-.6064,4.912l3.07-2.0346a2.4675,2.4675,0,0,0,.0384-.38A2.5,2.5,0,0,0,85.3628,100.4036Zm-69.9194,7.2349a2.4973,2.4973,0,1,0,2.5017,2.4973A2.4995,2.4995,0,0,0,15.4434,107.6385Zm0,7.235a2.4926,2.4926,0,0,0-2.38,1.7651h4.7593A2.4928,2.4928,0,0,0,15.4434,114.8735Z" fill="#d7c6ba"/><path d="M20.0455,92.791v1.3105h4.3369c-.0221.3407-.2632,1.9519-2.8019,4.6159l-.3.31.38-.2a9.4531,9.4531,0,0,0,4.669-5.9554l.0171-.0859Z"/><path d="M23.2146,97.9532a3.28,3.28,0,0,0-.7005.075l-.3062.0669.3.0719a3.18,3.18,0,0,1-.072,6.2021l-.3072.0659.3062.074a3.3237,3.3237,0,1,0,.7765-6.5558"/><path d="M21.4464,101.3305a1.3985,1.3985,0,1,0,1.4009,1.3984h0a1.4,1.4,0,0,0-1.4009-1.3984" fill="#fff"/><path d="M52.95,92.791v1.3105h4.3369c-.022.3407-.2632,1.9519-2.8019,4.6159l-.2952.31.38-.2A9.4532,9.4532,0,0,0,59.24,92.8719l.017-.0859Z"/><path d="M56.1194,97.9532a3.28,3.28,0,0,0-.7.075l-.3062.0669.3.0719a3.18,3.18,0,0,1-.072,6.2021l-.3072.0659.3062.074a3.3237,3.3237,0,1,0,.7765-6.5558"/><path d="M54.3462,101.3305a1.3985,1.3985,0,1,0,1.401,1.3984h0a1.4,1.4,0,0,0-1.401-1.3984" fill="#fff"/><path d="M11.9031,117.4037a.78.78,0,0,1-.1-.007.7625.7625,0,0,1-.6555-.8565l0-.0006,4.2608-31.6178a.7633.7633,0,0,1,.858-.6544l.0006,0a.7624.7624,0,0,1,.6555.8565l0,.0005-4.2638,31.6179A.7631.7631,0,0,1,11.9031,117.4037Z"/><path d="M39.6425,93.704A7.368,7.368,0,0,1,33.93,91.002a7.3786,7.3786,0,0,1-11.0834-4.3572,7.3812,7.3812,0,0,1-9.9065-6.47,7.3766,7.3766,0,0,1-8.1254-11.32A7.3647,7.3647,0,0,1,2.5038,56.4154,7.3644,7.3644,0,0,1,4.9945,43.9163a7.38,7.38,0,0,1,8.7368-11.2775.7626.7626,0,1,1-.5944,1.4045h0a5.8475,5.8475,0,0,0-6.1911,9.74.762.762,0,0,1-.4,1.3215A5.8393,5.8393,0,0,0,4.18,55.7781a.7617.7617,0,0,1,0,1.2746A5.8441,5.8441,0,0,0,6.3,67.69a.7617.7617,0,0,1,.4,1.2866,5.8487,5.8487,0,0,0,6.6935,9.3895.763.763,0,0,1,1.0917.7632,5.8587,5.8587,0,0,0,8.5757,5.7536.763.763,0,0,1,1.1157.5833A5.8554,5.8554,0,0,0,33.63,89.3468a.7644.7644,0,0,1,1.0727.1231c.0145.0182.0282.0372.041.0567A5.86,5.86,0,0,0,45.5074,86.33a.7635.7635,0,0,1,1.527,0,7.3814,7.3814,0,0,1-7.3869,7.3758h-.002Z"/><path d="M39.8526,93.704A7.3814,7.3814,0,0,1,32.4637,86.33v-.002a.7635.7635,0,0,1,1.527-.003v.003a5.8609,5.8609,0,0,0,10.7642,3.1964.7643.7643,0,0,1,1.0568-.2208q.0294.0192.0569.041a5.8554,5.8554,0,0,0,9.4523-3.8807.7639.7639,0,0,1,1.1157-.5833,5.8568,5.8568,0,0,0,8.6057-5.17,5.7543,5.7543,0,0,0-.03-.5833.7635.7635,0,0,1,1.0917-.7632,5.8492,5.8492,0,0,0,6.6935-9.39.7619.7619,0,0,1,.4-1.2865,5.843,5.843,0,0,0,2.1164-10.6362.7617.7617,0,0,1,0-1.2746A5.8414,5.8414,0,0,0,72.95,45.104a.7617.7617,0,0,1-.4-1.3215,5.8516,5.8516,0,0,0-6.1911-9.74.7626.7626,0,1,1-.5944-1.4045h0a7.3731,7.3731,0,0,1,8.7368,11.2785,7.36,7.36,0,0,1,2.4907,12.4981,7.3671,7.3671,0,0,1-2.31,12.4392,7.3763,7.3763,0,0,1-8.1284,11.32,7.3877,7.3877,0,0,1-9.9065,6.47A7.3808,7.3808,0,0,1,45.5634,91.001,7.3682,7.3682,0,0,1,39.8526,93.704Z"/><path d="M33.1262,13.631a.7637.7637,0,0,1-.7115-.4845L28.82,3.9977l-.8846,8.946a.7637.7637,0,0,1-1.52-.15h0L27.6125.6893a.7638.7638,0,0,1,1.471-.2L33.84,12.5881a.7639.7639,0,0,1-.71,1.0409Z"/><path d="M25.282,15.2741a.5083.5083,0,0,1-.42-.7941,4.5175,4.5175,0,0,1,2.94-1.9079,2.9908,2.9908,0,0,1,2.2555.8711,3.84,3.84,0,0,1,2.6358-.924,3.33,3.33,0,0,1,2.1734,1.0748l-.7805.6523h0a2.3238,2.3238,0,0,0-1.48-.7162,3.1317,3.1317,0,0,0-2.2405.9759.51.51,0,0,1-.7164-.036,2.2321,2.2321,0,0,0-1.7772-.887,3.5819,3.5819,0,0,0-2.1705,1.4654A.5082.5082,0,0,1,25.282,15.2741Z"/><path d="M46.3679,13.631a.763.763,0,0,1-.71-1.0409L50.4106.4856a.7638.7638,0,0,1,1.471.2L53.0774,12.79a.7637.7637,0,0,1-1.52.15l-.8846-8.942-3.5934,9.15A.7636.7636,0,0,1,46.3679,13.631Z"/><path d="M54.2111,15.2741a.5084.5084,0,0,1-.4212-.2217,3.5461,3.5461,0,0,0-2.1745-1.4664,2.2341,2.2341,0,0,0-1.7732.887.51.51,0,0,1-.7164.036,3.1317,3.1317,0,0,0-2.24-.9759,2.3238,2.3238,0,0,0-1.48.7162h0l-.78-.6523a3.33,3.33,0,0,1,2.1734-1.0748,3.84,3.84,0,0,1,2.6358.924,2.9908,2.9908,0,0,1,2.2555-.8711,4.5165,4.5165,0,0,1,2.94,1.9079.5085.5085,0,0,1-.42.7941Z"/><path d="M40.6872,10.7252a.7615.7615,0,0,1-.4844-.1728A5.9846,5.9846,0,0,0,38.3016,9.59a3.5745,3.5745,0,0,0-1.6731-.1,3.2687,3.2687,0,0,0-1.7352.9989.7629.7629,0,0,1-1.1007-1.0529A4.7563,4.7563,0,0,1,36.37,7.9832a5.1181,5.1181,0,0,1,2.4076.1549,7.4716,7.4716,0,0,1,2.3946,1.2346.7621.7621,0,0,1-.4853,1.3515Z"/><path d="M38.8059,10.7262a.7619.7619,0,0,1-.4843-1.3525,7.4716,7.4716,0,0,1,2.3946-1.2346,5.1181,5.1181,0,0,1,2.4076-.1549,4.7582,4.7582,0,0,1,2.5777,1.4524.7628.7628,0,1,1-1.04,1.1164.7458.7458,0,0,1-.061-.0635,3.2687,3.2687,0,0,0-1.7352-.9989,3.5745,3.5745,0,0,0-1.6731.1,5.9845,5.9845,0,0,0-1.9013.9639A.7591.7591,0,0,1,38.8059,10.7262Z"/><path d="M30.9227,54.5325a.5082.5082,0,0,1-.4393-.7641,23.7319,23.7319,0,0,0,1.7011-4.0266,33.2188,33.2188,0,0,0,1.1708-4.6158,34.0307,34.0307,0,0,0,.5314-5.98.5093.5093,0,0,1,1.0186,0,35.0412,35.0412,0,0,1-.5513,6.1811,34.2239,34.2239,0,0,1-1.21,4.7717,24.1315,24.1315,0,0,1-1.7812,4.1864A.5095.5095,0,0,1,30.9227,54.5325Z"/><path d="M48.5714,54.5325a.5095.5095,0,0,1-.44-.2527A24.1315,24.1315,0,0,1,46.35,50.0934a34.2193,34.2193,0,0,1-1.2128-4.7667,35.0421,35.0421,0,0,1-.5513-6.1811.5093.5093,0,0,1,1.0186,0,34.03,34.03,0,0,0,.5354,6.0023,33.2037,33.2037,0,0,0,1.1768,4.6249,23.5061,23.5061,0,0,0,1.6951,3.9956.5087.5087,0,0,1-.4393.7641Z"/><path d="M28.9554,32.8826a4.1258,4.1258,0,1,1-4.1287-4.1155h.003a4.1221,4.1221,0,0,1,4.1257,4.1155" fill="#d4d5d5"/><path d="M28.9554,32.8816a4.1268,4.1268,0,0,1-8.2525.1284q-.001-.0642,0-.1284a12.8291,12.8291,0,0,1,8.2525,0" fill="#fff"/><path d="M27.52,32.8776a2.6908,2.6908,0,1,1-2.6907-2.686h0a2.6883,2.6883,0,0,1,2.6907,2.686" fill="#302d2c"/><path d="M27.4874,32.478a12.8952,12.8952,0,0,0-2.7658-.2767,12.5512,12.5512,0,0,0-2.5487.2807,2.6875,2.6875,0,0,1,5.3145,0"/><path d="M24.83,28.51a4.3722,4.3722,0,1,1-4.38,4.3722A4.3761,4.3761,0,0,1,24.83,28.51Zm0,8.2369a3.8647,3.8647,0,1,0-3.8706-3.8657v.001A3.8721,3.8721,0,0,0,24.83,36.7473Z"/><path d="M24.1022,30.8768a.94.94,0,1,1,0-.001v.001" fill="#fff"/><path d="M58.79,32.8826a4.1258,4.1258,0,1,1-4.1288-4.1155h.002a4.1222,4.1222,0,0,1,4.1258,4.1185h0" fill="#d4d5d5"/><path d="M58.79,32.8816a4.1268,4.1268,0,0,1-8.2525.1281q-.0011-.0641,0-.1281a12.8291,12.8291,0,0,1,8.2525,0" fill="#fff"/><path d="M57.3542,32.8776a2.6908,2.6908,0,1,1-2.6908-2.686,2.6884,2.6884,0,0,1,2.6908,2.686h0" fill="#302d2c"/><path d="M57.3212,32.478a12.8952,12.8952,0,0,0-2.7658-.2767,12.5583,12.5583,0,0,0-2.5487.2807,2.6875,2.6875,0,0,1,5.3145,0"/><path d="M54.6634,28.51a4.3722,4.3722,0,1,1-4.38,4.3722A4.3761,4.3761,0,0,1,54.6634,28.51Zm0,8.2369a3.8647,3.8647,0,1,0-3.87-3.8657v.001A3.8721,3.8721,0,0,0,54.6634,36.7473Z"/><path d="M53.937,30.8768a.94.94,0,1,1,0-.001v.001" fill="#fff"/><path d="M39.7476,55.7142c3.7614,0,7.0857.7082,7.0857,2.4722S42.7746,62.1,39.7476,62.1s-7.0858-2.1506-7.0858-3.9137,3.3243-2.4722,7.0858-2.4722"/><path d="M39.7465,55.46a18.0091,18.0091,0,0,1,5.0274.5853,4.6442,4.6442,0,0,1,1.6441.8161,1.697,1.697,0,0,1,.6674,1.3235c0,.927-.9256,1.9629-2.5407,2.8419a9.3454,9.3454,0,0,1-9.5993,0c-1.6141-.879-2.5407-1.9139-2.5407-2.8419a1.697,1.697,0,0,1,.6674-1.3235,4.6442,4.6442,0,0,1,1.6441-.8161A18.0109,18.0109,0,0,1,39.7465,55.46Zm0,6.3869a10.0906,10.0906,0,0,0,4.5561-1.2646c1.4009-.7632,2.2745-1.6812,2.2745-2.3974a1.198,1.198,0,0,0-.4883-.9369,4.1549,4.1549,0,0,0-1.464-.7182,17.5126,17.5126,0,0,0-4.8782-.5634,17.5133,17.5133,0,0,0-4.8783.5634,4.1544,4.1544,0,0,0-1.4639.7182,1.1981,1.1981,0,0,0-.4884.9369c0,.7142.8716,1.6312,2.2745,2.3974a10.0914,10.0914,0,0,0,4.556,1.2636Z"/><path d="M39.7475,65.827a.509.509,0,0,1-.5093-.5075V62.1011a.5094.5094,0,0,1,1.0187,0V65.32A.509.509,0,0,1,39.7475,65.827Z"/><path d="M39.7475,66.3743h-.036a9.98,9.98,0,0,1-4.616-1.1557.5089.5089,0,1,1,.4773-.899,8.92,8.92,0,0,0,8.3485,0,.5089.5089,0,1,1,.4773.899A9.9736,9.9736,0,0,1,39.7475,66.3743Z"/><path d="M39.7435,48.1965a10.8128,10.8128,0,1,1-4.2248.8491A10.8477,10.8477,0,0,1,39.7435,48.1965Zm0,20.4124a9.5714,9.5714,0,1,0-6.7764-2.8039A9.5789,9.5789,0,0,0,39.7435,68.6089Z"/><path d="M15.5755,32.498a.763.763,0,0,1-.7-1.0678L20.01,19.71a16.1824,16.1824,0,0,1-5.3176-.6473A13.1634,13.1634,0,0,1,9.9,16.4289a14.0989,14.0989,0,0,1-3.086-3.8178,15.6708,15.6708,0,0,1-1.581-4.13,11.3778,11.3778,0,0,1-.2382-4.0955c.2682-1.724,1.0137-2.3334,1.592-2.5411a8.8021,8.8021,0,0,1,6.4483.3506,19.808,19.808,0,0,1,5.52,3.6339,37.4162,37.4162,0,0,1,5.4166,6.0933.7633.7633,0,0,1-1.2619.859h0a36.5373,36.5373,0,0,0-5.1924-5.8325,18.2551,18.2551,0,0,0-5.0744-3.3473,7.3168,7.3168,0,0,0-5.3395-.3206c-.2.0719-.4713.5214-.6,1.34a9.8453,9.8453,0,0,0,.2191,3.53A14.13,14.13,0,0,0,8.15,11.8729,12.5761,12.5761,0,0,0,10.9,15.28a11.6449,11.6449,0,0,0,4.24,2.3284,15.3266,15.3266,0,0,0,5.999.5.762.762,0,0,1,.7745,1.0638L16.276,32.0405A.7636.7636,0,0,1,15.5755,32.498Z"/><path d="M63.9176,32.498a.7636.7636,0,0,1-.7-.4575L57.5784,19.17a.7626.7626,0,0,1,.7745-1.0638,15.3266,15.3266,0,0,0,5.999-.5,11.6449,11.6449,0,0,0,4.24-2.3284,12.578,12.578,0,0,0,2.7508-3.4072,14.13,14.13,0,0,0,1.428-3.7228,9.8453,9.8453,0,0,0,.2191-3.53c-.1271-.8191-.4-1.2686-.6-1.34a7.3168,7.3168,0,0,0-5.34.3206,18.2551,18.2551,0,0,0-5.0744,3.3473,36.5373,36.5373,0,0,0-5.1924,5.8325.7633.7633,0,0,1-1.2619-.859,37.4162,37.4162,0,0,1,5.4166-6.0933,19.808,19.808,0,0,1,5.52-3.6339,8.8021,8.8021,0,0,1,6.4483-.3506c.5783.2077,1.3238.8161,1.592,2.5411A11.38,11.38,0,0,1,74.26,8.4787a15.6751,15.6751,0,0,1-1.5831,4.1294,14.0989,14.0989,0,0,1-3.086,3.8178,13.1634,13.1634,0,0,1-4.7922,2.634,16.1851,16.1851,0,0,1-5.3176.6473l5.1364,11.724a.7637.7637,0,0,1-.7,1.0678Z"/><path d="M34.9434,109.9269a.5071.5071,0,0,1-.4253-.7831L46.66,90.6863a.5057.5057,0,0,1,.8466.5534L35.37,109.6982A.5084.5084,0,0,1,34.9434,109.9269Z"/><path d="M40.0738,101.2746a.509.509,0,0,1-.4-.19l-7.8552-9.7722a.5086.5086,0,0,1,.7935-.6363l7.8582,9.7722a.5086.5086,0,0,1-.4.8261Z"/><path d="M37.0788,57.7569a.9347.9347,0,1,1-.9346-.9329h0a.9338.9338,0,0,1,.9346.9329" fill="#fff"/><path d="M67.3729,118a.7619.7619,0,0,1-.4153-1.3985l24.8685-16.06L75.6534,91.6573l-6.6985,5.1532a.7638.7638,0,0,1-1.1757-.3216L63.4343,85.601a.7635.7635,0,0,1,1.4189-.5644l3.9706,9.949,6.2932-4.8417a.7646.7646,0,0,1,.8346-.0639l17.7307,9.74a.7615.7615,0,0,1,.0471,1.3075L67.7881,117.8811A.7606.7606,0,0,1,67.3729,118Z"/><path d="M88.703,98.5885a.6343.6343,0,0,1-.3062-.0789l-9.122-5.0114a.6349.6349,0,0,1-.3292-.5714l.2-8.6154a.6348.6348,0,0,1,.2832-.5144,2.5941,2.5941,0,0,1,2.7728-.4365,3.3143,3.3143,0,0,1,1.3649,2.5571,9.5894,9.5894,0,0,1,.1,1.6862.6365.6365,0,0,1-1.2718-.056h0a8.4306,8.4306,0,0,0-.09-1.4574,2.3175,2.3175,0,0,0-.73-1.6242,1.3029,1.3029,0,0,0-1.1668.2168l-.1791,7.8912,8.3005,4.56L92.44,91.94a.636.636,0,0,1,1.0177.7632l-4.2418,5.6317A.6365.6365,0,0,1,88.703,98.5885Z"/><rect x="83.2584" y="71.3558" width="13.9232" height="20.2735" fill="#bdbebf"/><path d="M82.8772,70.9752H97.5639V92.0109H82.8772ZM96.8,71.7374h-13.16V91.2487H96.8Z"/><path d="M86.9709,75.5881v1.3125h4.3369c-.0221.3407-.2622,1.9519-2.8019,4.6159l-.3.31.38-.2a9.4531,9.4531,0,0,0,4.669-5.9554l.0171-.0859Z"/><path d="M90.141,80.75a3.2733,3.2733,0,0,0-.7005.0749l-.3062.0669.3.0719a3.18,3.18,0,0,1-.072,6.2021l-.3072.066.3062.0739A3.3236,3.3236,0,1,0,90.138,80.75"/><path d="M88.3718,84.1266a1.3985,1.3985,0,1,0,1.4009,1.3985h0a1.4,1.4,0,0,0-1.4009-1.3985" fill="#fff"/><path d="M118.9388,57.4421a.7488.7488,0,0,1-.5258-1.2837.6864.6864,0,0,1,.067-.0595c2.1044-1.7169,3.8414-4.5692,3.0977-6.7133-.6044-1.7432-2.8192-2.6962-6.4046-2.7557-7.17-.12-12.74-2.2231-16.5554-6.2518-3.8239-4.0385-5.6943-9.9792-5.4084-17.1811.6059-15.2595,14.9-18.08,27.2852-18.8317,15.2581-.9237,113.0271-2.0846,132.1409.4478,14.4759,1.9158,22.51,7.6916,23.2331,16.7031,1.5406,19.1711-10.6994,23.3959-24.1566,25.1059-8.0166,1.0213-102.2451,1.7315-116.9125,1.4437l-.0435-.001c-1.3505,0-2.5417,1.24-4.0462,2.8045-2.3477,2.4426-5.5613,5.7856-11.639,6.5611A.75.75,0,0,1,118.9388,57.4421Zm74.7248-52.669c-31.4256,0-64.7006.58-73.0782,1.0886-17.46,1.0594-25.4408,6.4245-25.8761,17.3938-.27,6.79,1.46,12.3544,4.9994,16.0934,3.5268,3.7244,8.7382,5.67,15.49,5.7827,5.3966.09,7.2191,2.0963,7.7976,3.7643.7554,2.1763-.2438,4.6492-1.8078,6.5894,4.0886-1.1277,6.4682-3.6034,8.4382-5.6529,1.6828-1.751,3.1393-3.2659,5.125-3.2659.0259,0,.0518.001.0777.001,14.6493.2916,108.71-.4146,116.6931-1.432,14.6987-1.8671,24.21-6.5787,22.85-23.5-.6694-8.3384-8.0492-13.4987-21.9344-15.3374C243.8639,5.1623,219.3828,4.7731,193.6636,4.7731Z"/><g style="isolation:isolate"><path d="M113.3837,31.9284V29.9677h-1.4961V28.4352h1.4961V25.9809q-.43.6893-.9367,1.3706t-1.0212,1.2662a11.8742,11.8742,0,0,1-.9953,1.0125c-.0869-.1044-.1949-.22-.3254-.3512a5.1535,5.1535,0,0,0-.4031-.3628v3h-1.5479V25.54q-.2081.2591-.41.5t-.41.4614a4.31,4.31,0,0,0-.5272-.4878,3.2956,3.2956,0,0,0-.6176-.396,7.0385,7.0385,0,0,0,.9494-1.1423,14.887,14.887,0,0,0,.9044-1.5061q.4221-.8049.728-1.5589a8.0373,8.0373,0,0,0,.4232-1.2983l1.457.39a11.3859,11.3859,0,0,1-.4036,1.233q-.2471.6365-.5463,1.273v5.22a14.6847,14.6847,0,0,0,1.1316-1.22q.5988-.714,1.1321-1.4866a12.3905,12.3905,0,0,0,.8844-1.4739h-2.6145V22.6048h3.1481V20.1242h1.522v2.4806h3.3689v1.4418H115.257a10.2305,10.2305,0,0,0,.7475,1.22q.4494.6364.9694,1.2467t1.0276,1.1227q.5072.5136.9107.8506a2.4085,2.4085,0,0,0-.3967.2859q-.228.1945-.4422.41a3.1275,3.1275,0,0,0-.345.396,14.1653,14.1653,0,0,1-1.4374-1.5393,19.31,19.31,0,0,1-1.3852-1.9149v2.3109h1.4306v1.5325h-1.4306v1.9607Z"/><path d="M120.122,31.0583a12.9133,12.9133,0,0,1-.1431-1.3052q-.052-.7725-.0719-1.6876t0-1.89q.02-.9744.0782-1.9021.0586-.9293.1564-1.7208a13.2519,13.2519,0,0,1,.2272-1.351l1.522.3121a8.0224,8.0224,0,0,0-.2468,1.2145q-.1047.7462-.1695,1.6359t-.0845,1.8241q-.019.935.0068,1.8183t.0909,1.5969a8.6846,8.6846,0,0,0,.169,1.1559Zm5.5286-.7014q-2.2508-.0644-2.55-1.4671a2.8065,2.8065,0,0,1-.0518-.7794,3.824,3.824,0,0,1,.1949-.9472l1.3662.3375a1.4188,1.4188,0,0,0-.0978.441,1,1,0,0,0,.0455.3511q.1694.4668,1.3793.5063a11.4812,11.4812,0,0,0,1.2552-.0459q.67-.0585,1.3139-.1746a10.6844,10.6844,0,0,0,1.1253-.26c-.0176.1219-.0372.2858-.0587.4936s-.0371.4175-.0454.63a5.1824,5.1824,0,0,0,0,.5258,11.2459,11.2459,0,0,1-1.3075.2468q-.6963.0907-1.3657.1229C126.407,30.36,126.0058,30.3657,125.6506,30.3569ZM123.6991,24.02l-.0909-1.5968a11.173,11.173,0,0,0,1.21.078q.7154.0132,1.4893-.02t1.4829-.1171a8.0664,8.0664,0,0,0,1.1775-.2146l-.0649,1.5715q-.5205.0907-1.21.162t-1.4248.11q-.7351.0394-1.4047.0458T123.6991,24.02Z"/><path d="M135.6807,29.6556a1.99,1.99,0,0,1-1.223.2926,1.4717,1.4717,0,0,1-1.0148-.7335,8.5483,8.5483,0,0,1-.7412-1.4672,14.1806,14.1806,0,0,1-.579-1.7919,16.1762,16.1762,0,0,1-.3645-1.8964,12.3344,12.3344,0,0,1-.1105-1.7792l1.587.0136a8.5271,8.5271,0,0,0,.0391,1.3891,13.4852,13.4852,0,0,0,.2473,1.5188,11.735,11.735,0,0,0,.403,1.4223,5.8413,5.8413,0,0,0,.5077,1.0974.6624.6624,0,0,0,.3968.357.6208.6208,0,0,0,.4617-.11,3.9045,3.9045,0,0,0,.6567-.5716,5.9618,5.9618,0,0,0,.579-.7014,2.2756,2.2756,0,0,0,.2145.4419,5.7565,5.7565,0,0,0,.3254.4809,3.7072,3.7072,0,0,0,.3186.3765,6.2967,6.2967,0,0,1-.8.9609A4.4447,4.4447,0,0,1,135.6807,29.6556Zm4.9168-2.428a8.5183,8.5183,0,0,0-.4031-.9345q-.2733-.5589-.6244-1.1628t-.7026-1.1169a5.1066,5.1066,0,0,0-.65-.7979l1.2489-.7921a7.3835,7.3835,0,0,1,.7222.87q.3965.5444.78,1.1618t.683,1.195a6.745,6.745,0,0,1,.43.98,4.1785,4.1785,0,0,0-.813.2468A3.5072,3.5072,0,0,0,140.5975,27.2276Z"/><path d="M147.7786,29.6556a1.99,1.99,0,0,1-1.223.2926,1.4721,1.4721,0,0,1-1.0149-.7335,8.5627,8.5627,0,0,1-.7412-1.4672,14.2129,14.2129,0,0,1-.579-1.7919,16.2175,16.2175,0,0,1-.3645-1.8964,12.3337,12.3337,0,0,1-.11-1.7792l1.587.0136a8.5271,8.5271,0,0,0,.0391,1.3891,13.5073,13.5073,0,0,0,.2472,1.5188,11.7528,11.7528,0,0,0,.4031,1.4223,5.835,5.835,0,0,0,.5077,1.0974.6625.6625,0,0,0,.3967.357.621.621,0,0,0,.4618-.11,3.9,3.9,0,0,0,.6566-.5716,5.942,5.942,0,0,0,.579-.7014,2.2814,2.2814,0,0,0,.2145.4419,5.7822,5.7822,0,0,0,.3255.4809,3.7078,3.7078,0,0,0,.3185.3765,6.29,6.29,0,0,1-.8.9609A4.4475,4.4475,0,0,1,147.7786,29.6556Zm4.9168-2.428a8.5378,8.5378,0,0,0-.4031-.9345q-.2734-.5589-.6244-1.1628t-.7027-1.1169a5.1011,5.1011,0,0,0-.65-.7979l1.2489-.7921a7.3839,7.3839,0,0,1,.7221.87q.3966.5444.78,1.1618t.6831,1.195a6.7561,6.7561,0,0,1,.4295.98,4.1785,4.1785,0,0,0-.813.2468A3.5012,3.5012,0,0,0,152.6954,27.2276Z"/><path d="M156.8324,31.11a3.6034,3.6034,0,0,0-.4749-.675,3.2152,3.2152,0,0,0-.644-.597,7.1609,7.1609,0,0,0,2.7254-1.8632,7.4563,7.4563,0,0,0,1.58-3.0327l-3.5121.1043-.1173-1.52q.1694.0132.7417.0069t1.4048-.02q.8325-.0132,1.7692-.0391a15.89,15.89,0,0,0,.1564-2.6494l1.6129.0137q.0132.6877-.0259,1.3374t-.1173,1.2593q.91-.0263,1.7043-.0517t1.3334-.0517q.5394-.0262.683-.039c0,.3629-.022.8009-.065,1.311s-.1,1.037-.1695,1.5784-.1427,1.05-.2208,1.5256-.1564.8614-.2341,1.155a3.5769,3.5769,0,0,1-.5922,1.3637,1.82,1.82,0,0,1-1.0275.63,7.2018,7.2018,0,0,1-1.75.1492,6.7333,6.7333,0,0,0-.2018-.8048,2.9825,2.9825,0,0,0-.3709-.8184,10.8383,10.8383,0,0,0,1.3012-.039,1.2815,1.2815,0,0,0,.709-.2595,1.3333,1.3333,0,0,0,.3708-.637,8.5988,8.5988,0,0,0,.2472-1.0252q.1165-.6234.2082-1.3179.09-.695.13-1.3052l-2.3155.0781a9.7782,9.7782,0,0,1-1.7629,3.7653A8.8558,8.8558,0,0,1,156.8324,31.11Z"/><path d="M173.6527,30.4486a2.8308,2.8308,0,0,1-1.5543-.3316,1.257,1.257,0,0,1-.4881-1.1228V26.6433q-.8195,0-1.6324.0127t-1.4248.02q-.6113.0073-.8453.0331V25.2152q.2858.0132.8717.0254t1.3725.02q.7863.0072,1.6583.0068V23.5657c-.364,0-.7153.0048-1.0534.0126s-.6313.0156-.8786.02-.4226.0118-.5267.02V22.1249q.2082.0117.644.0253t1.0148.0264q.5782.0132,1.2225.0127h1.2684q.807,0,1.5157-.0069t1.223-.0253q.5137-.0206.7348-.0322v1.4925q-.3385-.0249-1.2488-.0391-.9111-.0117-2.2247-.0126h-.0649v1.7012q.8061,0,1.62-.0068t1.5088-.0127q.6955-.0058,1.19-.0127c.33-.0049.5551-.0107.6768-.02v1.4934q-.3123-.0263-1.0476-.039t-1.7561-.02q-1.0209-.0073-2.1918-.0068v1.6749a.5475.5475,0,0,0,.1759.4682,1.1794,1.1794,0,0,0,.6566.13q.4809,0,1.0862-.02t1.158-.0585q.5526-.0394.878-.0907a4.3267,4.3267,0,0,0-.0781.4409c-.0259.1912-.0479.3853-.065.5843s-.0259.36-.0259.4809c-.1823.0254-.4124.05-.6894.0712s-.579.0439-.9045.0654-.6439.0361-.9562.0449S173.8867,30.4486,173.6527,30.4486Z"/><path d="M181.3409,31.76a1.8255,1.8255,0,0,1-.95-.2537,1.9411,1.9411,0,0,1-.6894-.6877,1.9362,1.9362,0,0,1-.0064-1.9285,1.888,1.888,0,0,1,.69-.6818,1.937,1.937,0,0,1,1.9251.0068,1.9469,1.9469,0,0,1,.6894.6877,1.8284,1.8284,0,0,1,.2536.9482,1.8479,1.8479,0,0,1-.26.9676,1.925,1.925,0,0,1-.6962.6877A1.8591,1.8591,0,0,1,181.3409,31.76Zm0-.7268a1.1445,1.1445,0,0,0,.8389-.3443,1.1246,1.1246,0,0,0,.3445-.8253,1.1436,1.1436,0,0,0-.3445-.83,1.174,1.174,0,1,0-.8389,2Z"/><path d="M197.3021,32.11a4.1688,4.1688,0,0,0-.3576-.4478,4.4916,4.4916,0,0,0-.4618-.4477c-.07.0429-.1368.0868-.2018.13s-.1192.082-.1627.1171a2.47,2.47,0,0,0-.1558-.3961c-.07-.1434-.1476-.2926-.2346-.4477q-.39.1419-.93.318t-1.1125.3434q-.5724.17-1.0862.3121t-.8648.22l-.4686-1.4018c.1476-.0263.31-.0605.4881-.1044s.366-.0868.5658-.13V23.8q-.13.0906-.2536.1882t-.2408.1756a3.063,3.063,0,0,0-.41-.5658,3.2735,3.2735,0,0,0-.4749-.46,5.33,5.33,0,0,0,.8326-.5911,12.3152,12.3152,0,0,0,.91-.8506,11.3091,11.3091,0,0,0,.82-.9345,5.64,5.64,0,0,0,.559-.8448l1.3011.4029a3.083,3.083,0,0,0,.41.4672q.2792.2736.6244.5716t.6894.5522a6.8212,6.8212,0,0,0,.5917.396,3.1909,3.1909,0,0,0-.3317.3248q-.1884.2079-.3513.4215a3.8055,3.8055,0,0,0-.2536.3706q-.2214-.1565-.52-.41t-.6049-.5511q-.3056-.2985-.5594-.5785a6.0066,6.0066,0,0,1-.3968-.4741,7.3192,7.3192,0,0,1-.8912,1.0721q-.5658.578-1.138,1.0711h1.3789V22.3707h1.34V23.553h1.6784v1.0906a9.2806,9.2806,0,0,0,.774-1.4545,12.6028,12.6028,0,0,0,.5721-1.6359,8.95,8.95,0,0,0,.2927-1.5451l1.392.2468a14.0311,14.0311,0,0,1-.4554,1.9607H202.74l.6372.3629a11.8337,11.8337,0,0,1-.325,1.1754q-.2212.6819-.4812,1.3706t-.5077,1.1813a2.9557,2.9557,0,0,0-.6049-.2927,3.3806,3.3806,0,0,0-.67-.1882q.1694-.3234.345-.7463.1752-.4214.3318-.8311t.234-.6945h-2.5759a12.5656,12.5656,0,0,1-1.2225,2.3636,2.6731,2.6731,0,0,0-.3968-.2927,3.939,3.939,0,0,0-.4749-.2526v2.7918h-1.3139a12.3855,12.3855,0,0,1,.8453,1.0779,9.3311,9.3311,0,0,1,.6636,1.0906,6.1921,6.1921,0,0,0,1.3788-2.1295,7.1864,7.1864,0,0,0,.4945-2.6757V24.0983h1.4179v1.4281a5.71,5.71,0,0,0,.8521,3.0913,8.6017,8.6017,0,0,0,2.231,2.3762,2.4976,2.4976,0,0,0-.4031.2985q-.2214.1947-.41.3961a3.6225,3.6225,0,0,0-.2927.3443,8.204,8.204,0,0,1-1.2034-1.1559,7.5055,7.5055,0,0,1-.9494-1.3959,4.3,4.3,0,0,1-.4749-1.396,5.2723,5.2723,0,0,1-.4554,1.396,7.5089,7.5089,0,0,1-.8912,1.4349A6.4816,6.4816,0,0,1,197.3021,32.11Zm-3.5512-6.7386h1.8343v-.65h-1.8343Zm0,1.6095h1.8343v-.675h-1.8343Zm0,2.8182q.338-.1039.65-.1883t.598-.1756a7.7683,7.7683,0,0,0-.598-.7531l.9493-.5189h-1.6Z"/><path d="M208.841,31.5392a11.7668,11.7668,0,0,1-1.8928-.13,2.2213,2.2213,0,0,1-1.1707-.5,1.4093,1.4093,0,0,1-.3968-1.0838,1.9089,1.9089,0,0,1,.2214-.8574q.22-.4419.4681-.9092a1.4045,1.4045,0,0,1-.9758-.22,1.5241,1.5241,0,0,1-.5917-.8438,2.2156,2.2156,0,0,1-.0327-1.1306,2.074,2.074,0,0,1,.683-1.1491,2.2365,2.2365,0,0,1,1.06-.5,1.9626,1.9626,0,0,1,.39-.039v-.7531q-.6765.0381-1.327.0586-.6508.0189-1.1839.02l-.1041-1.4028a11.1771,11.1771,0,0,0,1.1189.0322q.7022-.0059,1.4961-.0585V20.5144h1.4438v1.4407q.6112-.0644,1.1253-.1356a6.6177,6.6177,0,0,0,.8389-.1629l.0391,1.4155q-.39.0659-.9039.1238t-1.0994.123v1.3637a1.5033,1.5033,0,0,1,.4359.8047,1.92,1.92,0,0,1-.0845,1.0136,3.3919,3.3919,0,0,1-.3773.7852q-.2345.357-.4749.6751a4.712,4.712,0,0,0-.4031.6233,1.32,1.32,0,0,0-.1627.63.85.85,0,0,0,.1363.5257.808.808,0,0,0,.5336.2341,8.8517,8.8517,0,0,0,1.19.0586,6.8443,6.8443,0,0,0,1.6261-.1561,1.724,1.724,0,0,0,.9108-.5063,1.8415,1.8415,0,0,0,.39-.9286,8.5,8.5,0,0,0,.0782-1.4223,2.7219,2.7219,0,0,0,.4553.1951,5.6769,5.6769,0,0,0,.6181.1756,3.7441,3.7441,0,0,0,.5008.0839,5.4491,5.4491,0,0,1-.4294,2.3314,2.63,2.63,0,0,1-1.4243,1.3179A7.25,7.25,0,0,1,208.841,31.5392Zm-2.9658-4.6881a.49.49,0,0,0,.5331,0,.92.92,0,0,0,.4426-.6234.7715.7715,0,0,0-.0263-.5648.5022.5022,0,0,0-.2991-.279.5341.5341,0,0,0-.4876.0976,1.0323,1.0323,0,0,0-.3581.6682.8344.8344,0,0,0,.0068.4292A.5078.5078,0,0,0,205.8752,26.8511Zm7.9613-.519a8.7118,8.7118,0,0,0-.7676-.7472q-.4815-.4214-1.0148-.8048a6.855,6.855,0,0,0-.9884-.6038l.9757-1.13a6.7658,6.7658,0,0,1,.9362.5511q.52.3585,1.0212.7541a9.6549,9.6549,0,0,1,.8394.7336Z"/><path d="M218.8965,26.773a4.3759,4.3759,0,0,0-.7153-.46q-.4683-.2532-.9694-.4936a7.5589,7.5589,0,0,0-.8521-.357l.8067-1.4028q.3774.1434.878.3893t.9694.5072q.4683.259.7412.4409Zm-.6112,4.2073L217.4,29.3961a10.6241,10.6241,0,0,0,1.9579-.6555,18.7026,18.7026,0,0,0,2.036-1.0516,21.9049,21.9049,0,0,0,1.9383-1.2984,18.6443,18.6443,0,0,0,1.6652-1.4027,10.0258,10.0258,0,0,0,1.21-1.3569,4.3588,4.3588,0,0,0,.1755.5453q.1237.3249.2667.6292a4.8211,4.8211,0,0,0,.2473.4741,12.6662,12.6662,0,0,1-1.6066,1.6495,22.05,22.05,0,0,1-4.501,3.0064A18.9365,18.9365,0,0,1,218.2853,30.98Zm2.42-6.882a4.6418,4.6418,0,0,0-.4881-.3766c-.2126-.1473-.4442-.3-.6958-.4614s-.4925-.3053-.7222-.435a5.27,5.27,0,0,0-.5658-.2849l.8849-1.351q.26.13.6176.35t.7285.4614q.3708.24.6894.4614t.4881.3629Z"/><path d="M229.4206,31.11a3.6034,3.6034,0,0,0-.4749-.675,3.2206,3.2206,0,0,0-.644-.597,7.1609,7.1609,0,0,0,2.7254-1.8632,7.4563,7.4563,0,0,0,1.58-3.0327l-3.5121.1043-.1173-1.52q.1693.0132.7417.0069t1.4048-.02q.8325-.0132,1.7692-.0391a15.89,15.89,0,0,0,.1564-2.6494l1.6129.0137q.0132.6877-.0259,1.3374t-.1173,1.2593q.91-.0263,1.7043-.0517t1.3334-.0517q.5394-.0262.683-.039c0,.3629-.022.8009-.065,1.311s-.1,1.037-.1695,1.5784-.1427,1.05-.2209,1.5256-.1563.8614-.234,1.155a3.5784,3.5784,0,0,1-.5922,1.3637,1.82,1.82,0,0,1-1.0275.63,7.2018,7.2018,0,0,1-1.75.1492,6.7333,6.7333,0,0,0-.2018-.8048,2.9825,2.9825,0,0,0-.3709-.8184,10.8383,10.8383,0,0,0,1.3012-.039,1.2815,1.2815,0,0,0,.709-.2595,1.3333,1.3333,0,0,0,.3708-.637,8.5988,8.5988,0,0,0,.2472-1.0252q.1165-.6234.2082-1.3179t.13-1.3052l-2.3155.0781a9.7782,9.7782,0,0,1-1.7629,3.7653A8.8558,8.8558,0,0,1,229.4206,31.11Z"/><path d="M241.6489,29.4868a4.2942,4.2942,0,0,0-.5985-.4155,4.2082,4.2082,0,0,0-.7153-.35,10.708,10.708,0,0,0,1.4438-2.1617,16.1853,16.1853,0,0,0,1.0539-2.5782q-.6508.0907-1.21.1561t-.8975.0907l-.1955-1.4418q.4552,0,1.1776-.0643t1.5151-.1815q.143-.6116.2214-1.2018c.0518-.3941.0865-.7764.104-1.1491l1.4439.2078q-.1041.9746-.2732,1.8963c.3035-.06.5961-.1239.8781-.1882s.5355-.1278.7612-.1883l.195,1.3627q-.4032.1171-.9689.2342t-1.2035.22a17.729,17.729,0,0,1-1.1448,3.09A16.9617,16.9617,0,0,1,241.6489,29.4868Zm3.59,2.2729a2.31,2.31,0,0,1-1.5738-.6234,1.8415,1.8415,0,0,1-.5594-1.389,1.6162,1.6162,0,0,1,.67-1.2857,2.7505,2.7505,0,0,1,1.8406-.4809c.1212.0087.2429.0156.3645.02a3.32,3.32,0,0,1,.3508.0322V25.0855h1.4834v3.298a7.5737,7.5737,0,0,1,1.4111.6361,11.0012,11.0012,0,0,1,1.2943.8828,3.3173,3.3173,0,0,0-.5008.5979,4.3035,4.3035,0,0,0-.3967.6877,10.5774,10.5774,0,0,0-.8712-.7072,6.7038,6.7038,0,0,0-.95-.5784Q247.6716,31.8763,245.2392,31.76Zm.1173-1.2984a1.0393,1.0393,0,0,0,.7348-.2273,1.0727,1.0727,0,0,0,.24-.7989v-.0907a5.2525,5.2525,0,0,0-.8321-.1171,1.3137,1.3137,0,0,0-.7089.1434.5156.5156,0,0,0-.28.4409.5412.5412,0,0,0,.2081.4673A.9771.9771,0,0,0,245.3565,30.4613Zm4.5528-5.1164a4.9242,4.9242,0,0,0-.56-.4936q-.351-.2721-.7544-.5453t-.8-.4935a4.5446,4.5446,0,0,0-.6963-.3249l.7676-1.1423c.2082.0868.451.201.7285.3444s.5595.3024.8458.48.5507.3531.7935.5258a5.792,5.792,0,0,1,.5981.4809Z"/><path d="M256.6608,29.6556a1.9894,1.9894,0,0,1-1.2229.2926,1.4721,1.4721,0,0,1-1.0149-.7335,8.5627,8.5627,0,0,1-.7412-1.4672,14.2129,14.2129,0,0,1-.579-1.7919,16.2175,16.2175,0,0,1-.3645-1.8964,12.3337,12.3337,0,0,1-.11-1.7792l1.587.0136a8.5271,8.5271,0,0,0,.0391,1.3891,13.4846,13.4846,0,0,0,.2472,1.5188,11.7347,11.7347,0,0,0,.4031,1.4223,5.835,5.835,0,0,0,.5077,1.0974.6623.6623,0,0,0,.3967.357.621.621,0,0,0,.4618-.11,3.9,3.9,0,0,0,.6566-.5716,5.942,5.942,0,0,0,.579-.7014,2.2814,2.2814,0,0,0,.2145.4419,5.8057,5.8057,0,0,0,.3254.4809,3.72,3.72,0,0,0,.3186.3765,6.29,6.29,0,0,1-.8.9609A4.4452,4.4452,0,0,1,256.6608,29.6556Zm4.9169-2.428a8.5378,8.5378,0,0,0-.4031-.9345q-.2734-.5589-.6245-1.1628t-.7026-1.1169a5.1011,5.1011,0,0,0-.65-.7979l1.2489-.7921a7.3839,7.3839,0,0,1,.7221.87q.3966.5444.78,1.1618t.6831,1.195a6.7561,6.7561,0,0,1,.43.98,4.1785,4.1785,0,0,0-.813.2468A3.5012,3.5012,0,0,0,261.5777,27.2276Z"/></g></svg>