<svg xmlns="http://www.w3.org/2000/svg" viewBox="0 0 2075 28"><path d="M421.61,28a14,14,0,1,1,14-14.006A14,14,0,0,1,421.61,28ZM419.378,6.966a1.453,1.453,0,0,0-1.028,2.48l4.692,4.695-4.692,4.695a1.4538,1.4538,0,1,0,2.054,2.058h0l5.722-5.721a1.4541,1.4541,0,0,0,0-2.055l-5.722-5.724A1.44,1.44,0,0,0,419.378,6.966ZM0,25.8847V3.2656H23.22V25.8847Zm3.78-12.9h6V6.625h-6Zm0,9.541h6V16.1347h-6Zm9.66-9.541h6V6.625h-6Zm0,9.541h6V16.1347h-6Zm27.24,5.3691v-9.66h-10.89V6.2949H40.68V.5644h3.69V6.2949H55.26v11.94h-10.89v9.66ZM33.57,14.7558h7.11v-5.16H33.57Zm10.8008,0h7.17v-5.16h-7.17ZM61.83,27.6543a5.2831,5.2831,0,0,0-.915-.5684q-.5846-.3018-1.1846-.5566a5.7111,5.7111,0,0,0-1.02-.3438,19.662,19.662,0,0,0,2.2656-5.73,34.6705,34.6705,0,0,0,.7949-7.9493V1.2549H85.2593v7.081H65.25v1.5H86.52v2.6387H81.15q1.14,1.02,2.3994,2.2363,1.2612,1.2129,2.19,2.2031a10.4234,10.4234,0,0,0-1.3349,1.0508,12.6682,12.6682,0,0,0-1.2149,1.23q-.3-.4189-.705-.93T81.6,17.2441q-.9009.0909-2.1006.1817-1.2.0879-2.58.18v2.1H83.4v2.73H76.9194v2.0391h9.54v2.76H64.62v-2.76h8.73V22.4355H66.7192v-2.73H73.35V17.8144q-2.0713.12-3.9453.1953t-3.0449.0762l-.3907-2.791c.46,0,1.0059-.0039,1.6358-.0156.63-.01,1.3047-.0235,2.0244-.0449q.42-.6885.8252-1.44t.7051-1.32H65.25v.0312a37.6982,37.6982,0,0,1-.8994,8.7286A22.41,22.41,0,0,1,61.83,27.6543Zm3.42-21.959H81.78V3.8945H65.25Zm8.01,9.42q1.5908-.0615,3.165-.1211Q78,14.9356,79.29,14.875a10.8021,10.8021,0,0,0-.87-.7793q-.45-.36-.87-.6914l1.2-.93H74.85q-.36.6621-.78,1.35Q73.6495,14.5156,73.2593,15.1152ZM94.41,27.8359V17.125q-.4791.63-.96,1.17c-.3193.3594-.63.7109-.93,1.0508-.2207-.2207-.5049-.4746-.8545-.7656q-.5259-.4337-1.0351-.8243a5.7191,5.7191,0,0,0-.87-.57A15.5016,15.5016,0,0,0,91.77,14.98a32.7244,32.7244,0,0,0,2.01-2.9414q.9594-1.5732,1.665-3.0293A14.8247,14.8247,0,0,0,96.42,6.5644l3.33,1.08q-.36,1.02-.8555,2.0859Q98.4,10.7939,97.83,11.8457v15.99ZM91.17,8.5449v-5.49H102.3V.4746H106.2v2.58h11.19v5.16h-3.48v-2.25H94.71v2.58Zm9.63,19.08v-13.74H105.33q.2109-.51.4053-1.0957.1947-.5829.3447-1.0644H99.42v-2.91H117.33v2.91h-7.35q-.1509.48-.36,1.0644-.2094.5861-.39,1.0957h6.57v13.74Zm3.66-8.25h7.83v-2.49h-7.83Zm0,5.43h7.83v-2.58h-7.83ZM126.9,14.125a15.35,15.35,0,0,0-1.5156-1.1406q-.9756-.6593-2.0244-1.26a17.8982,17.8982,0,0,0-1.83-.93l1.83-3.0293q.8686.4189,1.9043.9746,1.0356.5538,2.0107,1.1406a13.6446,13.6446,0,0,1,1.6348,1.125q-.271.3282-.66.9141t-.7646,1.1855Q127.1084,13.706,126.9,14.125Zm-1.65,13.5605-3.21-2.1914a20.7112,20.7112,0,0,0,1.41-2.1289q.7192-1.23,1.41-2.5957.6883-1.3651,1.2441-2.6543a20.793,20.793,0,0,0,.8555-2.3105q.57.48,1.4853,1.1406a15.667,15.667,0,0,0,1.5147.99q-.3311,1.0488-.8848,2.3535-.5552,1.3066-1.2148,2.6719t-1.335,2.5938Q125.85,26.7852,125.25,27.6855Zm3.48-20.3711a17.5079,17.5079,0,0,0-1.5293-1.17q-.99-.6885-2.0557-1.32a12.875,12.875,0,0,0-1.8447-.93l1.86-2.97a18.776,18.776,0,0,1,1.92.9453q1.1088.6153,2.13,1.2744a13.2922,13.2922,0,0,1,1.56,1.1406,10.3579,10.3579,0,0,0-.6591.8692c-.28.4-.5508.8066-.8106,1.2148C129.04,6.7793,128.8491,7.0957,128.729,7.3144Zm2.4,19.5606V5.3359h4.86q.2388-.7207.4952-1.6211c.1689-.6.33-1.18.48-1.74.15-.5586.2548-1.0195.3154-1.3789l4.1094.3291q-.21.93-.6,2.1748t-.75,2.2363h7.14V26.875Zm3.84-12.57h8.37V8.6054h-8.37Zm0,9.3007h8.37v-6h-8.37Zm20.1006,4.379a11.2255,11.2255,0,0,0-.51-1.6192,8.34,8.34,0,0,0-.75-1.5293,12.6879,12.6879,0,0,0,5.8193-1.74,8.2181,8.2181,0,0,0,3.0908-4.0215h-4.0508V17.7558a28.3568,28.3568,0,0,1-5.1591,3.1485,9.7276,9.7276,0,0,0-.54-.84c-.24-.34-.4951-.6836-.7656-1.0351a3.9813,3.9813,0,0,0-.8252-.8242,22.5631,22.5631,0,0,0,3.87-1.9805,19.4344,19.4344,0,0,0,3.03-2.4h-5.55V10.6758h8.07q.2388-.422.4941-.8555c.17-.2891.3252-.5859.4659-.8848H154.83v-3.15H158.55q-.5112-.8994-1.2607-1.9961a14.51,14.51,0,0,0-1.44-1.8144l3.0293-1.47q.51.57,1.11,1.35t1.14,1.59A13.7945,13.7945,0,0,1,162,4.914q-.8994.36-1.89.8711h2.82a21.9723,21.9723,0,0,0,.6142-2.7q.2256-1.3784.3457-2.76l3.54.42q-.18,1.32-.4356,2.58-.2548,1.2582-.5849,2.46h5.25l-2.37-.8105q.57-.958,1.17-2.1748.6006-1.2144,1.02-2.3252l3.48,1.26q-.63,1.0517-1.2744,2.1308-.6461,1.081-1.2149,1.92h5.01v3.15H170.4a21.2752,21.2752,0,0,0,1.23,1.74H179.43v3.1484h-4.74a25.2457,25.2457,0,0,0,2.9551,2.1016A17.6269,17.6269,0,0,0,180.9,17.4844a9.4681,9.4681,0,0,0-1.0654,1.2753A11.7289,11.7289,0,0,0,178.8,20.4258a24.2209,24.2209,0,0,1-2.37-1.23,23.8282,23.8282,0,0,1-2.28-1.5313q-.12,1.8927-.36,3.7207-.24,1.8311-.48,3a3.8539,3.8539,0,0,1-1.62,2.6543,6.3833,6.3833,0,0,1-3.39.7657h-1.62a10.1381,10.1381,0,0,0-.15-1.1407q-.12-.6591-.2695-1.3046a5.6022,5.6022,0,0,0-.33-1.0352h2.04a2.2865,2.2865,0,0,0,1.335-.33,1.9521,1.9521,0,0,0,.6748-1.17,11.3105,11.3105,0,0,0,.24-1.1094q.1186-.6885.21-1.4258a10.4234,10.4234,0,0,0,.09-1.2148h-4.08a11.9062,11.9062,0,0,1-3.99,6.2852A14.772,14.772,0,0,1,155.07,27.9844Zm5.58-12h11.46q-.57-.51-1.0948-1.0489c-.35-.3613-.6953-.73-1.0351-1.1113h-7.44A20.7031,20.7031,0,0,1,160.65,15.9844Zm3.87-5.3086h3.18c-.16-.2813-.3144-.57-.4648-.8711-.15-.2989-.295-.59-.4346-.8692H165.33c-.14.2989-.2744.5957-.4043.8848S164.66,10.3945,164.52,10.6758Zm30.66,14.3086a13.5333,13.5333,0,0,1-3.585-.4336,6.0259,6.0259,0,0,1-2.7-1.5606,8.3016,8.3016,0,0,1-1.8447-3.1953l3.18-1.74a3.87,3.87,0,0,0,1.59,2.3711,5.9715,5.9715,0,0,0,3.36.8086q1.9189,0,3.96-.18t3.84-.51a19.223,19.223,0,0,0,2.9707-.75q0,.48.0742,1.26.0747.7823.21,1.5312c.0908.5.1748.8887.2558,1.17a18.9719,18.9719,0,0,1-3.06.6582q-1.86.2725-4.0049.4219Q197.2793,24.9853,195.18,24.9844ZM190.47,7.3457l-.03-3.6309a12.175,12.175,0,0,0,2.1758.42q1.3038.15,2.8194.18,1.5145.0322,3.0449-.0449,1.5307-.0732,2.82-.24a12.1672,12.1672,0,0,0,2.13-.4336v3.66a11.1906,11.1906,0,0,1-2.04.3887q-1.29.1524-2.82.2246-1.5292.0762-3.09.0449-1.56-.0292-2.88-.18A12.8355,12.8355,0,0,1,190.47,7.3457Zm16.9805.66a13.2682,13.2682,0,0,0-1.53-1.98,23.176,23.176,0,0,0-1.71-1.711l1.62-1.3193a11.01,11.01,0,0,1,1.0947,1.05q.6445.6913,1.2754,1.3945a10.5121,10.5121,0,0,1,.96,1.2149Zm2.67-2.2812A12.82,12.82,0,0,0,208.59,3.76a17.29,17.29,0,0,0-1.74-1.664l1.65-1.3506a11.888,11.888,0,0,1,1.0947,1.0342q.6446.6766,1.2754,1.3808a10.5146,10.5146,0,0,1,.96,1.2149Zm6.1787,22.1406q-.5391-.3018-1.3945-.7051a8.6716,8.6716,0,0,0-1.4248-.5547,11.6643,11.6643,0,0,0,1.14-1.7109q.57-1.02,1.05-2.1a14.27,14.27,0,0,0,.7207-1.9492l2.7891.93a20.226,20.226,0,0,1-.7344,2.0547,23.14,23.14,0,0,1-1.0351,2.1757Q216.84,27.0548,216.2993,27.8652Zm-1.14-7.1094V1.5849h8.31V20.7558Zm2.82-13.65h2.64V4.4648h-2.64Zm0,5.3086h2.64v-2.67h-2.64Zm0,5.4317h2.64v-2.791h-2.64Zm4.77,9.7793A16.2392,16.2392,0,0,1,221.64,25.9q-.5712-1.005-1.0654-2.1t-.8252-2.0254l2.67-.961a13.78,13.78,0,0,0,1.2305,2.76,17.7356,17.7356,0,0,0,1.62,2.4q-.5712.3311-1.29.8262C223.5,27.1308,223.0894,27.4043,222.75,27.625Zm11.61.24q-.06-.63-.1953-1.5293a5.2024,5.2024,0,0,0-.375-1.41h1.8a1.2043,1.2043,0,0,0,.7207-.1368q.1494-.1347.1494-.6738V22.8847H228.81v4.92h-3.12v-4.92h-1.77v-2.4h1.77V13.3457h5.43V12.2051h-6.93V9.7441h4.05V8.4258h-2.73v-2.25h2.73V4.9746h-3.81V2.665h3.81V.5049h3.03v2.16h2.6992V.5049H237v2.16h4.05v2.31H237V6.1758h3.12v2.25H237V9.7441h4.38v2.461h-7.23v1.1406h5.43v7.1387h2.16v2.4h-2.16v2.19a2.6737,2.6737,0,0,1-.7647,2.1309,3.7091,3.7091,0,0,1-2.4453.66Zm-5.55-10.9805H231.12v-1.32H228.81Zm0,3.6H231.12v-1.41H228.81Zm2.46-14.3086h2.6992V4.9746H231.27Zm0,3.5683h2.6992V8.4258H231.27Zm2.88,7.1406h2.31v-1.32h-2.31Zm0,3.6h2.31v-1.41h-2.31Zm12.6006,7.5a10.1491,10.1491,0,0,0-1.0352-1.6192,8.69,8.69,0,0,0-1.3349-1.41,21.0918,21.0918,0,0,0,6.165-4.1993,19.4245,19.4245,0,0,0,3.8994-5.58,22.4513,22.4513,0,0,0,1.875-6.5411l2.13.3594q-.12-1.02-.1943-2.0683a21.5942,21.5942,0,0,1-.045-2.16h-6.96V1.4043H261.9a34.894,34.894,0,0,0,.51,9.6308,19.1141,19.1141,0,0,0,3.5254,7.8008,23.3382,23.3382,0,0,0,7.3652,6.09,10.2832,10.2832,0,0,0-1.44,1.41,18,18,0,0,0-1.29,1.6485,29.154,29.154,0,0,1-6.99-6.33,23.9727,23.9727,0,0,1-4.38-8.91,23.4607,23.4607,0,0,1-2.625,6.166,24.1736,24.1736,0,0,1-9.8242,9.0743Zm32.1894-1.44a27.5241,27.5241,0,0,1-.33-3.0156q-.12-1.8428-.1651-4.1094-.0453-2.2647-.0156-4.68t.15-4.7246q.1187-2.3115.3144-4.26a31.3009,31.3009,0,0,1,.4659-3.24l3.42.81a16.8108,16.8108,0,0,0-.5557,2.8193Q282,7.9171,281.8794,10.09q-.12,2.1768-.15,4.4844-.0292,2.3115.0459,4.4863.0732,2.1738.2393,3.9746a25.2375,25.2375,0,0,0,.4052,2.91Zm11.13-.3594a5.894,5.894,0,0,1-3.75-1.3808,3.9211,3.9211,0,0,1-1.38-3.1192,3.653,3.653,0,0,1,.75-2.1152A4.9625,4.9625,0,0,1,287.729,18.01a7.7306,7.7306,0,0,1,3.1509-.5839,16.8,16.8,0,0,1,1.8.09q-.0293-1.3214-.09-3-.06-1.6816-.12-3.66-1.86.12-3.6.1348t-2.97-.0449l-.24-3.66a20.11,20.11,0,0,0,2.9248.1953q1.8156.0147,3.8257-.0761-.0309-1.1983-.045-2.4434-.0161-1.2451-.0156-2.5361H295.86q-.0309,1.1411-.045,2.3408-.0161,1.1982-.0156,2.43,1.8-.1494,3.27-.3457a13.3448,13.3448,0,0,0,2.22-.4356v3.6016a22.76,22.76,0,0,1-2.28.33q-1.44.1494-3.12.2988.06,2.1913.15,4.1856t.15,3.4941a18.39,18.39,0,0,1,3.2393,1.5312,32.915,32.915,0,0,1,3.06,2.07,5.3218,5.3218,0,0,0-.7656.8242,12.3977,12.3977,0,0,0-.7949,1.1406,9.8036,9.8036,0,0,0-.54.9746,19.6728,19.6728,0,0,0-4.14-2.9394,4.1338,4.1338,0,0,1-1.8154,3.375A7.535,7.535,0,0,1,290.07,26.1855Zm.27-3.0605a2.9,2.9,0,0,0,1.8448-.4942,2.1856,2.1856,0,0,0,.6152-1.7851v-.211a12.0576,12.0576,0,0,0-2.13-.2988,3.355,3.355,0,0,0-1.7856.3594,1.229,1.229,0,0,0-.7051,1.02,1.105,1.105,0,0,0,.57,1.02A2.8644,2.8644,0,0,0,290.34,23.125Zm28.44,1.8594a13.5333,13.5333,0,0,1-3.585-.4336,5.9655,5.9655,0,0,1-2.7-1.5762,8.4567,8.4567,0,0,1-1.8447-3.18l3.18-1.74a3.87,3.87,0,0,0,1.59,2.3711,5.9715,5.9715,0,0,0,3.36.8086q1.9189,0,3.96-.18t3.84-.51a19.223,19.223,0,0,0,2.9707-.75q0,.48.0742,1.26.0747.7823.21,1.5312c.0908.5.1748.8887.2558,1.17a18.9719,18.9719,0,0,1-3.06.6582q-1.86.2725-4.0049.4219Q320.8794,24.9853,318.78,24.9844ZM314.07,7.3457l-.03-3.6309a12.175,12.175,0,0,0,2.1758.42q1.3038.15,2.8194.18,1.5146.0322,3.0449-.0449,1.5307-.0732,2.82-.24a12.1672,12.1672,0,0,0,2.13-.4336v3.66a11.1906,11.1906,0,0,1-2.04.3887q-1.29.1524-2.82.2246-1.5292.0762-3.09.0449-1.56-.0292-2.88-.18A12.8355,12.8355,0,0,1,314.07,7.3457Zm34.65,20.039a7.5008,7.5008,0,0,0-.3447-1.2148,14.0333,14.0333,0,0,0-.585-1.3809,5.1918,5.1918,0,0,0-.69-1.0937,17.9824,17.9824,0,0,0,7.8906-.7656q2.88-1.1544,2.88-3.6153a2.45,2.45,0,0,0-1.0957-2.1,4.6691,4.6691,0,0,0-2.7744-.7793,11.4694,11.4694,0,0,0-3.96.7344,9.31,9.31,0,0,0-3.63,2.4746c-.08.1016-.165.2051-.2558.3164-.09.1094-.1846.2149-.2842.3145l-2.91-2.07a11.61,11.61,0,0,0,2.46-3.8106,27.9077,27.9077,0,0,0,1.59-5.0391q-4.17.15-7.11,0l-.2393-3.541a30.7787,30.7787,0,0,0,3.42.2246q2.0991.0469,4.5293-.0449a31.6742,31.6742,0,0,0,.27-5.1592h3.78a39.3079,39.3079,0,0,1-.36,4.98q2.0991-.1494,4.05-.3593t3.54-.4649a20.3941,20.3941,0,0,0,2.58-.5547l-.24,3.5391a45.3911,45.3911,0,0,1-4.59.7051q-2.82.3163-5.91.4961-.3,1.38-.6748,2.76a25.3006,25.3006,0,0,1-.8848,2.67,14.43,14.43,0,0,1,2.5947-1.0664,9.02,9.02,0,0,1,2.5352-.375,8.8468,8.8468,0,0,1,3.7949.7207,6.195,6.195,0,0,1,2.625,2.1446,5.7611,5.7611,0,0,1,.96,3.3457,6.8141,6.8141,0,0,1-3.33,6.09Q355.0211,27.5947,348.7207,27.3847Zm31.38-.15a8.0287,8.0287,0,0,0-.3457-1.1387,12.0176,12.0176,0,0,0-.6143-1.3809,5.0539,5.0539,0,0,0-.7207-1.08,15.9938,15.9938,0,0,0,7.335-1.1406,3.9016,3.9016,0,0,0,2.5351-3.5683,2.4151,2.4151,0,0,0-1.08-2.1016,4.86,4.86,0,0,0-2.8194-.75,11.31,11.31,0,0,0-2.8808.4062,9.5335,9.5335,0,0,0-2.8946,1.32,7.6879,7.6879,0,0,0-2.2949,2.4433l-3.21-1.4082a11.5531,11.5531,0,0,0,1.0351-2.625,30.2639,30.2639,0,0,0,.7051-3.2851q.27-1.7111.39-3.24a15.504,15.504,0,0,0,.03-2.5215l3.75.4512a22.9294,22.9294,0,0,1-.24,3.4649,26.9016,26.9016,0,0,1-.84,3.9453,13.8307,13.8307,0,0,1,3.33-1.6211,10.5509,10.5509,0,0,1,3.2695-.5684,9.6177,9.6177,0,0,1,4.0655.7949A6.4435,6.4435,0,0,1,391.29,15.82a5.5,5.5,0,0,1,.96,3.1953,6.8379,6.8379,0,0,1-1.3047,4.0938,8.7834,8.7834,0,0,1-3.99,2.8964A20.5912,20.5912,0,0,1,380.1006,27.2344Zm4.98-19.2286a14.4877,14.4877,0,0,0-1.7852-1.2011q-1.0341-.6006-2.1748-1.1407t-2.2353-.9433A11.5671,11.5671,0,0,0,376.95,4.164l1.8-3.1191a17.18,17.18,0,0,1,1.86.6445q1.08.4365,2.2646.9756t2.25,1.0791a19.5971,19.5971,0,0,1,1.7549.99Z" fill="#fff"/><path d="M940.61,28a14,14,0,1,1,14-14.006A14,14,0,0,1,940.61,28ZM938.378,6.966a1.453,1.453,0,0,0-1.028,2.48l4.692,4.695-4.692,4.695a1.4538,1.4538,0,0,0,2.054,2.058h0l5.722-5.721a1.4541,1.4541,0,0,0,0-2.055l-5.722-5.724A1.44,1.44,0,0,0,938.378,6.966ZM519,25.8847V3.2656h23.22V25.8847Zm3.78-12.9h6V6.625h-6Zm0,9.541h6V16.1347h-6Zm9.66-9.541h6V6.625h-6Zm0,9.541h6V16.1347h-6Zm27.24,5.3691v-9.66h-10.89V6.2949h10.89V.5644h3.69V6.2949h10.89v11.94h-10.89v9.66Zm-7.11-13.1387h7.11v-5.16h-7.11Zm10.8008,0h7.17v-5.16h-7.17ZM580.83,27.6543a5.2831,5.2831,0,0,0-.915-.5684q-.5845-.3018-1.1846-.5566a5.7111,5.7111,0,0,0-1.02-.3438,19.662,19.662,0,0,0,2.2656-5.73,34.6705,34.6705,0,0,0,.7949-7.9493V1.2549h23.4893v7.081H584.25v1.5h21.27v2.6387h-5.37q1.14,1.02,2.3994,2.2363,1.2612,1.2129,2.19,2.2031a10.4234,10.4234,0,0,0-1.3349,1.0508,12.6682,12.6682,0,0,0-1.2149,1.23q-.3-.4189-.705-.93T600.6,17.2441q-.9009.0909-2.1006.1817-1.2.0879-2.58.18v2.1H602.4v2.73h-6.4805v2.0391h9.54v2.76H583.62v-2.76H592.35V22.4355h-6.6309v-2.73H592.35V17.8144q-2.0714.12-3.9453.1953t-3.0449.0762l-.3907-2.791c.46,0,1.0059-.0039,1.6358-.0156.63-.01,1.3047-.0235,2.0244-.0449q.42-.6885.8252-1.44t.7051-1.32h-5.91v.0312a37.6982,37.6982,0,0,1-.8994,8.7286A22.41,22.41,0,0,1,580.83,27.6543Zm3.42-21.959h16.53V3.8945H584.25Zm8.01,9.42q1.5907-.0615,3.165-.1211,1.5762-.0585,2.8653-.1191a10.8021,10.8021,0,0,0-.87-.7793q-.45-.36-.87-.6914l1.2-.93H593.85q-.36.6621-.78,1.35Q592.65,14.5156,592.2593,15.1152Zm21.15,12.7207V17.125q-.4791.63-.96,1.17c-.3193.3594-.63.7109-.93,1.0508-.2207-.2207-.5049-.4746-.8545-.7656q-.5259-.4337-1.0351-.8243a5.7191,5.7191,0,0,0-.87-.57,15.5016,15.5016,0,0,0,2.01-2.2051,32.7244,32.7244,0,0,0,2.01-2.9414q.9594-1.5732,1.665-3.0293a14.8247,14.8247,0,0,0,.9756-2.4453l3.33,1.08q-.36,1.02-.8555,2.0859-.4951,1.0635-1.0654,2.1153v15.99ZM610.17,8.5449v-5.49H621.3V.4746H625.2v2.58h11.19v5.16h-3.48v-2.25H613.71v2.58Zm9.63,19.08v-13.74H624.33q.2109-.51.4053-1.0957.1947-.5829.3447-1.0644H618.42v-2.91H636.33v2.91h-7.35q-.1509.48-.36,1.0644-.2094.5861-.39,1.0957h6.57v13.74Zm3.66-8.25h7.83v-2.49h-7.83Zm0,5.43h7.83v-2.58h-7.83ZM645.9,14.125a15.35,15.35,0,0,0-1.5156-1.1406q-.9756-.6593-2.0244-1.26a17.8982,17.8982,0,0,0-1.83-.93l1.83-3.0293q.8686.4189,1.9043.9746,1.0356.5538,2.0107,1.1406a13.6446,13.6446,0,0,1,1.6348,1.125q-.271.3282-.66.9141t-.7646,1.1855Q646.1084,13.706,645.9,14.125Zm-1.65,13.5605-3.21-2.1914a20.7112,20.7112,0,0,0,1.41-2.1289q.7192-1.23,1.41-2.5957.6884-1.3651,1.2441-2.6543a20.793,20.793,0,0,0,.8555-2.3105q.57.48,1.4853,1.1406a15.667,15.667,0,0,0,1.5147.99q-.3311,1.0488-.8848,2.3535-.5552,1.3066-1.2148,2.6719t-1.335,2.5938Q644.85,26.7852,644.25,27.6855Zm3.48-20.3711a17.5079,17.5079,0,0,0-1.5293-1.17q-.99-.6885-2.0557-1.32a12.875,12.875,0,0,0-1.8447-.93l1.86-2.97a18.776,18.776,0,0,1,1.92.9453q1.1088.6153,2.13,1.2744a13.2922,13.2922,0,0,1,1.5595,1.1406,10.3579,10.3579,0,0,0-.6591.8692c-.28.4-.5508.8066-.8106,1.2148C648.04,6.7793,647.8491,7.0957,647.729,7.3144Zm2.4,19.5606V5.3359h4.86q.2388-.7207.4952-1.6211c.1689-.6.33-1.18.4795-1.74.15-.5586.2548-1.0195.3154-1.3789l4.1094.3291q-.21.93-.6,2.1748t-.75,2.2363h7.14V26.875Zm3.84-12.57h8.37V8.6054h-8.37Zm0,9.3007h8.37v-6h-8.37Zm20.1006,4.379a11.2255,11.2255,0,0,0-.51-1.6192,8.34,8.34,0,0,0-.75-1.5293,12.6879,12.6879,0,0,0,5.8193-1.74,8.2181,8.2181,0,0,0,3.0908-4.0215h-4.0508V17.7558a28.3568,28.3568,0,0,1-5.1591,3.1485,9.7276,9.7276,0,0,0-.54-.84c-.24-.34-.4951-.6836-.7656-1.0351a3.9813,3.9813,0,0,0-.8252-.8242,22.5631,22.5631,0,0,0,3.87-1.9805,19.4344,19.4344,0,0,0,3.03-2.4h-5.55V10.6758h8.07q.2388-.422.4941-.8555c.17-.2891.3252-.5859.4659-.8848H673.83v-3.15H677.55q-.5112-.8994-1.2607-1.9961A14.51,14.51,0,0,0,674.85,1.9746l3.0293-1.47q.51.57,1.11,1.35t1.14,1.59A13.7945,13.7945,0,0,1,681,4.914q-.8994.36-1.89.8711h2.82a21.9723,21.9723,0,0,0,.6142-2.7q.2256-1.3784.3457-2.76l3.54.42q-.18,1.32-.4356,2.58-.2549,1.2582-.5849,2.46h5.25l-2.37-.8105q.57-.958,1.17-2.1748.6006-1.2144,1.02-2.3252l3.48,1.26q-.63,1.0517-1.2744,2.1308-.646,1.081-1.2149,1.92h5.01v3.15H689.4a21.2752,21.2752,0,0,0,1.23,1.74H698.43v3.1484h-4.74a25.2457,25.2457,0,0,0,2.9551,2.1016A17.6269,17.6269,0,0,0,699.9,17.4844a9.4681,9.4681,0,0,0-1.0654,1.2753A11.7289,11.7289,0,0,0,697.8,20.4258a24.2209,24.2209,0,0,1-2.37-1.23,23.8282,23.8282,0,0,1-2.28-1.5313q-.12,1.8927-.36,3.7207-.24,1.8311-.4795,3a3.8539,3.8539,0,0,1-1.62,2.6543,6.3833,6.3833,0,0,1-3.39.7657h-1.62a10.1381,10.1381,0,0,0-.15-1.1407q-.12-.6591-.2695-1.3046a5.6022,5.6022,0,0,0-.33-1.0352h2.04a2.2865,2.2865,0,0,0,1.335-.33,1.9521,1.9521,0,0,0,.6748-1.17,11.3105,11.3105,0,0,0,.24-1.1094q.1187-.6885.21-1.4258a10.4234,10.4234,0,0,0,.09-1.2148h-4.08a11.9062,11.9062,0,0,1-3.99,6.2852A14.772,14.772,0,0,1,674.07,27.9844Zm5.58-12h11.46q-.57-.51-1.0948-1.0489c-.3505-.3613-.6953-.73-1.0351-1.1113h-7.44A20.7031,20.7031,0,0,1,679.65,15.9844Zm3.87-5.3086h3.18c-.16-.2813-.3144-.57-.4648-.8711-.15-.2989-.295-.59-.4346-.8692H684.33c-.14.2989-.2744.5957-.4043.8848S683.66,10.3945,683.52,10.6758Zm30.66,14.3086a13.5333,13.5333,0,0,1-3.585-.4336,6.0259,6.0259,0,0,1-2.7-1.5606,8.3016,8.3016,0,0,1-1.8447-3.1953l3.18-1.74a3.87,3.87,0,0,0,1.59,2.3711,5.9715,5.9715,0,0,0,3.36.8086q1.9189,0,3.96-.18t3.84-.51a19.223,19.223,0,0,0,2.9707-.75q0,.48.0742,1.26.0747.7823.21,1.5312c.0908.5.1748.8887.2558,1.17a18.9719,18.9719,0,0,1-3.06.6582q-1.86.2725-4.0049.4219Q716.2793,24.9853,714.18,24.9844ZM709.47,7.3457l-.03-3.6309a12.175,12.175,0,0,0,2.1758.42q1.3038.15,2.8194.18,1.5145.0322,3.0449-.0449,1.5307-.0732,2.82-.24a12.1672,12.1672,0,0,0,2.13-.4336v3.66a11.1906,11.1906,0,0,1-2.04.3887q-1.29.1524-2.82.2246-1.5293.0762-3.09.0449-1.56-.0292-2.88-.18A12.8355,12.8355,0,0,1,709.47,7.3457Zm16.9805.66a13.2682,13.2682,0,0,0-1.53-1.98,23.176,23.176,0,0,0-1.71-1.711l1.62-1.3193a11.01,11.01,0,0,1,1.0947,1.05q.6446.6913,1.2754,1.3945a10.5121,10.5121,0,0,1,.96,1.2149Zm2.67-2.2812A12.82,12.82,0,0,0,727.59,3.76a17.29,17.29,0,0,0-1.74-1.664l1.65-1.3506a11.888,11.888,0,0,1,1.0947,1.0342q.6445.6766,1.2754,1.3808a10.5146,10.5146,0,0,1,.96,1.2149Zm6.1787,22.1406q-.5391-.3018-1.3945-.7051a8.6716,8.6716,0,0,0-1.4248-.5547,11.6643,11.6643,0,0,0,1.14-1.7109q.57-1.02,1.05-2.1a14.27,14.27,0,0,0,.7207-1.9492l2.7891.93a20.226,20.226,0,0,1-.7344,2.0547,23.14,23.14,0,0,1-1.0351,2.1757Q735.84,27.0548,735.2993,27.8652Zm-1.14-7.1094V1.5849h8.3095V20.7558Zm2.82-13.65h2.64V4.4648h-2.64Zm0,5.3086h2.64v-2.67h-2.64Zm0,5.4317h2.64v-2.791h-2.64ZM741.75,27.625A16.2392,16.2392,0,0,1,740.64,25.9q-.5712-1.005-1.0654-2.1t-.8252-2.0254l2.67-.961a13.78,13.78,0,0,0,1.2305,2.76,17.7356,17.7356,0,0,0,1.62,2.4q-.5712.3311-1.29.8262C742.5,27.1308,742.0894,27.4043,741.75,27.625Zm11.61.24q-.06-.63-.1953-1.5293a5.2024,5.2024,0,0,0-.375-1.41h1.8a1.2043,1.2043,0,0,0,.7207-.1368q.1494-.1347.1494-.6738V22.8847H747.81v4.92h-3.12v-4.92h-1.77v-2.4h1.77V13.3457h5.43V12.2051h-6.93V9.7441h4.05V8.4258h-2.73v-2.25h2.73V4.9746h-3.81V2.665h3.81V.5049h3.03v2.16h2.6992V.5049H756v2.16h4.05v2.31H756V6.1758h3.12v2.25H756V9.7441h4.38v2.461h-7.23v1.1406h5.43v7.1387h2.16v2.4h-2.16v2.19a2.6737,2.6737,0,0,1-.7647,2.1309,3.7091,3.7091,0,0,1-2.4453.66Zm-5.55-10.9805H750.12v-1.32H747.81Zm0,3.6H750.12v-1.41H747.81Zm2.46-14.3086h2.6992V4.9746H750.27Zm0,3.5683h2.6992V8.4258H750.27Zm2.88,7.1406h2.31v-1.32h-2.31Zm0,3.6h2.31v-1.41h-2.31Zm12.6006,7.5a10.1491,10.1491,0,0,0-1.0352-1.6192,8.69,8.69,0,0,0-1.3349-1.41,21.0918,21.0918,0,0,0,6.165-4.1993,19.4245,19.4245,0,0,0,3.8994-5.58,22.4513,22.4513,0,0,0,1.875-6.5411l2.13.3594q-.12-1.02-.1943-2.0683a21.5942,21.5942,0,0,1-.045-2.16h-6.96V1.4043H780.9a34.894,34.894,0,0,0,.51,9.6308,19.1141,19.1141,0,0,0,3.5254,7.8008,23.3382,23.3382,0,0,0,7.3652,6.09,10.2832,10.2832,0,0,0-1.44,1.41,18,18,0,0,0-1.29,1.6485,29.154,29.154,0,0,1-6.99-6.33,23.9727,23.9727,0,0,1-4.38-8.91,23.4607,23.4607,0,0,1-2.625,6.166,24.1736,24.1736,0,0,1-9.8242,9.0743Zm32.1894-1.44a27.5241,27.5241,0,0,1-.33-3.0156q-.12-1.8428-.1651-4.1094-.0453-2.2647-.0156-4.68t.15-4.7246q.1186-2.3115.3144-4.26a31.3009,31.3009,0,0,1,.4659-3.24l3.42.81a16.8108,16.8108,0,0,0-.5557,2.8193Q801,7.9171,800.8794,10.09q-.12,2.1768-.15,4.4844-.0293,2.3115.0459,4.4863.0732,2.1738.2393,3.9746a25.2375,25.2375,0,0,0,.4052,2.91Zm11.13-.3594a5.894,5.894,0,0,1-3.75-1.3808,3.9211,3.9211,0,0,1-1.38-3.1192,3.653,3.653,0,0,1,.75-2.1152A4.9625,4.9625,0,0,1,806.729,18.01a7.7306,7.7306,0,0,1,3.1509-.5839,16.8,16.8,0,0,1,1.8.09q-.0292-1.3214-.09-3-.06-1.6816-.12-3.66-1.86.12-3.6.1348t-2.97-.0449l-.24-3.66a20.11,20.11,0,0,0,2.9248.1953q1.8156.0147,3.8257-.0761-.0309-1.1983-.045-2.4434-.016-1.2451-.0156-2.5361H814.86q-.0309,1.1411-.045,2.3408-.016,1.1982-.0156,2.43,1.8-.1494,3.27-.3457a13.3448,13.3448,0,0,0,2.22-.4356v3.6016a22.76,22.76,0,0,1-2.28.33q-1.44.1494-3.12.2988.06,2.1913.15,4.1856t.15,3.4941a18.39,18.39,0,0,1,3.2393,1.5312,32.915,32.915,0,0,1,3.06,2.07,5.3218,5.3218,0,0,0-.7656.8242,12.3977,12.3977,0,0,0-.7949,1.1406,9.8036,9.8036,0,0,0-.54.9746,19.6728,19.6728,0,0,0-4.14-2.9394,4.1338,4.1338,0,0,1-1.8154,3.375A7.535,7.535,0,0,1,809.07,26.1855Zm.2695-3.0605a2.9,2.9,0,0,0,1.8448-.4942,2.1856,2.1856,0,0,0,.6152-1.7851v-.211a12.0576,12.0576,0,0,0-2.13-.2988,3.355,3.355,0,0,0-1.7856.3594,1.229,1.229,0,0,0-.7051,1.02,1.105,1.105,0,0,0,.57,1.02A2.8644,2.8644,0,0,0,809.34,23.125ZM837.78,24.9844a13.5333,13.5333,0,0,1-3.585-.4336,5.9655,5.9655,0,0,1-2.7-1.5762,8.4567,8.4567,0,0,1-1.8447-3.18l3.18-1.74a3.87,3.87,0,0,0,1.59,2.3711,5.9715,5.9715,0,0,0,3.36.8086q1.919,0,3.96-.18t3.84-.51a19.223,19.223,0,0,0,2.9707-.75q0,.48.0742,1.26.0747.7823.21,1.5312c.0908.5.1748.8887.2558,1.17a18.9719,18.9719,0,0,1-3.06.6582q-1.86.2725-4.0049.4219Q839.8794,24.9853,837.78,24.9844ZM833.07,7.3457l-.03-3.6309a12.175,12.175,0,0,0,2.1758.42q1.3038.15,2.8194.18,1.5145.0322,3.0449-.0449,1.5308-.0732,2.82-.24a12.1672,12.1672,0,0,0,2.13-.4336v3.66a11.1906,11.1906,0,0,1-2.04.3887q-1.29.1524-2.82.2246-1.5292.0762-3.09.0449-1.56-.0292-2.88-.18A12.8355,12.8355,0,0,1,833.07,7.3457Zm34.65,20.039a7.5008,7.5008,0,0,0-.3447-1.2148,14.0333,14.0333,0,0,0-.585-1.3809,5.1918,5.1918,0,0,0-.69-1.0937,17.9824,17.9824,0,0,0,7.8906-.7656q2.88-1.1544,2.88-3.6153a2.45,2.45,0,0,0-1.0957-2.1,4.6691,4.6691,0,0,0-2.7744-.7793,11.4694,11.4694,0,0,0-3.96.7344,9.31,9.31,0,0,0-3.63,2.4746c-.08.1016-.165.2051-.2558.3164-.09.1094-.1846.2149-.2842.3145l-2.91-2.07a11.61,11.61,0,0,0,2.46-3.8106,27.9077,27.9077,0,0,0,1.59-5.0391q-4.17.15-7.11,0l-.2393-3.541a30.7787,30.7787,0,0,0,3.42.2246q2.0991.0469,4.5293-.0449a31.6742,31.6742,0,0,0,.27-5.1592h3.78a39.3079,39.3079,0,0,1-.36,4.98q2.0991-.1494,4.05-.3593t3.54-.4649a20.3941,20.3941,0,0,0,2.58-.5547l-.24,3.5391a45.3911,45.3911,0,0,1-4.59.7051q-2.82.3163-5.91.4961-.3,1.38-.6748,2.76a25.3006,25.3006,0,0,1-.8848,2.67,14.43,14.43,0,0,1,2.5947-1.0664,9.02,9.02,0,0,1,2.5352-.375,8.8468,8.8468,0,0,1,3.7949.7207,6.195,6.195,0,0,1,2.625,2.1446,5.7611,5.7611,0,0,1,.96,3.3457,6.8141,6.8141,0,0,1-3.33,6.09Q874.0211,27.5947,867.7207,27.3847Zm31.38-.15a8.0287,8.0287,0,0,0-.3457-1.1387,12.0176,12.0176,0,0,0-.6143-1.3809,5.0539,5.0539,0,0,0-.7207-1.08,15.9938,15.9938,0,0,0,7.335-1.1406,3.9016,3.9016,0,0,0,2.5351-3.5683,2.4151,2.4151,0,0,0-1.08-2.1016,4.86,4.86,0,0,0-2.8194-.75,11.31,11.31,0,0,0-2.8808.4062,9.5335,9.5335,0,0,0-2.8946,1.32,7.6879,7.6879,0,0,0-2.2949,2.4433l-3.21-1.4082a11.5531,11.5531,0,0,0,1.0351-2.625,30.2639,30.2639,0,0,0,.7051-3.2851q.27-1.7111.39-3.24a15.504,15.504,0,0,0,.03-2.5215l3.75.4512a22.9294,22.9294,0,0,1-.24,3.4649,26.9016,26.9016,0,0,1-.84,3.9453,13.8307,13.8307,0,0,1,3.33-1.6211,10.5509,10.5509,0,0,1,3.2695-.5684,9.6177,9.6177,0,0,1,4.0655.7949A6.4435,6.4435,0,0,1,910.29,15.82a5.5,5.5,0,0,1,.96,3.1953,6.8379,6.8379,0,0,1-1.3047,4.0938,8.7834,8.7834,0,0,1-3.99,2.8964A20.5912,20.5912,0,0,1,899.1006,27.2344Zm4.98-19.2286a14.4877,14.4877,0,0,0-1.7852-1.2011q-1.0341-.6006-2.1748-1.1407t-2.2353-.9433A11.5671,11.5671,0,0,0,895.95,4.164l1.8-3.1191a17.18,17.18,0,0,1,1.86.6445q1.08.4365,2.2646.9756t2.25,1.0791a19.5971,19.5971,0,0,1,1.7549.99Z" fill="#fff"/><path d="M1459.61,28a14,14,0,1,1,14-14.006A14,14,0,0,1,1459.61,28Zm-2.232-21.034a1.453,1.453,0,0,0-1.028,2.48l4.692,4.695-4.692,4.695a1.4538,1.4538,0,1,0,2.054,2.058h0l5.722-5.721a1.4541,1.4541,0,0,0,0-2.055l-5.722-5.724A1.44,1.44,0,0,0,1457.378,6.966ZM1038,25.8847V3.2656h23.22V25.8847Zm3.78-12.9h6V6.625h-6Zm0,9.541h6V16.1347h-6Zm9.66-9.541h6V6.625h-6Zm0,9.541h6V16.1347h-6Zm27.24,5.3691v-9.66h-10.89V6.2949h10.89V.5644h3.69V6.2949h10.89v11.94h-10.89v9.66Zm-7.11-13.1387h7.11v-5.16h-7.11Zm10.8008,0h7.17v-5.16h-7.17Zm17.459,12.8985a5.2831,5.2831,0,0,0-.915-.5684q-.5846-.3018-1.1846-.5566a5.7111,5.7111,0,0,0-1.0205-.3438,19.662,19.662,0,0,0,2.2656-5.73,34.6705,34.6705,0,0,0,.7949-7.9493V1.2549h23.4893v7.081h-20.01v1.5H1124.52v2.6387h-5.37q1.14,1.02,2.3994,2.2363,1.2612,1.2129,2.19,2.2031a10.4234,10.4234,0,0,0-1.3349,1.0508,12.6682,12.6682,0,0,0-1.2149,1.23q-.3-.4189-.705-.93t-.8848-1.0215q-.9009.0909-2.1006.1817-1.2.0879-2.58.18v2.1h6.48v2.73h-6.48v2.0391h9.54v2.76h-21.84v-2.76h8.7305V22.4355h-6.6309v-2.73h6.6309V17.8144q-2.0714.12-3.9453.1953t-3.0449.0762l-.3907-2.791c.46,0,1.0059-.0039,1.6358-.0156.63-.01,1.3047-.0235,2.0244-.0449q.42-.6885.8252-1.44t.7051-1.32h-5.91v.0312a37.6982,37.6982,0,0,1-.8994,8.7286A22.41,22.41,0,0,1,1099.83,27.6543Zm3.42-21.959h16.53V3.8945h-16.53Zm8.01,9.42q1.5908-.0615,3.165-.1211,1.5762-.0585,2.8653-.1191a10.8021,10.8021,0,0,0-.87-.7793q-.45-.36-.87-.6914l1.2-.93H1112.85q-.36.6621-.78,1.35Q1111.65,14.5156,1111.2593,15.1152Zm21.15,12.7207V17.125q-.4791.63-.96,1.17c-.3193.3594-.63.7109-.93,1.0508-.2207-.2207-.5049-.4746-.8545-.7656q-.5259-.4337-1.0351-.8243a5.7191,5.7191,0,0,0-.87-.57,15.5016,15.5016,0,0,0,2.01-2.2051,32.7244,32.7244,0,0,0,2.01-2.9414q.9594-1.5732,1.665-3.0293a14.8247,14.8247,0,0,0,.9756-2.4453l3.33,1.08q-.36,1.02-.8555,2.0859-.4951,1.0635-1.0654,2.1153v15.99ZM1129.17,8.5449v-5.49h11.13V.4746H1144.2v2.58h11.19v5.16h-3.48v-2.25H1132.71v2.58Zm9.63,19.08v-13.74h4.5293q.2109-.51.4053-1.0957.1947-.5829.3447-1.0644H1137.42v-2.91H1155.33v2.91h-7.35q-.1509.48-.36,1.0644-.2094.5861-.39,1.0957h6.57v13.74Zm3.66-8.25h7.83v-2.49h-7.83Zm0,5.43h7.83v-2.58h-7.83ZM1164.9,14.125a15.35,15.35,0,0,0-1.5156-1.1406q-.9756-.6593-2.0244-1.26a17.8982,17.8982,0,0,0-1.83-.93l1.83-3.0293q.8687.4189,1.9043.9746,1.0356.5538,2.0107,1.1406a13.6446,13.6446,0,0,1,1.6348,1.125q-.271.3282-.66.9141t-.7646,1.1855Q1165.1084,13.706,1164.9,14.125Zm-1.65,13.5605-3.21-2.1914a20.7112,20.7112,0,0,0,1.41-2.1289q.7193-1.23,1.41-2.5957.6884-1.3651,1.2441-2.6543a20.793,20.793,0,0,0,.8555-2.3105q.57.48,1.4853,1.1406a15.667,15.667,0,0,0,1.5147.99q-.331,1.0488-.8848,2.3535-.5551,1.3066-1.2148,2.6719t-1.335,2.5938Q1163.85,26.7852,1163.25,27.6855Zm3.48-20.3711a17.5079,17.5079,0,0,0-1.5293-1.17q-.99-.6885-2.0557-1.32a12.875,12.875,0,0,0-1.8447-.93l1.86-2.97a18.776,18.776,0,0,1,1.92.9453q1.1088.6153,2.13,1.2744a13.2922,13.2922,0,0,1,1.56,1.1406,10.3579,10.3579,0,0,0-.6591.8692c-.28.4-.5508.8066-.8106,1.2148C1167.04,6.7793,1166.8491,7.0957,1166.729,7.3144Zm2.4,19.5606V5.3359h4.86q.2388-.7207.4952-1.6211c.1689-.6.33-1.18.48-1.74.15-.5586.2548-1.0195.3154-1.3789l4.1094.3291q-.21.93-.6,2.1748t-.75,2.2363h7.14V26.875Zm3.84-12.57h8.37V8.6054h-8.37Zm0,9.3007h8.37v-6h-8.37Zm20.1006,4.379a11.2255,11.2255,0,0,0-.51-1.6192,8.34,8.34,0,0,0-.75-1.5293,12.6879,12.6879,0,0,0,5.8193-1.74,8.2181,8.2181,0,0,0,3.0908-4.0215h-4.0508V17.7558a28.3568,28.3568,0,0,1-5.1591,3.1485,9.7276,9.7276,0,0,0-.54-.84c-.24-.34-.4951-.6836-.7656-1.0351a3.9813,3.9813,0,0,0-.8252-.8242,22.5631,22.5631,0,0,0,3.87-1.9805,19.4344,19.4344,0,0,0,3.03-2.4h-5.55V10.6758h8.07q.2388-.422.4941-.8555c.17-.2891.3252-.5859.4659-.8848H1192.83v-3.15h3.7207q-.5112-.8994-1.2607-1.9961a14.51,14.51,0,0,0-1.4395-1.8144l3.0293-1.47q.51.57,1.11,1.35t1.14,1.59A13.7945,13.7945,0,0,1,1200,4.914q-.8994.36-1.89.8711h2.82a21.9723,21.9723,0,0,0,.6142-2.7q.2256-1.3784.3457-2.76l3.54.42q-.18,1.32-.4356,2.58-.2549,1.2582-.5849,2.46h5.25l-2.37-.8105q.57-.958,1.17-2.1748.6006-1.2144,1.0205-2.3252l3.4795,1.26q-.63,1.0517-1.2744,2.1308-.646,1.081-1.2149,1.92h5.01v3.15h-7.08a21.2752,21.2752,0,0,0,1.23,1.74h7.8008v3.1484h-4.74a25.2457,25.2457,0,0,0,2.9551,2.1016,17.6269,17.6269,0,0,0,3.2549,1.5586,9.4681,9.4681,0,0,0-1.0654,1.2753,11.7289,11.7289,0,0,0-1.0342,1.6661,24.2209,24.2209,0,0,1-2.37-1.23,23.8282,23.8282,0,0,1-2.28-1.5313q-.12,1.8927-.36,3.7207-.24,1.8311-.48,3a3.8539,3.8539,0,0,1-1.62,2.6543,6.3833,6.3833,0,0,1-3.39.7657h-1.62a10.1381,10.1381,0,0,0-.15-1.1407q-.12-.6591-.27-1.3046a5.6022,5.6022,0,0,0-.33-1.0352h2.04a2.2865,2.2865,0,0,0,1.335-.33,1.9521,1.9521,0,0,0,.6748-1.17,11.3105,11.3105,0,0,0,.24-1.1094q.1186-.6885.21-1.4258a10.4234,10.4234,0,0,0,.09-1.2148h-4.08a11.9062,11.9062,0,0,1-3.99,6.2852A14.772,14.772,0,0,1,1193.07,27.9844Zm5.58-12h11.46q-.57-.51-1.0948-1.0489c-.3505-.3613-.6953-.73-1.0351-1.1113h-7.44A20.7031,20.7031,0,0,1,1198.65,15.9844Zm3.87-5.3086h3.18c-.16-.2813-.3144-.57-.4648-.8711-.15-.2989-.295-.59-.4346-.8692H1203.33c-.14.2989-.2744.5957-.4043.8848S1202.66,10.3945,1202.52,10.6758Zm30.66,14.3086a13.5333,13.5333,0,0,1-3.585-.4336,6.0259,6.0259,0,0,1-2.7-1.5606,8.3016,8.3016,0,0,1-1.8447-3.1953l3.18-1.74a3.87,3.87,0,0,0,1.59,2.3711,5.9715,5.9715,0,0,0,3.36.8086q1.9189,0,3.96-.18t3.84-.51a19.223,19.223,0,0,0,2.9707-.75q0,.48.0742,1.26.0747.7823.21,1.5312c.0908.5.1748.8887.2558,1.17a18.9719,18.9719,0,0,1-3.0605.6582q-1.86.2725-4.0049.4219Q1235.2793,24.9853,1233.18,24.9844Zm-4.71-17.6387-.03-3.6309a12.175,12.175,0,0,0,2.1758.42q1.3038.15,2.8194.18,1.5146.0322,3.0449-.0449,1.5308-.0732,2.82-.24a12.1672,12.1672,0,0,0,2.13-.4336v3.66a11.1906,11.1906,0,0,1-2.04.3887q-1.29.1524-2.82.2246-1.5292.0762-3.09.0449-1.56-.0292-2.88-.18A12.8355,12.8355,0,0,1,1228.47,7.3457Zm16.9805.66a13.2682,13.2682,0,0,0-1.53-1.98,23.176,23.176,0,0,0-1.71-1.711l1.62-1.3193a11.01,11.01,0,0,1,1.0947,1.05q.6445.6913,1.2754,1.3945a10.5121,10.5121,0,0,1,.96,1.2149Zm2.67-2.2812a12.82,12.82,0,0,0-1.53-1.9649,17.29,17.29,0,0,0-1.74-1.664l1.65-1.3506a11.888,11.888,0,0,1,1.0947,1.0342q.6445.6766,1.2754,1.3808a10.5146,10.5146,0,0,1,.96,1.2149Zm6.1787,22.1406q-.5391-.3018-1.3945-.7051a8.6716,8.6716,0,0,0-1.4248-.5547,11.6643,11.6643,0,0,0,1.14-1.7109q.57-1.02,1.05-2.1a14.27,14.27,0,0,0,.7207-1.9492l2.7891.93a20.226,20.226,0,0,1-.7344,2.0547,23.14,23.14,0,0,1-1.0351,2.1757Q1254.84,27.0548,1254.2993,27.8652Zm-1.14-7.1094V1.5849h8.31V20.7558Zm2.82-13.65h2.64V4.4648h-2.64Zm0,5.3086h2.64v-2.67h-2.64Zm0,5.4317h2.64v-2.791h-2.64Zm4.7695,9.7793A16.2392,16.2392,0,0,1,1259.64,25.9q-.5712-1.005-1.0654-2.1t-.8252-2.0254l2.67-.961a13.78,13.78,0,0,0,1.23,2.76,17.7356,17.7356,0,0,0,1.62,2.4q-.5712.3311-1.29.8262C1261.5,27.1308,1261.0894,27.4043,1260.75,27.625Zm11.61.24q-.06-.63-.1953-1.5293a5.2024,5.2024,0,0,0-.375-1.41h1.8a1.2043,1.2043,0,0,0,.7207-.1368q.1494-.1347.1494-.6738V22.8847H1266.81v4.92h-3.12v-4.92h-1.7705v-2.4h1.7705V13.3457h5.43V12.2051h-6.93V9.7441h4.05V8.4258h-2.73v-2.25h2.73V4.9746h-3.8105V2.665h3.8105V.5049h3.03v2.16h2.6992V.5049H1275v2.16h4.05v2.31H1275V6.1758h3.12v2.25H1275V9.7441h4.38v2.461h-7.23v1.1406h5.43v7.1387h2.16v2.4h-2.16v2.19a2.6737,2.6737,0,0,1-.7647,2.1309,3.7091,3.7091,0,0,1-2.4453.66Zm-5.55-10.9805h2.31v-1.32h-2.31Zm0,3.6h2.31v-1.41h-2.31Zm2.46-14.3086h2.6992V4.9746H1269.27Zm0,3.5683h2.6992V8.4258H1269.27Zm2.88,7.1406h2.31v-1.32h-2.31Zm0,3.6h2.31v-1.41h-2.31Zm12.6006,7.5a10.1491,10.1491,0,0,0-1.0352-1.6192,8.69,8.69,0,0,0-1.3349-1.41,21.0918,21.0918,0,0,0,6.165-4.1993,19.4245,19.4245,0,0,0,3.8994-5.58,22.4513,22.4513,0,0,0,1.875-6.5411l2.13.3594q-.12-1.02-.1943-2.0683a21.5942,21.5942,0,0,1-.045-2.16h-6.96V1.4043H1299.9a34.894,34.894,0,0,0,.51,9.6308,19.1141,19.1141,0,0,0,3.5254,7.8008,23.3382,23.3382,0,0,0,7.3652,6.09,10.2832,10.2832,0,0,0-1.44,1.41,18,18,0,0,0-1.29,1.6485,29.154,29.154,0,0,1-6.99-6.33,23.9727,23.9727,0,0,1-4.38-8.91,23.4607,23.4607,0,0,1-2.625,6.166,24.1736,24.1736,0,0,1-9.8242,9.0743Zm32.1894-1.44a27.5241,27.5241,0,0,1-.33-3.0156q-.12-1.8428-.1651-4.1094-.0453-2.2647-.0156-4.68t.15-4.7246q.1186-2.3115.3144-4.26a31.3009,31.3009,0,0,1,.4659-3.24l3.42.81a16.8108,16.8108,0,0,0-.5557,2.8193q-.2241,1.7726-.3447,3.9453-.12,2.1768-.15,4.4844-.0293,2.3115.0459,4.4863.0732,2.1738.2393,3.9746a25.2375,25.2375,0,0,0,.4052,2.91Zm11.13-.3594a5.894,5.894,0,0,1-3.7505-1.3808,3.9211,3.9211,0,0,1-1.38-3.1192,3.653,3.653,0,0,1,.75-2.1152,4.9625,4.9625,0,0,1,2.0391-1.5606,7.7306,7.7306,0,0,1,3.1509-.5839,16.8,16.8,0,0,1,1.8.09q-.0292-1.3214-.09-3-.06-1.6816-.12-3.66-1.86.12-3.6.1348t-2.97-.0449l-.24-3.66a20.11,20.11,0,0,0,2.9248.1953q1.8156.0147,3.8257-.0761-.0309-1.1983-.045-2.4434-.016-1.2451-.0156-2.5361h3.5108q-.0309,1.1411-.045,2.3408-.0161,1.1982-.0156,2.43,1.8-.1494,3.2705-.3457a13.3448,13.3448,0,0,0,2.22-.4356v3.6016a22.76,22.76,0,0,1-2.28.33q-1.44.1494-3.12.2988.06,2.1913.15,4.1856t.15,3.4941a18.39,18.39,0,0,1,3.2393,1.5312,32.915,32.915,0,0,1,3.0605,2.07,5.3218,5.3218,0,0,0-.7656.8242,12.3977,12.3977,0,0,0-.7949,1.1406,9.8036,9.8036,0,0,0-.54.9746,19.6728,19.6728,0,0,0-4.14-2.9394,4.1338,4.1338,0,0,1-1.8154,3.375A7.535,7.535,0,0,1,1328.07,26.1855Zm.2695-3.0605a2.9,2.9,0,0,0,1.8448-.4942,2.1856,2.1856,0,0,0,.6152-1.7851v-.211a12.0576,12.0576,0,0,0-2.13-.2988,3.355,3.355,0,0,0-1.7856.3594,1.229,1.229,0,0,0-.7051,1.02,1.105,1.105,0,0,0,.57,1.02A2.8644,2.8644,0,0,0,1328.34,23.125Zm28.44,1.8594a13.5333,13.5333,0,0,1-3.585-.4336,5.9655,5.9655,0,0,1-2.7-1.5762,8.4567,8.4567,0,0,1-1.8447-3.18l3.18-1.74a3.87,3.87,0,0,0,1.59,2.3711,5.9715,5.9715,0,0,0,3.36.8086q1.919,0,3.96-.18t3.84-.51a19.223,19.223,0,0,0,2.9707-.75q0,.48.0742,1.26.0747.7823.21,1.5312c.0908.5.1748.8887.2558,1.17a18.9719,18.9719,0,0,1-3.0605.6582q-1.86.2725-4.0049.4219Q1358.8794,24.9853,1356.78,24.9844Zm-4.71-17.6387-.03-3.6309a12.175,12.175,0,0,0,2.1758.42q1.3038.15,2.8194.18,1.5146.0322,3.0449-.0449,1.5308-.0732,2.82-.24a12.1672,12.1672,0,0,0,2.13-.4336v3.66a11.1906,11.1906,0,0,1-2.04.3887q-1.29.1524-2.82.2246-1.5293.0762-3.09.0449-1.56-.0292-2.88-.18A12.8355,12.8355,0,0,1,1352.07,7.3457Zm34.65,20.039a7.5008,7.5008,0,0,0-.3447-1.2148,14.0333,14.0333,0,0,0-.585-1.3809,5.1918,5.1918,0,0,0-.69-1.0937,17.9824,17.9824,0,0,0,7.8906-.7656q2.88-1.1544,2.88-3.6153a2.45,2.45,0,0,0-1.0957-2.1,4.6691,4.6691,0,0,0-2.7744-.7793,11.4694,11.4694,0,0,0-3.96.7344,9.31,9.31,0,0,0-3.63,2.4746c-.08.1016-.165.2051-.2558.3164-.09.1094-.1846.2149-.2842.3145l-2.91-2.07a11.61,11.61,0,0,0,2.46-3.8106,27.9077,27.9077,0,0,0,1.59-5.0391q-4.17.15-7.11,0l-.2393-3.541a30.7787,30.7787,0,0,0,3.42.2246q2.0991.0469,4.5293-.0449a31.6742,31.6742,0,0,0,.2705-5.1592h3.78a39.3079,39.3079,0,0,1-.36,4.98q2.0991-.1494,4.05-.3593t3.54-.4649a20.3941,20.3941,0,0,0,2.58-.5547l-.24,3.5391a45.3911,45.3911,0,0,1-4.59.7051q-2.82.3163-5.91.4961-.3,1.38-.6748,2.76a25.3006,25.3006,0,0,1-.8848,2.67,14.43,14.43,0,0,1,2.5947-1.0664,9.02,9.02,0,0,1,2.5352-.375,8.8468,8.8468,0,0,1,3.7949.7207,6.195,6.195,0,0,1,2.625,2.1446,5.7611,5.7611,0,0,1,.96,3.3457,6.8141,6.8141,0,0,1-3.33,6.09Q1393.0211,27.5947,1386.7207,27.3847Zm31.38-.15a8.0287,8.0287,0,0,0-.3457-1.1387,12.0176,12.0176,0,0,0-.6143-1.3809,5.0539,5.0539,0,0,0-.7207-1.08,15.9938,15.9938,0,0,0,7.335-1.1406,3.9016,3.9016,0,0,0,2.5351-3.5683,2.4151,2.4151,0,0,0-1.08-2.1016,4.86,4.86,0,0,0-2.8194-.75,11.31,11.31,0,0,0-2.8808.4062,9.5335,9.5335,0,0,0-2.8946,1.32,7.6879,7.6879,0,0,0-2.2949,2.4433l-3.21-1.4082a11.5531,11.5531,0,0,0,1.0351-2.625,30.2639,30.2639,0,0,0,.7051-3.2851q.27-1.7111.39-3.24a15.504,15.504,0,0,0,.03-2.5215l3.75.4512a22.9294,22.9294,0,0,1-.24,3.4649,26.9016,26.9016,0,0,1-.84,3.9453,13.8307,13.8307,0,0,1,3.33-1.6211,10.5509,10.5509,0,0,1,3.2695-.5684,9.6177,9.6177,0,0,1,4.0655.7949A6.4435,6.4435,0,0,1,1429.29,15.82a5.5,5.5,0,0,1,.96,3.1953,6.8379,6.8379,0,0,1-1.3047,4.0938,8.7834,8.7834,0,0,1-3.99,2.8964A20.5912,20.5912,0,0,1,1418.1006,27.2344ZM1423.08,8.0058a14.4877,14.4877,0,0,0-1.7852-1.2011q-1.0341-.6006-2.1748-1.1407t-2.2353-.9433a11.5671,11.5671,0,0,0-1.9346-.5567l1.8-3.1191a17.18,17.18,0,0,1,1.86.6445q1.08.4365,2.2646.9756t2.25,1.0791a19.5971,19.5971,0,0,1,1.7549.99Z" fill="#fff"/><path d="M1978,28a14,14,0,1,1,14-14.006A14,14,0,0,1,1978,28Zm-2.232-21.034a1.453,1.453,0,0,0-1.028,2.48l4.692,4.695-4.692,4.695a1.4538,1.4538,0,1,0,2.054,2.058h0l5.722-5.721a1.4541,1.4541,0,0,0,0-2.055l-5.722-5.724A1.44,1.44,0,0,0,1975.768,6.966ZM1556.39,25.8847V3.2656h23.22V25.8847Zm3.78-12.9h6V6.625h-6Zm0,9.541h6V16.1347h-6Zm9.66-9.541h6V6.625h-6Zm0,9.541h6V16.1347h-6Zm27.24,5.3691v-9.66h-10.89V6.2949h10.89V.5644h3.69V6.2949h10.89v11.94h-10.89v9.66Zm-7.11-13.1387h7.11v-5.16h-7.11Zm10.8008,0h7.17v-5.16h-7.17Zm17.459,12.8985a5.2831,5.2831,0,0,0-.915-.5684q-.5846-.3018-1.1846-.5566a5.7111,5.7111,0,0,0-1.02-.3438,19.662,19.662,0,0,0,2.2656-5.73,34.6705,34.6705,0,0,0,.7949-7.9493V1.2549h23.4893v7.081h-20.01v1.5H1642.91v2.6387h-5.37q1.14,1.02,2.3994,2.2363,1.2612,1.2129,2.19,2.2031a10.4234,10.4234,0,0,0-1.3349,1.0508,12.6682,12.6682,0,0,0-1.2149,1.23q-.3-.4189-.705-.93t-.8848-1.0215q-.9009.0909-2.1006.1817-1.2.0879-2.58.18v2.1h6.48v2.73h-6.48v2.0391h9.54v2.76h-21.84v-2.76h8.73V22.4355h-6.6309v-2.73h6.6309V17.8144q-2.0713.12-3.9453.1953t-3.0449.0762l-.3907-2.791c.46,0,1.0059-.0039,1.6358-.0156.63-.01,1.3047-.0235,2.0244-.0449q.42-.6885.8252-1.44t.7051-1.32h-5.91v.0312a37.6982,37.6982,0,0,1-.8994,8.7286A22.41,22.41,0,0,1,1618.22,27.6543Zm3.42-21.959h16.53V3.8945h-16.53Zm8.01,9.42q1.5908-.0615,3.165-.1211,1.5762-.0585,2.8653-.1191a10.8021,10.8021,0,0,0-.87-.7793q-.45-.36-.87-.6914l1.2-.93H1631.24q-.36.6621-.78,1.35Q1630.0395,14.5156,1629.6493,15.1152Zm21.15,12.7207V17.125q-.4791.63-.96,1.17c-.3193.3594-.63.7109-.93,1.0508-.2207-.2207-.5049-.4746-.8545-.7656q-.5259-.4337-1.0351-.8243a5.7191,5.7191,0,0,0-.87-.57,15.5016,15.5016,0,0,0,2.01-2.2051,32.7244,32.7244,0,0,0,2.01-2.9414q.9594-1.5732,1.665-3.0293a14.8247,14.8247,0,0,0,.9756-2.4453l3.33,1.08q-.36,1.02-.8555,2.0859-.4952,1.0635-1.0654,2.1153v15.99ZM1647.56,8.5449v-5.49h11.13V.4746h3.8994v2.58h11.19v5.16h-3.48v-2.25H1651.1v2.58Zm9.63,19.08v-13.74h4.5293q.2109-.51.4053-1.0957.1947-.5829.3447-1.0644H1655.81v-2.91H1673.72v2.91h-7.35q-.1509.48-.36,1.0644-.2094.5861-.39,1.0957h6.57v13.74Zm3.66-8.25h7.83v-2.49h-7.83Zm0,5.43h7.83v-2.58h-7.83Zm22.4395-10.68a15.35,15.35,0,0,0-1.5156-1.1406q-.9756-.6593-2.0244-1.26a17.8982,17.8982,0,0,0-1.83-.93l1.83-3.0293q.8686.4189,1.9043.9746,1.0356.5538,2.0107,1.1406a13.6446,13.6446,0,0,1,1.6348,1.125q-.2711.3282-.66.9141t-.7646,1.1855Q1683.4984,13.706,1683.29,14.125Zm-1.65,13.5605-3.21-2.1914a20.7112,20.7112,0,0,0,1.41-2.1289q.7192-1.23,1.41-2.5957.6884-1.3651,1.2441-2.6543a20.793,20.793,0,0,0,.8555-2.3105q.57.48,1.4853,1.1406a15.667,15.667,0,0,0,1.5147.99q-.3311,1.0488-.8848,2.3535-.5552,1.3066-1.2148,2.6719t-1.335,2.5938Q1682.24,26.7852,1681.64,27.6855Zm3.4795-20.3711a17.5079,17.5079,0,0,0-1.5293-1.17q-.99-.6885-2.0557-1.32a12.875,12.875,0,0,0-1.8447-.93l1.86-2.97a18.776,18.776,0,0,1,1.92.9453q1.1088.6153,2.13,1.2744a13.2922,13.2922,0,0,1,1.56,1.1406,10.3579,10.3579,0,0,0-.6591.8692c-.28.4-.5508.8066-.8106,1.2148C1685.43,6.7793,1685.2391,7.0957,1685.119,7.3144Zm2.4,19.5606V5.3359h4.86q.2388-.7207.4952-1.6211c.1689-.6.33-1.18.4795-1.74.15-.5586.2548-1.0195.3154-1.3789l4.1094.3291q-.21.93-.6,2.1748t-.75,2.2363h7.14V26.875Zm3.84-12.57h8.37V8.6054h-8.37Zm0,9.3007h8.37v-6h-8.37Zm20.1006,4.379a11.2255,11.2255,0,0,0-.51-1.6192,8.34,8.34,0,0,0-.75-1.5293,12.6879,12.6879,0,0,0,5.8193-1.74,8.2181,8.2181,0,0,0,3.0908-4.0215h-4.0508V17.7558a28.3568,28.3568,0,0,1-5.1591,3.1485,9.7276,9.7276,0,0,0-.54-.84c-.24-.34-.4951-.6836-.7656-1.0351a3.9813,3.9813,0,0,0-.8252-.8242,22.5631,22.5631,0,0,0,3.87-1.9805,19.4344,19.4344,0,0,0,3.03-2.4h-5.55V10.6758h8.07q.2388-.422.4941-.8555c.17-.2891.3252-.5859.4659-.8848H1711.22v-3.15h3.7207q-.5112-.8994-1.2607-1.9961a14.51,14.51,0,0,0-1.4395-1.8144l3.0293-1.47q.51.57,1.11,1.35t1.14,1.59a13.7945,13.7945,0,0,1,.87,1.4687q-.8994.36-1.89.8711h2.82a21.9723,21.9723,0,0,0,.6142-2.7q.2256-1.3784.3457-2.76l3.54.42q-.18,1.32-.4356,2.58-.2549,1.2582-.5849,2.46h5.25l-2.37-.8105q.57-.958,1.17-2.1748.6006-1.2144,1.02-2.3252l3.48,1.26q-.63,1.0517-1.2744,2.1308-.6461,1.081-1.2149,1.92h5.01v3.15h-7.08a21.2752,21.2752,0,0,0,1.2295,1.74h7.8008v3.1484h-4.74a25.2457,25.2457,0,0,0,2.9551,2.1016,17.6269,17.6269,0,0,0,3.2549,1.5586,9.4681,9.4681,0,0,0-1.0654,1.2753,11.7289,11.7289,0,0,0-1.0342,1.6661,24.2209,24.2209,0,0,1-2.37-1.23,23.8282,23.8282,0,0,1-2.28-1.5313q-.12,1.8927-.36,3.7207-.24,1.8311-.4795,3a3.8539,3.8539,0,0,1-1.62,2.6543,6.3833,6.3833,0,0,1-3.39.7657h-1.62a10.1381,10.1381,0,0,0-.15-1.1407q-.12-.6591-.2695-1.3046a5.6022,5.6022,0,0,0-.33-1.0352h2.04a2.2865,2.2865,0,0,0,1.335-.33,1.9521,1.9521,0,0,0,.6748-1.17,11.3105,11.3105,0,0,0,.24-1.1094q.1186-.6885.21-1.4258a10.4234,10.4234,0,0,0,.09-1.2148h-4.08a11.9062,11.9062,0,0,1-3.99,6.2852A14.772,14.772,0,0,1,1711.46,27.9844Zm5.58-12h11.46q-.57-.51-1.0948-1.0489c-.3505-.3613-.6953-.73-1.0351-1.1113h-7.44A20.7031,20.7031,0,0,1,1717.04,15.9844Zm3.87-5.3086h3.18c-.16-.2813-.3144-.57-.4648-.8711-.15-.2989-.295-.59-.4346-.8692H1721.72c-.14.2989-.2744.5957-.4043.8848S1721.05,10.3945,1720.91,10.6758Zm30.66,14.3086a13.5333,13.5333,0,0,1-3.585-.4336,6.0259,6.0259,0,0,1-2.7-1.5606,8.3016,8.3016,0,0,1-1.8447-3.1953l3.18-1.74a3.87,3.87,0,0,0,1.59,2.3711,5.9715,5.9715,0,0,0,3.36.8086q1.9189,0,3.96-.18t3.84-.51a19.223,19.223,0,0,0,2.9707-.75q0,.48.0742,1.26.0747.7823.21,1.5312c.0908.5.1748.8887.2558,1.17a18.9719,18.9719,0,0,1-3.06.6582q-1.86.2725-4.0049.4219Q1753.6693,24.9853,1751.57,24.9844Zm-4.71-17.6387-.03-3.6309a12.175,12.175,0,0,0,2.1758.42q1.3038.15,2.8194.18,1.5146.0322,3.0449-.0449,1.5308-.0732,2.82-.24a12.1672,12.1672,0,0,0,2.13-.4336v3.66a11.1906,11.1906,0,0,1-2.04.3887q-1.29.1524-2.82.2246-1.5293.0762-3.09.0449-1.56-.0292-2.88-.18A12.8355,12.8355,0,0,1,1746.86,7.3457Zm16.98.66a13.2682,13.2682,0,0,0-1.53-1.98,23.176,23.176,0,0,0-1.71-1.711l1.62-1.3193a11.01,11.01,0,0,1,1.0947,1.05q.6445.6913,1.2754,1.3945a10.5121,10.5121,0,0,1,.96,1.2149Zm2.67-2.2812a12.82,12.82,0,0,0-1.53-1.9649,17.29,17.29,0,0,0-1.74-1.664l1.65-1.3506a11.888,11.888,0,0,1,1.0947,1.0342q.6445.6766,1.2754,1.3808a10.5146,10.5146,0,0,1,.96,1.2149Zm6.1787,22.1406q-.5391-.3018-1.3945-.7051a8.6716,8.6716,0,0,0-1.4248-.5547,11.6643,11.6643,0,0,0,1.14-1.7109q.57-1.02,1.05-2.1a14.27,14.27,0,0,0,.7207-1.9492l2.7891.93a20.226,20.226,0,0,1-.7344,2.0547,23.14,23.14,0,0,1-1.0351,2.1757Q1773.23,27.0548,1772.6893,27.8652Zm-1.14-7.1094V1.5849h8.31V20.7558Zm2.82-13.65h2.64V4.4648h-2.64Zm0,5.3086h2.64v-2.67h-2.64Zm0,5.4317h2.64v-2.791h-2.64Zm4.77,9.7793A16.2392,16.2392,0,0,1,1778.03,25.9q-.5712-1.005-1.0654-2.1t-.8252-2.0254l2.67-.961a13.78,13.78,0,0,0,1.23,2.76,17.7356,17.7356,0,0,0,1.62,2.4q-.5712.3311-1.29.8262C1779.89,27.1308,1779.4794,27.4043,1779.14,27.625Zm11.61.24q-.06-.63-.1953-1.5293a5.2024,5.2024,0,0,0-.375-1.41h1.8a1.2043,1.2043,0,0,0,.7207-.1368q.1494-.1347.1494-.6738V22.8847H1785.2v4.92h-3.12v-4.92h-1.77v-2.4h1.77V13.3457h5.43V12.2051h-6.93V9.7441h4.05V8.4258h-2.73v-2.25h2.73V4.9746h-3.8105V2.665h3.8105V.5049h3.03v2.16h2.6992V.5049h3.03v2.16h4.05v2.31h-4.05V6.1758h3.12v2.25h-3.12V9.7441h4.38v2.461H1790.54v1.1406h5.43v7.1387h2.16v2.4h-2.16v2.19a2.6737,2.6737,0,0,1-.7647,2.1309,3.7091,3.7091,0,0,1-2.4453.66Zm-5.55-10.9805h2.31v-1.32h-2.31Zm0,3.6h2.31v-1.41h-2.31Zm2.46-14.3086h2.6992V4.9746H1787.66Zm0,3.5683h2.6992V8.4258H1787.66Zm2.88,7.1406h2.31v-1.32h-2.31Zm0,3.6h2.31v-1.41h-2.31Zm12.6006,7.5a10.1491,10.1491,0,0,0-1.0352-1.6192,8.69,8.69,0,0,0-1.3349-1.41,21.0918,21.0918,0,0,0,6.165-4.1993,19.4245,19.4245,0,0,0,3.8994-5.58,22.4513,22.4513,0,0,0,1.875-6.5411l2.13.3594q-.12-1.02-.1943-2.0683a21.5942,21.5942,0,0,1-.045-2.16h-6.96V1.4043H1818.29a34.894,34.894,0,0,0,.51,9.6308,19.1141,19.1141,0,0,0,3.5254,7.8008,23.3382,23.3382,0,0,0,7.3652,6.09,10.2832,10.2832,0,0,0-1.44,1.41,18,18,0,0,0-1.29,1.6485,29.154,29.154,0,0,1-6.99-6.33,23.9727,23.9727,0,0,1-4.38-8.91,23.4607,23.4607,0,0,1-2.625,6.166,24.1736,24.1736,0,0,1-9.8242,9.0743Zm32.1894-1.44a27.5241,27.5241,0,0,1-.33-3.0156q-.12-1.8428-.1651-4.1094-.0453-2.2647-.0156-4.68t.15-4.7246q.1187-2.3115.3144-4.26a31.3009,31.3009,0,0,1,.4659-3.24l3.42.81a16.8108,16.8108,0,0,0-.5557,2.8193q-.2241,1.7726-.3447,3.9453-.12,2.1768-.15,4.4844-.0292,2.3115.0459,4.4863.0732,2.1738.2393,3.9746a25.2375,25.2375,0,0,0,.4052,2.91Zm11.13-.3594a5.894,5.894,0,0,1-3.75-1.3808,3.9211,3.9211,0,0,1-1.38-3.1192,3.653,3.653,0,0,1,.75-2.1152,4.9625,4.9625,0,0,1,2.0391-1.5606,7.7306,7.7306,0,0,1,3.1509-.5839,16.8,16.8,0,0,1,1.8.09q-.0293-1.3214-.09-3-.06-1.6816-.12-3.66-1.86.12-3.6.1348t-2.97-.0449l-.24-3.66a20.11,20.11,0,0,0,2.9248.1953q1.8156.0147,3.8257-.0761-.0309-1.1983-.045-2.4434-.0161-1.2451-.0156-2.5361h3.5108q-.0309,1.1411-.045,2.3408-.016,1.1982-.0156,2.43,1.8-.1494,3.27-.3457a13.3448,13.3448,0,0,0,2.22-.4356v3.6016a22.76,22.76,0,0,1-2.28.33q-1.44.1494-3.12.2988.06,2.1913.15,4.1856t.15,3.4941a18.39,18.39,0,0,1,3.2393,1.5312,32.915,32.915,0,0,1,3.0605,2.07,5.3218,5.3218,0,0,0-.7656.8242,12.3977,12.3977,0,0,0-.7949,1.1406,9.8036,9.8036,0,0,0-.54.9746,19.6728,19.6728,0,0,0-4.14-2.9394,4.1338,4.1338,0,0,1-1.8154,3.375A7.535,7.535,0,0,1,1846.46,26.1855Zm.27-3.0605a2.9,2.9,0,0,0,1.8448-.4942,2.1856,2.1856,0,0,0,.6152-1.7851v-.211a12.0576,12.0576,0,0,0-2.13-.2988,3.355,3.355,0,0,0-1.7856.3594,1.229,1.229,0,0,0-.7051,1.02,1.105,1.105,0,0,0,.57,1.02A2.8644,2.8644,0,0,0,1846.73,23.125Zm28.44,1.8594a13.5333,13.5333,0,0,1-3.585-.4336,5.9655,5.9655,0,0,1-2.7-1.5762,8.4567,8.4567,0,0,1-1.8447-3.18l3.18-1.74a3.87,3.87,0,0,0,1.59,2.3711,5.9715,5.9715,0,0,0,3.36.8086q1.9189,0,3.96-.18t3.84-.51a19.223,19.223,0,0,0,2.9707-.75q0,.48.0742,1.26.0747.7823.21,1.5312c.0908.5.1748.8887.2558,1.17a18.9719,18.9719,0,0,1-3.0605.6582q-1.86.2725-4.0049.4219Q1877.2694,24.9853,1875.17,24.9844Zm-4.71-17.6387-.03-3.6309a12.175,12.175,0,0,0,2.1758.42q1.3038.15,2.8194.18,1.5146.0322,3.0449-.0449,1.5308-.0732,2.82-.24a12.1672,12.1672,0,0,0,2.13-.4336v3.66a11.1906,11.1906,0,0,1-2.04.3887q-1.29.1524-2.82.2246-1.5292.0762-3.09.0449-1.56-.0292-2.88-.18A12.8355,12.8355,0,0,1,1870.46,7.3457Zm34.65,20.039a7.5008,7.5008,0,0,0-.3447-1.2148,14.0333,14.0333,0,0,0-.585-1.3809,5.1918,5.1918,0,0,0-.69-1.0937,17.9824,17.9824,0,0,0,7.8906-.7656q2.88-1.1544,2.88-3.6153a2.45,2.45,0,0,0-1.0957-2.1,4.6691,4.6691,0,0,0-2.7744-.7793,11.4694,11.4694,0,0,0-3.96.7344,9.31,9.31,0,0,0-3.63,2.4746c-.08.1016-.165.2051-.2558.3164-.09.1094-.1846.2149-.2842.3145l-2.91-2.07a11.61,11.61,0,0,0,2.46-3.8106,27.9077,27.9077,0,0,0,1.59-5.0391q-4.17.15-7.11,0l-.2393-3.541a30.7787,30.7787,0,0,0,3.42.2246q2.0991.0469,4.5293-.0449a31.6742,31.6742,0,0,0,.2705-5.1592h3.78a39.3079,39.3079,0,0,1-.36,4.98q2.0991-.1494,4.05-.3593t3.54-.4649a20.3941,20.3941,0,0,0,2.58-.5547l-.24,3.5391a45.3911,45.3911,0,0,1-4.59.7051q-2.82.3163-5.91.4961-.3,1.38-.6748,2.76a25.3006,25.3006,0,0,1-.8848,2.67,14.43,14.43,0,0,1,2.5947-1.0664,9.02,9.02,0,0,1,2.5352-.375,8.8468,8.8468,0,0,1,3.7949.7207,6.195,6.195,0,0,1,2.625,2.1446,5.7611,5.7611,0,0,1,.96,3.3457,6.8141,6.8141,0,0,1-3.33,6.09Q1911.4111,27.5947,1905.1107,27.3847Zm31.38-.15a8.0287,8.0287,0,0,0-.3457-1.1387,12.0176,12.0176,0,0,0-.6143-1.3809,5.0539,5.0539,0,0,0-.7207-1.08,15.9938,15.9938,0,0,0,7.335-1.1406,3.9016,3.9016,0,0,0,2.5351-3.5683,2.4151,2.4151,0,0,0-1.08-2.1016,4.86,4.86,0,0,0-2.8194-.75,11.31,11.31,0,0,0-2.8808.4062,9.5335,9.5335,0,0,0-2.8946,1.32,7.6879,7.6879,0,0,0-2.2949,2.4433l-3.21-1.4082a11.5531,11.5531,0,0,0,1.0351-2.625,30.2639,30.2639,0,0,0,.7051-3.2851q.27-1.7111.39-3.24a15.504,15.504,0,0,0,.03-2.5215l3.75.4512a22.9294,22.9294,0,0,1-.24,3.4649,26.9016,26.9016,0,0,1-.84,3.9453,13.8307,13.8307,0,0,1,3.33-1.6211,10.5509,10.5509,0,0,1,3.27-.5684,9.6177,9.6177,0,0,1,4.0655.7949A6.4435,6.4435,0,0,1,1947.68,15.82a5.5,5.5,0,0,1,.96,3.1953,6.8379,6.8379,0,0,1-1.3047,4.0938,8.7834,8.7834,0,0,1-3.99,2.8964A20.5912,20.5912,0,0,1,1936.4906,27.2344ZM1941.47,8.0058a14.4877,14.4877,0,0,0-1.7852-1.2011q-1.0341-.6006-2.1748-1.1407t-2.2353-.9433a11.5671,11.5671,0,0,0-1.9346-.5567l1.8-3.1191a17.18,17.18,0,0,1,1.86.6445q1.08.4365,2.2646.9756t2.25,1.0791a19.5971,19.5971,0,0,1,1.7549.99Z" fill="#fff"/></svg>
