<svg xmlns="http://www.w3.org/2000/svg" viewBox="0 0 22 22"><path d="M10.1284,8.0566c.1518.3026.3007.6063.4259.9207a9.159,9.159,0,0,1-.2347,6.6315c-.0315.0808-.0561.19.0138.2415s.1489.0059.213-.0365a4.5456,4.5456,0,0,0,1.4787-1.7231A7.1876,7.1876,0,0,0,12.167,7.545a11.6954,11.6954,0,0,1-1.1938-2.3659,6.7675,6.7675,0,0,1,.6477-3.8525c.0473-.1282.03-.3451-.1065-.3253a.1971.1971,0,0,0-.0838.0423,5.6818,5.6818,0,0,0-1.89,2.4547A4.2513,4.2513,0,0,0,9.5468,6.85c.1725.413.3805.8093.5816,1.2086"/><path d="M13.7147,6.9486c.0119.0364.0237.0729.0365.1094.2189.6358.54,1.2322.7817,1.8592a7.3932,7.3932,0,0,1,0,5.3844.2567.2567,0,0,0-.0207.21c.0641.12.2494.0572.3589-.0256a5.05,5.05,0,0,0,1.8572-2.9988A5.9455,5.9455,0,0,0,16.334,7.961,10.71,10.71,0,0,1,15.21,5.24a6.5927,6.5927,0,0,1,.4475-2.67c.0257-.0857.04-.1971-.0384-.2444-.06-.0345-.1351,0-.1972.0394a4.0261,4.0261,0,0,0-1.71,4.583"/><path d="M20.4172,11.982a4.9884,4.9884,0,0,0-1.4649-1.5063.1387.1387,0,0,0-.1755.212,3.9814,3.9814,0,0,1,1.0351,3.3211,4.681,4.681,0,0,1-.7167,1.5625,7.5044,7.5044,0,0,1-.5392.6733,6.0259,6.0259,0,0,1-.6418.5688A8.28,8.28,0,0,1,14.7,18.2162a16.6805,16.6805,0,0,1-3.49.37h-.1971C8.8439,18.5524,6.1,18.32,4.1121,16.8174a5.9783,5.9783,0,0,1-.6418-.5659,7.2545,7.2545,0,0,1-.5412-.6762,4.6891,4.6891,0,0,1-.7147-1.5507A3.9913,3.9913,0,0,1,3.24,10.69a.1391.1391,0,0,0-.0986-.2347.1289.1289,0,0,0-.0769.0237A4.9754,4.9754,0,0,0,1.5953,11.982,3.7177,3.7177,0,0,0,1.0039,14.17a6.1037,6.1037,0,0,0,1.95,3.9679,9.1736,9.1736,0,0,0,3.8535,2.08,16.3641,16.3641,0,0,0,4.14.5333h.0513a17.3615,17.3615,0,0,0,4.1975-.5353,9.1312,9.1312,0,0,0,3.8535-2.081,6.0979,6.0979,0,0,0,1.9459-3.9708,3.7006,3.7006,0,0,0-.5865-2.1816"/><path d="M5.23,7.2394q.0472.1557.1035.3105c.2543.696.6,1.3565.8379,2.0583A7.2072,7.2072,0,0,1,6.04,14.552c-.0355.0907-.07.2041-.0049.276.0828.0907.2326.0237.3312-.05A5.0641,5.0641,0,0,0,8.2179,11.82,5.8745,5.8745,0,0,0,7.8621,8.33,10.2394,10.2394,0,0,1,6.686,5.3575a7.5151,7.5151,0,0,1,.4722-2.5059c.0227-.0818.0335-.1912-.0414-.2327a.1883.1883,0,0,0-.1893.0385A4.2054,4.2054,0,0,0,5.299,4.6132,3.8158,3.8158,0,0,0,5.23,7.2394"/></svg>