<svg xmlns="http://www.w3.org/2000/svg" viewBox="0 0 61 50"><path d="M58.0991,11.3033C52.7518,3.0841,42.3639.8939,34.7744.268,23.2494-.6821,13.01.6284,5.22,8.549-3.3091,17.2224-2.5274,36.7744,16.1751,42.02c9.0824,2.5476,17.7305.2528,21.5858,2.8046,3.9174,2.5932,5.4858,4.309,10.1612,5.1759l.002-.001c-4.2344-3.82-3.2581-7.1188,0-8.3452C62.9139,36.0141,63.0215,18.86,58.0991,11.3033Z" fill="#fff" fill-rule="evenodd"/><path d="M31.6716,26.23c.5622,0,.6517-.148.6517-.8593a5.33,5.33,0,0,1,2.3957-4.2047c2.0166-1.6291,3.4381-2.9643,3.4381-5.5081,0-2.8131-2.5171-5.1523-6.7517-5.1523a9.53,9.53,0,0,0-7.2276,3.05c-.2363.2662-.3556.444-.3556.6218,0,.2076.1182.3855.3854.6517l1.1841,1.184c.2662.2662.444.4142.6218.4142s.3556-.1779.592-.4739a5.9843,5.9843,0,0,1,4.56-2.2509c2.2509,0,3.4647.9775,3.4647,2.4288a3.85,3.85,0,0,1-1.7451,2.7247c-1.9549,1.6291-3.7608,3.3465-3.7608,6.3662,0,.8295.0884,1.0073.6815,1.0073Zm-.6793,2.1018a2.2147,2.2147,0,0,0-2.2861,2.141,2.2545,2.2545,0,0,0,.0043.2281,1.9379,1.9379,0,0,0,1.9179,1.9577q.0627.0006.1254-.0028a2.1577,2.1577,0,0,0,2.28-2.2807,1.9751,1.9751,0,0,0-1.9047-2.0432Q31.0606,28.3292,30.9923,28.3315Z"/></svg>