<svg xmlns="http://www.w3.org/2000/svg" viewBox="0 0 668 685"><path d="M230.6909,421.5743a38.4155,38.4155,0,0,0-8.8313,6.1128c-13.051,11.9647-16.8577,30.9331-17.8586,38.8989a2.3689,2.3689,0,0,1,.392.022c.5439.022,1.0879.065,1.61.131.522.044,1.0219.087,1.5.152h.0431a32.3043,32.3043,0,0,1,3.9157.674c.283.065.5439.152.8.218.261.087.479.152.718.239a5.4222,5.4222,0,0,1,.6309.239c.022,0,.044.022.087.044a3.95,3.95,0,0,1,1.4358.979,1.621,1.621,0,0,1,.457.783,1.27,1.27,0,0,1,.065.4129,4.0165,4.0165,0,0,1-1.5879,2.6319,19.105,19.105,0,0,1-1.5879,1.284c-.3.218-.653.457-1.0219.7-9.6143,6.2218,5.8725,7.5268,21.9913,7.4178.109-.218.239-.435.37-.653,3.1108-5.4378,11.2891-14.1826,17.6407-16.5545,17.6846-6.5478,34.7164-27.0612,27.0379-39.0909a1.183,1.183,0,0,1,.392,0s60.0795-1.8269,95.4929.5v.022l2.9578.2c1.0439.065,2.0878.131,3.0887.2.7609.065,1.5229.109,2.2619.174.37.022.7609.065,1.1089.087,1.0219.087,2.0448.174,3.0238.261.6089.065,1.2.109,1.7618.174,3.6328.348,6.8515.783,9.5493,1.2619.9569.174,1.8489.348,2.6538.544.544.131,1.0659.261,1.5439.392a14.1106,14.1106,0,0,1,2.7.957,3.91,3.91,0,0,1,.674.37,3.1671,3.1671,0,0,1,.283.2,1.6177,1.6177,0,0,1,.8269,1.2619,1.106,1.106,0,0,1-.065.37,2.052,2.052,0,0,1-.2.37,2.1947,2.1947,0,0,1-.37.435,1.1464,1.1464,0,0,1-.239.218,5.1267,5.1267,0,0,1-.718.5219c-.152.087-.283.174-.4569.283a31.0543,31.0543,0,0,1-5.7856,2.371c-.718.239-1.4359.457-2.0879.7-1.2829.4349-2.4578.8479-3.5457,1.2619-.544.2-1.0659.413-1.5659.609a40.74,40.74,0,0,0-4.9156,2.2409c-.326.174-.631.348-.892.522a5.1271,5.1271,0,0,0-.7609.5,6.7819,6.7819,0,0,0-1.0879.87,2.98,2.98,0,0,0-.848,1.2.419.419,0,0,0-.065.218,1.1382,1.1382,0,0,0,.043.8,1.8346,1.8346,0,0,0,.544.783,2.1445,2.1445,0,0,0,.479.37,3.0068,3.0068,0,0,0,.5219.3c.109.065.239.131.392.218a24.15,24.15,0,0,0,5.5685,1.5659c.435.087.87.174,1.327.239.4569.087.9349.152,1.4139.218.9789.152,2,.283,3.0887.392.479.044.9569.109,1.4359.152.609.065,1.2179.131,1.8269.174.6089.065,1.24.1089,1.8928.1519.74.065,1.5.109,2.2619.174h.044c1.74.109,3.5677.218,5.4376.3,2.5228.109,5.1556.2,7.8524.261.892.044,1.7839.044,2.7.065.849.022,1.6749.043,2.5228.043h.348c1.4789.022,2.98.044,4.4807.044,1.218.022,2.4579.022,3.7.022h2.7l-10.3542-35.98-1.4359-4.96-2.5-8.7447v-.022l-1.2-4.09-.457-1.632a.308.308,0,0,1-.044-.131l-1.5229-5.2858-2.3278-8.0918c6.4385.37,12.7251.8,18.8986,1.305,4.4587.348,8.8533.718,13.182,1.153,1.7839.152,3.5458.326,5.2856.5l.718.065c1.8708.2,3.72.392,5.5685.587,18.9246,2.045,36.4563,4.6339,52.51,7.6568,130.2082,24.45,164.86,77.5278,85.8335,109.5488-59.7316,24.2113-72.9785,60.2783-45.6966,72.0679,103.6922,44.8117,7.0255,94.9093-90.01,106.8079-75.9373,9.3108-250.0622-7.5048-199.885-55.2094,68.9759-65.586-197.77-2.4579-247.9093-41.6988-65.1433-51.0045,151.1175-42.3887,59.78-101.059C-.6007,437.8238,112.0109,395.4921,239.74,385.4854c.5-.043,1-.087,1.4789-.109l-1.1529,4v.022l-9.2233,32.046-.022.065Z" fill="#fff"/><path d="M523.129,348.3046c-33.7816-30.8531-29.9909-55.3593-25.1912-86.3885,2.8057-18.1414,5.9866-38.7028,2.4536-63.9081-6.8642-49.0245-27.8777-89.6574-60.76-117.5036-30.2509-25.62-69.9369-39.3558-111.8056-38.8268C285.9466,41.14,246.2006,54.8832,215.946,80.5044c-32.8828,27.8462-53.8929,68.478-60.7606,117.5036-3.5327,25.2093-.352,45.7657,2.454,63.9081,4.7984,31.0292,8.5872,55.5364-25.1913,86.3885a2.72,2.72,0,0,0,1.1179,4.6309c18.6446,5.09,29.1919.779,34.3255-2.9149a133.1686,133.1686,0,0,0,8.7594,26.6342c9.79,21.2534,23.7772,32.6041,40.45,32.8281a2.5266,2.5266,0,0,0,2.075-.922,2.7155,2.7155,0,0,0,.655-2.1749c-4.1059-29.1729,2.0319-40.7992,6.638-47.5724,20.2018,16.4042,54.1941,24.7131,101.3346,24.7131l0,.0011c47.1268,0,81.1106-8.3042,101.3159-24.6989,4.6061,6.7765,10.7286,18.4079,6.6308,47.5551a2.7251,2.7251,0,0,0,2.6929,3.1l.0349-.001c16.6709-.229,30.655-11.5757,40.4462-32.8281a132.9135,132.9135,0,0,0,8.7591-26.6342c5.1388,3.6959,15.6859,8.0008,34.3275,2.9149a2.72,2.72,0,0,0,1.1181-4.6309ZM207.11,290.549c-.9992.0774-2.0008.125-3.0034.1361-7.0056,0-12.899-2.0669-17.5988-6.1348-7.3745-6.3518-9.9841-16.3155-9.9841-23.5153,0-8.4188,3.4587-16.0326,9.2661-20.3614,4.0019-2.9944,11.0065-5.8332,22.25-3.323C211.265,258.2212,208.4707,281.4814,207.11,290.549Zm262.2447-49.8784c5.8074,4.3289,9.2662,11.9426,9.2662,20.3614,0,7.2008-2.6317,17.1635-9.9841,23.5153-4.7216,4.068-10.6162,6.1348-17.5988,6.1348-.8469-.0042-1.693-.0382-2.5374-.0938-1.36-9.0583-4.17-32.4177-.9182-53.3387C458.5318,234.9319,465.42,237.7179,469.3547,240.6706ZM327.8024,378.0879c-52.801,0-88.3333-10.4357-105.6152-31.0181-16.0725-19.1464-12.0159-42.24-10.2819-52.0985.8359-4.77,7.6759-46.2207-2.3853-74.35a336.5067,336.5067,0,0,1,118.2882-21.3673h1.3749c8.2946.041,13.9721.18,21.9764.811l1.3361.107,11.5482-12.8146-.3372,14.02,16.2559-17.4464-3.0718,18.9554,2.7669.374c30.9486,4.1979,50.669,11.3447,66.4308,17.3525-10.0652,28.1182-3.2288,69.586-2.3907,74.3588,1.734,9.8607,5.7906,32.953-10.2822,52.0985C416.1358,367.6532,380.6036,378.0879,327.8024,378.0879Z"/><path d="M209.9835,289.7522l.065.481c-.044,0-.109.022-.152.022.022-.089.022-.174.044-.283.022-.065.022-.131.044-.22" fill="#bb8f75"/><path d="M266.7454,282.8028c-15.4619,0-23.7032-13.7106-23.7032-30.6311s6.8995-30.6261,23.7032-30.6261,23.7032,13.7106,23.7032,30.6261-8.2444,30.6311-23.7032,30.6311" fill="#fff"/><path d="M290.4537,252.1778a96.8568,96.8568,0,0,0-47.4155,0c0-16.8995,6.9-30.6312,23.7082-30.6312s23.7073,13.7287,23.7073,30.6312" fill="#d4d5d5"/><path d="M266.7455,283.8929c-14.8289,0-24.7911-12.7456-24.7911-31.716,0-19.86,9.2663-31.7181,24.7911-31.7181s24.7891,11.8577,24.7891,31.7181c0,18.97-9.9622,31.716-24.7891,31.716m0-61.2592c-20.4145,0-22.6153,20.6614-22.6153,29.5432,0,17.9465,8.8773,29.5411,22.6153,29.5411s22.6133-11.5947,22.6133-29.5411c0-8.8818-2.2-29.5432-22.6133-29.5432"/><path d="M266.7458,273.079c-10.55,0-16.1748-9.3577-16.1748-20.8994s4.7076-20.8994,16.1748-20.8994,16.1747,9.3578,16.1747,20.8994-5.6245,20.8994-16.1747,20.8994" fill="#302d2c"/><path d="M282.9024,250.5677a98.48,98.48,0,0,0-16.5577-1.3469,96.9411,96.9411,0,0,0-15.7619,1.3469c.435-10.7807,5.2077-19.2994,16.1488-19.2994,10.9632,0,15.7379,8.5187,16.1708,19.2994"/><path d="M263.2328,237.32a6.3235,6.3235,0,1,1-6.3235-6.3239,6.3237,6.3237,0,0,1,6.3235,6.3239" fill="#fff"/><path d="M389.2357,282.8028c-15.4619,0-23.7032-13.7106-23.7032-30.6311s6.8995-30.6261,23.7032-30.6261,23.7032,13.7106,23.7032,30.6261-8.2414,30.6311-23.7032,30.6311" fill="#fff"/><path d="M412.944,252.1778a96.8568,96.8568,0,0,0-47.4155,0c0-16.8995,6.8995-30.6312,23.7072-30.6312s23.7072,13.7287,23.7072,30.6312" fill="#d4d5d5"/><path d="M389.2388,283.8929c-14.8309,0-24.7912-12.7456-24.7912-31.716,0-19.86,9.2643-31.7181,24.7912-31.7181s24.7891,11.8577,24.7891,31.7181c0,18.97-9.9643,31.716-24.7892,31.716m0-61.2592c-20.4145,0-22.6153,20.6614-22.6153,29.5432,0,17.9465,8.8773,29.5411,22.6153,29.5411s22.6133-11.5947,22.6133-29.5411c0-8.8818-2.2-29.5432-22.6133-29.5432"/><path d="M389.2361,273.079c-10.55,0-16.1748-9.3577-16.1748-20.8994s4.7076-20.8994,16.1748-20.8994,16.1747,9.3578,16.1747,20.8994-5.6255,20.8994-16.1747,20.8994" fill="#302d2c"/><path d="M405.3957,250.5677a98.4807,98.4807,0,0,0-16.5578-1.3469,96.94,96.94,0,0,0-15.7618,1.3469c.435-10.7807,5.2076-19.2994,16.1488-19.2994,10.9631,0,15.7378,8.5187,16.1708,19.2994"/><path d="M385.7261,237.32a6.3236,6.3236,0,1,1-6.3236-6.3239,6.3237,6.3237,0,0,1,6.3236,6.3239" fill="#fff"/><path d="M318.6174,296.616a3.7,3.7,0,1,1-3.7-3.7,3.7,3.7,0,0,1,3.7,3.7h0" fill="#fff"/><path d="M327.7908,310.1449c-9.9643,0-23.8292-7.0718-23.8292-14.0356,0-8.2377,14.9288-9.4667,23.8292-9.4667s23.8262,1.232,23.8262,9.4667c0,6.9628-13.865,14.0356-23.8292,14.0356m0-20.2394c-12.2991,0-20.5665,2.4929-20.5665,6.2,0,4.1549,11.23,10.7717,20.5665,10.7717s20.5664-6.6168,20.5664-10.7717c0-3.7109-8.2654-6.2-20.5664-6.2"/><path d="M306.4384,293.7156a1.088,1.088,0,0,1-.7349-1.888,28.0568,28.0568,0,0,0,6.1555-8.1707c2.2858-4.5839,2.4578-7.3,2.46-7.3328a1.0469,1.0469,0,0,1,1.0607-1.033c.0264,0,.0529.0017.0792.004a1.084,1.084,0,0,1,1.031,1.133c0,.126-.167,3.1519-2.6838,8.2a30.1458,30.1458,0,0,1-6.6325,8.8,1.0848,1.0848,0,0,1-.7349.287"/><path d="M349.1446,293.7146a1.0846,1.0846,0,0,1-.7349-.287,30.2213,30.2213,0,0,1-6.6325-8.8c-2.5149-5.0449-2.68-8.0708-2.6838-8.1948a1.0859,1.0859,0,0,1,1.0314-1.1379h.0015a1.0629,1.0629,0,0,1,1.1355.985l.0024.05a21.4753,21.4753,0,0,0,2.46,7.3288A28.0981,28.0981,0,0,0,349.88,291.83a1.088,1.088,0,0,1-.735,1.8879"/><polygon points="359.889 219.224 359.882 219.222 359.882 219.222 359.889 219.224"/><path d="M418.83,218.8488c-.0781-.193-8.2724-19.44-29.7608-19.44-20.8355,0-29.35,19.2424-29.4349,19.4364a.2761.2761,0,0,0,.1.333.2709.2709,0,0,0,.3382-.034c.1239-.121,12.2829-12.0537,28.9978-12.1207h.146c16.8256,0,29.0478,11.9987,29.1717,12.1207a.27.27,0,0,0,.3419.033A.265.265,0,0,0,418.83,218.8488Z"/><path d="M309.5893,280.95a1.6309,1.6309,0,0,1-1.3329-2.5689l9.73-13.8936a1.6319,1.6319,0,1,1,2.6869,1.8527l-.0141.02-9.7323,13.9a1.6279,1.6279,0,0,1-1.3379.694" fill="#f72f8d"/><path d="M322.9244,280.95a1.6309,1.6309,0,0,1-1.3329-2.5689l9.7292-13.8936a1.6323,1.6323,0,1,1,2.6738,1.8729h0l-9.7322,13.9a1.6279,1.6279,0,0,1-1.3379.694" fill="#f72f8d"/><path d="M336.2584,280.95a1.6309,1.6309,0,0,1-1.3329-2.5689l9.7293-13.8936a1.6323,1.6323,0,1,1,2.6738,1.8729h0l-9.7322,13.9a1.628,1.628,0,0,1-1.338.694" fill="#f72f8d"/><path d="M432.9016,465.7169a2.7159,2.7159,0,0,1-2.6838-2.315c-9.3993-62.8271-25.5061-93.2143-25.6671-93.5142a2.7189,2.7189,0,0,1,4.7837-2.584c.6789,1.249,16.6987,31.3921,26.261,95.2923a2.7169,2.7169,0,0,1-2.2807,3.0921l-.0051.0007a2.5782,2.5782,0,0,1-.407.0281"/><path d="M230.6915,424.2933a2.718,2.718,0,0,1-2.5868-3.5569c2.7928-11.5357,5.9335-22.3254,9.34-32.0771.017-.059.035-.12.057-.176,4.91-14.0546,8.59-20.9094,8.7424-21.1944a2.72,2.72,0,1,1,4.7856,2.5869c-.037.067-3.62,6.7648-8.3394,20.2455-.017.059-.035.12-.057.1779-3.38,9.6558-6.5,20.3714-9.2753,31.8491a2.9,2.9,0,0,1-.8379,1.438,2.7,2.7,0,0,1-1.8289.707"/><path d="M415.0935,223.8388a.274.274,0,0,0-.1719-.289.2769.2769,0,0,0-.32.1,18.9115,18.9115,0,0,1-4.3852,4.6011,18.3167,18.3167,0,0,0,3.0026-7.805.274.274,0,0,0-.172-.289.2778.2778,0,0,0-.32.1,18.0942,18.0942,0,0,1-4.8678,4.932,18.3113,18.3113,0,0,0,3.1693-8.0372.271.271,0,0,0-.492-.1889,16.3584,16.3584,0,0,1-5.65,5.3838,23.7348,23.7348,0,0,0-15.6458-5.5019c-20.3293,0-25.0061,20.1284-25.0539,20.3285a.2756.2756,0,0,0,.1718.3129.2962.2962,0,0,0,.094.0171v.0019a.28.28,0,0,0,.241-.139c.085-.156,8.8144-15.5445,24.6212-15.5445,15.3828,0,24.3842,15.1756,24.4711,15.3276a.273.273,0,0,0,.337.115.2682.2682,0,0,0,.163-.32,29.1953,29.1953,0,0,0-2.1653-5.35A18.3232,18.3232,0,0,0,415.0935,223.8388Z"/><path d="M296.3429,218.8458c-.085-.194-8.6014-19.4364-29.4308-19.4364-21.4894,0-29.6848,19.2464-29.7658,19.44a.2671.2671,0,0,0,.1.328.261.261,0,0,0,.152.046h.0011a.27.27,0,0,0,.1909-.078c.122-.121,12.3371-12.1207,29.1738-12.1207h.146c16.7137.0671,28.8688,12.0007,28.9908,12.1207a.272.272,0,0,0,.442-.3Z"/><path d="M266.744,216.8478a23.7375,23.7375,0,0,0-15.6362,5.4923,16.2983,16.2983,0,0,1-5.6557-5.3854.2759.2759,0,0,0-.32-.1.271.271,0,0,0-.172.287,18.2954,18.2954,0,0,0,3.1784,8.0475,18.0181,18.0181,0,0,1-4.88-4.9393.2782.2782,0,0,0-.32-.1.2711.2711,0,0,0-.172.2871,18.2992,18.2992,0,0,0,3.0138,7.82,18.8654,18.8654,0,0,1-4.3984-4.61.2628.2628,0,0,0-.32-.1.2667.2667,0,0,0-.172.2849,18.2843,18.2843,0,0,0,2.9751,7.7585,29.3577,29.3577,0,0,0-2.1695,5.3559.272.272,0,0,0,.5.2c.089-.153,9.09-15.3276,24.4752-15.3276,15.81,0,24.5321,15.3876,24.6191,15.5445a.2739.2739,0,0,0,.239.1391l-.0051.003a.3127.3127,0,0,0,.1-.017.2741.2741,0,0,0,.17-.3131C291.7481,236.9742,287.0734,216.8478,266.744,216.8478Z"/><path d="M228.1813,361.3037a26.4692,26.4692,0,1,1,26.468-26.4692,26.4685,26.4685,0,0,1-26.468,26.4692m0-49.6755a23.2063,23.2063,0,1,0,23.2052,23.2063,23.2058,23.2058,0,0,0-23.2052-23.2063" fill="#f72f8d"/><path d="M427.42,361.3037a26.4692,26.4692,0,1,1,26.468-26.4692h0a26.4986,26.4986,0,0,1-26.468,26.4692m0-49.6755a23.2063,23.2063,0,1,0,23.2052,23.2063h0A23.23,23.23,0,0,0,427.42,311.6282" fill="#f72f8d"/><path d="M179.897,431.6436a2.175,2.175,0,0,1-.117-4.3459c.163-.011,16.4778-.9,41.8509-1.7859h.2279a2.1755,2.1755,0,0,1,0,4.3509h-.152c-25.2521.8789-41.5268,1.7709-41.6878,1.7789a1.1284,1.1284,0,0,1-.122,0"/><path d="M278.949,428.3871a2.44,2.44,0,0,1-.255-.013,2.2,2.2,0,0,1-2.3726-2.0124q-.0063-.0771-.0072-.1545a2.1669,2.1669,0,0,1,1.9858-2.169,2.9964,2.9964,0,0,1,.592-.017c.13-.009.261-.011.392-.011a2.1755,2.1755,0,0,1,0,4.3509,2.0764,2.0764,0,0,1-.335.026m-.1-.033"/><path d="M431.8606,453.9339c-49.6323,0-50.4082-4.9209-50.83-7.5788-.5-3.1349,2.2538-6.2168,17.2887-11.0707a25.6061,25.6061,0,0,0,5.76-2.4c-1.8119-.881-7.73-2.6169-26.87-3.7939a2.1751,2.1751,0,0,1,.268-4.3419c28.3849,1.745,31.1187,4.7269,31.4836,7.6328.431,3.4109-4.2176,5.4-9.3053,7.0478-10.6132,3.4239-13.399,5.5-14.1169,6.2688,1.5158,1.081,9.2053,3.9309,48.2463,3.8869,21.3064-.065,41.6209-.992,41.8209-1a2.1469,2.1469,0,0,1,2.27,2.016l.0026.057a2.1748,2.1748,0,0,1-2.0722,2.2729h-.0006c-.2.009-20.6075.938-42.0079,1h-1.9358"/><path d="M377.3473,429.0976h-.15l-1.2809-.1c-.55-.041-1.1069-.085-1.6659-.122-34.9074-2.3-94.6929-.518-95.2878-.5h-.07a2.176,2.176,0,0,1-.063-4.3509c.6-.02,60.5865-1.8059,95.7008.5.574.035,1.151.081,1.7209.126l1.2419.091a2.175,2.175,0,0,1-.146,4.3439"/><path d="M302.56,406.7787,274.369,422.1172a27.95,27.95,0,0,0-10.1362-3.8069c-1.61-.3-3.35-.5659-5.2426-.74l38.13-20.7744a5.1425,5.1425,0,0,1,6.9385,2.0449l.5439,1a5.1609,5.1609,0,0,1-2.0448,6.9368" fill="#bdbebf"/><path d="M274.3693,423.8355a1.7188,1.7188,0,0,1-.953-.289,26.4315,26.4315,0,0,0-9.5143-3.5519c-1.7188-.322-3.3777-.559-5.0686-.714a1.717,1.717,0,0,1-.6629-3.2169L296.3,395.2893a6.7358,6.7358,0,0,1,5.1946-.544,6.8137,6.8137,0,0,1,4.0747,3.27l.546,1.0069a6.8711,6.8711,0,0,1-2.7278,9.2648h-.007l-28.1909,15.3385a1.6867,1.6867,0,0,1-.82.211m-9.9883-7.2438c.059.009.113.02.17.028a31.3376,31.3376,0,0,1,9.8793,3.5049l27.3059-14.8526a3.47,3.47,0,0,0,1.3559-4.6158l-.5389-1a3.4388,3.4388,0,0,0-4.6047-1.357ZM302.56,406.782"/><path d="M333.0918,404.5759c-14.15,7.7048-29.6307,6.5848-34.5773-2.5s2.5128-22.6994,16.6617-30.3991,29.6328-6.5849,34.5794,2.5-2.5148,22.6993-16.6648,30.3991" fill="#bdbebf"/><path d="M314.497,411.8173c-8.0243,0-14.7738-2.972-17.8936-8.7-5.5146-10.1257,2.3538-25.0883,17.5327-33.354s32.0166-6.7518,37.5292,3.3719c2.7608,5.0688,2.3428,11.39-1.1719,17.8055-3.3458,6.1-9.1553,11.6266-16.36,15.55a41.786,41.786,0,0,1-19.6355,5.3319m19.4425-43.13a37.9543,37.9543,0,0,0-17.7216,4.8919c-13.075,7.1178-20.1575,19.4364-15.7988,27.4522s18.5606,8.7467,31.6276,1.6339c6.4845-3.5309,11.6811-8.4377,14.6279-13.8176,2.7778-5.0728,3.2-9.9147,1.1679-13.6345-2.3538-4.32-7.5614-6.5259-13.906-6.5259m-.8479,35.888"/><path d="M310.7916,403.46a32.3028,32.3028,0,0,1-4.6527-.287,1.0871,1.0871,0,0,1,.355-2.145c1.1119.181,27.225,4.1529,37.6852-21.8183a1.0869,1.0869,0,1,1,2.0229.7958l-.0061.0151C337.8036,400.86,319.428,403.46,310.7926,403.46"/><path d="M327.8017,364.9087a14.67,14.67,0,0,1-14.655-14.6556V331.5006a14.6534,14.6534,0,1,1,29.3068,0v18.7535A14.6692,14.6692,0,0,1,327.8016,364.91m0-44.7987a11.4054,11.4054,0,0,0-11.3911,11.3916v18.7535a11.3907,11.3907,0,1,0,22.7813,0V331.5006a11.3994,11.3994,0,0,0-11.3892-11.3916"/><path d="M333.5026,371.6565a18.1806,18.1806,0,0,1-36.1973,2.4579,21.7739,21.7739,0,0,1,3.6108-.8,23.5979,23.5979,0,0,1,8.3313.283c1.37-6.7,8.0914-12.4206,16.8358-13.6606a18.998,18.998,0,0,1,2.9148-.218,18.0429,18.0429,0,0,1,4.5,11.9427" fill="#fff"/><path d="M315.3182,391.4751a19.857,19.857,0,0,1-19.6266-17.1415,1.6311,1.6311,0,0,1,1.118-1.771,23.6038,23.6038,0,0,1,3.8807-.8679,25.5591,25.5591,0,0,1,7.3674.022c2.1819-6.7849,9.2554-12.1887,17.7987-13.4a20.5365,20.5365,0,0,1,3.1428-.235,1.6281,1.6281,0,0,1,1.2249.5549,19.7895,19.7895,0,0,1-14.9059,32.8381m-16.1439-16.18a16.5468,16.5468,0,1,0,29.0789-13.93,16.7939,16.7939,0,0,0-1.9139.1849c-7.8674,1.112-14.2279,6.2-15.4918,12.3737a1.6279,1.6279,0,0,1-1.9187,1.2724l-.0212-.0045a22.0914,22.0914,0,0,0-7.7614-.2629c-.685.1-1.3439.2219-1.9709.3679" fill="#f72f8d"/><path d="M207.5471,466.883a32.6907,32.6907,0,0,1,3.9157.677,33.4677,33.4677,0,0,0-3.9157-.677" fill="#bb8f75"/><path d="M213.7029,468.2967a3.9481,3.9481,0,0,1,1.4359.9789,4.3686,4.3686,0,0,0-1.4359-.9789" fill="#bb8f75"/><path d="M233.4532,482.5025c.109-.215.239-.433.37-.653-.131.22-.239.437-.348.653Z" fill="#bb8f75"/><path d="M231.67,484.6834c-20.7234,0-24.3841-2.513-25.1981-5.24-.9309-3.1169,2.6368-5.4248,3.8107-6.1868.341-.222.659-.439.938-.64a16.8618,16.8618,0,0,0,1.4-1.1309,4.6,4.6,0,0,0,.764-.879,2.5813,2.5813,0,0,0-.57-.322l-.157-.074a6.8526,6.8526,0,0,0-.9329-.331l-.755-.207a30.066,30.066,0,0,0-3.5547-.616l-.207-.02c-.4419-.061-.9-.1-1.3809-.139-.5529-.065-1.0359-.107-1.5209-.126l-.2679-.024c-11.3442-.7-26.927.635-27.084.65a2.1762,2.1762,0,0,1-.378-4.3359h0c.65-.057,16.0578-1.3749,27.56-.655a4.4054,4.4054,0,0,1,.4419.022c.57.026,1.14.074,1.6879.141.45.035.9349.078,1.4119.139l.1279.011a34.0062,34.0062,0,0,1,4.1827.724c.163.037.35.089.535.144l.274.076a10.5646,10.5646,0,0,1,1.2439.411h.2l.4789.294a5.8368,5.8368,0,0,1,2.0929,1.516,3.5349,3.5349,0,0,1,.9,1.6789,2.9706,2.9706,0,0,1,.122.907c0,1.4-.7439,2.7759-2.2728,4.2159a21.17,21.17,0,0,1-1.8059,1.46c-.339.244-.7179.5-1.1179.764a9.0729,9.0729,0,0,0-1.7189,1.353c1.1939.6569,5.8125,2.1779,22.5183,2.06,8.8423-.065,17.6757-.544,22.1543-.822,3.1738-.194,5.16-.346,5.1687-.346a2.15,2.15,0,0,1,2.33,1.953l.0036.047a2.1738,2.1738,0,0,1-2,2.3339s-2.0138.154-5.2316.35c-4.52.281-13.4429.764-22.37.831q-.933.0071-1.8209.007m-18.08-13.8716"/><path d="M231.19,489.7266a2.6861,2.6861,0,0,1-1.1-.233,2.72,2.72,0,0,1-1.39-3.5849c.037-.08.892-2.0079,2.3619-4.7079.1-.2.2629-.481.4349-.764,3.1238-5.4648,11.7261-14.9665,19.0136-17.6875,11.6811-4.3268,22.9663-14.9775,26.259-24.7792,1.3379-3.9849,1.2-7.3768-.424-10.0807a2.0776,2.0776,0,0,1-.1809-.255,8.5019,8.5019,0,0,0-.74-1.02,12.167,12.167,0,0,0-2.5488-2.2219,25.4862,25.4862,0,0,0-9.1733-3.4149c-1.6769-.315-3.3067-.546-4.9636-.7a79.984,79.984,0,0,0-9.9863-.3q-1.5729.036-3.03.185c-.77.065-1.4709.141-2.1539.259a37.32,37.32,0,0,0-11.5241,3.4569l-.072.033a.5888.5888,0,0,1-.065.035,35.5929,35.5929,0,0,0-8.3683,5.7408c-12.4731,11.4057-15.8878,29.4062-16.78,36.615a2.7178,2.7178,0,1,1-5.3976-.6411l.003-.0249c.962-7.81,4.6947-27.3372,18.4987-39.9608a41.0943,41.0943,0,0,1,9.6422-6.6108c.041-.022.085-.041.124-.061h0a42.6273,42.6273,0,0,1,13.099-3.9529c.748-.133,1.6119-.231,2.4759-.3,1.0249-.109,2.1928-.181,3.4067-.207a84.55,84.55,0,0,1,10.6392.32c1.8079.168,3.6.42,5.4746.772a30.8481,30.8481,0,0,1,11.15,4.2228,17.8105,17.8105,0,0,1,3.6787,3.22,13.7291,13.7291,0,0,1,1.0619,1.425,2.87,2.87,0,0,1,.178.244c2.6408,4.1348,3.03,9.3077,1.133,14.9595-3.7628,11.2077-16.4538,23.3064-29.52,28.1422-5.3276,1.99-13.0991,9.8907-16.2248,15.3556-.13.215-.222.368-.3.518-1.4,2.5729-2.2,4.37-2.2058,4.39a2.7248,2.7248,0,0,1-2.4908,1.6179"/><path d="M415.8957,492.77c0,12.7886-38.1862,23.1563-85.2876,23.1563s-85.2876-10.3677-85.2876-23.1563,38.1841-23.1564,85.2876-23.1564,85.2876,10.3677,85.2876,23.1564" fill="#fff"/><path d="M330.6063,518.0983c-42.3968,0-87.4635-8.8757-87.4635-25.3272s45.0637-25.3333,87.4635-25.3333,87.4654,8.88,87.4654,25.3333-45.0636,25.3272-87.4654,25.3272m0-46.3106c-48.9813,0-83.1128,11.06-83.1128,20.9834s34.1314,20.9763,83.1128,20.9763,83.1147-11.0546,83.1147-20.9763-34.1334-20.9834-83.1147-20.9834" fill="#f72f8d"/><path d="M263.8517,498.9433s61.9954,22.9994,133.504,0" fill="#fff"/><path d="M331.1848,510.1831c-39.4871,0-67.295-10.0677-67.7079-10.22a1.0879,1.0879,0,1,1,.7388-2.0466l.0181.0067c.6159.228,62.4953,22.5994,132.79-.015a1.088,1.088,0,0,1,.666,2.0709,217.1373,217.1373,0,0,1-66.509,10.2" fill="#f72f8d"/><path d="M374.2141,493.0439a22.2085,22.2085,0,0,1-13.899-2.3709c-2.5668,5.2-8.44,9.3317-15.7268,10.3767-6.7865.957-13.116-.979-17.1187-4.7209a22.77,22.77,0,0,1-11.4421,5c-8.1574,1.153-15.6619-1.893-19.2506-7.2a23.9765,23.9765,0,0,1-5.2636,1.37c-10.5932,1.5-20.1425-4.09-21.3384-12.4866s6.4165-16.4455,17.01-17.9465c-1.0659-7.4178,4.7416-14.5526,13.378-17.1415a18.1787,18.1787,0,1,0,31.6976-14.4c9.1363-.239,16.8987,4.8079,18.3156,12.1387a22.34,22.34,0,0,1,5.4816-1.457c10.5713-1.5229,20.1205,4.0679,21.3394,12.4867a12.7655,12.7655,0,0,1-.6089,5.9388c7.5484,1.1529,13.5079,5.9608,14.4219,12.4646,1.2,8.4-6.4,16.4455-16.9887,17.9465" fill="#fff"/><path d="M312.5889,503.7548c-6.7145,0-12.845-2.5779-16.5877-7.0438a25.5457,25.5457,0,0,1-4.1847.948c-11.7641,1.6749-22.4283-4.7619-23.7982-14.3356a16.0148,16.0148,0,0,1,4.66-13.3586,23.7977,23.7977,0,0,1,12.205-6.6888c.024-7.6068,6.0406-14.7266,15.0529-17.4285a2.1771,2.1771,0,0,1,2.78,1.795,16.0038,16.0038,0,1,0,27.9029-12.6857,2.1759,2.1759,0,0,1,1.5768-3.6089c9.2493-.2,17.1737,4.4769,19.8275,11.5a24.9449,24.9449,0,0,1,3.7348-.8c11.7091-1.679,22.3983,4.74,23.7842,14.3286a14.5709,14.5709,0,0,1-.085,4.5788c7.5114,1.925,12.977,7.27,13.8989,13.8346a16.0257,16.0257,0,0,1-4.6416,13.3657,24.1453,24.1453,0,0,1-14.1889,7.0457,24.9453,24.9453,0,0,1-13.343-1.6749c-3.3348,5.0559-9.3773,8.6908-16.2838,9.68a23.5971,23.5971,0,0,1-17.48-4.0789,25.16,25.16,0,0,1-11.0761,4.3589,26.5332,26.5332,0,0,1-3.7527.268m-15.8129-11.7987a2.1741,2.1741,0,0,1,1.8.955c3.2107,4.7469,10.0992,7.2528,17.1476,6.2648a20.4622,20.4622,0,0,0,10.3393-4.5068,2.1726,2.1726,0,0,1,2.8907.07c3.6758,3.4369,9.4053,4.99,15.3309,4.1549,6.3345-.907,11.7291-4.4269,14.0779-9.1818a2.1729,2.1729,0,0,1,2.9081-.9927q.051.0251.1007.0527a20.0568,20.0568,0,0,0,12.536,2.119h0a19.7975,19.7975,0,0,0,11.6421-5.7279,11.769,11.769,0,0,0,3.5-9.7587c-.7459-5.3188-5.8076-9.5847-12.5991-10.6217a2.1767,2.1767,0,0,1-1.7268-2.8609,10.4891,10.4891,0,0,0,.5109-4.9248c-1.0439-7.2088-9.4993-12-18.8745-10.6347a20.0948,20.0948,0,0,0-4.9686,1.3179,2.1737,2.1737,0,0,1-2.9578-1.6c-.983-5.0929-5.7-8.9358-11.84-10.0547A20.3537,20.3537,0,1,1,298.9319,450.83c-6.45,2.7559-10.3992,8.3378-9.5993,13.9306a2.179,2.179,0,0,1-1.8489,2.465,19.8221,19.8221,0,0,0-11.6531,5.73,11.7478,11.7478,0,0,0-3.5087,9.7567c1.0249,7.2,9.4993,11.9747,18.8765,10.64a21.5877,21.5877,0,0,0,4.8-1.251,2.1857,2.1857,0,0,1,.7739-.141" fill="#f72f8d"/><path d="M457.0028,353.3935l-4.2377-9.8277L391.27,370.076l6.5145,15.1146,50.4912-21.7664L416.1929,406.5l54.4539,40.5648,40.002-53.7065Z" fill="#bdbebf"/><path d="M470.9866,449.35l-57.0758-42.5147,29.4238-39.4989-46.3965,19.9994-7.8044-18.11,64.4881-27.7992,4.7067,10.9227,54.6089,40.6758Zm-52.5081-43.18,51.84,38.6138L508.37,393.6941l-52.69-39.2488-3.7658-8.7338L393.4183,370.93l5.2226,12.1206,54.588-23.5323Z"/><path d="M419.1307,391.5881a3.6848,3.6848,0,1,1-5.1576.755,3.685,3.685,0,0,1,5.1576-.755" fill="#fff"/><path d="M402.93,392.0244a3.6848,3.6848,0,1,1-5.1576.755,3.6849,3.6849,0,0,1,5.1576-.755" fill="#fff"/><path d="M383.4294,398.3956a3.6848,3.6848,0,1,1-5.1576.755,3.685,3.685,0,0,1,5.1576-.755" fill="#fff"/><path d="M365.6345,411.9919a3.6848,3.6848,0,1,1-5.1576.755,3.685,3.685,0,0,1,5.1576-.755" fill="#fff"/><path d="M389.68,414.7975a3.6849,3.6849,0,1,1-5.1577.7549,3.685,3.685,0,0,1,5.1577-.7549" fill="#fff"/><path d="M379.4858,430.26a3.6848,3.6848,0,1,1-5.1576.755,3.6849,3.6849,0,0,1,5.1576-.755" fill="#fff"/><path d="M345.3609,417.1864a3.6848,3.6848,0,1,1-5.1576.755,3.685,3.685,0,0,1,5.1576-.755" fill="#fff"/><path d="M358.63,433.3375a3.6848,3.6848,0,1,1-5.1576.755,3.6849,3.6849,0,0,1,5.1576-.755" fill="#fff"/><path d="M404.0031,426.2792a3.6859,3.6859,0,1,1-5.1576.755,3.686,3.686,0,0,1,5.1576-.755" fill="#fff"/><path d="M397.7683,442.37a3.6848,3.6848,0,1,1-5.1576.755,3.6849,3.6849,0,0,1,5.1576-.755" fill="#fff"/><path d="M407.5241,407.1706a3.6848,3.6848,0,1,1-5.1576.755,3.6849,3.6849,0,0,1,5.1576-.755" fill="#fff"/><path d="M479.0246,395.8054a12.9326,12.9326,0,0,0-18.0977,2.6455c-.1541.2053-.2864.4252-.4275.6392a37.3062,37.3062,0,0,0-8.1854-22.1567l-.2258-.252-14.631,19.6434,4.1,3.05,10.0642-13.5086c1.01.868,5.4825,5.3989,7.8993,19.46l.278,1.64.2639-1.643a34.234,34.234,0,0,0,.4351-4.6021,12.3743,12.3743,0,0,1,18.648,15.057l-.509,1.107.945-.775a12.9339,12.9339,0,0,0-.5569-20.305Z"/><path d="M471.729,409.6213a5.4378,5.4378,0,1,0,5.4276,5.4478A5.4376,5.4376,0,0,0,471.729,409.6213Z" fill="#fff"/><path d="M335.081,436.8419a3.6858,3.6858,0,1,1-5.1576.757,3.686,3.686,0,0,1,5.1576-.757" fill="#fff"/><path d="M361.7324,476.694a3.6848,3.6848,0,1,1-5.1576.755,3.6849,3.6849,0,0,1,5.1576-.755" fill="#fff"/><path d="M381.2281,451.1016a3.6848,3.6848,0,1,1-5.1576.755,3.685,3.685,0,0,1,5.1576-.755" fill="#fff"/><path d="M388.06,470.0908a3.6848,3.6848,0,1,1-5.1576.755,3.685,3.685,0,0,1,5.1576-.755" fill="#fff"/><path d="M358.7068,454.1273a3.6848,3.6848,0,1,1-5.1576.755,3.6849,3.6849,0,0,1,5.1576-.755" fill="#fff"/><path d="M335.83,457.1451a3.6848,3.6848,0,1,1-5.1576.7549,3.6849,3.6849,0,0,1,5.1576-.7549" fill="#fff"/><path d="M427.4968,92.5452l-17.6088-14.22a.79.79,0,0,0-1.2528.383l-1.7729,5.8128-9.8273-6.5148a.8.8,0,0,0-.9248.037.787.787,0,0,0-.259.8879l1.5158,4.3-11.6159-6.8408a.8.8,0,0,0-.809,0,.7919.7919,0,0,0-.383.714l.3278,7.8358-14.5558-7.5488a.79.79,0,0,0-1.151.616l-.9,8.0207-13.9079-8.3527a.7721.7721,0,0,0-.666-.07.7844.7844,0,0,0-.4811.466l-3.7886,9.9147L338.8826,80.76a.7931.7931,0,0,0-1.0751.168l-8.4183,10.9137L319.0459,80.8975a.7916.7916,0,0,0-1.24.115l-6.6325,10.29-6.8264-10.3387a.7792.7792,0,0,0-.581-.352.8.8,0,0,0-.64.228l-9.1992,9.25-1.9691-8.0047a.79.79,0,0,0-.561-.574.8068.8068,0,0,0-.7739.211l-8.1593,8.4-2.5869-8.3118a.7916.7916,0,0,0-.5088-.5159.7738.7738,0,0,0-.716.115l-7.7394,5.7-.6789-7.0238a.7891.7891,0,0,0-.435-.6309.7769.7769,0,0,0-.7639.03L258.3105,85.99l.7329-5.5859a.8.8,0,0,0-.3308-.7509.7862.7862,0,0,0-.8181-.0541l-8.2223,4.2379-.6569-6.7278a.8.8,0,0,0-.4589-.644.8113.8113,0,0,0-.7851.072L228.1529,90.3442a.794.794,0,0,0-.2871.927.8259.8259,0,0,0,.8239.509l15.6219-1.632L234.3494,101.53a.7909.7909,0,0,0,.8789,1.26l20.4574-7.7858-2.1,12.1387a.7875.7875,0,0,0,.344.8.8.8,0,0,0,.87,0l14.8809-9.7347,5.6315,11.9a.7928.7928,0,0,0,.4611.413.8174.8174,0,0,0,.6159-.046l16.7856-8.5727,5.54,11.6936a.8.8,0,0,0,.5238.426.7579.7579,0,0,0,.6611-.131l12.7249-9.3737,11.1393,11.2877a.7874.7874,0,0,0,.5629.237v-.004h.044a.8.8,0,0,0,.579-.3l10.7893-13.74,12.5181,12.0406a.79.79,0,0,0,1.3138-.379l3.6-14.3135,17.3657,10.6366a.7919.7919,0,0,0,1.2-.6l1.3329-14.0436,18.3694,10.6416a.7919.7919,0,0,0,1.1879-.7349l-.8588-13.4,17.7826,7.96a.7908.7908,0,0,0,1.112-.7589l-.365-7.99,16.5667,2.8819a.7716.7716,0,0,0,.8549-.452A.7911.7911,0,0,0,427.4968,92.5452Z" fill="#fff"/><path d="M325.275,47.7436a12.2333,12.2333,0,0,0,2.3578,7.1068,29.8256,29.8256,0,0,0,5.5516,5.5668c2.8628,2.132,3.0278,2.369,3.0278,3.2a1.5719,1.5719,0,0,1-1.6819,1.779c-1.5139,0-3.7-1.305-5.5516-2.3709a32.8242,32.8242,0,0,1-8.2464-6.75c-4.0367-4.3829-5.0486-7.2268-5.0486-10.9,0-4.3829,2.1858-6.6348,7.7414-14.5706,5.2166-7.4638,6.8995-10.7787,6.8995-13.1476a12.7788,12.7788,0,0,0-2.3579-7.1068,26.0428,26.0428,0,0,0-5.5515-5.4488c-2.6928-2.252-3.03-2.489-3.03-3.2,0-.8309.337-1.9,1.6838-1.9,1.5119,0,3.7,1.3,5.5516,2.4889a55.5066,55.5066,0,0,1,8.2464,6.6328c4.2067,4.1459,5.0487,7.3438,5.0487,10.9,0,3.6719-1.6819,7.1068-7.7415,14.6876-3.2,3.9089-6.8994,10.7787-6.8994,13.0306" fill="#fff"/><path d="M369.9176,47.7436a12.2325,12.2325,0,0,0,2.3579,7.1068,29.8281,29.8281,0,0,0,5.5515,5.5668c2.8628,2.132,3.0278,2.369,3.0278,3.2a1.5719,1.5719,0,0,1-1.6829,1.777c-1.5139,0-3.7-1.305-5.5515-2.3709a32.8207,32.8207,0,0,1-8.2464-6.75c-4.0367-4.3829-5.0487-7.2268-5.0487-10.9,0-4.3829,2.1859-6.6348,7.7415-14.5706,5.2166-7.4638,6.8994-10.7787,6.8994-13.1476a12.7787,12.7787,0,0,0-2.3578-7.1068A26.0386,26.0386,0,0,0,367.0568,5.1c-2.6928-2.252-3.03-2.489-3.03-3.2,0-.8309.3369-1.9,1.6838-1.9,1.5119,0,3.7,1.3,5.5516,2.4889a55.4989,55.4989,0,0,1,8.2464,6.6328c4.2067,4.1459,5.0486,7.3438,5.0486,10.9,0,3.6719-1.6819,7.1068-7.7414,14.6876-3.2,3.9089-6.8995,10.7787-6.8995,13.0306" fill="#fff"/><path d="M280.6352,47.7436A12.2347,12.2347,0,0,0,282.993,54.85a29.8226,29.8226,0,0,0,5.5516,5.5668c2.8628,2.132,3.0278,2.369,3.0278,3.2a1.5718,1.5718,0,0,1-1.6819,1.779c-1.5139,0-3.7-1.305-5.5516-2.3709a32.822,32.822,0,0,1-8.2463-6.75c-4.0377-4.3829-5.0487-7.2268-5.0487-10.9,0-4.3829,2.1859-6.6348,7.7414-14.5706,5.2167-7.4638,6.8995-10.7787,6.8995-13.1476a12.7787,12.7787,0,0,0-2.3578-7.1068,26.0386,26.0386,0,0,0-5.5516-5.4488c-2.6928-2.252-3.03-2.489-3.03-3.2,0-.8309.337-1.9,1.6839-1.9,1.5119,0,3.7,1.3,5.5516,2.4889a55.5168,55.5168,0,0,1,8.2464,6.6328c4.2067,4.1459,5.0486,7.3438,5.0486,10.9,0,3.6719-1.6819,7.1068-7.7414,14.6876-3.2,3.9089-6.8995,10.7787-6.8995,13.0306" fill="#fff"/></svg>