<svg xmlns="http://www.w3.org/2000/svg" viewBox="0 0 275 175"><path d="M35.6326,104.1469c-1.6051-7.4818-.8673-15.1627.8533-22.6157A82.9392,82.9392,0,0,1,43.49,62.4169c1.4942-2.9156,3.1761-5.7109,4.66-8.6268.1822-.4783.5578-1.1315,1.1882-.986a27.2846,27.2846,0,0,1,4.0823,2.8689c.8114.6327,1.56,1.2458,1.9517,1.4861.5139.3434,1.6643,1.1263,1.5019,1.83-.0972.421-.41.4975-.7953.5554-1.7965.4063-2.3642.9361-3.7108,2.9191-3.755,5.3514-7.3235,14.0824-8.8008,20.4811-.26,1.1254-1.5916,7.8543-.2567,8.1625.4872.1125,1.0569-.72,2.1331-2.1759.5311-.6913,1.7683-2.8493,2.6121-2.6545.7727.1784,2.6955,2.1053,2.5013,2.9462-.2276.9861-5.458,7.9223-6.4,12.0039-.26,1.1254-.38,2.282-.64,3.4064-.63,2.7416-5.8154,2.4332-6.1691,2.3516C36.1566,106.7094,35.9006,105.2443,35.6326,104.1469Zm16.04-5.629c1.4622-6.3334,7.6-7.5787,13.0833-6.3127a18.3447,18.3447,0,0,1,2.6948.8459l.494.1141a1.3189,1.3189,0,0,0,1.7451-1.153c.4049-1.7539,1.5956-8.5205,1.9953-10.5763.0938-.7173.6882-2.6562-1.0706-3.0623-.5622-.13-5.6189-1.0006-8.4329-1.65l-.912-.21c-1.7539-.4049-4.6973-1.1563-5.2143-1.7929-.5384-.5708.3186-4.5941.53-5.5081s.4731-1.7381,1.53-1.494c.8438.1948,6.9376,2.3437,10.5934,3.1877l1.1274.26c1.6876.39,3.3353.6232,3.6927-.9251.341-1.4771,1.3533-8.4265,1.4775-10.2493.0492-.2134.0458-.51.0944-.72a.8829.8829,0,0,1,1.2139-.7635,67.8328,67.8328,0,0,1,7.5132,3.0687c.336.15.6537.37.5558.7934-.1462.6333-.6013.675-1.0973,1.2276-.5835.6073-1.2113,1.7217-1.9255,4.8153l-.4546,1.9692c-.227.9831-.0023,1.9258,1.0519,2.1692a46.1278,46.1278,0,0,0,7.438-.13,5.67,5.67,0,0,1,1.1028.0329c1.408.3251.78,5.2869.5356,6.3441-.3084,1.3358-.9089,1.7145-9.4726.9238-1.5958-.1468-2.5035-.0649-2.91,1.6978-.3246,1.406-2.314,12.2771-2.6651,14.1224-.2825,1.8591.3894,2.163,1.7563,3.2925a40.2149,40.2149,0,0,1,6.4588,6.676c.6782.8986,1.4859,1.8989,1.21,3.0945-.3732,1.6165-3.5767,4.2811-5.1951,3.9075a3.2826,3.2826,0,0,1-1.7259-1.5089c-.6011-.9526-3.3948-4.8551-4.3117-5.0668-.7044-.1626-1.0447.351-1.3138.881-2.3055,4.2072-7.3424,4.5264-11.56,3.5525C55.6832,109.0694,50.18,104.9868,51.673,98.5179Zm6.4521,1.5614c-.5194,2.25,2.68,3.8,4.4356,4.2056,2.6756.6177,4.6584.04,5.3241-2.8432.4222-1.8289-2.7285-2.6292-4.0585-2.9362-1.623-.3716-5.1984-.6039-5.7017,1.5758Zm104.0105,32.4438c.1055-.4569,1.7-5.9757,2.2237-8.245.0583-.2524.0533-.6754-.3014-.7572s-.8779.5886-1.5562,1.2284c-.7653.7808-2.9545,3.1419-3.6789,3.9814-.2222.2689-.4914.5239-.7964.4535-.8555-.1975-3.2064-3.3419-3.0085-4.1994a5.5448,5.5448,0,0,1,1.4267-1.5785c3.6347-3.3544,6.9567-6.9369,10.243-10.5821a4.8593,4.8593,0,0,0,1.1568-2.2278c.1041-.4512.3071-.8857.3993-1.2851a.6822.6822,0,0,0-.4822-.9078,2.959,2.959,0,0,0-.9622.0427c-1.1633.2066-5.6184.8776-6.5762.6565-.8029-.1854-1.0315-1.0356-1.1352-1.7513a15.1052,15.1052,0,0,1-.2648-3.6675c.1859-.8049,1.2411-.5612,1.8666-.5277,1.5523.1531,8.2126.52,9.0946-.5492a3.3883,3.3883,0,0,0,.6-1.4554c.3149-1.3641,1.212-4.3385,1.7231-6.5523.1406-.609.2277-1.2262.3073-1.5711.1276-.5525.4218-.6447.9733-.5174s4.6057,1.6422,5.0805,1.915c.2214.1609.4917.3773.4213.6822a1.1419,1.1419,0,0,1-.5768.6581c-.7854.4058-.7691.5707-1.5445,2.5643-.3019.8324-1.2251,3.222-1.3885,3.9294-.1273.5515.19.7859.612,1.0434a3.7,3.7,0,0,1,1.1923,2.7128c-.045.1948-.2917.3524-.4323.481-.3335.2935-1.6972,1.8394-1.9341,2.1542a4.2527,4.2527,0,0,0-.2846.7881c-.0567.2456-.0189.5263.289.5974a.6969.6969,0,0,0,.4632-.1661c1.3114-.8569,3.7481-2.2136,5.1892-2.939,2.4232-1.2941,5.3588-2.5314,8.1338-1.8908a5.5772,5.5772,0,0,1,3.8154,3.2157c.5591,1.5126.1516,3.4865-.1978,5-.6042,2.6172-1.3067,5.2157-2.0527,7.7488-.5984,2.1475-1.271,4.3763-1.76,6.4936-.2789,1.2082-.7438,2.96.4167,3.2274,1.3641.315,4.03-1.349,5.1648-2.1492a1.505,1.505,0,0,1,1.0914-.3351c.8506.1964,1.4439,4.3123,1.2572,5.1211-.1626.7044-2.3308,1.5873-2.9811,1.857-2.35.997-5.2544,1.8658-7.7751,1.2838-4.2337-.9774-3.5051-5.96-2.7727-9.1327,1.0465-4.5328,2.7562-8.9689,3.8029-13.5026.2558-1.1079.6632-2.8725-.8432-3.22-1.4128-.3261-3.1524.5449-4.3992,1.1089a52.555,52.555,0,0,0-6.6185,3.6179c-.8087.507-3.0737,1.8356-3.5644,2.5741-.3513.6106-1.5706,6.8031-1.8374,7.9587-.07.304-.3221,1.84-.4643,2.709-.3792,2.0871-.857,4.8412-.9857,5.3986-.0814.3527-.147.8682-3.875.0075C162.8167,133.7426,161.9028,133.5316,162.1356,132.5231Zm-60.8847-22.0348c-1.8559-6.92-.4766-15.2993,1.1289-22.2534.242-1.0484,2.3595-9.3314,2.6308-9.8886a.8352.8352,0,0,1,1.0605-.52l.0224.0081c.8535.197,5.417,2.5642,6.4874,3.0177.4943.2506,1.3806.5948,1.2292,1.25-.09.39-.3807.4622-.85.7-1.086.5118-1.4522,1.8046-1.9075,2.8746a49.9841,49.9841,0,0,0-2.1266,6.8286c-1.0146,4.3944-1.82,9.6622-1.0659,14.1879.3605,2.0168,1.6333,6.3861,3.9279,6.9158,1.8357.4238,4.4036-2.0212,5.52-3.2844.5414-.5667,1.2975-1.4277,2.15-1.2309,1.3778.3181,4.1012,3.7784,3.8283,4.96-.2872,1.2443-4.0247,3.9725-5.1861,4.8107-2.398,1.7227-4.8868,3.2213-7.9688,2.51C105.2773,120.2585,102.4884,114.988,101.2509,110.4883Zm110.29,28.0364a5.4559,5.4559,0,0,1,6.6023-3.8679,7.0941,7.0941,0,0,1,4.9361,4.3006,4.3294,4.3294,0,0,1,.1352,2.8864c-.0256.302.0441.5911.3832.6693,1.0981.2536,5.64-1.0655,6.6269-5.3391.9477-4.105-2.1363-6.5946-5.8184-7.4446a13.1719,13.1719,0,0,0-10.4347,1.9568c-2.0271,1.2234-3.95,2.61-5.875,3.9938a.576.576,0,0,1-.5293.1857c-.8925-.2061-2.5037-3.074-2.3482-3.7473.1183-.5125.8593-.8279,1.3142-1.038A173.8635,173.8635,0,0,0,222.76,120.829c.4186-.2616,1.3572-.8464,1.4548-1.2693.088-.381-.264-.5988-.6031-.677-.2115-.0489-.7929-.0466-1.0535-.0647-1.0747.0187-7.3281-.1277-8.0023-.2834-.9325-.2153-.3283-3.4236-.1623-4.1427.225-.9743.2871-1.0523,1.5606-.7583l1.0143.2341c2.7078.6252,8.3926,1.3136,11.07.9064a5.9222,5.9222,0,0,1,1.7183-.09c1.6876.39,3.4046,4.1728,3.2388,4.8909-.0695.3011-.5972.444-1.1385.6772a41.7719,41.7719,0,0,0-7.4478,4.2537,1.2562,1.2562,0,0,0-.588.6175c-.08.3449.2067.6338.5867.7215a2.57,2.57,0,0,0,.5728.04,8.48,8.48,0,0,1,1.7745.2311,12.78,12.78,0,0,1,4.9155,2.469,8.9731,8.9731,0,0,1,3.1356,9.3746c-1.7288,7.488-9.2729,9.8475-16.0876,8.2742C215.21,145.4312,210.5443,142.8412,211.5408,138.5247Zm3.688.8515c-.3518,1.5239,1.5122,2.71,2.7789,3.002.8029.1854,1.32-.5,1.4768-1.178a2.654,2.654,0,0,0-2.043-3.1041,1.8,1.8,0,0,0-2.2088,1.2654l-.0039.0147Zm27.4291,11.113a2.581,2.581,0,0,1-.796-3.5622q.0558-.0879.1184-.1709a2.9739,2.9739,0,0,1,4.0994-.94q.1252.0785.2423.1692a2.666,2.666,0,0,1,.7561,3.6937q-.0543.0824-.1146.16a2.9281,2.9281,0,0,1-3.0485,1.2462A3.4891,3.4891,0,0,1,242.6579,150.4892Zm5.9036-6.7048-1.059-.77c-.8026-.5866-.849-.861-.296-1.6919l5.6832-8.2931c1.3384-1.97,4.2426-6.4449,4.7076-7.0857.3978-.55.6844-.5327,1.3949-.0228l2.2482,1.6377c.7084.5146.8081.7808.4121,1.3268-.4677.6391-3.8218,4.7828-5.4251,6.8553l-5.9627,7.7965c-.3989.5052-.6539.7029-1,.623a2.1263,2.1263,0,0,1-.7024-.3756Zm-108.129-32.8087c.9849-7.8537-.2638-14.7011-5.3892-20.9287a1.108,1.108,0,0,1-.3577-1.1181c.2873-1.2442,3.5752-3.523,4.8867-3.22,1.4411.3327,5.9961,5.7327,7.7508,12.4907,1.0334,3.8993,1.6293,10.6.7209,14.5346-.2875,1.2453-1.02,1.422-2.2115,1.4928a14.1871,14.1871,0,0,1-3.8067-.2569C139.9242,113.48,140.2009,112.5746,140.4325,110.9757Z"/><path d="M36.5735,0,29.3709,11.1736,275,116.5631l-.75-3.37Z" fill="#fff"/><path d="M3.3974,126.38,0,139.2331,266.6263,175l-1.7544-2.9731Z" fill="#fff"/></svg>