<svg xmlns="http://www.w3.org/2000/svg" viewBox="0 0 70 61"><path d="M47.145,7.2877c-3.69-.7073-8.8839.1168-13.0079.51C29.0394,8.2857,25.2137,0,25.2137,0s1.05,9.4-4.1941,11.6961C16.8162,13.5364,2.4032,20.4079.237,35.3337L.2357,35.333C-1.5744,47.8218,7.38,56.4336,15.4681,59.1149c15.6681,5.19,34.3514-1.2617,43.8306-8.1553C75.3036,39.3264,74.9835,12.6266,47.145,7.2877Z" fill-rule="evenodd"/><path d="M17.5072,37.6821c.3806-.1092.83-1.3365.7447-1.6326-.0909-.3172-1.5027-.8507-1.8593-.9774a8.4662,8.4662,0,0,0-2.0767-.6174c-.4017.1152-.7933,1.4634-.7267,1.696.0552.1922.3236.2505.5231.3077a26.4414,26.4414,0,0,1,2.754,1.0642C17.0447,37.5858,17.3167,37.7367,17.5072,37.6821Z" fill="#fff"/><path d="M16.4385,32.5187a1.353,1.353,0,0,0,.6619.1534c.4229-.1212.8147-1.3092.7116-1.6688-.091-.3172-1.5267-.7752-1.8624-.9077a7.0576,7.0576,0,0,0-2.08-.5481c-.3846.11-.73,1.4452-.6692,1.6567s.33.2716.5351.35C14.6639,31.8373,15.5558,32.1538,16.4385,32.5187Z" fill="#fff"/><path d="M18.4664,39.032c-.1692.0484-.1811.1663-.1962.3537a36.4425,36.4425,0,0,1-1.5373,7.17,1.1181,1.1181,0,0,0-.0993.532c.0667.2325.4234.3591.7046.4616a6.2463,6.2463,0,0,0,1.59.5967c.1692-.0485.19-.2146.1477-.3627s-.1272-.284-.1563-.3858a1.5824,1.5824,0,0,1,.0659-.5681,55.4164,55.4164,0,0,0,1.2649-6.5235,2.938,2.938,0,0,0,.0345-.605C20.162,39.2782,18.6817,38.97,18.4664,39.032Z" fill="#fff"/><path d="M45.32,33.3935a1.5681,1.5681,0,0,0-1.6931-.9563l-3.5566,1.02c-.6557.188-1.3445.34-1.81.4732-.4228.1212-.3169.4111-.1167,1.1091.188.6555.2456.9365.6686.8152.55-.1576,1.151-.3757,1.7855-.5576l1.7373-.5c.127-.0363.3233-.07.3724.1012a6.9741,6.9741,0,0,1-.8746,1.8986A14.8748,14.8748,0,0,1,39.21,39.8583c-.1681.14-.3412.3267-.2745.5593.1455.5076,1.2131,1.2772,1.6994,1.1377.5711-.1637,2.1494-2.2412,2.5152-2.8018a14.1632,14.1632,0,0,0,2.08-4.3978A2.4088,2.4088,0,0,0,45.32,33.3935Z" fill="#fff"/><path d="M57.7909,35.0379c-.0552-.1922-.3871-.2323-.5545-.257A26.2025,26.2025,0,0,1,52.89,33.67a.4842.4842,0,0,1-.2893-.2832.4475.4475,0,0,1,.0952-.3935c.7586-.9458.8481-1.1129,1.5423-2.0443a.6.6,0,0,1,.3533-.2844l.2326-.0666c.1268-.0364.2628-.1211.22-.2712a5.7929,5.7929,0,0,0-2.2463-1.0494c-.148.0425-.2687.26-.3442.3961-.6468,1.0094-.9625,1.5119-1.6082,2.4523a.5654.5654,0,0,1-.3422.2583.6887.6887,0,0,1-.5319-.0991,18.2869,18.2869,0,0,1-2.2348-1.648.2347.2347,0,0,1-.0806-.1141c-.0243-.0846-.0093-.1118.0361-.1935.1177-.1482.2112-.2207.1689-.3688a.2091.2091,0,0,0-.0849-.1358c-.0059-.0213-.0271-.0152-.0332-.0364s.0152-.0271.0574-.0393l2.3071-.6615a.3151.3151,0,0,1,.263.039,1.736,1.736,0,0,0,.7553-.0792l.2115-.0608c.74-.2121,1.1753-.2911.9994-.9044-.1213-.423-.2848-.8339-.4062-1.2567L50.8446,23.04c-.1153-.4019-.2092-.81-.3245-1.2116-.1819-.6344-.584-.6793-1.1549-.5157s-1.13.37-1.68.5275l-2.5184.7221c-.1985.0341-.3838.0186-.4506-.2141a.6408.6408,0,0,1-.0128-.2043c.0332-.1239.0662-.2479.0952-.3935a.4521.4521,0,0,1,.2566-.3024c.142-.0636.3112-.1121.2566-.3025-.1152-.4019-2.4661-.14-2.614-.0972-.1924.0552-.2114.2207-.2142.45-.0329.4444-.1079.9007-.1619,1.351a.8.8,0,0,1-.6853.7229l-1.017.2916c-.571.1637-1.1753.2913-1.7424.4539-.55.1577-.8669.4087-.6851,1.0432.1153.4018.2517.7976.367,1.1993l1.0854,3.7855c.0667.2326.2852,1.1541.3275,1.3021.17.5922.623.4165,1.3208.2163l.2116-.0606a1.6255,1.6255,0,0,0,.6826-.333.4057.4057,0,0,1,.2234-.1786l2.0281-.5753c.3845-.11.6284-.0428.78.3257a13.5542,13.5542,0,0,1,.4911,1.5527l1.1764,4.1028c.2971,1.0361.4243,1.32-.6755,1.6355-.4228.1212-.8772.2058-1.1329.2791a.3778.3778,0,0,0-.3016.5441c.5093,1.7765,1.0771,1.5221,1.7751,1.3221,1.7129-.4912,3.5015-1.2122,2.89-3.3462-.1153-.4019-.2727-.7915-.388-1.1933l-.5512-1.9225c-.0274-.1752.045-.2419.1084-.26a.2391.2391,0,0,1,.2165.0295,17.4119,17.4119,0,0,0,6.0979,2.8287,8.767,8.767,0,0,0,1.95.3336C57.297,36.8275,57.9,35.4186,57.7909,35.0379ZM41.4856,26.71a.5081.5081,0,0,1-.6419-.3228c-.0042-.0129-.0079-.0259-.0112-.0392L40.79,26.2a.5.5,0,0,1,.3065-.6372.5173.5173,0,0,1,.0556-.0159l6.9576-1.995a.5.5,0,0,1,.6372.3065.5074.5074,0,0,1,.0159.0554l.0425.1481a.508.508,0,0,1-.3229.6418c-.0128.0043-.026.0081-.0392.0113Zm.7949,2.7723a.5078.5078,0,0,1-.6417-.3227c-.0044-.013-.0081-.026-.0114-.0392l-.0607-.2116a.5079.5079,0,0,1,.32-.643c.0135-.0046.0273-.0086.0412-.0119l6.9542-1.9922a.508.508,0,0,1,.6419.3229c.0043.0128.008.026.0112.0392l.0607.2114a.508.508,0,0,1-.3228.6419c-.0129.0044-.0261.008-.0393.0112Z" fill="#fff"/><path d="M34.7457,41.2986c-.1692.0484-.3323.1181-.5015.1666-.4229.1213-.62-.0054-.7346-.4072L32.432,37.2931c-.1212-.4229-.2031-.7885-.3123-1.1692-.2-.6978-.6958-.67-1.2878-.5-.55.1576-1.0936.3366-1.6436.4942L23.5169,37.744c-.55.1576-1.1269.3-1.6767.4578-.5921.17-1.021.43-.8269,1.1069.1152.4019.2666.77.3757,1.1509l1.0855,3.7855a.5079.5079,0,0,1-.386.7286c-.1984.034-.6043.1275-.7947.1822-.55.1577-.4832.39-.2527,1.1938.2123.74.276,1.0424.8047.8908.74-.2123,1.4894-.4728,2.2295-.6852l9.0725-2.6013c.74-.2123,1.5136-.3883,2.2749-.6067.5076-.1455.3954-.4566.1892-1.1757C35.3893,41.3658,35.34,41.1283,34.7457,41.2986Zm-9.33,2.744c-.0129.0044-.026.008-.0392.0112l-.2115.0608a.5081.5081,0,0,1-.6419-.3229c-.0042-.0128-.0079-.026-.0112-.0392l-.9581-3.3413a.5.5,0,0,1,.3066-.6372.48.48,0,0,1,.0554-.0158l.2115-.0608a.5081.5081,0,0,1,.6418.3228c.0043.0129.0081.026.0112.0392l.9582,3.3413A.5082.5082,0,0,1,25.4155,44.0426Zm2.9183-.8368c-.0129.0043-.026.008-.0391.0112l-.2961.0849a.508.508,0,0,1-.6418-.3228.4077.4077,0,0,1-.0112-.0392l-.9583-3.3413a.5079.5079,0,0,1,.3228-.6418c.0129-.0043.0261-.0081.0393-.0113l.2961-.0848a.5081.5081,0,0,1,.6419.3228c.0041.0129.0079.0258.0112.0391l.958,3.3413A.508.508,0,0,1,28.3338,43.2058Zm2.8781-.8253c-.0129.0044-.026.008-.0392.0112l-.2557.0735a.5081.5081,0,0,1-.6419-.3229c-.0043-.0128-.008-.026-.0112-.0392l-.9581-3.3413a.5079.5079,0,0,1,.3226-.6419c.0135-.0046.0275-.0085.0414-.0118l.2536-.0727a.5.5,0,0,1,.6372.3065.4664.4664,0,0,1,.0159.0554l.9581,3.3413A.508.508,0,0,1,31.2119,42.3805Z" fill="#fff"/><path d="M22.4793,36.8971c.6729-.1929.8882-.2547.9334-.4964a.3515.3515,0,0,1,.2233-.3387l4.6486-1.333c.1772-.028.2438.0445.35.1744.1875.1751.3566.1265,1.0756-.08.8249-.2365,1.1119-.273.9723-.7595-.1333-.4652-.3152-.9394-.4485-1.4048L28.936,28.1339c-.1273-.4441-.2124-.9-.34-1.3444-.1758-.6133-.5567-.6643-1.1065-.5067-.4864.14-.9668.3-1.4531.44L21.3,28.0808c-.5075.1456-1,.2638-1.4864.4034-.55.1576-.8167.4173-.6467,1.0093.1272.4441.2757.8821.403,1.3263l1.2978,4.5255c.1334.4653.2306.9639.364,1.4292C21.3707,37.2608,21.6334,37.14,22.4793,36.8971Zm5.3223-4.89.0849.2961a.5717.5717,0,0,1-.4284.7408l-4.0373,1.1577a.5831.5831,0,0,1-.7427-.3582c-.0049-.0141-.0094-.0285-.0132-.0431l-.085-.296a.5833.5833,0,0,1,.3849-.7292c.0143-.0044.029-.0083.0436-.0116l4.0374-1.1576A.5694.5694,0,0,1,27.8016,32.0067ZM22.11,29.7929c.0144-.0043.0291-.0083.0437-.0115l4.0372-1.1578a.57.57,0,0,1,.7559.4013l.0607.2115a.6151.6151,0,0,1-.42.7613l-.002.0006-4.0373,1.1576a.63.63,0,0,1-.762-.4223l-.06-.2115A.583.583,0,0,1,22.11,29.7929Z" fill="#fff"/></svg>