<svg xmlns="http://www.w3.org/2000/svg" viewBox="0 0 668 685"><path d="M595.9507,503.6575c-59.7315,24.2117-72.9786,60.2794-45.6966,72.07,103.6922,44.8125,7.0255,94.911-90.01,106.81-75.9373,9.3109-250.0632-7.5049-199.885-55.2105,68.9768-65.5873-197.7711-2.4579-247.91-41.6995C-52.7006,534.6372,163.56,543.2511,72.223,484.58c-72.8265-46.7466,39.7851-89.0811,167.5134-99.086.5-.046,1-.089,1.4789-.111l-12.099,42.05c14.2259-.476,31.7146-.914,49.7692-1.218,0,0,48.3774-.194,98.4507.718,24.0581,1.4789,39.676,4.6119,21.6434,10.4419-38.0232,12.2688.043,14.4878,34.8033,14.4l-19.8385-68.9373c206.4285,12.1389,277.885,81.9682,182.0013,120.82" fill="#fff"/><path d="M523.1234,348.31c-33.7816-30.8537-29.9909-55.36-25.1912-86.39,2.8057-18.1418,5.9866-38.7036,2.4537-63.9093-6.8643-49.0255-27.8778-89.6592-60.76-117.5059C409.3746,54.8843,369.6887,41.1484,327.82,41.6774c-41.879-.538-81.625,13.2059-111.88,38.8276-32.8827,27.8467-53.8929,68.4793-60.7605,117.5059-3.5327,25.21-.3521,45.7665,2.4539,63.9093,4.7985,31.03,8.5872,55.5374-25.1912,86.39a2.72,2.72,0,0,0,1.1178,4.631c18.6446,5.09,29.1919.779,34.3255-2.915a133.1774,133.1774,0,0,0,8.7594,26.6347c9.79,21.2538,23.7773,32.6047,40.45,32.8287a2.5268,2.5268,0,0,0,2.0751-.922,2.7158,2.7158,0,0,0,.655-2.1749c-4.1059-29.1735,2.0318-40.8,6.6379-47.5733,20.2018,16.4045,54.1942,24.7136,101.3347,24.7136l0,.001c47.1268,0,81.1106-8.3043,101.3159-24.6993,4.6061,6.7766,10.7287,18.4082,6.6308,47.556a2.7258,2.7258,0,0,0,2.6929,3.1l.035-.001c16.6708-.229,30.6549-11.5759,40.4461-32.8287a132.91,132.91,0,0,0,8.7591-26.6347c5.1388,3.696,15.6859,8.0009,34.3275,2.915a2.72,2.72,0,0,0,1.1181-4.631Zm-316.019-57.7567c-.9992.0774-2.0008.125-3.0034.1361-7.0056,0-12.8989-2.067-17.5988-6.1349-7.3744-6.3519-9.9841-16.3158-9.9841-23.5158,0-8.4189,3.4587-16.0328,9.2662-20.3618,4.0019-2.9944,11.0065-5.8333,22.25-3.323C211.2594,258.2252,208.4652,281.4858,207.1044,290.5536Zm262.2447-49.8794c5.8075,4.329,9.2662,11.9429,9.2662,20.3618,0,7.201-2.6316,17.1639-9.9841,23.5158-4.7216,4.068-10.6162,6.1349-17.5988,6.1349-.8469-.0042-1.693-.0382-2.5374-.0938-1.36-9.0585-4.17-32.4183-.9181-53.34C458.5262,234.9354,465.4149,237.7215,469.3491,240.6742Zm-141.5523,137.42c-52.801,0-88.3332-10.4359-105.6151-31.0187-16.0726-19.1468-12.016-42.2406-10.282-52.0995.8359-4.77,7.676-46.2216-2.3853-74.3513a336.5031,336.5031,0,0,1,118.2882-21.3678h1.3749c8.2946.0411,13.9721.18,21.9764.8111l1.3361.107L364.0382,187.36l-.3371,14.02,16.2558-17.4468-3.0718,18.9558,2.7669.374c30.9486,4.198,50.6691,11.3449,66.4308,17.3528-10.0651,28.1188-3.2287,69.5873-2.3907,74.36,1.734,9.8609,5.7906,32.9537-10.2822,52.0995C416.13,367.6593,380.598,378.0942,327.7968,378.0942Z"/><path d="M318.6155,296.6285a3.7,3.7,0,1,1-3.7-3.7,3.7,3.7,0,0,1,3.7,3.7h0" fill="#fff"/><path d="M327.79,310.1538c-9.9643,0-23.8293-7.07-23.8293-14.0329,0-8.24,14.9289-9.4689,23.8293-9.4689s23.8251,1.23,23.8251,9.4679c0,6.9629-13.865,14.0329-23.8292,14.0329m0-20.24c-12.299,0-20.5664,2.5-20.5664,6.2059,0,4.153,11.23,10.77,20.5664,10.77s20.5665-6.6169,20.5665-10.77c0-3.711-8.2654-6.2059-20.5665-6.2059"/><path d="M306.44,293.7261a1.088,1.088,0,0,1-.7349-1.888,28.0577,28.0577,0,0,0,6.1555-8.1709c2.2859-4.5859,2.4578-7.3,2.46-7.3329a1.047,1.047,0,0,1,1.0607-1.0331c.0264,0,.0528.0017.0792.0041a1.084,1.084,0,0,1,1.0309,1.133c0,.126-.168,3.15-2.6838,8.2a30.1313,30.1313,0,0,1-6.6325,8.8,1.0848,1.0848,0,0,1-.7349.287"/><path d="M349.1457,293.7253a1.0862,1.0862,0,0,1-.7349-.287,30.1278,30.1278,0,0,1-6.6325-8.8c-2.5169-5.047-2.68-8.071-2.6838-8.2a1.0839,1.0839,0,0,1,1.03-1.1357l.0054,0a1.0193,1.0193,0,0,1,1.1359,1.038,21.4447,21.4447,0,0,0,2.46,7.3269,28.059,28.059,0,0,0,6.1555,8.1709,1.088,1.088,0,0,1-.7349,1.888"/><path d="M418.8283,218.8559c-.0791-.193-8.2723-19.4408-29.7616-19.4408-20.8356,0-29.35,19.2428-29.4348,19.4368a.2788.2788,0,0,0,.1.333.27.27,0,0,0,.3371-.034c.126-.121,12.2831-12.0539,28.9979-12.1208h.1479c16.8208,0,29.0459,11.9988,29.17,12.1208a.2727.2727,0,0,0,.3438.033A.2658.2658,0,0,0,418.8283,218.8559Z"/><polygon points="359.889 219.231 359.881 219.229 359.88 219.229 359.889 219.231"/><path d="M309.5884,280.9594a1.6311,1.6311,0,0,1-1.3329-2.569l9.7293-13.8939a1.6319,1.6319,0,1,1,2.6887,1.85l-.0159.0228-9.7323,13.9a1.6278,1.6278,0,0,1-1.3379.694" fill="#f72f8d"/><path d="M322.9245,280.9594a1.631,1.631,0,0,1-1.3329-2.569l9.7273-13.8939a1.6323,1.6323,0,1,1,2.6738,1.873l-9.7293,13.8939a1.6249,1.6249,0,0,1-1.3379.7" fill="#f72f8d"/><path d="M336.26,280.9594a1.631,1.631,0,0,1-1.3329-2.569l9.73-13.8939a1.6319,1.6319,0,1,1,2.6887,1.85l-.016.0228-9.7322,13.9a1.6278,1.6278,0,0,1-1.3379.694" fill="#f72f8d"/><path d="M432.9018,465.7316a2.7177,2.7177,0,0,1-2.6868-2.3169c-9.3993-62.8284-25.5071-93.2161-25.6681-93.5171a2.7189,2.7189,0,0,1,4.7837-2.584c.6789,1.251,16.6987,31.4,26.261,95.2991a2.7149,2.7149,0,0,1-2.279,3.09l-.0068.001a2.5514,2.5514,0,0,1-.4.03"/><path d="M226.26,444.9139a2.7167,2.7167,0,0,1-2.6727-3.23c9.54-49.7636,22.13-73.3993,22.6613-74.3753a2.7209,2.7209,0,0,1,4.7857,2.589c-.126.233-12.7471,23.9837-22.1044,72.8092a2.7208,2.7208,0,0,1-2.6688,2.208"/><path d="M296.3422,218.8529c-.085-.194-8.6034-19.4368-29.4309-19.4368-21.4913,0-29.6848,19.2468-29.7656,19.4408a.2668.2668,0,0,0,.1.328.2613.2613,0,0,0,.1521.046.27.27,0,0,0,.1909-.078c.1211-.121,12.337-12.1209,29.1739-12.1209h.146c16.7126.067,28.87,12.0009,28.9917,12.1209a.272.272,0,0,0,.4421-.3Z"/><path d="M179.8952,431.6483a2.175,2.175,0,0,1-.118-4.346c.194-.011,19.6815-1.079,49.2733-2.047,15.6138-.5259,32.0806-.9349,48.9353-1.22l1.3-.022a2.1755,2.1755,0,0,1,0,4.3509l-1.2619.022c-16.7928.283-33.2325.692-48.8273,1.216-29.54.968-48.9843,2.032-49.1774,2.043a1.1821,1.1821,0,0,1-.122,0"/><path d="M431.8617,453.9484c-49.6323,0-50.4082-4.923-50.83-7.5809-.5-3.135,2.2539-6.2169,17.2887-11.0679a25.6808,25.6808,0,0,0,5.76-2.406c-1.8119-.881-7.73-2.617-26.87-3.7939a2.1751,2.1751,0,0,1,.2679-4.342c28.3849,1.745,31.1187,4.727,31.4847,7.6329.431,3.411-4.2177,5.4-9.3053,7.048-10.6133,3.4239-13.3991,5.5-14.117,6.2689,1.5179,1.079,9.1383,4.02,48.2464,3.8869,21.3064-.065,41.6209-.99,41.8208-1a2.176,2.176,0,0,1,.2,4.3459c-.2.009-20.6084.938-42.0078,1h-1.9358"/><path d="M377.3456,429.11h-.1c-52.749-2.2519-97.8367-.733-98.2857-.718a2.1389,2.1389,0,0,1-2.2463-2.0258c-.0012-.0247-.0021-.0494-.0025-.0741a2.1729,2.1729,0,0,1,2.0943-2.2488l.0055,0c.4569-.017,45.6966-1.542,98.6246.718a2.175,2.175,0,0,1-.091,4.3489"/><path d="M327.7915,349.9573c-5.9535,0-10.6171-6.6369-10.6171-15.1118s4.6636-15.11,10.6171-15.11,10.6172,6.637,10.6172,15.11-4.6636,15.1118-10.6172,15.1118m0-26.96c-3.9867,0-7.3544,5.4249-7.3544,11.8469s3.3677,11.8489,7.3544,11.8489,7.3545-5.428,7.3545-11.8489-3.3678-11.8469-7.3545-11.8469"/><path d="M296.371,261.1661a.4.4,0,0,0-.1628-.27c-.5454-.418-3.8093-.3682-8.4428-.0237,4.6608-1.041,4.62-1.4844,4.5793-1.7655-.0491-.3391-.12-.913-8.4486-.3-5.2064.38-12.107,1.122-19.4155,2.088-5.2428.693-10.2385,1.4418-14.5444,2.1728a16.3582,16.3582,0,0,1-.6122-7.7441.272.272,0,0,0-.4941-.187,18.3011,18.3011,0,0,0-2.97,7.8776,17.6272,17.6272,0,0,1-.4031-7.1289.272.272,0,0,0-.4941-.187,18.3,18.3,0,0,0-2.9487,7.756,18.67,18.67,0,0,1-.2344-6.5009.2736.2736,0,0,0-.1738-.287.277.277,0,0,0-.32.1,18.315,18.315,0,0,0-3.0582,8.8c-1.1576.4174-1.1381.6619-1.1154.8413a.4065.4065,0,0,0,.1651.268,6.2986,6.2986,0,0,0,2.63.3v-.005c1.4635,0,3.4555-.0987,5.7937-.2721-4.6415,1.0382-4.5985,1.4811-4.5622,1.7644.0372.233.0791.572,2.7367.572,1.2447,0,3.0583-.074,5.7119-.268,1.029-.0756,2.1395-.1688,3.2891-.2711-1.8016.3042-3.499.6062-5.0292.9-8.1983,1.573-8.1224,2.1471-8.0785,2.489a.4.4,0,0,0,.1651.268,6.2545,6.2545,0,0,0,2.6238.3l-.002-.006c4.7756,0,15.1549-1.044,25.0741-2.3539,7.3063-.966,14.1579-2.041,19.29-3.026,8.2033-1.572,8.13-2.149,8.0815-2.486s-.1321-.909-8.4484-.3c-1.0355.0762-2.1543.17-3.3137.274,1.8114-.3054,3.5173-.6082,5.0538-.9026C296.4889,262.08,296.4171,261.5081,296.371,261.1661Z"/><path d="M417.6883,265.5707a18.2842,18.2842,0,0,0-2.9483-8.7352.2761.2761,0,0,0-.32-.1.2719.2719,0,0,0-.176.285,18.6713,18.6713,0,0,1-.3059,6.4881,18.2861,18.2861,0,0,0-2.86-7.7847.2733.2733,0,0,0-.4961.185,17.6314,17.6314,0,0,1-.4821,7.1182,18.2868,18.2868,0,0,0-2.8767-7.91.2768.2768,0,0,0-.32-.1.2715.2715,0,0,0-.176.285,16.2643,16.2643,0,0,1-.7185,7.7858c-4.297-.73-9.28-1.4764-14.5111-2.1661-7.3115-.964-14.207-1.708-19.4165-2.091-8.3153-.607-8.4044-.042-8.4484.3-.0363.2828-.08.7245,4.5344,1.7583-4.6093-.3407-7.8537-.3875-8.3949.031a.4.4,0,0,0-.165.268c-.044.342-.116.914,8.0785,2.489,1.5479.2973,3.2661.6027,5.0906.91-1.1718-.1045-2.302-.1993-3.3486-.2758-8.3285-.618-8.4054-.042-8.4483.3s-.1182.9139,8.0814,2.4889c5.13.984,11.981,2.054,19.29,3.022s14.2037,1.708,19.4155,2.091c2.6536.1939,4.4706.268,5.7125.268l-.001.0019c2.6607,0,2.7036-.339,2.7366-.5719.0432-.341.1181-.911-8.0812-2.486-1.5494-.297-3.271-.6029-5.1-.9114,1.1752.1052,2.3085.2006,3.3575.2777,2.6558.194,4.4725.268,5.7166.268l-.001-.002c2.6556,0,2.6985-.339,2.7317-.572.0381-.2822.0811-.7245-4.5482-1.76,2.3365.173,4.3268.2714,5.7888.2714l.001.007a6.3149,6.3149,0,0,0,2.6229-.3.4008.4008,0,0,0,.163-.27C418.89,266.2519,418.91,266.0019,417.6883,265.5707Z"/><path d="M295.0251,443.6014a2.1644,2.1644,0,0,1-1.4579-.561c-9.9672-9-3.97-17.6509.848-24.6,5.61-8.0919,9.6623-13.94-1.4529-21.7168a2.1742,2.1742,0,0,1,2.4928-3.5629c14.6659,10.2549,7.94,19.9548,2.5328,27.7547-5.3536,7.7229-8.29,12.7669-1.5079,18.9a2.1749,2.1749,0,0,1-1.4579,3.79" fill="#f72f8d"/><path d="M326.5776,443.6014a2.164,2.164,0,0,1-1.4579-.561c-9.9643-9-3.97-17.6509.8479-24.6,5.61-8.0919,9.6623-13.9418-1.4529-21.7188a2.1742,2.1742,0,0,1,2.4928-3.5629c14.6659,10.2589,7.9415,19.9638,2.5338,27.76-5.3536,7.7229-8.2874,12.7649-1.5078,18.8928a2.175,2.175,0,0,1-1.4569,3.79" fill="#f72f8d"/><path d="M358.129,443.6014a2.1644,2.1644,0,0,1-1.4579-.561c-9.9642-9-3.97-17.6509.849-24.6,5.6095-8.0919,9.6623-13.9418-1.4529-21.7188a2.1742,2.1742,0,0,1,2.4928-3.5629c14.6659,10.2589,7.9414,19.9638,2.5338,27.76-5.3536,7.7229-8.2874,12.7649-1.5069,18.8928a2.175,2.175,0,0,1-1.4579,3.79" fill="#f72f8d"/><path d="M612.06,310.7438l-4.2376-9.8279-61.4954,26.5107,6.5145,15.1148,50.4912-21.7667-32.0826,43.0765,54.4549,40.5666,40.002-53.7074Z" fill="#bdbebf"/><path d="M626.0451,406.7016,568.9714,364.186l29.4218-39.5-46.3965,20-7.8064-18.11,64.4891-27.8,4.71,10.9249L668,350.3812ZM573.54,363.518l51.8371,38.6126L663.43,351.0441l-52.696-39.2526-3.7627-8.7319L548.476,328.2784l5.2226,12.1188,54.5849-23.5307Z"/><path d="M574.1883,348.9421a3.6849,3.6849,0,1,1-5.1576.755,3.6851,3.6851,0,0,1,5.1576-.755" fill="#fff"/><path d="M557.9916,349.3784a3.6849,3.6849,0,1,1-5.1576.755,3.6851,3.6851,0,0,1,5.1576-.755" fill="#fff"/><path d="M538.488,355.7458a3.6859,3.6859,0,1,1-5.1576.7569,3.686,3.686,0,0,1,5.1576-.7569" fill="#fff"/><path d="M520.6931,369.3413a3.6859,3.6859,0,1,1-5.1577.757,3.6862,3.6862,0,0,1,5.1577-.757" fill="#fff"/><path d="M544.7394,372.15a3.6849,3.6849,0,1,1-5.1576.755,3.6851,3.6851,0,0,1,5.1576-.755" fill="#fff"/><path d="M534.5444,387.6122a3.6849,3.6849,0,1,1-5.1576.755,3.6851,3.6851,0,0,1,5.1576-.755" fill="#fff"/><path d="M500.4185,374.5369a3.6849,3.6849,0,1,1-5.1576.755,3.685,3.685,0,0,1,5.1576-.755" fill="#fff"/><path d="M513.6855,390.6863a3.6849,3.6849,0,1,1-5.1576.755,3.6851,3.6851,0,0,1,5.1576-.755" fill="#fff"/><path d="M559.0637,383.63a3.6849,3.6849,0,1,1-5.1577.755,3.6851,3.6851,0,0,1,5.1577-.755" fill="#fff"/><path d="M552.8269,399.7211a3.6849,3.6849,0,1,1-5.1576.755,3.6851,3.6851,0,0,1,5.1576-.755" fill="#fff"/><path d="M562.5827,364.5209a3.6849,3.6849,0,1,1-5.1576.755,3.6851,3.6851,0,0,1,5.1576-.755" fill="#fff"/><path d="M634.0827,353.1546a12.9331,12.9331,0,0,0-18.0983,2.6475c-.1525.2031-.2834.4206-.4233.6323a37.317,37.317,0,0,0-8.1844-22.1493l-.229-.252-14.6288,19.6407,4.1,3.05,10.06-13.5079c1.0077.863,5.4825,5.3969,7.8993,19.4628l.278,1.64.2688-1.643a34.1934,34.1934,0,0,0,.4346-4.6072,12.3754,12.3754,0,0,1,18.6453,15.0643l-.509,1.109.943-.78a12.9323,12.9323,0,0,0-.5563-20.3073Z"/><path d="M626.79,366.9716a5.4382,5.4382,0,1,0,5.4276,5.448A5.438,5.438,0,0,0,626.79,366.9716Z" fill="#fff"/><path d="M490.1366,394.1948a3.6849,3.6849,0,1,1-5.1576.755,3.6851,3.6851,0,0,1,5.1576-.755" fill="#fff"/><path d="M516.792,434.0456a3.6849,3.6849,0,1,1-5.1576.755,3.6851,3.6851,0,0,1,5.1576-.755" fill="#fff"/><path d="M536.2867,408.4528a3.6849,3.6849,0,1,1-5.1576.7549,3.6851,3.6851,0,0,1,5.1576-.7549" fill="#fff"/><path d="M543.1186,427.4433a3.6849,3.6849,0,1,1-5.1577.755,3.6851,3.6851,0,0,1,5.1577-.755" fill="#fff"/><path d="M513.7645,411.4805a3.6849,3.6849,0,1,1-5.1577.755,3.6851,3.6851,0,0,1,5.1577-.755" fill="#fff"/><path d="M490.8888,414.4963a3.6849,3.6849,0,1,1-5.1576.755,3.6851,3.6851,0,0,1,5.1576-.755" fill="#fff"/><path d="M228.18,361.32a26.47,26.47,0,1,1,26.468-26.47h0a26.4988,26.4988,0,0,1-26.468,26.47m0-49.6765A23.2068,23.2068,0,1,0,251.3857,334.85,23.206,23.206,0,0,0,228.18,311.643" fill="#f72f8d"/><path d="M427.4177,361.32a26.47,26.47,0,1,1,26.4679-26.47h0a26.4988,26.4988,0,0,1-26.4679,26.47m0-49.6765A23.2068,23.2068,0,1,0,450.623,334.85a23.206,23.206,0,0,0-23.2053-23.2068" fill="#f72f8d"/><path d="M427.4949,92.5489,409.8861,78.3281a.7994.7994,0,0,0-.7289-.141.7848.7848,0,0,0-.5239.526l-1.7728,5.81-9.8274-6.5149a.8056.8056,0,0,0-.9247.0369.7872.7872,0,0,0-.259.888l1.5157,4.3-11.61-6.8409a.8.8,0,0,0-.809,0,.7909.7909,0,0,0-.3828.711l.3259,7.8359L370.3322,77.39a.7887.7887,0,0,0-1.1508.6159l-.9,8.023-13.9079-8.3529a.7727.7727,0,0,0-.666-.07.7821.7821,0,0,0-.4809.466l-3.79,9.9128L338.8846,80.761a.7929.7929,0,0,0-1.0748.168l-8.4225,10.9119L319.0441,80.899a.809.809,0,0,0-.6479-.2439.7927.7927,0,0,0-.592.3589l-6.6326,10.29-6.8254-10.3388a.7787.7787,0,0,0-.581-.352.81.81,0,0,0-.64.2279l-9.1992,9.25L291.959,82.086a.7924.7924,0,0,0-.5608-.5739.8073.8073,0,0,0-.7741.2109l-8.1593,8.4-2.5887-8.3118a.7918.7918,0,0,0-.509-.5161.7739.7739,0,0,0-.716.1151l-7.7394,5.7-.6789-7.024a.7928.7928,0,0,0-1.2-.6L258.3087,85.993l.7328-5.589a.8.8,0,0,0-.3308-.7509.786.786,0,0,0-.818-.0541l-8.2223,4.24-.6569-6.7279a.7931.7931,0,0,0-1.2441-.572L228.151,90.3459a.794.794,0,0,0-.2871.927.8079.8079,0,0,0,.8239.509l15.6239-1.634L234.35,101.5318a.7909.7909,0,0,0,.8789,1.26l20.4574-7.7859-2.1,12.1389a.7882.7882,0,0,0,.3442.8.8.8,0,0,0,.87,0l14.879-9.7349,5.6314,11.9a.7927.7927,0,0,0,.4609.413.8181.8181,0,0,0,.6162-.046l16.7856-8.5729,5.54,11.6939a.8.8,0,0,0,.5239.426.7581.7581,0,0,0,.6611-.131l12.7248-9.3739,11.14,11.2859a.7865.7865,0,0,0,.563.237v-.004h.0429a.8.8,0,0,0,.5791-.3l10.7892-13.74,12.5181,12.0409a.79.79,0,0,0,1.3139-.379l3.6-14.3138,17.3627,10.6369a.78.78,0,0,0,.768.0329.7889.7889,0,0,0,.435-.633l1.3329-14.0418,18.37,10.6419a.792.792,0,0,0,1.1879-.735l-.859-13.4,17.7826,7.964a.7912.7912,0,0,0,1.112-.7591l-.365-7.99,16.5666,2.88a.7768.7768,0,0,0,.8549-.452A.791.791,0,0,0,427.4949,92.5489Z" fill="#fff"/><path d="M325.2731,47.7445a12.235,12.235,0,0,0,2.3578,7.1069,29.83,29.83,0,0,0,5.5516,5.567c2.8628,2.132,3.0278,2.369,3.0278,3.2a1.5718,1.5718,0,0,1-1.6819,1.779c-1.5139,0-3.7-1.305-5.5516-2.3709a32.825,32.825,0,0,1-8.2464-6.75c-4.0367-4.3829-5.0486-7.2269-5.0486-10.9,0-4.3829,2.1858-6.6349,7.7414-14.5708,5.2166-7.4639,6.8995-10.7789,6.8995-13.1479a12.78,12.78,0,0,0-2.3578-7.1069,26.0443,26.0443,0,0,0-5.5516-5.449c-2.6928-2.2519-3.03-2.4889-3.03-3.2,0-.831.337-1.9,1.6839-1.9,1.5119,0,3.7,1.3,5.5516,2.489a55.506,55.506,0,0,1,8.2464,6.6329c4.2067,4.146,5.0486,7.3439,5.0486,10.9,0,3.672-1.6818,7.1069-7.7414,14.6878-3.2,3.909-6.8995,10.7789-6.8995,13.0309" fill="#fff"/><path d="M369.9158,47.7445a12.235,12.235,0,0,0,2.3578,7.1069,29.83,29.83,0,0,0,5.5516,5.567c2.8628,2.132,3.0278,2.369,3.0278,3.2a1.5719,1.5719,0,0,1-1.6829,1.777c-1.5138,0-3.7-1.305-5.5516-2.3709a32.8206,32.8206,0,0,1-8.2463-6.75c-4.0378-4.3829-5.0487-7.2269-5.0487-10.9,0-4.3829,2.1858-6.6349,7.7414-14.5708,5.2157-7.4639,6.8995-10.7789,6.8995-13.1479a12.78,12.78,0,0,0-2.3577-7.1069A26.04,26.04,0,0,0,367.0551,5.1c-2.6928-2.2519-3.03-2.4889-3.03-3.2,0-.831.3369-1.9,1.6839-1.9,1.5119,0,3.7,1.3,5.5515,2.489a55.4893,55.4893,0,0,1,8.2464,6.6329c4.2067,4.146,5.0487,7.3439,5.0487,10.9,0,3.672-1.6819,7.1069-7.7415,14.6878-3.2,3.909-6.8995,10.7789-6.8995,13.0309" fill="#fff"/><path d="M280.6334,47.7445a12.2334,12.2334,0,0,0,2.3578,7.1069,29.8177,29.8177,0,0,0,5.5516,5.567c2.8627,2.132,3.0278,2.369,3.0278,3.2a1.5718,1.5718,0,0,1-1.6819,1.779c-1.5139,0-3.7-1.305-5.5516-2.3709a32.8171,32.8171,0,0,1-8.2464-6.75c-4.0377-4.3829-5.0486-7.2269-5.0486-10.9,0-4.3829,2.1858-6.6349,7.7414-14.5708C284,23.3418,285.683,20.0268,285.683,17.6578a12.779,12.779,0,0,0-2.3578-7.1069,26.0443,26.0443,0,0,0-5.5516-5.449c-2.6928-2.2519-3.03-2.4889-3.03-3.2,0-.831.337-1.9,1.6839-1.9,1.5119,0,3.7,1.3,5.5516,2.489a55.5,55.5,0,0,1,8.2464,6.6329c4.2066,4.146,5.0486,7.3439,5.0486,10.9,0,3.672-1.6819,7.1069-7.7414,14.6878-3.2,3.909-6.8995,10.7789-6.8995,13.0309" fill="#fff"/></svg>