<svg xmlns="http://www.w3.org/2000/svg" viewBox="0 0 668 685"><path d="M472.55,388.218a86.4613,86.4613,0,0,0,6.3723-11.5517,132.91,132.91,0,0,0,7.2865-20.5357l3.148,2.345,4.0282-5.4076c6.0329,2.3326,15.23,3.5326,28.624-.1216a2.72,2.72,0,0,0,1.1179-4.631,113.7051,113.7051,0,0,1-14.4891-15.7234L531.31,302.155,495.93,275.8c.5569-4.5027,1.2685-9.1115,2.0053-13.8752,2.8057-18.1419,5.9866-38.7037,2.4537-63.91-6.8642-49.0257-27.8777-89.6594-60.76-117.5062a163.7654,163.7654,0,0,0-69.3911-34.34,43.431,43.431,0,0,1,6.5759-11.4575c6.06-7.5809,7.7415-11.0159,7.7415-14.6878,0-3.556-.8418-6.754-5.0486-10.9A55.5039,55.5039,0,0,0,371.26,2.491c-1.8519-1.189-4.04-2.489-5.5517-2.489-1.3468,0-1.6838,1.069-1.6838,1.9,0,.711.337.948,3.03,3.2a26.0466,26.0466,0,0,1,5.5516,5.449,12.7792,12.7792,0,0,1,2.3577,7.1069c0,2.3691-1.6829,5.684-6.8994,13.148-5.0406,7.2-7.3006,9.7257-7.6774,13.4048a180.6534,180.6534,0,0,0-32.5637-2.5291c-.0712-.001-.1422,0-.2134-.0005a46.2231,46.2231,0,0,1,4.5591-6.9712c6.0595-7.581,7.7413-11.016,7.7413-14.6879,0-3.556-.8418-6.754-5.0486-10.9a55.5,55.5,0,0,0-8.2463-6.6329C324.7637,1.3,322.5758,0,321.064,0c-1.347,0-1.684,1.069-1.684,1.9,0,.711.337.948,3.03,3.2a26.0438,26.0438,0,0,1,5.5516,5.4489,12.78,12.78,0,0,1,2.3578,7.107c0,2.3689-1.6828,5.6839-6.9,13.1479-3.9395,5.6275-6.1779,8.3966-7.1507,11.0944a177.4753,177.4753,0,0,0-35.6007,5.425c.3742-2.5879,3.839-8.9184,6.8621-12.6115,6.0594-7.5809,7.7413-11.0159,7.7413-14.6878,0-3.556-.8418-6.754-5.0486-10.9a55.5051,55.5051,0,0,0-8.2463-6.6329c-1.8518-1.189-4.04-2.489-5.5515-2.489-1.3469,0-1.684,1.069-1.684,1.9,0,.711.3371.948,3.03,3.2a26.0471,26.0471,0,0,1,5.5517,5.449,12.7808,12.7808,0,0,1,2.3577,7.1069c0,2.3691-1.6829,5.684-6.8995,13.148-5.5555,7.9359-7.7414,10.1879-7.7414,14.5708a12.5775,12.5775,0,0,0,.736,4.5041,162.08,162.08,0,0,0-55.8318,30.6285c-32.8828,27.8468-53.8929,68.4795-60.7606,117.5062-3.5327,25.21-.352,45.7667,2.454,63.91,4.7983,31.03,8.5872,55.5376-25.1913,86.39a2.72,2.72,0,0,0,1.1178,4.631c18.6447,5.09,29.1919.7789,34.3256-2.915a133.1812,133.1812,0,0,0,8.7594,26.6349,81.1134,81.1134,0,0,0,8.9162,15.1464C83.2135,407.8894,9.9788,444.62,72.2275,484.579c91.33,58.6716-124.9266,50.0577-59.78,101.0483,50.1382,39.2438,316.8853-23.8858,247.9094,41.7-50.1824,47.7057,123.9436,64.5216,199.885,55.2106,97.0367-11.9,193.7024-62,90.01-106.81-27.277-11.7908-14.03-47.8577,45.6966-72.0695C682.11,468.7458,633.1481,408.82,472.55,388.218Z"/></svg>
