<svg xmlns="http://www.w3.org/2000/svg" viewBox="0 0 668 685"><path d="M553.8857,404.3677a3.6782,3.6782,0,1,0-6.9311-1.9358q-14.8667-4.0061-32.069-7.4085a3.6757,3.6757,0,1,0-7.0723-1.3457q-16.6218-3.0536-35.27-5.4609a86.4573,86.4573,0,0,0,6.375-11.5558,132.9211,132.9211,0,0,0,8.7591-26.6348c5.1388,3.6961,15.6858,8.001,34.3275,2.9151a2.72,2.72,0,0,0,1.118-4.631c-33.7816-30.8537-29.9909-55.36-25.1912-86.39,2.8057-18.1418,5.9866-38.7036,2.4537-63.9093-6.8642-49.0255-27.8778-89.6592-60.76-117.5059a163.7648,163.7648,0,0,0-69.3869-34.3389A43.4367,43.4367,0,0,1,376.8143,34.71c6.06-7.581,7.7415-11.016,7.7415-14.6879,0-3.556-.842-6.754-5.0487-10.9a55.4944,55.4944,0,0,0-8.2464-6.6329C369.4089,1.3,367.2211,0,365.7092,0c-1.347,0-1.6839,1.069-1.6839,1.9,0,.711.337.948,3.03,3.2a26.0368,26.0368,0,0,1,5.5515,5.449,12.7794,12.7794,0,0,1,2.3579,7.1069c0,2.369-1.6839,5.6839-6.9,13.1478-5.04,7.2-7.3,9.7251-7.6772,13.4036a180.67,180.67,0,0,0-32.5677-2.53c-.0679-.0008-.1354,0-.2032,0a46.2245,46.2245,0,0,1,4.5558-6.9654c6.06-7.5809,7.7415-11.0159,7.7415-14.6878,0-3.556-.842-6.754-5.0487-10.9A55.506,55.506,0,0,0,326.619,2.491c-1.8518-1.1891-4.04-2.489-5.5516-2.489-1.3469,0-1.6839,1.069-1.6839,1.9,0,.711.337.948,3.03,3.2a26.0443,26.0443,0,0,1,5.5516,5.449,12.7793,12.7793,0,0,1,2.3578,7.1069c0,2.369-1.6829,5.6839-6.8995,13.1479-3.9365,5.6231-6.1745,8.3923-7.1485,11.0881a177.4771,177.4771,0,0,0-35.6033,5.4236c.3786-2.5916,3.8409-8.9157,6.8615-12.6058,6.06-7.5809,7.7415-11.0159,7.7415-14.6878,0-3.556-.842-6.754-5.0487-10.9a55.5047,55.5047,0,0,0-8.2464-6.6329c-1.8519-1.1891-4.04-2.489-5.5516-2.489-1.347,0-1.6839,1.069-1.6839,1.9,0,.711.337.948,3.03,3.2a26.0443,26.0443,0,0,1,5.5516,5.449,12.78,12.78,0,0,1,2.3578,7.1069c0,2.369-1.6829,5.6839-6.8995,13.1479-5.5556,7.9359-7.7414,10.1879-7.7414,14.5708a12.5782,12.5782,0,0,0,.7342,4.4988A162.0816,162.0816,0,0,0,215.94,80.505c-32.8827,27.8467-53.8929,68.4793-60.7605,117.5059-3.5327,25.21-.3521,45.7664,2.4539,63.9093,4.7985,31.03,8.5872,55.5374-25.1912,86.39a2.72,2.72,0,0,0,1.1178,4.631c18.6446,5.09,29.1919.7789,34.3255-2.9151a133.174,133.174,0,0,0,8.7594,26.6348,81.0969,81.0969,0,0,0,8.9213,15.1531C83.212,407.8894,9.9731,444.6221,72.223,484.58,163.56,543.251-52.7006,534.6372,12.4485,585.6277c50.1393,39.2416,316.8873-23.8877,247.91,41.6994-50.1782,47.7056,123.9477,64.5215,199.8851,55.2105,97.0356-11.8988,193.7023-61.9973,90.01-106.81-27.2821-11.791-14.035-47.8587,45.6965-72.07l-.005-.001C665.2294,475.583,647.1345,431.337,553.8857,404.3677Z"/><polygon points="598.393 324.686 568.971 364.186 626.045 406.702 668 350.381 613.389 309.702 608.679 298.777 544.19 326.576 551.997 344.686 598.393 324.686"/><path d="M574.9414,354.0986a3.6848,3.6848,0,1,0-5.1562.7532A3.685,3.685,0,0,0,574.9414,354.0986Z"/><path d="M558.7447,354.535a3.6848,3.6848,0,1,0-5.1563.7532A3.6851,3.6851,0,0,0,558.7447,354.535Z"/><path d="M534.0872,361.66a3.6859,3.6859,0,1,0-.7568-5.157A3.6856,3.6856,0,0,0,534.0872,361.66Z"/><path d="M520.6931,369.3413a3.6859,3.6859,0,1,0,.7564,5.1575A3.69,3.69,0,0,0,520.6931,369.3413Z"/><path d="M540.3362,378.06a3.6849,3.6849,0,1,0-.7544-5.1548A3.6846,3.6846,0,0,0,540.3362,378.06Z"/><path d="M530.1413,393.522a3.6849,3.6849,0,1,0-.7545-5.1548A3.6844,3.6844,0,0,0,530.1413,393.522Z"/><path d="M495.2609,375.2919a3.6848,3.6848,0,1,0,5.1576-.755A3.6851,3.6851,0,0,0,495.2609,375.2919Z"/><path d="M554.6605,389.54a3.6849,3.6849,0,1,0-.7545-5.1548A3.6846,3.6846,0,0,0,554.6605,389.54Z"/><path d="M563.3359,369.6775a3.6848,3.6848,0,1,0-5.1563.7532A3.6851,3.6851,0,0,0,563.3359,369.6775Z"/></svg>
