<svg xmlns="http://www.w3.org/2000/svg" viewBox="0 0 668 685"><path d="M511.873,394.4532l1.0644-1.429-31.1615-23.211a132.9044,132.9044,0,0,0,5.9074-19.7927c5.139,3.6961,15.686,8.0009,34.3277,2.915a2.72,2.72,0,0,0,1.1179-4.6308c-33.7815-30.8532-29.9908-55.3594-25.1912-86.3886,2.8057-18.1414,5.9866-38.7028,2.4537-63.9081-6.8642-49.0245-27.8777-89.6574-60.76-117.5036A163.7671,163.7671,0,0,0,370.24,46.1653a43.435,43.435,0,0,1,6.576-11.4563c6.06-7.5808,7.7413-11.0157,7.7413-14.6876,0-3.5559-.8419-6.7538-5.0486-10.9a55.4938,55.4938,0,0,0-8.2464-6.6328C369.4106,1.3,367.2228,0,365.7109,0c-1.3469,0-1.6838,1.069-1.6838,1.9,0,.711.3369.948,3.03,3.2a26.04,26.04,0,0,1,5.5515,5.4488,12.7794,12.7794,0,0,1,2.3579,7.1068c0,2.3689-1.6829,5.6838-6.8995,13.1476-5.04,7.2-7.3,9.725-7.6774,13.4036a180.6545,180.6545,0,0,0-32.5638-2.5291c-.0693-.001-.1382,0-.2075,0a46.2262,46.2262,0,0,1,4.5563-6.9661c6.06-7.5808,7.7414-11.0157,7.7414-14.6876,0-3.5559-.8418-6.7538-5.0486-10.9a55.5053,55.5053,0,0,0-8.2464-6.6328c-1.8518-1.189-4.04-2.4889-5.5515-2.4889-1.3469,0-1.6839,1.0689-1.6839,1.9,0,.711.337.948,3.03,3.2a26.0433,26.0433,0,0,1,5.5515,5.4489,12.7788,12.7788,0,0,1,2.3579,7.1068c0,2.3689-1.6829,5.6838-6.8995,13.1476-3.937,5.6237-6.1752,8.3928-7.149,11.0889a177.483,177.483,0,0,0-35.6031,5.4245c.377-2.59,3.84-8.9165,6.8617-12.6075,6.06-7.5808,7.7414-11.0157,7.7414-14.6876,0-3.5559-.842-6.7538-5.0486-10.9a55.5053,55.5053,0,0,0-8.2464-6.6328C280.1292,1.3019,277.9414.002,276.43.002c-1.3469,0-1.6838,1.0689-1.6838,1.9,0,.711.3369.948,3.03,3.2a26.0438,26.0438,0,0,1,5.5516,5.4489,12.7787,12.7787,0,0,1,2.3578,7.1068c0,2.3689-1.6828,5.6838-6.8995,13.1476-5.5556,7.9357-7.7414,10.1877-7.7414,14.5706a12.5778,12.5778,0,0,0,.7349,4.5006A162.0818,162.0818,0,0,0,215.946,80.5044c-32.8828,27.8462-53.8929,68.478-60.7606,117.5036-3.5326,25.2092-.352,45.7656,2.4539,63.9081,4.7985,31.0292,8.5873,55.5364-25.1912,86.3886a2.72,2.72,0,0,0,1.1179,4.6308c18.6446,5.09,29.1919.779,34.3255-2.915a133.1716,133.1716,0,0,0,8.7594,26.6343,81.1024,81.1024,0,0,0,8.92,15.1514C83.2152,407.8818,9.9758,444.6127,72.2268,484.57c91.3372,58.67-124.9236,50.0546-59.78,101.0591,50.1392,39.2409,316.8852-23.8873,247.9093,41.6989-50.1772,47.7046,123.9477,64.52,199.885,55.2093,97.0358-11.8987,193.7026-61.9962,90.01-106.808-27.2819-11.7895-14.035-47.8564,45.6967-72.0678C674.6139,471.7866,640.6212,419.0508,511.873,394.4532Z"/></svg>
