<svg xmlns="http://www.w3.org/2000/svg" viewBox="0 0 80 100"><path d="M41.8847,72.06c0-1.1631-.0156-2.3069-.1-3.4506l-.09-1.7032-.1719-1.4716c-.3165-2.1853-.7853-4.4266-1.3128-6.5965a47.8751,47.8751,0,0,0-4.6847-12.0761A40.8572,40.8572,0,0,1,29.88,34.8609a26.2433,26.2433,0,0,1,.02-14.1534A37.1332,37.1332,0,0,1,44.3209,0a80.93,80.93,0,0,0-3.9893,11.1812A51.6041,51.6041,0,0,0,38.714,22.06a20.2248,20.2248,0,0,0,1.6879,9.37,40.7817,40.7817,0,0,0,5.1107,8.6429l.1758.2276.1758.2874a45.4656,45.4656,0,0,1,5.9936,15.8006,50.68,50.68,0,0,1,.8792,8.1974,22.0485,22.0485,0,0,1-.0078,2.2721l-.1993,2.031a35.7906,35.7906,0,0,1-.5275,4.0254,49.68,49.68,0,0,1-5.1458,15.251c-2.6373,4.66-5.9428,9.09-10.5142,11.835C40.7868,90.7071,41.92,81.2985,41.8847,72.06ZM10.3966,77.763a61.2387,61.2387,0,0,0-.0195-7.4316c-.043-1.2171-.1915-2.4766-.3165-3.711a31.483,31.483,0,0,0-.5314-3.4371,43.8526,43.8526,0,0,0-4.54-13.05,41.2756,41.2756,0,0,1-3.7-8.6A27.1655,27.1655,0,0,1,.0465,31.68l.0273.5188A20.4778,20.4778,0,0,1,1.43,25.2035,28.8477,28.8477,0,0,1,4.317,19.4576a32.6811,32.6811,0,0,1,4.001-4.7834,26.3474,26.3474,0,0,1,4.8527-3.6975A68.8988,68.8988,0,0,0,10.1778,21.832a36.2448,36.2448,0,0,0-.5,5.0746,16.3306,16.3306,0,0,0,.3321,4.2588l.0274.515c.59,3.7457,2.8639,8.4558,5.2864,12.2767a38.6087,38.6087,0,0,1,5.6342,17.81,31.84,31.84,0,0,1,.043,4.7082,42.6115,42.6115,0,0,1-.4884,4.4555,36.4338,36.4338,0,0,1-2.4381,8.71C15.7807,85.1657,11.9732,90.3734,6.677,93.0178A41.5508,41.5508,0,0,0,10.3947,77.763Zm58.9362-2.006a60.3821,60.3821,0,0,0-.02-7.4258c-.043-1.2171-.1876-2.4766-.3126-3.7129a34.0019,34.0019,0,0,0-.5314-3.439,43.8581,43.8581,0,0,0-4.5441-13.0406,41.4613,41.4613,0,0,1-3.7-8.6043,27.24,27.24,0,0,1-1.2425-9.85l.0274.515a20.5943,20.5943,0,0,1,1.36-7,28.8677,28.8677,0,0,1,2.8874-5.742A32.16,32.16,0,0,1,67.25,12.676,26.3627,26.3627,0,0,1,72.103,8.9747,69.329,69.329,0,0,0,69.11,19.8318a36.1761,36.1761,0,0,0-.5,5.0708,16.2,16.2,0,0,0,.3282,4.2645l.0312.517c.59,3.74,2.864,8.4538,5.2826,12.2748A38.5754,38.5754,0,0,1,79.89,59.7674a31.8261,31.8261,0,0,1,.043,4.7082,43.682,43.682,0,0,1-.4884,4.4535,36.5112,36.5112,0,0,1-2.442,8.7085c-2.29,5.53-6.1011,10.7357-11.3973,13.3781A41.368,41.368,0,0,0,69.3328,75.757Z" fill="#f72f8d"/></svg>