<svg xmlns="http://www.w3.org/2000/svg" viewBox="0 0 80 275"><path d="M17.119,12.5253l-2.0329,2.7493v-2.1L17.057,10.456a.563.563,0,0,0-.4549-.894H15.385V8.2138h12.14V9.563h-7.93a.5647.5647,0,0,0-.4522.2279l-.239.3221a.5632.5632,0,0,0,.4522.9h7.949v6.7656h-1.427V13.1573a.5621.5621,0,0,0-.4091-.541.5768.5768,0,0,0-.153-.021.5642.5642,0,0,0-.479.267l-3.028,4.9145H20.2821l2.91-4.6125a.5642.5642,0,0,0-.477-.8631H21.592a.5632.5632,0,0,0-.4649.2461l-3.563,5.23H16.0179l3.146-4.6a.5609.5609,0,0,0-.4629-.88h-1.13A.559.559,0,0,0,17.119,12.5253Zm9.8889-5.7247H15.957V.3371H27.0079ZM25.399,4.71a.563.563,0,0,0-.5629-.5631h-6.709a.5629.5629,0,0,0-.563.5631v.342a.5629.5629,0,0,0,.563.5631h6.709a.563.563,0,0,0,.5629-.5631Zm0-2.6193a.563.563,0,0,0-.5629-.5631h-6.709a.5629.5629,0,0,0-.563.5631v.3421a.5629.5629,0,0,0,.563.563h6.709a.563.563,0,0,0,.5629-.563Zm37.9,14.08h-2.57v1.6071h4.859V9.67a.563.563,0,0,1,.563-.5631h1.958V7.5H66.151a.5631.5631,0,0,1-.563-.5631v-2.1H63.861v2.1a.5632.5632,0,0,1-.562.5631h-11.8V9.107h11.8a.563.563,0,0,1,.562.5631v5.9365A.5632.5632,0,0,1,63.299,16.17Zm-8.2649-.3181H56.802l-1.45-5H53.588ZM52.696,3.2613a.5629.5629,0,0,1,.5619-.563h12.958a.563.563,0,0,1,.5621.563V5.6936h1.647V1.17H61.152A.563.563,0,0,1,60.59.6071V.0189H58.864V.6071a.5631.5631,0,0,1-.562.5631H51.027V5.7146h1.669ZM14.114,1.5081,9.788,0V1.7271l4.326,1.5263ZM41.073,78.2219H80v38.931H41.0741v19.465H38.927v-19.465h2.146ZM47.879,97.688A12.657,12.657,0,1,0,60.536,85.03,12.6577,12.6577,0,0,0,47.879,97.688ZM38.927,78.2219v38.931H0V78.2219ZM32.12,97.6869a12.657,12.657,0,1,0-12.657,12.6594A12.6577,12.6577,0,0,0,32.12,97.6869Zm8.953,38.934H80V175.55H41.0741v-.0009H41.073Zm6.8041,19.4639a12.658,12.658,0,1,0,25.3159-.0009v-.001a12.658,12.658,0,1,0-25.3159.0019ZM80,37.1687v38.927H41.073V37.1687ZM73.194,56.6338A12.658,12.658,0,1,0,60.536,69.295h.002A12.6585,12.6585,0,0,0,73.194,56.6338ZM14.113,6.3677,9.787,4.86V6.5877l4.326,1.5082ZM41.073,175.55h.0011v19.464H38.927V175.55H0V136.6209H38.927v38.928h2.146ZM32.12,156.0829a12.66,12.66,0,1,0,0,.001ZM14.4711,10.001H12.705L9.7679,17.8179l1.7471-.002ZM79.976,195.0158v38.931H2.1471V275H0V195.0158Zm-12.0477,9.1948A12.6522,12.6522,0,0,0,50.269,207.1a12.6282,12.6282,0,0,0-20.536,0,12.6587,12.6587,0,1,0,0,14.7635,12.6285,12.6285,0,0,0,20.536,0,12.6515,12.6515,0,1,0,17.6593-17.6529ZM38.927,76.0957H0V37.1687H38.927ZM32.121,56.6338A12.658,12.658,0,1,0,19.463,69.295h.002A12.6585,12.6585,0,0,0,32.121,56.6338ZM54.933,251.74H25.07L40,239.3067Zm-29.866,19.646H54.934V258.95H25.067Z" fill="#fff"/></svg>