<svg xmlns="http://www.w3.org/2000/svg" viewBox="0 0 200 200"  preserveAspectRatio="xMidYMid meet" >
  <defs>
    <clipPath id="__lottie_element_9">
      <path d="M0,0 L289,0 L289,300 L0,300z"></path>
    </clipPath>
  </defs>  
  <g clip-path="url(#__lottie_element_9)" >
    <g >
      <g transform="matrix(1,0,0,1,54.012001037597656,14.637999534606934)">
        <path fill="rgb(255,255,255)" d=" M-0.0020000000949949026,-14.637999534606934 C-8.086000442504883,-14.63599967956543 -14.637999534606934,-8.081999778747559 -14.63599967956543,0.0020000000949949026 C-14.633999824523926,8.086000442504883 -8.079999923706055,14.637999534606934 0.004000000189989805,14.63599967956543 C8.086999893188477,14.633999824523926 14.637999534606934,8.081999778747559 14.637999534606934,-0.0010000000474974513 C14.628999710083008,-8.081000328063965 8.079999923706055,-14.628999710083008 0,-14.637999534606934"></path>
      </g>
      <g transform="matrix(1,0,0,1,72.14199829101562,62.35499954223633)">
        <path fill="rgb(0,0,0)" d=" M-24.594999313354492,29.170000076293945 C-23.767000198364258,29.170000076293945 -23.094999313354492,28.49799919128418 -23.094999313354492,27.670000076293945 C-23.094999313354492,27.670000076293945 -23.094999313354492,1.4989999532699585 -23.094999313354492,1.4989999532699585 C-23.094999313354492,1.4989999532699585 24.594999313354492,1.4989999532699585 24.594999313354492,1.4989999532699585 C25.42300033569336,1.4989999532699585 26.094999313354492,0.8270000219345093 26.094999313354492,-0.0010000000474974513 C26.094999313354492,-0.8289999961853027 25.42300033569336,-1.5010000467300415 24.594999313354492,-1.5010000467300415 C24.594999313354492,-1.5010000467300415 -23.094999313354492,-1.5010000467300415 -23.094999313354492,-1.5010000467300415 C-23.094999313354492,-1.5010000467300415 -23.094999313354492,-27.67099952697754 -23.094999313354492,-27.67099952697754 C-23.094999313354492,-28.499000549316406 -23.767000198364258,-29.17099952697754 -24.594999313354492,-29.17099952697754 C-25.42300033569336,-29.17099952697754 -26.094999313354492,-28.499000549316406 -26.094999313354492,-27.67099952697754 C-26.094999313354492,-27.67099952697754 -26.094999313354492,27.67099952697754 -26.094999313354492,27.67099952697754 C-26.094999313354492,28.499000549316406 -25.42300033569336,29.17099952697754 -24.594999313354492,29.17099952697754"></path>
      </g>
      <g transform="matrix(1,0,0,1,101.87899780273438,60.20600128173828)">
        <path fill="rgb(0,0,0)" d=" M32.76900100708008,-31.759000778198242 C32.76900100708008,-31.759000778198242 32.95000076293945,-32.659000396728516 32.95000076293945,-32.659000396728516 C32.95000076293945,-32.659000396728516 -32.95000076293945,-32.659000396728516 -32.95000076293945,-32.659000396728516 C-32.95000076293945,-32.659000396728516 -32.95000076293945,-18.913000106811523 -32.95000076293945,-18.913000106811523 C-32.95000076293945,-18.913000106811523 12.378999710083008,-18.913000106811523 12.378999710083008,-18.913000106811523 C12.154000282287598,-15.35200023651123 9.633000373840332,1.5169999599456787 -16.92099952697754,29.415000915527344 C-16.92099952697754,29.415000915527344 -20.006999969482422,32.659000396728516 -20.006999969482422,32.659000396728516 C-20.006999969482422,32.659000396728516 -16.031999588012695,30.597999572753906 -16.031999588012695,30.597999572753906 C23.968000411987305,9.847999572753906 32.685001373291016,-31.347999572753906 32.768001556396484,-31.76099967956543"></path>
      </g>
      <g transform="matrix(1,0,0,1,78.55999755859375,137.42799377441406)">
        <path fill="rgb(0,0,0)" d=" M0,-36.17900085449219 C-0.828000009059906,-36.17900085449219 -1.5,-35.50699996948242 -1.5,-34.67900085449219 C-1.5,-34.67900085449219 -1.5,34.68000030517578 -1.5,34.68000030517578 C-1.5,35.507999420166016 -0.828000009059906,36.18000030517578 0,36.18000030517578 C0.828000009059906,36.18000030517578 1.5,35.507999420166016 1.5,34.68000030517578 C1.5,34.68000030517578 1.5,-34.68000030517578 1.5,-34.68000030517578 C1.5,-35.507999420166016 0.828000009059906,-36.18000030517578 0,-36.18000030517578"></path>
      </g>
      <g transform="matrix(1,0,0,1,32.95000076293945,140.76199340820312)">
        <path fill="rgb(0,0,0)" d=" M-32.94499969482422,-18.913999557495117 C-32.94499969482422,-18.913999557495117 12.383000373840332,-18.913999557495117 12.383000373840332,-18.913999557495117 C12.156999588012695,-15.35099983215332 9.63700008392334,1.5169999599456787 -16.91699981689453,29.416000366210938 C-16.91699981689453,29.416000366210938 -20.0049991607666,32.65999984741211 -20.0049991607666,32.65999984741211 C-20.0049991607666,32.65999984741211 -16.030000686645508,30.597999572753906 -16.030000686645508,30.597999572753906 C23.969999313354492,9.845999717712402 32.6879997253418,-31.34600067138672 32.77000045776367,-31.760000228881836 C32.77000045776367,-31.760000228881836 32.95000076293945,-32.65999984741211 32.95000076293945,-32.65999984741211 C32.95000076293945,-32.65999984741211 -32.95000076293945,-32.65999984741211 -32.95000076293945,-32.65999984741211 C-32.95000076293945,-32.65999984741211 -32.94499969482422,-18.913999557495117 -32.94499969482422,-18.913999557495117z"></path>
      </g>
      <g transform="matrix(1,0,0,1,123.8740005493164,140.76499938964844)">
        <path fill="rgb(0,0,0)" d=" M32.94900131225586,-32.65999984741211 C32.94900131225586,-32.65999984741211 -32.95199966430664,-32.65999984741211 -32.95199966430664,-32.65999984741211 C-32.95199966430664,-32.65999984741211 -32.770999908447266,-31.760000228881836 -32.770999908447266,-31.760000228881836 C-32.6870002746582,-31.34600067138672 -23.972000122070312,9.845999717712402 16.027999877929688,30.597999572753906 C16.027999877929688,30.597999572753906 20.0049991607666,32.65999984741211 20.0049991607666,32.65999984741211 C20.0049991607666,32.65999984741211 16.91699981689453,29.416000366210938 16.91699981689453,29.416000366210938 C-9.552000045776367,1.600000023841858 -12.133999824523926,-15.338000297546387 -12.37399959564209,-18.913999557495117 C-12.37399959564209,-18.913999557495117 32.95100021362305,-18.913999557495117 32.95100021362305,-18.913999557495117 C32.95100021362305,-18.913999557495117 32.94900131225586,-32.65999984741211 32.94900131225586,-32.65999984741211z"></path>
      </g>
    </g>
  </g>
</svg>
