<svg xmlns="http://www.w3.org/2000/svg" viewBox="0 0 100 150"  preserveAspectRatio="xMidYMid meet" >
  <defs>
    <clipPath id="__lottie_element_37" >
      <path d="M0,0 L161,0 L161,300 L0,300z" ></path>
    </clipPath>
  </defs>

    <g clip-path="url(#__lottie_element_37)" >
      <g >
        <g transform="matrix(1,0,0,1,34.209999084472656,62.07600021362305)">
          <path fill="rgb(0,0,0)" d=" M-0.8330000042915344,-7.781000137329102 C-1.4880000352859497,-7.781000137329102 -2.1410000324249268,-7.763000011444092 -2.7909998893737793,-7.72599983215332 C25.099000930786133,-29.496999740600586 31.690000534057617,-60.56999969482422 31.761999130249023,-60.92599868774414 C31.761999130249023,-60.92599868774414 31.94300079345703,-61.82600021362305 31.94300079345703,-61.82600021362305 C31.94300079345703,-61.82600021362305 -33.957000732421875,-61.82600021362305 -33.957000732421875,-61.82600021362305 C-33.957000732421875,-61.82600021362305 -33.957000732421875,-48.08100128173828 -33.957000732421875,-48.08100128173828 C-33.957000732421875,-48.08100128173828 11.368000030517578,-48.08100128173828 11.368000030517578,-48.08100128173828 C11.128000259399414,-44.50600051879883 8.545999526977539,-27.56599998474121 -17.92300033569336,0.24899999797344208 C-17.92300033569336,0.24899999797344208 -21.01799964904785,3.492000102996826 -21.01799964904785,3.492000102996826 C-21.01799964904785,3.492000102996826 -17.042999267578125,1.430999994277954 -17.042999267578125,1.430999994277954 C-13.357000350952148,-0.4819999933242798 -9.803000450134277,-2.6419999599456787 -6.4079999923706055,-5.033999919891357 C11.204999923706055,0.24300000071525574 21.20599937438965,18.798999786376953 15.928999900817871,36.4119987487793 C12.446999549865723,48.03300094604492 2.9200000762939453,56.84000015258789 -8.937999725341797,59.400001525878906 C-8.937999725341797,59.400001525878906 -12.149999618530273,60.090999603271484 -12.149999618530273,60.090999603271484 C-12.149999618530273,60.090999603271484 -8.956000328063965,60.861000061035156 -8.956000328063965,60.861000061035156 C9.734999656677246,65.33699798583984 28.516000747680664,53.81399917602539 32.992000579833984,35.12300109863281 C37.46799850463867,16.43199920654297 25.94499969482422,-2.3489999771118164 7.254000186920166,-6.824999809265137 C4.604000091552734,-7.460000038146973 1.8880000114440918,-7.781000137329102 -0.8370000123977661,-7.7820000648498535"></path>
        </g>
        <g transform="matrix(1,0,0,1,14.887999534606934,104.29499816894531)">
          <path fill="rgb(255,255,255)"  d=" M-0.0010000000474974513,-14.63700008392334 C-8.085000038146973,-14.63599967956543 -14.637999534606934,-8.083000183105469 -14.63700008392334,0.0010000000474974513 C-14.63599967956543,8.085000038146973 -8.083000183105469,14.637999534606934 0.0010000000474974513,14.63700008392334 C8.083999633789062,14.63599967956543 14.63599967956543,8.083999633789062 14.63700008392334,0.0010000000474974513 C14.628000259399414,-8.079999923706055 8.079999923706055,-14.628000259399414 -0.0010000000474974513,-14.63700008392334z"></path>
        </g>
      </g>
    </g>
</svg>