<svg xmlns="http://www.w3.org/2000/svg" viewBox="0 0 180 200"  preserveAspectRatio="xMidYMid meet" >
  <defs>
    <clipPath id="__lottie_element_16">
      <path d="M0,0 L289,0 L280,300 L0,300z"></path>
    </clipPath>
  </defs>  
  <g clip-path="url(#__lottie_element_16)">
    <g >
      <g transform="matrix(1,0,0,1,110.51000213623047,38.56800079345703)">
        <path fill="rgb(0,0,0)"  d=" M-28.780000686645508,0 C-28.780000686645508,0.828000009059906 -28.107999801635742,1.5 -27.280000686645508,1.5 C-27.280000686645508,1.5 27.2810001373291,1.5 27.2810001373291,1.5 C28.108999252319336,1.5 28.7810001373291,0.828000009059906 28.7810001373291,0 C28.7810001373291,-0.828000009059906 28.108999252319336,-1.5 27.2810001373291,-1.5 C27.2810001373291,-1.5 -27.2810001373291,-1.5 -27.2810001373291,-1.5 C-28.108999252319336,-1.5 -28.7810001373291,-0.828000009059906 -28.7810001373291,0"></path>
      </g>
      <g transform="matrix(1,0,0,1,92.26100158691406,119.01799774169922)">
        <path fill="rgb(0,0,0)"  d=" M0,-23.882999420166016 C-0.828000009059906,-23.882999420166016 -1.5,-23.211000442504883 -1.5,-22.382999420166016 C-1.5,-22.382999420166016 -1.5,22.382999420166016 -1.5,22.382999420166016 C-1.5,23.211000442504883 -0.828000009059906,23.882999420166016 0,23.882999420166016 C0.828000009059906,23.882999420166016 1.5,23.211000442504883 1.5,22.382999420166016 C1.5,22.382999420166016 1.5,-22.382999420166016 1.5,-22.382999420166016 C1.5,-23.211000442504883 0.828000009059906,-23.882999420166016 0,-23.882999420166016"></path>
      </g>
      <g transform="matrix(1,0,0,1,126.52799987792969,119.01799774169922)">
        <path fill="rgb(0,0,0)"  d=" M0,-23.882999420166016 C-0.828000009059906,-23.882999420166016 -1.5,-23.211000442504883 -1.5,-22.382999420166016 C-1.5,-22.382999420166016 -1.5,22.382999420166016 -1.5,22.382999420166016 C-1.5,23.211000442504883 -0.828000009059906,23.882999420166016 0,23.882999420166016 C0.828000009059906,23.882999420166016 1.5,23.211000442504883 1.5,22.382999420166016 C1.5,22.382999420166016 1.5,-22.382999420166016 1.5,-22.382999420166016 C1.5,-23.211000442504883 0.828000009059906,-23.882999420166016 0,-23.882999420166016"></path>
      </g>
      <g transform="matrix(1,0,0,1,138.4980010986328,40.33300018310547)">
        <path fill="rgb(0,0,0)"  d=" M23.04800033569336,-1.7649999856948853 C23.027999877929688,-20.972000122070312 7.466000080108643,-36.53900146484375 -11.741000175476074,-36.564998626708984 C-14.208999633789062,-36.569000244140625 -16.670000076293945,-36.30699920654297 -19.08099937438965,-35.78300094604492 C-19.08099937438965,-35.78300094604492 -22.2810001373291,-35.08300018310547 -22.2810001373291,-35.08300018310547 C-22.2810001373291,-35.08300018310547 -19.093000411987305,-34.32500076293945 -19.093000411987305,-34.32500076293945 C-1.2079999446868896,-30.024999618530273 9.805000305175781,-12.039999961853027 5.505000114440918,5.84499979019165 C2.5139999389648438,18.284000396728516 -7.336999893188477,27.910999298095703 -19.840999603271484,30.61400032043457 C-19.840999603271484,30.61400032043457 -23.05299949645996,31.30500030517578 -23.05299949645996,31.30500030517578 C-23.05299949645996,31.30500030517578 -19.858999252319336,32.07500076293945 -19.858999252319336,32.07500076293945 C-1.187999963760376,36.569000244140625 17.590999603271484,25.076000213623047 22.084999084472656,6.406000137329102 C22.72800064086914,3.7300000190734863 23.05299949645996,0.9879999756813049 23.049999237060547,-1.7640000581741333"></path>
      </g>
      <g transform="matrix(1,0,0,1,80.75800323486328,38.72600173950195)">
        <path fill="rgb(0,0,0)"  d=" M-4.660999774932861,0.019999999552965164 C-4.605999946594238,-15.642000198364258 6.307000160217285,-29.16900062561035 21.60300064086914,-32.53499984741211 C21.60300064086914,-32.53499984741211 24.81599998474121,-33.22600173950195 24.81599998474121,-33.22600173950195 C24.81599998474121,-33.22600173950195 21.617000579833984,-33.99599838256836 21.617000579833984,-33.99599838256836 C2.927000045776367,-38.47600173950195 -15.857000350952148,-26.957000732421875 -20.336999893188477,-8.265999794006348 C-24.816999435424805,10.423999786376953 -13.29699993133545,29.207000732421875 5.39300012588501,33.6870002746582 C10.463000297546387,34.902000427246094 15.741000175476074,34.9630012512207 20.83799934387207,33.86399841308594 C20.83799934387207,33.86399841308594 24.038000106811523,33.16400146484375 24.038000106811523,33.16400146484375 C24.038000106811523,33.16400146484375 20.850000381469727,32.40599822998047 20.850000381469727,32.40599822998047 C5.85099983215332,28.854999542236328 -4.7210001945495605,15.434000015258789 -4.660999774932861,0.019999999552965164z"></path>
      </g>
      <g transform="matrix(1,0,0,1,153.43600463867188,119.01599884033203)">
        <path fill="rgb(0,0,0)"  d=" M-11.73900032043457,-34.803001403808594 C-14.206999778747559,-34.805999755859375 -16.66699981689453,-34.54499816894531 -19.07900047302246,-34.02199935913086 C-19.07900047302246,-34.02199935913086 -22.27899932861328,-33.321998596191406 -22.27899932861328,-33.321998596191406 C-22.27899932861328,-33.321998596191406 -19.091999053955078,-32.5620002746582 -19.091999053955078,-32.5620002746582 C-1.2070000171661377,-28.261999130249023 9.805999755859375,-10.277000427246094 5.50600004196167,7.607999801635742 C2.515000104904175,20.047000885009766 -7.335999965667725,29.673999786376953 -19.84000015258789,32.37699890136719 C-19.84000015258789,32.37699890136719 -23.054000854492188,33.06800079345703 -23.054000854492188,33.06800079345703 C-23.054000854492188,33.06800079345703 -19.854000091552734,33.84000015258789 -19.854000091552734,33.84000015258789 C-1.1619999408721924,38.31399917602539 17.617000579833984,26.788000106811523 22.090999603271484,8.097000122070312 C26.565000534057617,-10.595000267028809 15.038999557495117,-29.374000549316406 -3.6519999504089355,-33.847999572753906 C-6.300000190734863,-34.481998443603516 -9.012999534606934,-34.803001403808594 -11.734999656677246,-34.80400085449219"></path>
      </g>
      <g transform="matrix(1,0,0,1,63.41899871826172,117.26300048828125)">
        <path fill="rgb(0,0,0)"  d=" M21.591999053955078,-30.624000549316406 C21.591999053955078,-30.624000549316406 24.80699920654297,-31.315000534057617 24.80699920654297,-31.315000534057617 C24.80699920654297,-31.315000534057617 21.60700035095215,-32.08700180053711 21.60700035095215,-32.08700180053711 C2.9149999618530273,-36.558998107910156 -15.86400032043457,-25.0310001373291 -20.336000442504883,-6.339000225067139 C-24.80699920654297,12.354000091552734 -13.279000282287598,31.131000518798828 5.413000106811523,35.60300064086914 C8.059000015258789,36.236000061035156 10.770000457763672,36.555999755859375 13.489999771118164,36.55799865722656 C15.958000183105469,36.5620002746582 18.420000076293945,36.29999923706055 20.83099937438965,35.777000427246094 C20.83099937438965,35.777000427246094 24.0310001373291,35.07699966430664 24.0310001373291,35.07699966430664 C24.0310001373291,35.07699966430664 20.8439998626709,34.31700134277344 20.8439998626709,34.31700134277344 C2.9590001106262207,30.017000198364258 -8.055000305175781,12.031999588012695 -3.755000114440918,-5.853000164031982 C-0.7639999985694885,-18.29199981689453 9.086999893188477,-27.91900062561035 21.590999603271484,-30.621999740600586"></path>
      </g>
      <g transform="matrix(1,0,0,1,14.88700008392334,40.14699935913086)">
        <path fill="rgb(255,255,255)"  d=" M0,-14.63700008392334 C-8.083999633789062,-14.63700008392334 -14.63700008392334,-8.083999633789062 -14.63700008392334,0 C-14.63700008392334,8.083999633789062 -8.083999633789062,14.63700008392334 0,14.63700008392334 C8.083999633789062,14.63700008392334 14.63700008392334,8.083999633789062 14.63700008392334,0 C14.628000259399414,-8.079999923706055 8.079999923706055,-14.628000259399414 0,-14.63700008392334z"></path>
      </g>
      <g transform="matrix(1,0,0,1,14.88700008392334,78.79199981689453)">
        <path fill="rgb(255,255,255)"  d=" M0,-14.63700008392334 C-8.083999633789062,-14.63700008392334 -14.63700008392334,-8.083999633789062 -14.63700008392334,0 C-14.63700008392334,8.083999633789062 -8.083999633789062,14.63700008392334 0,14.63700008392334 C8.083000183105469,14.63700008392334 14.63599967956543,8.083999633789062 14.63700008392334,0.0010000000474974513 C14.628000259399414,-8.079000473022461 8.079999923706055,-14.626999855041504 0,-14.63700008392334z"></path>
      </g>
      <g transform="matrix(1,0,0,1,14.88700008392334,117.43800354003906)">
        <path fill="rgb(255,255,255)"  d=" M0,-14.63700008392334 C-8.083999633789062,-14.63700008392334 -14.63700008392334,-8.083999633789062 -14.63700008392334,0 C-14.63700008392334,8.083999633789062 -8.083999633789062,14.63700008392334 0,14.63700008392334 C8.083000183105469,14.63700008392334 14.63599967956543,8.083999633789062 14.63700008392334,0.0010000000474974513 C14.628000259399414,-8.079000473022461 8.079999923706055,-14.626999855041504 0,-14.63700008392334z"></path>
      </g>
    </g>
  </g>
</svg>
