<svg xmlns="http://www.w3.org/2000/svg" viewBox="0 0 160 232"><path d="M28.6261,215.434l-.5831,4.3309a4.7653,4.7653,0,0,0,.5831-4.3309Z" fill="#d7c6ba"/><path d="M27.0145,227.4031l-.3228,2.3977H28.661A4.8932,4.8932,0,0,0,27.0145,227.4031Z" fill="#d7c6ba"/><path d="M40.0024,183.5684a4.9176,4.9176,0,1,0,4.9258,4.9176A4.9218,4.9218,0,0,0,40.0024,183.5684Z" fill="#d7c6ba"/><path d="M40.0024,197.8217a4.9176,4.9176,0,1,0,4.9258,4.9178A4.9219,4.9219,0,0,0,40.0024,197.8217Z" fill="#d7c6ba"/><path d="M40.0024,212.0753a4.9176,4.9176,0,1,0,4.9258,4.9175A4.9217,4.9217,0,0,0,40.0024,212.0753Z" fill="#d7c6ba"/><path d="M40.0024,226.33a4.9086,4.9086,0,0,0-4.6842,3.471h9.3684A4.9087,4.9087,0,0,0,40.0024,226.33Z" fill="#d7c6ba"/><ellipse cx="54.931" cy="188.486" rx="4.9176" ry="4.9259" transform="translate(-133.6553 243.0715) rotate(-89.895)" fill="#d7c6ba"/><path d="M64.9348,188.486a4.9182,4.9182,0,0,0,9.6916,1.1842L71.05,183.7293a4.8725,4.8725,0,0,0-6.1152,4.7567Z" fill="#d7c6ba"/><path d="M54.931,197.8217a4.9176,4.9176,0,1,0,4.9259,4.9178A4.9218,4.9218,0,0,0,54.931,197.8217Z" fill="#d7c6ba"/><path d="M50.5841,214.6789a4.8841,4.8841,0,0,0-.5819,2.3129l.0009.001a4.9173,4.9173,0,0,0,2.567,4.3146,9.3135,9.3135,0,0,1-1.274-5.4067C51.3761,215.4206,51.0651,215.0292,50.5841,214.6789Z" fill="#d7c6ba"/><path d="M54.931,226.33a4.9087,4.9087,0,0,0-4.6842,3.471h9.3684A4.9086,4.9086,0,0,0,54.931,226.33Z" fill="#d7c6ba"/><path d="M69.8607,197.8217a4.9176,4.9176,0,1,0,4.9258,4.9178A4.9219,4.9219,0,0,0,69.8607,197.8217Z" fill="#d7c6ba"/><path d="M69.86,212.0774a2.2777,2.2777,0,0,0-.3709.02v9.791a2.3234,2.3234,0,0,0,.3709.02,4.9155,4.9155,0,1,0,0-9.831Z" fill="#d7c6ba"/><path d="M69.8607,226.33a4.9085,4.9085,0,0,0-4.6842,3.471h9.3683A4.9085,4.9085,0,0,0,69.8607,226.33Z" fill="#d7c6ba"/><path d="M84.79,197.8217a4.9219,4.9219,0,0,0-4.9259,4.9178v.001a4.9216,4.9216,0,0,0,4.9259,4.9173v-.001a4.9176,4.9176,0,1,0,0-9.8351Z" fill="#d7c6ba"/><ellipse cx="84.7903" cy="216.9928" rx="4.9259" ry="4.9176" fill="#d7c6ba"/><path d="M84.79,226.33a4.9085,4.9085,0,0,0-4.6842,3.471h9.3684A4.9087,4.9087,0,0,0,84.79,226.33Z" fill="#d7c6ba"/><ellipse cx="99.7199" cy="188.486" rx="4.9259" ry="4.9176" fill="#d7c6ba"/><path d="M99.72,197.8217a4.9176,4.9176,0,1,0,4.9259,4.9178A4.9219,4.9219,0,0,0,99.72,197.8217Z" fill="#d7c6ba"/><ellipse cx="99.7199" cy="216.9928" rx="4.9259" ry="4.9176" fill="#d7c6ba"/><path d="M99.72,226.33a4.9086,4.9086,0,0,0-4.6842,3.471h9.3684A4.9085,4.9085,0,0,0,99.72,226.33Z" fill="#d7c6ba"/><ellipse cx="114.6496" cy="188.486" rx="4.9259" ry="4.9176" fill="#d7c6ba"/><path d="M114.65,197.8217a4.9176,4.9176,0,1,0,4.926,4.9178A4.9218,4.9218,0,0,0,114.65,197.8217Z" fill="#d7c6ba"/><ellipse cx="114.6496" cy="216.9928" rx="4.9259" ry="4.9176" fill="#d7c6ba"/><path d="M114.65,226.33a4.9086,4.9086,0,0,0-4.6841,3.471h9.3684A4.9087,4.9087,0,0,0,114.65,226.33Z" fill="#d7c6ba"/><path d="M124.6533,188.486a4.8948,4.8948,0,0,0,7.0794,4.4031L130.488,183.66a4.8929,4.8929,0,0,0-5.8347,4.8262Z" fill="#d7c6ba"/><path d="M124.6533,202.74a4.911,4.911,0,0,0,8.8113,2.99l-.931-6.9034a4.9055,4.9055,0,0,0-7.88,3.9129Z" fill="#d7c6ba"/><path d="M114.65,179.2119a4.9181,4.9181,0,1,0-1.4236-9.6016,11.7934,11.7934,0,0,1-3.4546,4.2137c-.0152.157-.0476.3093-.0476.47A4.9216,4.9216,0,0,0,114.65,179.2119Z" fill="#d7c6ba"/><path d="M124.6533,174.2944a4.9216,4.9216,0,0,0,4.9259,4.9175c.1044,0,.202-.0243.3048-.0307l-1.3084-9.701A4.92,4.92,0,0,0,124.6533,174.2944Z" fill="#d7c6ba"/><path d="M40.0024,169.3768a4.9176,4.9176,0,1,0,4.9258,4.9176A4.9218,4.9218,0,0,0,40.0024,169.3768Z" fill="#d7c6ba"/><ellipse cx="129.5792" cy="216.9928" rx="4.9259" ry="4.9176" fill="#d7c6ba"/><path d="M129.5792,226.33a4.9086,4.9086,0,0,0-4.6842,3.471h9.3684A4.9086,4.9086,0,0,0,129.5792,226.33Z" fill="#d7c6ba"/><path d="M107.7127,182.8217v2.5856h8.5438c-.043.6708-.517,3.8443-5.5219,9.0933l-.582.6109.749-.3883a18.6223,18.6223,0,0,0,9.2-11.7318l.034-.1687Z"/><path d="M113.9536,192.9882a6.4516,6.4516,0,0,0-1.384.1468l-.6.1317.6.1418a6.2649,6.2649,0,0,1-.141,12.219l-.606.13.6.1448a6.5483,6.5483,0,1,0,1.53-12.9158"/><path d="M110.4706,199.6438a2.7543,2.7543,0,1,0,2.759,2.7541A2.7567,2.7567,0,0,0,110.4706,199.6438Z" fill="#fff"/><path d="M42.8893,182.8217v2.5856h8.5418c-.043.6708-.517,3.8443-5.5209,9.0933l-.5809.6109.7479-.3883a18.6223,18.6223,0,0,0,9.2-11.7318l.034-.1687Z"/><path d="M49.1382,192.9882a6.4523,6.4523,0,0,0-1.384.1468l-.6.1317.6.1418a6.2649,6.2649,0,0,1-.141,12.219l-.606.13.6.1448a6.5483,6.5483,0,1,0,1.53-12.9158"/><path d="M45.6542,199.6438a2.7543,2.7543,0,1,0,2.759,2.7541A2.7567,2.7567,0,0,0,45.6542,199.6438Z" fill="#fff"/><path d="M136.551,231.3072a1.5548,1.5548,0,0,0,.2-.013,1.4979,1.4979,0,0,0,1.2912-1.68l-.0012-.0089-8.4-62.2927a1.5038,1.5038,0,0,0-2.981.3993l8.4,62.2927a1.4993,1.4993,0,0,0,1.488,1.2978"/><path d="M26.8567,231.3072a1.4991,1.4991,0,0,0,1.488-1.2978l8.4-62.2927a1.5038,1.5038,0,0,0-2.981-.3993h0l-8.4,62.2927a1.4979,1.4979,0,0,0,1.2811,1.6879l.0089.0012a1.5548,1.5548,0,0,0,.2.013"/><path d="M81.91,184.6186a14.5162,14.5162,0,0,0,11.2517-5.3258,14.3846,14.3846,0,0,0,7.7648,2.2461,14.5493,14.5493,0,0,0,14.07-10.8313,14.538,14.538,0,0,0,19.5076-12.7431,14.3447,14.3447,0,0,0,4.1129.599,14.5272,14.5272,0,0,0,11.9-22.8986,14.5093,14.5093,0,0,0,4.55-24.5067,14.5054,14.5054,0,0,0-4.9128-24.6246,14.5343,14.5343,0,0,0-17.2-22.2178,1.5032,1.5032,0,1,0,1.168,2.77,11.522,11.522,0,0,1,12.2,19.1879,1.497,1.497,0,0,0,.79,2.6035,11.5062,11.5062,0,0,1,4.6569,21.0288,1.4962,1.4962,0,0,0,0,2.51,11.5127,11.5127,0,0,1-4.18,20.9559,1.4965,1.4965,0,0,0-.788,2.5346,11.52,11.52,0,0,1-13.1836,18.5041,1.4991,1.4991,0,0,0-2.151,1.5025A11.5427,11.5427,0,0,1,114.58,167.25a1.4994,1.4994,0,0,0-2.2,1.1481,11.5382,11.5382,0,0,1-18.62,7.6488,1.5018,1.5018,0,0,0-2.1082.2352q-.0451.0565-.0848.1172a11.5428,11.5428,0,0,1-21.1995-6.3042,1.5045,1.5045,0,0,0-3.0089,0h0a14.5593,14.5593,0,0,0,14.5547,14.53"/><path d="M81.4974,184.6186a14.5593,14.5593,0,0,0,14.5556-14.53,1.5045,1.5045,0,0,0-3.0089,0,11.5455,11.5455,0,0,1-21.2055,6.3042,1.5015,1.5015,0,0,0-2.0756-.4371q-.0606.04-.1173.0847a11.5383,11.5383,0,0,1-18.6206-7.6488,1.5008,1.5008,0,0,0-2.2-1.1481,11.4136,11.4136,0,0,1-5.4,1.3407,11.55,11.55,0,0,1-11.5467-11.5261c0-.3893.022-.7737.059-1.154a1.5049,1.5049,0,0,0-2.1519-1.4974A11.5225,11.5225,0,0,1,16.602,135.9015a1.4971,1.4971,0,0,0-.788-2.5346,11.5107,11.5107,0,0,1-4.1729-20.9589,1.4963,1.4963,0,0,0,0-2.51A11.5083,11.5083,0,0,1,16.298,88.87a1.4966,1.4966,0,0,0,.7889-2.6035,11.5259,11.5259,0,0,1,12.1968-19.18A1.5021,1.5021,0,1,0,30.4556,64.32,14.5262,14.5262,0,0,0,13.249,86.5346a14.5,14.5,0,0,0-4.91,24.6226,14.5139,14.5139,0,0,0,4.55,24.5067,14.53,14.53,0,0,0,16.0126,22.3006A14.5541,14.5541,0,0,0,48.41,170.7076,14.5494,14.5494,0,0,0,62.4788,181.54a14.3792,14.3792,0,0,0,7.7648-2.2461,14.5192,14.5192,0,0,0,11.2518,5.3218"/><path d="M94.747,26.8733a1.5,1.5,0,0,0,1.4-.9543l7.08-18.031,1.738,17.6277a1.5071,1.5071,0,0,0,3-.2935l-2.3569-23.847a1.5005,1.5005,0,0,0-2.9-.3993l-9.3607,23.845a1.4984,1.4984,0,0,0,1.4,2.05"/><path d="M110.1977,30.1078a.9979.9979,0,0,0,.8259-1.5663c-.1-.1428-2.4359-3.52-5.7908-3.7586a5.9051,5.9051,0,0,0-4.4449,1.7161,7.6239,7.6239,0,0,0-5.1929-1.82,6.5549,6.5549,0,0,0-4.2809,2.1164,1.0019,1.0019,0,0,0,1.537,1.2857,4.5764,4.5764,0,0,1,2.9109-1.4055,6.1588,6.1588,0,0,1,4.4149,1.9237,1.0013,1.0013,0,0,0,1.412-.07,4.3949,4.3949,0,0,1,3.4939-1.748c2.3819.1627,4.2629,2.8621,4.2819,2.889a1,1,0,0,0,.8289.4353"/><path d="M68.6607,26.8733a1.4969,1.4969,0,0,0,1.4-2.05L60.6969.9739a1.5,1.5,0,0,0-2.9.3993l-2.3529,23.85a1.5071,1.5071,0,0,0,3,.2935l1.74-17.63,7.08,18.031a1.5,1.5,0,0,0,1.4.9543"/><path d="M53.21,30.1088a1,1,0,0,0,.8289-.4363c.019-.027,1.9-2.7263,4.2819-2.889a4.3921,4.3921,0,0,1,3.4929,1.748,1.0012,1.0012,0,0,0,1.412.07,6.1536,6.1536,0,0,1,4.4159-1.9236,4.5816,4.5816,0,0,1,2.9139,1.4095,1.0017,1.0017,0,0,0,1.533-1.29,6.5505,6.5505,0,0,0-4.28-2.1164,7.6168,7.6168,0,0,0-5.1939,1.82,5.9053,5.9053,0,0,0-4.4439-1.7161c-3.3549.2376-5.6928,3.6148-5.7908,3.7595a.9986.9986,0,0,0,.828,1.5644"/><path d="M79.85,21.1462a1.5021,1.5021,0,0,0,.954-.3414c.24-.2,6-4.7748,10.4517-.1228a1.5032,1.5032,0,0,0,2.176-2.0744c-5.1079-5.3378-11.7438-2.4159-14.5377-.1228a1.4973,1.4973,0,0,0,.956,2.6624"/><path d="M71.0616,21.1462a1.5013,1.5013,0,0,0,1.088-.4642c4.4469-4.648,10.2117-.0709,10.4547.1258a1.5028,1.5028,0,1,0,1.906-2.324h0c-2.8-2.2961-9.4288-5.216-14.5377.1228a1.4975,1.4975,0,0,0,1.088,2.5386"/><path d="M99.0869,107.4535a.998.998,0,0,0,.865-1.5044c-.067-.1148-6.7108-11.72-6.7108-28.8084a1.003,1.003,0,0,0-2.006,0c0,17.6586,6.7,29.3275,6.9838,29.8167a1,1,0,0,0,.868.4991"/><path d="M64.3208,107.4535a1,1,0,0,0,.867-.4991c.285-.4882,6.9838-12.1581,6.9838-29.8167a1.003,1.003,0,0,0-2.006,0c0,17.0886-6.6438,28.6936-6.7108,28.8084a.9987.9987,0,0,0,.865,1.5044"/><path d="M81.7034,109.7755c-7.4089,0-13.9577,1.3976-13.9577,4.8706s7.9948,7.7108,13.9577,7.7108S95.661,118.12,95.661,114.6461s-6.5488-4.8706-13.9576-4.8706"/><path d="M81.7034,122.859c5.9728,0,14.4606-4.2467,14.4606-8.2129,0-4.8476-10.1128-5.37-14.4606-5.37s-14.46.5231-14.46,5.37c0,3.9652,8.4858,8.2129,14.46,8.2129m0-12.5783c8.3,0,13.4576,1.6741,13.4576,4.3694,0,3.1007-7.6718,7.2116-13.4576,7.2116s-13.4567-4.1109-13.4567-7.2116c0-2.6953,5.1569-4.3694,13.4567-4.3694"/><path d="M81.7034,129.6982a.9991.9991,0,0,0,1-.9983v-6.342a1.003,1.003,0,0,0-2.0059,0v6.34a.9991.9991,0,0,0,1,.9983"/><path d="M65.7238,129.6992h31.96a1.0013,1.0013,0,1,0,0-2.0025h-31.96a1.0013,1.0013,0,1,0,0,2.0025"/><path d="M81.7024,137.6805a21.3583,21.3583,0,1,0-21.3945-21.3582v.001a21.4,21.4,0,0,0,21.3945,21.3572m0-40.2128a18.8546,18.8546,0,1,1-18.8866,18.8546A18.8706,18.8706,0,0,1,81.7024,97.4677"/><path d="M129.3192,64.04a1.4969,1.4969,0,0,0,1.3769-2.1044l-10.1147-23.09c17.6266.6229,26.6683-11.3085,29.1113-22.1219,1.2219-5.4017.908-11.7987-2.666-13.0775-16.4186-5.8928-33.5231,18.7927-34.2441,19.8468a1.5046,1.5046,0,0,0,2.4849,1.6971c.162-.24,16.5-23.8249,30.7433-18.7157.9409.3374,2.0269,3.9292.7479,9.5934-.8279,3.6647-6.0878,21.8215-28.3993,19.6242a1.4974,1.4974,0,0,0-1.5249,2.0964l11.1077,25.3563a1.5,1.5,0,0,0,1.379.8985"/><path d="M34.0875,64.04a1.5,1.5,0,0,0,1.379-.8984L46.5742,37.7855a1.4986,1.4986,0,0,0-1.5249-2.0964C22.7268,37.8933,17.4769,19.73,16.65,16.0649c-1.279-5.6632-.193-9.256.7479-9.5934C31.6336,1.3673,47.9772,24.9486,48.14,25.1872a1.5045,1.5045,0,0,0,2.4849-1.697h0C49.9051,22.436,32.8026-2.25,16.382,3.6413c-3.5729,1.2818-3.8869,7.6788-2.666,13.0775,2.442,10.8124,11.4858,22.7448,29.1113,22.1219L32.7116,61.9349a1.4984,1.4984,0,0,0,1.3769,2.1044"/><path d="M91.1661,216.5776a.998.998,0,0,0,.837-1.55L68.0857,178.6739a1.0023,1.0023,0,0,0-1.677,1.0981l23.9184,36.3544a1.0006,1.0006,0,0,0,.839.4512"/><path d="M81.0594,199.5329a1.0007,1.0007,0,0,0,.7829-.3743L97.323,179.9077a1.003,1.003,0,0,0-1.566-1.2538L80.2814,197.9047a.9984.9984,0,0,0,.781,1.6282"/><path d="M69.4877,232a.9991.9991,0,0,0,1-.9983V211.705l42.121,9.9858a1.0018,1.0018,0,1,0,.466-1.9487L69.72,209.4618a.9989.9989,0,0,0-1.235.9743v20.5646a.9991.9991,0,0,0,1,.9983"/><path d="M86.9592,113.8006a1.8425,1.8425,0,1,1,.003,0h0" fill="#fff"/><polygon points="1.467 185.302 2.322 190.552 4.858 206.142 7.965 225.191 32.51 225.191 35.249 208.195 37.412 208.36 41.194 185.299 1.467 185.302" fill="#fff"/><path d="M30.0867,176.8979H11.9441c-8.6608,0-10.9407,8.4-10.9407,8.4h40.024S38.7474,176.8979,30.0867,176.8979Z" fill="#fff"/><path d="M36.0605,216.8062H48.3442a.9992.9992,0,0,0,1-.9983v-1.4535a1.003,1.003,0,0,0-2.006,0v.4522h-10.1l1.62-9.9259a1.0034,1.0034,0,0,0-1.9809-.3214L35.07,215.6462a.9995.9995,0,0,0,.99,1.162"/><path d="M27.8507,206.9531h9.8157a1.0013,1.0013,0,1,0,0-2.0025H27.8507a1.0013,1.0013,0,1,0,0,2.0025"/><path d="M26.3507,180.5836a.7537.7537,0,0,0,.5-.1937c1.881-1.6971.7-3.3941-.078-4.5192-.959-1.38-1.291-1.98.137-2.9779a.7512.7512,0,1,0-.863-1.23c-2.7119,1.8968-1.335,3.8774-.511,5.0623.912,1.3128,1.136,1.7969.306,2.5486a.7507.7507,0,0,0,.5,1.3088"/><path d="M21.2138,180.5836a.7537.7537,0,0,0,.5-.1937c1.881-1.6971.7-3.3941-.077-4.5192-.9589-1.38-1.2909-1.98.136-2.9779a.7506.7506,0,1,0-.8609-1.23c-2.712,1.8968-1.335,3.8774-.513,5.0623.913,1.3128,1.136,1.7969.306,2.5486a.7507.7507,0,0,0,.5,1.3088"/><path d="M16.081,180.5836a.7539.7539,0,0,0,.5-.1937c1.8809-1.6971.7-3.3941-.078-4.5192-.958-1.38-1.29-1.98.1369-2.9779a.7511.7511,0,0,0-.8619-1.23c-2.712,1.8968-1.335,3.8774-.511,5.0623.913,1.3128,1.136,1.7969.306,2.5486a.7507.7507,0,0,0,.5,1.3088"/><path d="M1.0043,186.3007H41.0294a.9978.9978,0,0,0,.9679-1.2638c-.024-.0909-2.5889-9.1393-11.9087-9.1393a1.0013,1.0013,0,1,0,0,2.0026,10.1847,10.1847,0,0,1,9.5,6.398H2.4453a10.1848,10.1848,0,0,1,9.5-6.398,1.0013,1.0013,0,1,0,0-2.0026c-9.32,0-11.8837,9.0484-11.9087,9.1393a.9991.9991,0,0,0,.9679,1.2638"/><path d="M7.5,226.192H32.0386a1,1,0,0,0,.99-.8435L35.58,209.361H47.3422v1.9646a1.003,1.003,0,0,0,2.0059,0V208.36a.9991.9991,0,0,0-1-.9982h-13.62a1,1,0,0,0-.991.8425l-2.5519,15.9885H8.3552L2.1823,186.3057H39.8484L37.4485,201h-15.43V190.9637a1.003,1.003,0,0,0-2.0059,0v11.039a.9992.9992,0,0,0,1,.9983H38.3014a1,1,0,0,0,.99-.84l2.723-16.6982a.9993.9993,0,0,0-.99-1.161H1.0043a.998.998,0,0,0-.9909,1.161l6.5,39.89a1,1,0,0,0,.99.84"/><path d="M4.8592,207.1408h.0631l2.9949-.1877a1,1,0,1,0-.125-1.9965l-2.9949.1877a.9987.9987,0,1,0,.0619,1.9965"/><path d="M68.5977,230.9378a1.25,1.25,0,0,0,1.026-1.9676,20.0616,20.0616,0,0,0-2.022-2.3769c-2.4-2.4078-4.6539-3.455-6.7138-3.1066-3.3669.559-5.8-.3884-7.2278-2.8062-.015-.0269-.033-.0549-.051-.0808a8.175,8.175,0,0,1-1.076-4.4923,2.4386,2.4386,0,0,0-1.208-2.44,11.4115,11.4115,0,0,0-1.6-.8985c-.2-.1-.446-.2206-.666-.3394a28.2239,28.2239,0,0,1,5.3258-1.9866,14.6193,14.6193,0,0,1,13.7377,2.5277,1.2527,1.2527,0,1,0,1.528-1.9856h0a17.2225,17.2225,0,0,0-15.9876-2.9389c-6.1769,1.8578-7.4079,2.9319-7.5219,4.2656-.119,1.4166,1.256,2.0964,2.468,2.6954a9.764,9.764,0,0,1,1.2429.6868,1.7226,1.7226,0,0,1,.186.1537,10.7377,10.7377,0,0,0,1.451,6.09c.019.0319.039.0629.061.0928,1.16,1.9167,3.9409,4.88,9.7488,3.92,1.1719-.2,2.7839.6549,4.5218,2.3959a18.0443,18.0443,0,0,1,1.748,2.0485,1.2546,1.2546,0,0,0,1.028.5341"/><path d="M60.45,64.7975a8.1292,8.1292,0,1,1-8.135-8.1088h.0059A8.1219,8.1219,0,0,1,60.45,64.7975" fill="#d4d5d5"/><path d="M60.45,64.7955a8.1311,8.1311,0,0,1-16.26.2531q-.0021-.1266,0-.2531a25.28,25.28,0,0,1,16.26,0" fill="#fff"/><path d="M57.6229,64.7877a5.3018,5.3018,0,1,1-5.3018-5.2924h0a5.2971,5.2971,0,0,1,5.3018,5.2924" fill="#302d2c"/><path d="M57.5578,64a25.4015,25.4015,0,0,0-5.45-.5452,24.7347,24.7347,0,0,0-5.0218.5531,5.2953,5.2953,0,0,1,10.4715,0"/><path d="M52.3211,56.1828a8.6147,8.6147,0,1,1-8.63,8.6147A8.6223,8.6223,0,0,1,52.3211,56.1828Zm0,16.23a7.6148,7.6148,0,1,0-7.6264-7.6168v.002A7.6294,7.6294,0,0,0,52.3211,72.4123Z"/><path d="M50.8877,60.8454a1.8511,1.8511,0,1,1,0-.0019v.0019" fill="#fff"/><path d="M119.2141,64.7983A8.1285,8.1285,0,1,1,111.08,56.69h.0059a8.1214,8.1214,0,0,1,8.1285,8.1082" fill="#d4d5d5"/><path d="M119.2141,64.7963a8.13,8.13,0,0,1-16.2589.253q-.002-.1264,0-.253a25.277,25.277,0,0,1,16.2589,0" fill="#fff"/><path d="M116.387,64.7884a5.3014,5.3014,0,1,1-5.3014-5.2919h0a5.2967,5.2967,0,0,1,5.3014,5.2919" fill="#302d2c"/><path d="M116.3219,64.0012a25.39,25.39,0,0,0-5.4492-.5451,24.7236,24.7236,0,0,0-5.0214.553,5.2948,5.2948,0,0,1,10.4706,0"/><path d="M111.0856,56.1843a8.614,8.614,0,1,1-8.6292,8.6139A8.6216,8.6216,0,0,1,111.0856,56.1843Zm0,16.2281a7.6142,7.6142,0,1,0-7.6257-7.6161v.0019A7.6287,7.6287,0,0,0,111.0856,72.4124Z"/><path d="M109.6523,60.8465a1.8509,1.8509,0,1,1,0-.002v.002" fill="#fff"/></svg>